<svg xmlns="http://www.w3.org/2000/svg" xmlns:xlink="http://www.w3.org/1999/xlink" width="376" height="344" viewBox="0 0 376 344">
  <defs>
    <linearGradient id="linear-gradient" x1="0.586" y1="0.431" x2="2.952" y2="-0.725" gradientUnits="objectBoundingBox">
      <stop offset="0" stop-color="#a9c5db"/>
      <stop offset="0.996" stop-color="#0b5999"/>
    </linearGradient>
    <filter id="Rect치ngulo_300539" x="0" y="0" width="376" height="344" filterUnits="userSpaceOnUse">
      <feOffset dy="3" input="SourceAlpha"/>
      <feGaussianBlur stdDeviation="3" result="blur"/>
      <feFlood flood-opacity="0.161"/>
      <feComposite operator="in" in2="blur"/>
      <feComposite in="SourceGraphic"/>
    </filter>
    <clipPath id="clip-path">
      <path id="Trazado_622920" data-name="Trazado 622920" d="M393.7,1260.692c21.37-10.809,29.028-40.22,21.179-49.807-4.083-4.986-10.671-2.546-14.187-8.295-3.895-6.371,2.266-12.514,4.061-27.976.928-7.989,2.609-22.476-4.915-28.967-7.461-6.436-16.537,1.409-24.947-5.073-7.953-6.129-2.861-15.472-11.991-26.445-.849-1.02-10.543-12.389-20.2-10.133-9.807,2.292-16.109,17.837-13.087,28.813,2.747,9.972,12.381,13.243,10.884,18.574-1.65,5.877-13.891,3.831-16.165,9.7-3.288,8.49,19.89,18.96,18.085,32.955-1.062,8.229-9.551,8.3-13.138,18.308-4.629,12.918,3.831,28.666,12.064,37.214C353.278,1261.952,375.178,1270.06,393.7,1260.692Z" transform="translate(-324.016 -1103.701)" fill="url(#linear-gradient)"/>
    </clipPath>
    <clipPath id="clip-path-2">
      <path id="Trazado_622928" data-name="Trazado 622928" d="M468.337,1308.634c-28.182-13.934-38.588-52.453-28.4-65.133,5.3-6.594,13.978-3.47,18.524-11.059,5.038-8.408-3.124-16.4-5.665-36.677-1.314-10.476-3.694-29.474,6.1-38.084,9.717-8.539,21.725,1.65,32.689-6.96,10.367-8.14,3.57-20.345,15.423-34.858,1.1-1.35,13.693-16.39,26.392-13.545,12.9,2.891,21.361,23.223,17.525,37.669-3.486,13.124-16.095,17.531-14.066,24.514,2.237,7.7,18.282,4.861,21.337,12.546,4.418,11.107-25.882,25.128-23.345,43.479,1.492,10.79,15.3,11.686,13.256,25.495-3.3,22.257-7.741,27.594-18.448,38.913C514.151,1301.338,492.764,1320.711,468.337,1308.634Z" transform="translate(-436.113 -1101.96)" fill="#d8dee8"/>
    </clipPath>
    <linearGradient id="linear-gradient-3" x1="-0.538" y1="-0.982" x2="1.171" y2="1.492" gradientUnits="objectBoundingBox">
      <stop offset="0" stop-color="#06355c"/>
      <stop offset="1" stop-color="#8f2448"/>
    </linearGradient>
    <linearGradient id="linear-gradient-4" x1="0.243" y1="0.001" x2="0.685" y2="1.487" xlink:href="#linear-gradient"/>
    <linearGradient id="linear-gradient-5" x1="0.525" y1="3.978" x2="0.482" y2="-1.365" xlink:href="#linear-gradient"/>
    <linearGradient id="linear-gradient-6" x1="-95.991" y1="3.434" x2="-94.971" y2="3.434" xlink:href="#linear-gradient"/>
    <linearGradient id="linear-gradient-7" x1="-92.083" y1="3.494" x2="-91.063" y2="3.494" xlink:href="#linear-gradient"/>
    <linearGradient id="linear-gradient-8" x1="-15.507" y1="0.826" x2="-14.492" y2="0.826" gradientUnits="objectBoundingBox">
      <stop offset="0" stop-color="#444b8c"/>
      <stop offset="0.996" stop-color="#26264f"/>
    </linearGradient>
    <linearGradient id="linear-gradient-9" x1="-16.001" y1="0.758" x2="-15.004" y2="0.758" xlink:href="#linear-gradient-8"/>
    <linearGradient id="linear-gradient-10" x1="-31.518" y1="1.799" x2="-35.785" y2="0.28" gradientUnits="objectBoundingBox">
      <stop offset="0" stop-color="#311944"/>
      <stop offset="1" stop-color="#6b3976"/>
    </linearGradient>
    <linearGradient id="linear-gradient-11" x1="-9.64" y1="0.02" x2="-8.588" y2="0.47" gradientUnits="objectBoundingBox">
      <stop offset="0" stop-color="#ffc444"/>
      <stop offset="0.996" stop-color="#f36f56"/>
    </linearGradient>
    <linearGradient id="linear-gradient-12" x1="-10.153" y1="1.028" x2="-11.63" y2="0.189" xlink:href="#linear-gradient-10"/>
    <linearGradient id="linear-gradient-13" x1="-9.671" y1="0.333" x2="-8.721" y2="1.033" xlink:href="#linear-gradient-11"/>
    <linearGradient id="linear-gradient-14" x1="66.334" y1="-5.764" x2="66.411" y2="-7.555" xlink:href="#linear-gradient-11"/>
    <linearGradient id="linear-gradient-15" x1="-53.02" y1="1.387" x2="-52.935" y2="-0.404" xlink:href="#linear-gradient-11"/>
    <linearGradient id="linear-gradient-16" x1="100.5" y1="-3.509" x2="100.452" y2="-0.486" xlink:href="#linear-gradient-11"/>
    <linearGradient id="linear-gradient-17" x1="-73.112" y1="4.838" x2="-82.967" y2="-0.102" xlink:href="#linear-gradient-10"/>
    <linearGradient id="linear-gradient-18" x1="-80.851" y1="0.114" x2="-79.967" y2="1.796" xlink:href="#linear-gradient-11"/>
    <linearGradient id="linear-gradient-19" x1="-9.723" y1="0.189" x2="-8.773" y2="1.105" xlink:href="#linear-gradient-11"/>
    <linearGradient id="linear-gradient-20" x1="-44.907" y1="11.814" x2="-43.715" y2="12.838" xlink:href="#linear-gradient-11"/>
    <linearGradient id="linear-gradient-21" x1="36.454" y1="1.503" x2="38.798" y2="2.628" xlink:href="#linear-gradient-11"/>
    <linearGradient id="linear-gradient-22" x1="0.231" y1="0.076" x2="1.139" y2="1.461" xlink:href="#linear-gradient"/>
    <linearGradient id="linear-gradient-23" x1="0.292" y1="0.023" x2="0.709" y2="0.976" xlink:href="#linear-gradient-10"/>
    <linearGradient id="linear-gradient-24" x1="1.266" y1="2.068" x2="0.152" y2="-0.287" xlink:href="#linear-gradient-3"/>
    <linearGradient id="linear-gradient-25" x1="31.106" y1="0.575" x2="29.385" y2="0.428" xlink:href="#linear-gradient-3"/>
    <linearGradient id="linear-gradient-26" x1="0.543" y1="6.991" x2="0.496" y2="-0.05" xlink:href="#linear-gradient-3"/>
    <linearGradient id="linear-gradient-27" x1="-3.938" y1="0.5" x2="-2.788" y2="0.5" gradientUnits="objectBoundingBox">
      <stop offset="0" stop-color="#f57e53"/>
      <stop offset="0.005" stop-color="#f58152"/>
      <stop offset="0.042" stop-color="#f8994d"/>
      <stop offset="0.084" stop-color="#fbac49"/>
      <stop offset="0.133" stop-color="#fdb946"/>
      <stop offset="0.196" stop-color="#fec144"/>
      <stop offset="0.318" stop-color="#ffc444"/>
      <stop offset="0.455" stop-color="#fdb946"/>
      <stop offset="0.694" stop-color="#f99c4c"/>
      <stop offset="0.996" stop-color="#f36f56"/>
    </linearGradient>
    <linearGradient id="linear-gradient-28" x1="-3.358" y1="0.179" x2="-3.297" y2="4.091" gradientUnits="objectBoundingBox">
      <stop offset="0" stop-color="#ffdb44"/>
      <stop offset="1" stop-color="#feef06"/>
    </linearGradient>
    <linearGradient id="linear-gradient-29" x1="-3.358" y1="-0.777" x2="-3.339" y2="1.295" xlink:href="#linear-gradient-28"/>
    <linearGradient id="linear-gradient-30" x1="-14.147" y1="47.441" x2="-14.128" y2="49.872" gradientUnits="objectBoundingBox">
      <stop offset="0.004" stop-color="#f36f56"/>
      <stop offset="0.306" stop-color="#f99c4c"/>
      <stop offset="0.545" stop-color="#fdb946"/>
      <stop offset="0.682" stop-color="#ffc444"/>
      <stop offset="0.804" stop-color="#fec144"/>
      <stop offset="0.867" stop-color="#fdb946"/>
      <stop offset="0.916" stop-color="#fbac49"/>
      <stop offset="0.958" stop-color="#f8994d"/>
      <stop offset="0.995" stop-color="#f58152"/>
      <stop offset="1" stop-color="#f57e53"/>
    </linearGradient>
    <linearGradient id="linear-gradient-31" x1="-3.938" y1="0.5" x2="-2.788" y2="0.5" xlink:href="#linear-gradient-27"/>
    <linearGradient id="linear-gradient-32" x1="-3.357" y1="0.179" x2="-3.297" y2="4.091" xlink:href="#linear-gradient-28"/>
    <linearGradient id="linear-gradient-33" x1="-3.358" y1="-0.777" x2="-3.339" y2="1.296" xlink:href="#linear-gradient-28"/>
    <linearGradient id="linear-gradient-34" x1="-13.865" y1="51.086" x2="-13.847" y2="53.518" xlink:href="#linear-gradient-30"/>
    <linearGradient id="linear-gradient-36" x1="-3.358" y1="0.179" x2="-3.297" y2="4.091" xlink:href="#linear-gradient-28"/>
    <linearGradient id="linear-gradient-37" x1="-3.358" y1="-0.777" x2="-3.339" y2="1.295" xlink:href="#linear-gradient-28"/>
    <linearGradient id="linear-gradient-38" x1="-14.109" y1="54.732" x2="-14.09" y2="57.164" xlink:href="#linear-gradient-30"/>
    <linearGradient id="linear-gradient-42" x1="-14.256" y1="58.366" x2="-14.237" y2="60.797" xlink:href="#linear-gradient-30"/>
    <linearGradient id="linear-gradient-43" x1="50.376" y1="-2.498" x2="51.309" y2="1.358" xlink:href="#linear-gradient-11"/>
    <linearGradient id="linear-gradient-44" x1="-4.973" y1="-9.735" x2="-3.598" y2="-8.294" xlink:href="#linear-gradient-3"/>
    <linearGradient id="linear-gradient-45" x1="-13.306" y1="-4.701" x2="-11.984" y2="-3.36" xlink:href="#linear-gradient-3"/>
    <linearGradient id="linear-gradient-46" x1="-13.307" y1="-4.701" x2="-11.984" y2="-3.36" xlink:href="#linear-gradient-3"/>
    <linearGradient id="linear-gradient-47" x1="-5.698" y1="-10.358" x2="-4.292" y2="-9.022" xlink:href="#linear-gradient-3"/>
  </defs>
  <g id="Grupo_895214" data-name="Grupo 895214" transform="translate(-1011 -3239)">
    <g id="Grupo_894049" data-name="Grupo 894049" transform="translate(1020 3245)">
      <g transform="matrix(1, 0, 0, 1, -9, -6)" filter="url(#Rect치ngulo_300539)">
        <rect id="Rect치ngulo_300539-2" data-name="Rect치ngulo 300539" width="358" height="326" rx="20" transform="translate(9 6)" fill="#fff"/>
      </g>
    </g>
    <g id="Grupo_894560" data-name="Grupo 894560" transform="translate(744.863 2193.318)">
      <path id="Trazado_622912" data-name="Trazado 622912" d="M429.842,1346.741c-72.934-11.044-132.205-80-121.437-156.647,9.187-65.366,66.5-116.234,135.219-121.038q7.464-.523,15.09-.309a150.174,150.174,0,0,1,97.6,39.648c25.076,23.093,41.366,53.982,44.333,86.389C608.541,1281,520.557,1360.479,429.842,1346.741Z" transform="translate(0 0)" fill="#f4f7fa"/>
      <g id="Grupo_894539" data-name="Grupo 894539" transform="translate(328.712 1111.221)">
        <g id="Grupo_894531" data-name="Grupo 894531" transform="translate(0 2.225)">
          <g id="Grupo_894530" data-name="Grupo 894530">
            <path id="Trazado_622913" data-name="Trazado 622913" d="M393.7,1260.692c21.37-10.809,29.028-40.22,21.179-49.807-4.083-4.986-10.671-2.546-14.187-8.295-3.895-6.371,2.266-12.514,4.061-27.976.928-7.989,2.609-22.476-4.915-28.967-7.461-6.436-16.537,1.409-24.947-5.073-7.953-6.129-2.861-15.472-11.991-26.445-.849-1.02-10.543-12.389-20.2-10.133-9.807,2.292-16.109,17.837-13.087,28.813,2.747,9.972,12.381,13.243,10.884,18.574-1.65,5.877-13.891,3.831-16.165,9.7-3.288,8.49,19.89,18.96,18.085,32.955-1.062,8.229-9.551,8.3-13.138,18.308-4.629,12.918,3.831,28.666,12.064,37.214C353.278,1261.952,375.178,1270.06,393.7,1260.692Z" transform="translate(-324.016 -1103.701)" fill="url(#linear-gradient)"/>
            <g id="Grupo_894529" data-name="Grupo 894529" clip-path="url(#clip-path)">
              <g id="Grupo_894528" data-name="Grupo 894528" transform="translate(-9.571 -7.355)" opacity="0.7" style="mix-blend-mode: soft-light;isolation: isolate">
                <path id="Trazado_622914" data-name="Trazado 622914" d="M379.445,1273.632l.757-.068a649,649,0,0,0-12.2-81.573,410.672,410.672,0,0,0-15.68-54.339c-10.254-27.555-19.239-39.588-19.329-39.705l-.606.458c.089.117,9.025,12.092,19.242,39.563C361.061,1163.325,373.542,1207.445,379.445,1273.632Z" transform="translate(-312.115 -1097.947)" fill="#fff"/>
                <path id="Trazado_622915" data-name="Trazado 622915" d="M348.835,1140.294a83.552,83.552,0,0,0,3.385-42.221l-.74.171a82.737,82.737,0,0,1-3.361,41.8Z" transform="translate(-307.738 -1097.912)" fill="#fff"/>
                <path id="Trazado_622916" data-name="Trazado 622916" d="M361.052,1187.359c15.661-20.286,21.747-35.492,24.094-44.676,2.557-10,1.4-15.13,1.347-15.342l-.739.174c.012.051,1.166,5.211-1.365,15.062-2.339,9.1-8.391,24.18-23.938,44.319Z" transform="translate(-304.306 -1089.768)" fill="#fff"/>
                <path id="Trazado_622917" data-name="Trazado 622917" d="M367.709,1227.845c34.65-28.4,39.979-54.279,40.029-54.536l-.745-.144c-.013.065-1.414,6.768-7.257,16.979-5.145,8.991-14.961,22.73-32.509,37.114Z" transform="translate(-302.421 -1077.017)" fill="#fff"/>
                <path id="Trazado_622918" data-name="Trazado 622918" d="M363.39,1175.341a69.41,69.41,0,0,0,7.718,2.164l.162-.741c-17.374-3.79-31.161-14.137-39.668-22.151a103.333,103.333,0,0,1-14.438-16.647l-.637.414a104.137,104.137,0,0,0,14.554,16.785C338.358,1162.021,349.473,1170.571,363.39,1175.341Z" transform="translate(-316.528 -1086.812)" fill="#fff"/>
                <path id="Trazado_622919" data-name="Trazado 622919" d="M372.725,1217.154q2.013.69,4.131,1.254l.194-.734c-17.922-4.744-30.023-16.895-37.018-26.252a85.509,85.509,0,0,1-11-19.367l-.713.26a86.252,86.252,0,0,0,11.1,19.561C345.942,1200.594,356.849,1211.713,372.725,1217.154Z" transform="translate(-313.247 -1077.325)" fill="#fff"/>
              </g>
            </g>
          </g>
        </g>
        <g id="Grupo_894538" data-name="Grupo 894538" transform="translate(143.29)">
          <g id="Grupo_894536" data-name="Grupo 894536">
            <g id="Grupo_894535" data-name="Grupo 894535">
              <path id="Trazado_622921" data-name="Trazado 622921" d="M468.337,1308.634c-28.182-13.934-38.588-52.453-28.4-65.133,5.3-6.594,13.978-3.47,18.524-11.059,5.038-8.408-3.124-16.4-5.665-36.677-1.314-10.476-3.694-29.474,6.1-38.084,9.717-8.539,21.725,1.65,32.689-6.96,10.367-8.14,3.57-20.345,15.423-34.858,1.1-1.35,13.693-16.39,26.392-13.545,12.9,2.891,21.361,23.223,17.525,37.669-3.486,13.124-16.095,17.531-14.066,24.514,2.237,7.7,18.282,4.861,21.337,12.546,4.418,11.107-25.882,25.128-23.345,43.479,1.492,10.79,15.3,11.686,13.256,25.495-3.3,22.257-7.741,27.594-18.448,38.913C514.151,1301.338,492.764,1320.711,468.337,1308.634Z" transform="translate(-436.113 -1101.96)" fill="#d8dee8"/>
              <g id="Grupo_894534" data-name="Grupo 894534" clip-path="url(#clip-path-2)">
                <g id="Grupo_894533" data-name="Grupo 894533" transform="translate(-2.805 -9.775)" opacity="0.7" style="mix-blend-mode: soft-light;isolation: isolate">
                  <path id="Trazado_622922" data-name="Trazado 622922" d="M473.891,1325.5l-.993-.079a851.931,851.931,0,0,1,15.037-107.232,539.106,539.106,0,0,1,19.933-71.524c13.132-36.3,24.783-52.2,24.9-52.356l.8.594c-.115.156-11.7,15.983-24.785,52.17C496.706,1180.477,480.849,1238.545,473.891,1325.5Z" transform="translate(-423.073 -1094.313)" fill="#d8dee8"/>
                  <path id="Trazado_622923" data-name="Trazado 622923" d="M500.777,1150.086c-10.6-29.01-5.007-55.124-4.949-55.385l.973.216c-.057.257-5.58,26.1,4.912,54.827Z" transform="translate(-417.116 -1094.205)" fill="#d8dee8"/>
                  <path id="Trazado_622924" data-name="Trazado 622924" d="M491.319,1211.961c-20.8-26.443-28.973-46.333-32.165-58.361-3.476-13.1-2.016-19.844-1.953-20.125l.973.221c-.015.066-1.469,6.854,1.972,19.756,3.179,11.921,11.3,31.642,31.957,57.894Z" transform="translate(-427.54 -1083.416)" fill="#d8dee8"/>
                  <path id="Trazado_622925" data-name="Trazado 622925" d="M487.12,1265.155c-45.827-36.873-53.132-70.777-53.2-71.116l.977-.2c.018.084,1.938,8.867,9.729,22.2,6.862,11.743,19.913,29.661,43.121,48.333Z" transform="translate(-433.919 -1066.618)" fill="#d8dee8"/>
                  <path id="Trazado_622926" data-name="Trazado 622926" d="M496.127,1196.28a91.348,91.348,0,0,1-10.107,2.932l-.221-.973c22.763-5.182,40.739-18.931,51.809-29.552a135.676,135.676,0,0,0,18.756-22.027l.841.535a136.816,136.816,0,0,1-18.907,22.21C528.829,1178.491,514.341,1189.85,496.127,1196.28Z" transform="translate(-419.483 -1079.747)" fill="#d8dee8"/>
                  <path id="Trazado_622927" data-name="Trazado 622927" d="M482.638,1251.282q-2.635.93-5.41,1.695l-.263-.961c23.471-6.442,39.211-22.538,48.282-34.905a112.23,112.23,0,0,0,14.207-25.556l.94.334A113.362,113.362,0,0,1,526.05,1217.7C517.6,1229.221,503.414,1243.947,482.638,1251.282Z" transform="translate(-421.941 -1067.255)" fill="#d8dee8"/>
                </g>
              </g>
            </g>
          </g>
        </g>
      </g>
      <g id="Grupo_894544" data-name="Grupo 894544" transform="translate(369.563 1087.831)">
        <path id="Trazado_622929" data-name="Trazado 622929" d="M521.983,1317.361a4.9,4.9,0,0,1-4.451,4.975l-156.354,8.122a4.865,4.865,0,0,1-5.2-4.873V1093.615a4.813,4.813,0,0,1,5.2-4.825l2.094-.111,154.26,9.651a4.959,4.959,0,0,1,4.451,5.016Z" transform="translate(-355.974 -1082.267)" fill="url(#linear-gradient-3)"/>
        <path id="Trazado_622930" data-name="Trazado 622930" d="M524.392,1317.255a4.9,4.9,0,0,1-4.45,4.975l-156.354,8.121a4.863,4.863,0,0,1-5.2-4.871V1093.509a4.813,4.813,0,0,1,5.2-4.825l156.354,9.54a4.956,4.956,0,0,1,4.45,5.016Z" transform="translate(-355.303 -1082.269)" fill="#08477a"/>
        <path id="Trazado_622931" data-name="Trazado 622931" d="M394.813,1109.665c-3.886,5-4.442,14.434,2.22,18.32,14.435,8.884,33.311,6.108,47.191-3.33,10.215-7.152,5.865-20.409,2.941-31.131l-30.751-1.876C413.768,1099.044,399.687,1103.167,394.813,1109.665Z" transform="translate(-345.965 -1081.441)" fill="#08477a"/>
        <path id="Trazado_622932" data-name="Trazado 622932" d="M515.171,1302.932a4.32,4.32,0,0,1-3.954,4.385l-141.572,6.625a4.29,4.29,0,0,1-4.554-4.3V1111.074a4.273,4.273,0,0,1,4.554-4.287l141.572,7.133a4.339,4.339,0,0,1,3.954,4.4Z" transform="translate(-353.437 -1077.23)" fill="#fff"/>
        <path id="Trazado_622933" data-name="Trazado 622933" d="M467.526,1114.036a2.517,2.517,0,0,0-2.366-2.142l-7.45-.4a6.008,6.008,0,0,1-5.642-6.517l.369-8.174a2.6,2.6,0,0,0-2.425-2.813l-2.406-.15a3.068,3.068,0,0,1-2.793-3.66,5.465,5.465,0,0,0-4.965-6.5,6.729,6.729,0,0,0-6.853,5.75,3.909,3.909,0,0,1-1.356,2.394,3.625,3.625,0,0,1-2.535.871l-2.454-.153a3.31,3.31,0,0,0-3.3,2.5l-2.133,8.192a7.84,7.84,0,0,1-7.768,5.891l-7.84-.421a3.4,3.4,0,0,0-3.148,1.911l-5.626,11.29.483.617,72.164,2.807Zm-28.74-23.329a1.6,1.6,0,0,1-1.461-1.907,1.97,1.97,0,0,1,2-1.685,1.6,1.6,0,0,1,1.458,1.907A1.972,1.972,0,0,1,438.786,1090.706Z" transform="translate(-344.605 -1083.663)" fill="#6165d7"/>
        <path id="Trazado_622934" data-name="Trazado 622934" d="M467.9,1114.52a2.516,2.516,0,0,0-2.365-2.142l-7.451-.4a6.009,6.009,0,0,1-5.642-6.518l.369-8.174a2.6,2.6,0,0,0-2.425-2.813l-2.406-.15a3.067,3.067,0,0,1-2.793-3.658,5.463,5.463,0,0,0-4.963-6.5,6.726,6.726,0,0,0-6.853,5.748,3.928,3.928,0,0,1-1.356,2.4,3.626,3.626,0,0,1-2.536.869l-2.454-.152a3.307,3.307,0,0,0-3.3,2.5l-2.132,8.191a7.84,7.84,0,0,1-7.769,5.891l-7.84-.42a3.4,3.4,0,0,0-3.148,1.911l-5.626,11.29,72.647,3.424Zm-28.74-23.331a1.6,1.6,0,0,1-1.461-1.907,1.971,1.971,0,0,1,2.006-1.685,1.6,1.6,0,0,1,1.458,1.907A1.973,1.973,0,0,1,439.164,1091.189Z" transform="translate(-344.499 -1083.528)" fill="url(#linear-gradient-4)"/>
        <path id="Trazado_622935" data-name="Trazado 622935" d="M465.539,1107.033l-7.451-.4a5.828,5.828,0,0,1-4.981-3.281c-6.905,1.444-14.178-.064-21.453,1.391-5,1.11-4.441,8.883-9.992,9.438a188.657,188.657,0,0,1-23.64,1.227l-.81,1.627,72.647,3.424-1.954-11.283A2.516,2.516,0,0,0,465.539,1107.033Z" transform="translate(-344.499 -1078.184)" fill="url(#linear-gradient-5)"/>
        <g id="Grupo_894543" data-name="Grupo 894543" transform="translate(25.04 49.633)">
          <path id="Trazado_622936" data-name="Trazado 622936" d="M465,1125.584a1.092,1.092,0,0,0-1.015-1.189l-61.14-1.9a1.087,1.087,0,0,0-1.125,1.148v10.068a1.188,1.188,0,0,0,1.145,1.219L464,1136.506a1.008,1.008,0,0,0,1-1.126Z" transform="translate(-368.284 -1122.492)" fill="#d8dee8"/>
          <g id="Grupo_894540" data-name="Grupo 894540" transform="translate(0 24.56)">
            <path id="Trazado_622937" data-name="Trazado 622937" d="M485.225,1145.057a1.11,1.11,0,0,0-1.058-1.17l-107.4-2.182a1.163,1.163,0,0,0-1.2,1.181v7.983a1.243,1.243,0,0,0,1.232,1.224l107.371,1.712a1.064,1.064,0,0,0,1.058-1.133Z" transform="translate(-375.563 -1141.705)" fill="#d8dee8"/>
            <path id="Trazado_622938" data-name="Trazado 622938" d="M502.843,1158.935a1.14,1.14,0,0,0-1.1-1.154L376.8,1156.216a1.2,1.2,0,0,0-1.232,1.189v4.272a1.233,1.233,0,0,0,1.232,1.217l124.943,1.214a1.11,1.11,0,0,0,1.1-1.13Z" transform="translate(-375.563 -1137.667)" fill="#d8dee8"/>
            <path id="Trazado_622939" data-name="Trazado 622939" d="M502.843,1169.757a1.132,1.132,0,0,0-1.1-1.147l-124.943-.786a1.21,1.21,0,0,0-1.232,1.2v4.272a1.224,1.224,0,0,0,1.232,1.209l124.943.435a1.117,1.117,0,0,0,1.1-1.135Z" transform="translate(-375.563 -1134.437)" fill="#d8dee8"/>
          </g>
          <g id="Grupo_894541" data-name="Grupo 894541" transform="translate(0 77.748)">
            <path id="Trazado_622940" data-name="Trazado 622940" d="M485.225,1184.46a1.081,1.081,0,0,0-1.058-1.146l-107.4.23a1.193,1.193,0,0,0-1.2,1.207v7.984a1.21,1.21,0,0,0,1.232,1.2l107.371-.7a1.094,1.094,0,0,0,1.058-1.157Z" transform="translate(-375.563 -1183.315)" fill="#d8dee8"/>
            <path id="Trazado_622941" data-name="Trazado 622941" d="M502.843,1198.164a1.11,1.11,0,0,0-1.1-1.129l-124.943,1.24a1.234,1.234,0,0,0-1.232,1.217v4.272a1.2,1.2,0,0,0,1.232,1.189l124.943-1.59a1.141,1.141,0,0,0,1.1-1.154Z" transform="translate(-375.563 -1179.497)" fill="#d8dee8"/>
            <path id="Trazado_622942" data-name="Trazado 622942" d="M502.843,1209.156a1.1,1.1,0,0,0-1.1-1.122L376.8,1210.052a1.244,1.244,0,0,0-1.232,1.225v4.272a1.192,1.192,0,0,0,1.232,1.181l124.943-2.37a1.148,1.148,0,0,0,1.1-1.161Z" transform="translate(-375.563 -1176.437)" fill="#d8dee8"/>
          </g>
          <g id="Grupo_894542" data-name="Grupo 894542" transform="translate(0 128.754)">
            <path id="Trazado_622943" data-name="Trazado 622943" d="M485.225,1224.339a1.052,1.052,0,0,0-1.058-1.121l-107.4,2.641a1.227,1.227,0,0,0-1.2,1.235v7.984a1.178,1.178,0,0,0,1.232,1.168l107.371-3.11a1.124,1.124,0,0,0,1.058-1.181Z" transform="translate(-375.563 -1223.218)" fill="#d8dee8"/>
            <path id="Trazado_622944" data-name="Trazado 622944" d="M502.843,1237.735a1.081,1.081,0,0,0-1.1-1.1L376.8,1240.675a1.269,1.269,0,0,0-1.232,1.245v4.272a1.168,1.168,0,0,0,1.232,1.161l124.943-4.395a1.172,1.172,0,0,0,1.1-1.179Z" transform="translate(-375.563 -1219.486)" fill="#d8dee8"/>
            <path id="Trazado_622945" data-name="Trazado 622945" d="M502.843,1248.726a1.072,1.072,0,0,0-1.1-1.1L376.8,1252.452a1.278,1.278,0,0,0-1.232,1.253v4.272a1.16,1.16,0,0,0,1.232,1.153l124.943-5.174a1.18,1.18,0,0,0,1.1-1.185Z" transform="translate(-375.563 -1216.425)" fill="#d8dee8"/>
          </g>
        </g>
      </g>
      <g id="Grupo_894548" data-name="Grupo 894548" transform="translate(318.63 1172.346)">
        <g id="Grupo_894545" data-name="Grupo 894545" transform="translate(24.497 74.977)">
          <path id="Trazado_622946" data-name="Trazado 622946" d="M353.27,1289.953a9.692,9.692,0,0,0-1.689,4.929,8.879,8.879,0,0,0,4.358,3.938c1.534.569,4.319-.363,1.7-2.649s-2.982-2.792-1.382-7.3c.412-1.161.4-1.612.221-1.726C356.072,1286.876,354.527,1288.51,353.27,1289.953Z" transform="translate(-330.761 -1186.542)" fill="url(#linear-gradient-6)"/>
          <path id="Trazado_622947" data-name="Trazado 622947" d="M342.325,1291.045a9.7,9.7,0,0,0-1.689,4.93,8.879,8.879,0,0,0,4.358,3.938c1.534.568,4.319-.363,1.7-2.649s-2.982-2.793-1.382-7.3c.413-1.161.4-1.612.221-1.727C345.127,1287.969,343.582,1289.6,342.325,1291.045Z" transform="translate(-333.806 -1186.238)" fill="url(#linear-gradient-7)"/>
          <path id="Trazado_622948" data-name="Trazado 622948" d="M338.822,1216.147q-1.764,8.845-3.529,17.691a168.845,168.845,0,0,1,5.171,18.525,173.7,173.7,0,0,1,2.068,61.791l3.73,2.068a154.862,154.862,0,0,0,11.259-37.36c3.166-18.96,1.965-33.91,2.843-33.932.84-.022,2.724,13.69,2.2,29.258a157.061,157.061,0,0,1-6.352,39.109l4.7,1.044a143.71,143.71,0,0,0,16.018-47.549c2.03-13.708,4.494-31.926-4.053-51.1-.854-1.915-3.917-6.206-4.482-7.259C357.78,1210.092,349.434,1214.49,338.822,1216.147Z" transform="translate(-335.293 -1208.435)" fill="url(#linear-gradient-8)"/>
          <path id="Trazado_622949" data-name="Trazado 622949" d="M340.464,1252.362a168.845,168.845,0,0,0-5.171-18.525q1.764-8.845,3.529-17.691c10.612-1.657,18.958-6.055,29.569-7.712.565,1.053,3.628,5.344,4.482,7.259a68.443,68.443,0,0,1,5.325,18.927c-20.388-.92-26.436,3.125-28.195,6.984-2.8,6.145,4.851,12.733,1.636,25.251-.966,3.764-2.282,5.591-2.59,10.337-.406,6.229,1.608,6.9,1.71,13.257.111,6.952-2.2,12.657-4.089,17.339a60.688,60.688,0,0,1-3.279,6.84l-.86-.478A173.689,173.689,0,0,0,340.464,1252.362Z" transform="translate(-335.293 -1208.435)" opacity="0.25" fill="url(#linear-gradient-9)" style="mix-blend-mode: multiply;isolation: isolate"/>
        </g>
        <path id="Trazado_622950" data-name="Trazado 622950" d="M352.745,1150.449c-.741.8.1,2.07-.142,6.339a30.255,30.255,0,0,1-.651,4.713c-.146,1.043-.306,2.008-.476,2.857-.125.623-.24,1.108-.385,1.622a20.285,20.285,0,0,1-1.01,2.788.126.126,0,0,0,.052.16l.01,0a.125.125,0,0,0,.165-.062,20.633,20.633,0,0,0,1.023-2.823c.146-.52.262-1.011.389-1.641.089-.448.176-.928.261-1.434a13.475,13.475,0,0,1-.805,4.761,8.015,8.015,0,0,0,5.829,10.813c4.211.621,7.424-2.434,8.425-3.438a15.07,15.07,0,0,0,2.651-16.8C364.394,1150.949,354.56,1148.483,352.745,1150.449Z" transform="translate(-306.683 -1149.774)" fill="url(#linear-gradient-10)"/>
        <path id="Trazado_622951" data-name="Trazado 622951" d="M396.52,1196.034c-.4,2.45-2.035,10.74-8.389,14.194-10.468,5.691-28.844-4.773-31.009-18.458-1.654-10.459,6.322-21.719,10.73-21.075,5.532.809,3.033,20.031,13.932,25.578C386.772,1198.812,392.564,1197.465,396.52,1196.034Z" transform="translate(-304.784 -1143.967)" fill="url(#linear-gradient-11)"/>
        <path id="Trazado_622952" data-name="Trazado 622952" d="M372.287,1157.336a9.333,9.333,0,0,0-2.971-5.479c-4.407-3.741-12.284-1.921-17.04,1.453-4.979,3.532-3.368,6.5-8.314,10.48-5.373,4.326-8.573,1.861-15.827,5.825-2.853,1.559-10.544,5.761-11.823,13.426-1.106,6.624,2.917,13.789,8.42,16.961,9.418,5.433,22.6-1.159,29.188-7.8,6.317-6.365,2.716-8.457,12.064-21.045C369.364,1166.608,373.12,1162.482,372.287,1157.336Z" transform="translate(-316.128 -1149.78)" fill="url(#linear-gradient-12)"/>
        <path id="Trazado_622953" data-name="Trazado 622953" d="M378.225,1171.542a45.015,45.015,0,0,0-15.32-3.641c-6.693-.376-11.362-.817-14.564,1.924-6.536,5.594-.175,14.671-6.595,30.778a66.4,66.4,0,0,1-12.942,20.333c-4.468,4.471-6.983,5.362-8.385,9.391-2.833,8.14,2.292,19.289,7.586,20.015,1.055.144,2.355-.362,4.942-1.4,4.6-1.854,6.565-4.459,14.57-6.565a58.607,58.607,0,0,1,18.412-1.649c13.313.714,17.975,5.142,20.336,2.748,4.562-4.627-13.778-20.222-9.327-38.152,1.635-6.587,5.094-9.487,5.205-17.907A34.039,34.039,0,0,0,378.225,1171.542Z" transform="translate(-315.159 -1144.815)" fill="url(#linear-gradient-13)"/>
        <path id="Trazado_622954" data-name="Trazado 622954" d="M355.819,1160.543c.817,2.2,1.418,4.92.1,6.563a7.039,7.039,0,0,1-3.206,1.925c-2.817,1.052-4,.384-4.616,1.136-1.349,1.655,1.244,8.778,6.557,9.923,5.288,1.14,10.734-4.186,10.183-6.731-.5-2.3-5.834-2.145-6.485-5.049-.327-1.462.7-2.941,1.575-3.926l.624.12Z" transform="translate(-307.331 -1146.785)" fill="url(#linear-gradient-14)"/>
        <path id="Trazado_622955" data-name="Trazado 622955" d="M348.095,1170.167c.612-.753,1.8-.084,4.616-1.136a7.039,7.039,0,0,0,3.206-1.925c1.32-1.643.72-4.358-.1-6.563l4.73,3.961-.624-.12a5.994,5.994,0,0,0-1.605,3.023,4.42,4.42,0,0,0-.987.716,11.725,11.725,0,0,1,.651,3.771,4.835,4.835,0,0,1-.651,3.187,4.37,4.37,0,0,1-2.765,1.4,9.533,9.533,0,0,1-5.232-.384C347.824,1173.75,347.338,1171.1,348.095,1170.167Z" transform="translate(-307.331 -1146.785)" opacity="0.4" fill="url(#linear-gradient-15)" style="mix-blend-mode: multiply;isolation: isolate"/>
        <path id="Trazado_622956" data-name="Trazado 622956" d="M355.395,1163.79a2.991,2.991,0,0,0,2.944,2.715c3.3.018,3.661-8.678,2.859-9.174-.929-.577-1.742.834-3.905.343-.91-.207-1.7-1.379-2.159-.116a9.962,9.962,0,0,0-.082,3.978s-.782-.646-.9.132A2.276,2.276,0,0,0,355.395,1163.79Z" transform="translate(-305.554 -1147.776)" fill="url(#linear-gradient-16)"/>
        <path id="Trazado_622957" data-name="Trazado 622957" d="M360.766,1155.14c1.046,1.066,1.623,3.136.9,4.176-1.042,1.493-4.121-.067-5.381,1.761-.551.8-.519,1.913-.805,1.9-.238-.015-.378-.786-.514-1.42-.753-3.5-1.625-3.887-1.359-4.888C354.145,1154.63,358.62,1152.951,360.766,1155.14Z" transform="translate(-305.714 -1148.575)" fill="url(#linear-gradient-17)"/>
        <path id="Trazado_622958" data-name="Trazado 622958" d="M396.435,1193.76a5.4,5.4,0,0,0-2.1-2.954c-2.784-1.814-7.189-.238-7.42,1.236-.151.964,1.409,2.351,2.885,2.474,1.329.11,1.892-.86,3.711-1.1A6.314,6.314,0,0,1,396.435,1193.76Z" transform="translate(-296.435 -1138.59)" fill="url(#linear-gradient-18)"/>
        <g id="Grupo_894546" data-name="Grupo 894546" transform="translate(4.452 42.311)" opacity="0.5" style="mix-blend-mode: multiply;isolation: isolate">
          <path id="Trazado_622959" data-name="Trazado 622959" d="M368.38,1231.785c-2.995-3.491-2.346-6.646-6.372-10.062-7.866-6.674-18.383-1.46-20.795-5.7-2.769-4.871,10.468-12.847,9.726-22.807-.286-3.86-2.619-7.3-6.111-10.335a43.98,43.98,0,0,1-3.082,13.478,66.4,66.4,0,0,1-12.942,20.333c-4.468,4.471-6.983,5.362-8.385,9.391-2.833,8.14,2.292,19.289,7.586,20.015,1.055.144,2.355-.362,4.942-1.4,4.6-1.854,6.565-4.459,14.57-6.565a58.607,58.607,0,0,1,18.412-1.649c13.313.714,17.975,5.142,20.336,2.748a2.647,2.647,0,0,0,.735-1.911C376.322,1237.771,371.117,1234.976,368.38,1231.785Z" transform="translate(-319.612 -1182.88)" fill="url(#linear-gradient-19)"/>
        </g>
        <path id="Trazado_622960" data-name="Trazado 622960" d="M333.164,1218.838s1.852,1.4,2.086,2.468c0,0-2.486.116-2.512,1.957,0,0,2.255-.341,2.642.2s-2.141,1.888-4.26,1.418-2.128-4.6-1.632-5.822S333.164,1218.838,333.164,1218.838Z" transform="translate(-312.486 -1130.671)" fill="url(#linear-gradient-20)"/>
        <path id="Trazado_622961" data-name="Trazado 622961" d="M352.729,1177.632q-2.236-4.237-4.473-8.472c-1.171.619-25.016,13.727-25.758,38.538a43.148,43.148,0,0,0,7.912,25.574l5.8-1.8a28.326,28.326,0,0,1-2.982-18.693c2.211-10.778,11.323-19.495,23.281-22.43Z" transform="translate(-314.361 -1144.387)" fill="url(#linear-gradient-21)"/>
        <g id="Grupo_894547" data-name="Grupo 894547" transform="translate(95.851 48.921)">
          <path id="Trazado_622962" data-name="Trazado 622962" d="M391.409,1195.173l3.662,4.453a1.3,1.3,0,0,0,1.46.39l14.058-5.307a1.3,1.3,0,0,0,.559-2.018l-3.286-4.148a1.3,1.3,0,0,0-1.442-.42l-14.434,5A1.3,1.3,0,0,0,391.409,1195.173Z" transform="translate(-391.114 -1188.051)" fill="url(#linear-gradient-22)"/>
          <path id="Trazado_622963" data-name="Trazado 622963" d="M392.308,1196.088l16.971-5.932-.917-1.158-17,5.942Z" transform="translate(-391.044 -1187.788)" fill="url(#linear-gradient-23)"/>
        </g>
      </g>
      <g id="Grupo_894549" data-name="Grupo 894549" transform="translate(453.049 1320.752)">
        <path id="Trazado_622964" data-name="Trazado 622964" d="M543.3,1270.117h5.637s6.73,20.561,9.76,23.59-4.108,12.115-74.746,11.357c-48.174-1.009-61.552-5.8-62.562-10.852s5.421-10.854,5.361-13.883,8.391-10.212,8.391-10.212Z" transform="translate(-421.286 -1264.701)" fill="url(#linear-gradient-24)"/>
        <path id="Trazado_622965" data-name="Trazado 622965" d="M426.754,1280.329c-.06-3.028,8.391-10.212,8.391-10.212h113.8s1.043,3.187,2.493,7.236c-4.148,3.216-9.528,3.977-14.655,3.977-7.91.359-15.461-3.236-22.652-.72-12.944,4.315-25.528,10.787-39.549,7.191-8.63-2.158-16.9-5.752-25.889-5.393-5.393,0-11.145,5.752-7.19,10.427,11.146,11.865,28.763,4.675,43.865,7.551,8.989,1.8,17.258,1.079,25.887,1.079,1.079,0,2.517,1.078,3.6,1.078a109.9,109.9,0,0,0,16.056,1.065c-11.123,1.061-26.33,1.678-46.948,1.457-48.175-1.01-61.552-5.8-62.562-10.852S426.815,1283.359,426.754,1280.329Z" transform="translate(-421.286 -1264.701)" opacity="0.3" fill="url(#linear-gradient-25)" style="mix-blend-mode: multiply;isolation: isolate"/>
        <ellipse id="Elipse_6246" data-name="Elipse 6246" cx="56.899" cy="5.416" rx="56.899" ry="5.416" transform="translate(13.859)" fill="url(#linear-gradient-26)"/>
      </g>
      <g id="Grupo_894558" data-name="Grupo 894558" transform="translate(461.1 1271.337)">
        <g id="Grupo_894551" data-name="Grupo 894551" transform="translate(13.538 34.002)">
          <path id="Trazado_622966" data-name="Trazado 622966" d="M438.2,1258.766v10.8c0,3.49,21.8,6.319,48.7,6.319s48.7-2.829,48.7-6.319v-10.8Z" transform="translate(-438.169 -1252.446)" fill="url(#linear-gradient-27)"/>
          <path id="Trazado_622967" data-name="Trazado 622967" d="M535.588,1260.142c0,3.49-21.8,6.32-48.7,6.32s-48.7-2.83-48.7-6.32,21.8-6.32,48.7-6.32S535.588,1256.652,535.588,1260.142Z" transform="translate(-438.169 -1253.822)" fill="url(#linear-gradient-28)"/>
          <path id="Trazado_622968" data-name="Trazado 622968" d="M486.9,1265.646c-23.818,0-48.723-2.275-48.723-6.664,0-.24.086-.665.326-.665s.138.332.138.573c0,2.783,19.819,5.883,48.259,5.883s48.259-3.1,48.259-5.883c0-.24.041-.467.281-.467s.183.321.183.562C535.622,1263.375,510.716,1265.646,486.9,1265.646Z" transform="translate(-438.175 -1252.571)" fill="url(#linear-gradient-29)"/>
          <g id="Grupo_894550" data-name="Grupo 894550" transform="translate(18.048 3.926)">
            <path id="Trazado_622969" data-name="Trazado 622969" d="M478.368,1259.64q.717-.5,1.53-.979a9.6,9.6,0,0,1,2.093-.872,19.834,19.834,0,0,1,3.21-.635,40.664,40.664,0,0,1,4.809-.26q2.822-.014,5.3.179a36.1,36.1,0,0,1,4.359.578,13.516,13.516,0,0,1,3.059.948,2.421,2.421,0,0,1,1.4,1.3l5.484.056a5.371,5.371,0,0,1,1.051.1c.307.063.455.141.455.236l0,.453-7.048-.069a3.559,3.559,0,0,1-1.891,1.519,19.158,19.158,0,0,1-3.865,1.191l-2.567-.357a2.9,2.9,0,0,1-.568-.134c-.147-.054-.219-.112-.22-.177,0-.087.2-.185.6-.3s.845-.249,1.345-.414a13.681,13.681,0,0,0,1.471-.582,2,2,0,0,0,.965-.8l-16.638-.165a15.663,15.663,0,0,1-1.47.947,9.556,9.556,0,0,1-2.158.838,22.384,22.384,0,0,1-3.348.6,46.981,46.981,0,0,1-5.049.248c-1.525.008-3.009-.051-4.464-.174a30.409,30.409,0,0,1-3.873-.552,12.09,12.09,0,0,1-2.779-.909c-.721-.362-1.126-.777-1.209-1.246l-4.515-.047a5.833,5.833,0,0,1-1.066-.093c-.312-.06-.47-.141-.47-.24l0-.451,6.171.059a3.319,3.319,0,0,1,1.687-1.244,19.351,19.351,0,0,1,3.132-.942l2.067.284c.629.088.94.192.941.311,0,.064-.127.143-.387.238s-.57.208-.925.34a8.416,8.416,0,0,0-1.029.463,2.212,2.212,0,0,0-.752.6Zm-15.227.615a1.639,1.639,0,0,0,.821.766,6.525,6.525,0,0,0,1.568.529,16.163,16.163,0,0,0,2.113.3q1.177.1,2.463.091a25.945,25.945,0,0,0,2.615-.129,15.222,15.222,0,0,0,1.957-.331,9.138,9.138,0,0,0,1.473-.487,8.129,8.129,0,0,0,1.124-.6Zm36.221-.4a1.7,1.7,0,0,0-.9-.789,8.087,8.087,0,0,0-1.8-.569,19.957,19.957,0,0,0-2.558-.344q-1.453-.111-3.214-.1a24.893,24.893,0,0,0-2.692.139,13.832,13.832,0,0,0-1.957.355,7.12,7.12,0,0,0-1.4.52,9.926,9.926,0,0,0-1.078.634Z" transform="translate(-452.294 -1256.893)" fill="#fcb048"/>
          </g>
          <path id="Trazado_622970" data-name="Trazado 622970" d="M486.732,1254.357c-21.713,0-44.32,1.911-47.936,5.61a4.33,4.33,0,0,1,.4.416c3.049-2.568,21.715-5.153,47.541-5.153,26.488,0,45.455,2.72,47.753,5.351a4.456,4.456,0,0,1,.363-.413C531.862,1256.338,508.831,1254.357,486.732,1254.357Z" transform="translate(-438.002 -1253.673)" fill="url(#linear-gradient-30)"/>
        </g>
        <g id="Grupo_894553" data-name="Grupo 894553" transform="translate(0 22.657)">
          <path id="Trazado_622971" data-name="Trazado 622971" d="M427.606,1249.891v10.8c0,3.491,21.8,6.32,48.7,6.32s48.7-2.829,48.7-6.32v-10.8Z" transform="translate(-427.578 -1243.571)" fill="url(#linear-gradient-31)"/>
          <path id="Trazado_622972" data-name="Trazado 622972" d="M525,1251.267c0,3.49-21.8,6.318-48.7,6.318s-48.7-2.829-48.7-6.318,21.8-6.32,48.7-6.32S525,1247.776,525,1251.267Z" transform="translate(-427.578 -1244.947)" fill="url(#linear-gradient-32)"/>
          <path id="Trazado_622973" data-name="Trazado 622973" d="M476.307,1256.77c-23.818,0-48.723-2.274-48.723-6.662,0-.241.087-.665.327-.665s.138.331.138.573c0,2.783,19.819,5.883,48.258,5.883s48.261-3.1,48.261-5.883c0-.241.041-.467.281-.467s.183.321.183.563C525.032,1254.5,500.127,1256.77,476.307,1256.77Z" transform="translate(-427.584 -1243.696)" fill="url(#linear-gradient-33)"/>
          <g id="Grupo_894552" data-name="Grupo 894552" transform="translate(18.049 3.926)">
            <path id="Trazado_622974" data-name="Trazado 622974" d="M467.778,1250.764c.478-.331.986-.657,1.53-.979a9.663,9.663,0,0,1,2.092-.872,19.981,19.981,0,0,1,3.21-.634,40.344,40.344,0,0,1,4.808-.26q2.824-.015,5.3.179a36.036,36.036,0,0,1,4.358.576,13.484,13.484,0,0,1,3.06.95,2.417,2.417,0,0,1,1.4,1.3l5.484.055a5.382,5.382,0,0,1,1.051.1c.307.061.455.141.455.236l0,.451-7.05-.068a3.549,3.549,0,0,1-1.889,1.517,19.174,19.174,0,0,1-3.865,1.193l-2.567-.357a3.113,3.113,0,0,1-.568-.134c-.148-.054-.22-.113-.22-.177,0-.087.2-.187.6-.3s.845-.251,1.343-.414a13.482,13.482,0,0,0,1.471-.583,1.983,1.983,0,0,0,.965-.8l-16.638-.166a15.48,15.48,0,0,1-1.469.948,9.543,9.543,0,0,1-2.159.839,22.511,22.511,0,0,1-3.348.6,47.07,47.07,0,0,1-5.048.247c-1.525.008-3.009-.05-4.464-.173a30.371,30.371,0,0,1-3.873-.552,12.028,12.028,0,0,1-2.779-.91c-.721-.362-1.126-.776-1.211-1.246l-4.513-.046a5.922,5.922,0,0,1-1.066-.093c-.312-.06-.47-.141-.47-.24l0-.452,6.171.059a3.319,3.319,0,0,1,1.687-1.242,19.366,19.366,0,0,1,3.132-.942l2.067.284c.628.088.94.192.941.309,0,.064-.128.143-.387.238s-.57.208-.927.34a8.724,8.724,0,0,0-1.028.464,2.182,2.182,0,0,0-.752.6Zm-15.227.616a1.639,1.639,0,0,0,.819.764,6.492,6.492,0,0,0,1.568.529,15.776,15.776,0,0,0,2.113.3q1.179.1,2.464.092a25.871,25.871,0,0,0,2.615-.129,15.037,15.037,0,0,0,1.957-.332,9.009,9.009,0,0,0,1.471-.486,8.139,8.139,0,0,0,1.125-.6Zm36.219-.4a1.69,1.69,0,0,0-.9-.789,8.018,8.018,0,0,0-1.8-.57,20.148,20.148,0,0,0-2.557-.343q-1.453-.113-3.214-.1a24.526,24.526,0,0,0-2.692.139,13.816,13.816,0,0,0-1.957.355,7.161,7.161,0,0,0-1.4.519,10.153,10.153,0,0,0-1.079.635Z" transform="translate(-441.704 -1248.018)" fill="#fcb048"/>
          </g>
          <path id="Trazado_622975" data-name="Trazado 622975" d="M476.142,1245.482c-21.712,0-44.32,1.911-47.936,5.609a4.5,4.5,0,0,1,.395.417c3.047-2.568,21.715-5.154,47.541-5.154,26.488,0,45.455,2.72,47.752,5.352a4.68,4.68,0,0,1,.364-.413C521.272,1247.463,498.239,1245.482,476.142,1245.482Z" transform="translate(-427.411 -1244.798)" fill="url(#linear-gradient-34)"/>
        </g>
        <g id="Grupo_894555" data-name="Grupo 894555" transform="translate(11.681 11.345)">
          <path id="Trazado_622976" data-name="Trazado 622976" d="M436.744,1241.041v10.8c0,3.49,21.8,6.32,48.7,6.32s48.7-2.83,48.7-6.32v-10.8Z" transform="translate(-436.716 -1234.722)" fill="url(#linear-gradient-31)"/>
          <ellipse id="Elipse_6247" data-name="Elipse 6247" cx="48.695" cy="6.319" rx="48.695" ry="6.319" transform="translate(0.029)" fill="url(#linear-gradient-36)"/>
          <path id="Trazado_622977" data-name="Trazado 622977" d="M485.445,1247.921c-23.818,0-48.723-2.275-48.723-6.662,0-.242.087-.665.327-.665s.137.331.137.571c0,2.783,19.821,5.884,48.259,5.884s48.259-3.1,48.259-5.884c0-.24.042-.467.282-.467s.183.322.183.562C534.17,1245.65,509.265,1247.921,485.445,1247.921Z" transform="translate(-436.722 -1234.847)" fill="url(#linear-gradient-37)"/>
          <g id="Grupo_894554" data-name="Grupo 894554" transform="translate(18.049 3.925)">
            <path id="Trazado_622978" data-name="Trazado 622978" d="M476.916,1241.915q.715-.5,1.53-.979a9.6,9.6,0,0,1,2.091-.872,20.025,20.025,0,0,1,3.211-.635,40.657,40.657,0,0,1,4.808-.26q2.824-.013,5.3.179a36.309,36.309,0,0,1,4.358.578,13.5,13.5,0,0,1,3.06.948,2.422,2.422,0,0,1,1.4,1.3l5.484.055a5.4,5.4,0,0,1,1.051.1c.307.063.455.142.455.238l0,.451-7.05-.068a3.555,3.555,0,0,1-1.889,1.517,19.2,19.2,0,0,1-3.865,1.193l-2.567-.358a2.9,2.9,0,0,1-.568-.134c-.148-.054-.22-.113-.22-.177q0-.13.6-.3t1.343-.414a13.447,13.447,0,0,0,1.471-.582,2,2,0,0,0,.965-.8l-16.638-.165a15.638,15.638,0,0,1-1.469.948,9.6,9.6,0,0,1-2.159.839,22.672,22.672,0,0,1-3.348.6,47.378,47.378,0,0,1-5.048.247c-1.525.008-3.009-.05-4.464-.172a30.837,30.837,0,0,1-3.873-.552,12.092,12.092,0,0,1-2.779-.91c-.721-.362-1.126-.777-1.211-1.246l-4.514-.046a5.914,5.914,0,0,1-1.066-.095c-.312-.06-.47-.139-.47-.24l0-.451,6.171.059a3.319,3.319,0,0,1,1.687-1.242,19.231,19.231,0,0,1,3.132-.942l2.067.282c.628.088.939.192.939.311,0,.064-.127.143-.386.238s-.57.208-.927.34a8.407,8.407,0,0,0-1.028.464,2.168,2.168,0,0,0-.752.6Zm-15.227.615a1.635,1.635,0,0,0,.819.766,6.551,6.551,0,0,0,1.568.529,16,16,0,0,0,2.113.3q1.179.1,2.465.091a25.586,25.586,0,0,0,2.615-.129,15.307,15.307,0,0,0,1.957-.331,9.141,9.141,0,0,0,1.471-.486,8.285,8.285,0,0,0,1.125-.6Zm36.219-.4a1.7,1.7,0,0,0-.9-.789,8.091,8.091,0,0,0-1.8-.569,19.917,19.917,0,0,0-2.557-.343q-1.453-.113-3.214-.1a24.519,24.519,0,0,0-2.692.141,14.008,14.008,0,0,0-1.957.354,7.166,7.166,0,0,0-1.4.52,9.911,9.911,0,0,0-1.079.635Z" transform="translate(-450.842 -1239.168)" fill="#fcb048"/>
          </g>
          <path id="Trazado_622979" data-name="Trazado 622979" d="M485.28,1236.633c-21.713,0-44.32,1.91-47.936,5.609a4.687,4.687,0,0,1,.4.415c3.047-2.568,21.715-5.153,47.541-5.153,26.488,0,45.455,2.72,47.752,5.351a4.455,4.455,0,0,1,.364-.412C530.41,1238.614,507.377,1236.633,485.28,1236.633Z" transform="translate(-436.549 -1235.949)" fill="url(#linear-gradient-38)"/>
        </g>
        <g id="Grupo_894557" data-name="Grupo 894557" transform="translate(18.769)">
          <path id="Trazado_622980" data-name="Trazado 622980" d="M442.29,1232.166v10.8c0,3.49,21.8,6.318,48.7,6.318s48.7-2.829,48.7-6.318v-10.8Z" transform="translate(-442.261 -1225.846)" fill="url(#linear-gradient-27)"/>
          <path id="Trazado_622981" data-name="Trazado 622981" d="M539.681,1233.542c0,3.49-21.8,6.32-48.7,6.32s-48.7-2.83-48.7-6.32,21.8-6.32,48.7-6.32S539.681,1230.052,539.681,1233.542Z" transform="translate(-442.261 -1227.222)" fill="url(#linear-gradient-28)"/>
          <path id="Trazado_622982" data-name="Trazado 622982" d="M490.992,1239.046c-23.818,0-48.725-2.275-48.725-6.664,0-.24.087-.665.327-.665s.138.331.138.573c0,2.783,19.819,5.882,48.259,5.882s48.259-3.1,48.259-5.882c0-.242.041-.467.281-.467s.183.321.183.562C539.715,1236.775,514.81,1239.046,490.992,1239.046Z" transform="translate(-442.267 -1225.971)" fill="url(#linear-gradient-29)"/>
          <g id="Grupo_894556" data-name="Grupo 894556" transform="translate(18.049 3.926)">
            <path id="Trazado_622983" data-name="Trazado 622983" d="M482.461,1233.04c.478-.331.986-.657,1.53-.979a9.661,9.661,0,0,1,2.092-.873,19.981,19.981,0,0,1,3.21-.634,40.654,40.654,0,0,1,4.807-.26q2.824-.013,5.3.179a35.8,35.8,0,0,1,4.358.578,13.483,13.483,0,0,1,3.06.948,2.417,2.417,0,0,1,1.4,1.3l5.484.056a5.417,5.417,0,0,1,1.051.1c.307.063.455.141.455.237l0,.452-7.05-.069a3.55,3.55,0,0,1-1.889,1.519,19.174,19.174,0,0,1-3.865,1.191l-2.567-.356a2.921,2.921,0,0,1-.568-.134c-.148-.054-.22-.113-.22-.177q0-.13.6-.3t1.345-.414a13.555,13.555,0,0,0,1.47-.582,1.992,1.992,0,0,0,.965-.8l-16.638-.165a15.723,15.723,0,0,1-1.469.947,9.544,9.544,0,0,1-2.159.839,22.573,22.573,0,0,1-3.348.6,47.321,47.321,0,0,1-5.048.248c-1.525.006-3.009-.051-4.464-.174a30.362,30.362,0,0,1-3.873-.552,12.1,12.1,0,0,1-2.779-.909c-.721-.362-1.126-.777-1.211-1.246l-4.514-.047a5.912,5.912,0,0,1-1.066-.093c-.312-.06-.47-.141-.47-.24l0-.451,6.171.059a3.321,3.321,0,0,1,1.687-1.244,19.377,19.377,0,0,1,3.132-.942l2.067.284c.628.088.94.192.941.311,0,.064-.128.143-.387.238s-.57.208-.927.339a8.729,8.729,0,0,0-1.028.464,2.208,2.208,0,0,0-.752.6Zm-15.227.615a1.639,1.639,0,0,0,.819.766,6.533,6.533,0,0,0,1.568.529,16.225,16.225,0,0,0,2.113.3q1.179.1,2.464.091a25.867,25.867,0,0,0,2.615-.129,15.222,15.222,0,0,0,1.957-.331,9.078,9.078,0,0,0,1.471-.487,8.28,8.28,0,0,0,1.125-.6Zm36.219-.4a1.69,1.69,0,0,0-.9-.789,8.1,8.1,0,0,0-1.8-.569,19.9,19.9,0,0,0-2.558-.344q-1.453-.111-3.214-.1a24.957,24.957,0,0,0-2.692.139,13.832,13.832,0,0,0-1.957.355,7.074,7.074,0,0,0-1.4.52,9.734,9.734,0,0,0-1.078.634Z" transform="translate(-456.387 -1230.293)" fill="#fcb048"/>
          </g>
          <path id="Trazado_622984" data-name="Trazado 622984" d="M490.825,1227.757c-21.713,0-44.32,1.911-47.936,5.609a4.69,4.69,0,0,1,.395.417c3.049-2.568,21.715-5.153,47.541-5.153,26.488,0,45.455,2.72,47.752,5.351a4.644,4.644,0,0,1,.364-.413C535.955,1229.738,512.924,1227.757,490.825,1227.757Z" transform="translate(-442.094 -1227.073)" fill="url(#linear-gradient-42)"/>
        </g>
        <ellipse id="Elipse_6248" data-name="Elipse 6248" cx="37.821" cy="4.937" rx="37.821" ry="4.937" transform="translate(30.461 1.554)" fill="url(#linear-gradient-43)"/>
      </g>
      <g id="Grupo_894559" data-name="Grupo 894559" transform="translate(400.978 1139.258)">
        <path id="Trazado_622985" data-name="Trazado 622985" d="M511.595,1193.918s-92.635-51.787-110.242-65.533-27.3,7.673-15.848,16.026S503.083,1203.6,503.083,1203.6Z" transform="translate(-380.55 -1123.895)" fill="url(#linear-gradient-44)"/>
        <path id="Trazado_622986" data-name="Trazado 622986" d="M539.815,1160.026a19.488,19.488,0,0,1,1.586,10.319c-1.055,7.617-6.587,8.949-8.976,17.363-2.114,7.451,1.625,8.521-.842,15.382-2.7,7.5-7.531,7.23-8.953,14.319-1.071,5.332,1.254,7.537-1.07,11.814-.363.667-.412.6-5.846,6.56-4.374,4.8-4.993,5.557-5.117,6.975-.2,2.314,1.164,3.5.629,6.675a9.2,9.2,0,0,1-1.025,3.045c-2.64,4.034-16.91.516-28.813-4.778-5.191-2.309-21.1-9.421-20.3-15.914.148-1.2,1.23-2.328,3.078-4.46,2.917-3.366,4.245-3.306,5.412-5.19,2.085-3.368-.658-5.984-.106-11.088.575-5.317,3.868-5.406,7-12.129,3.674-7.9.112-9.884,3.652-17.687,3.152-6.952,6.451-6.417,8.04-12.65,1.377-5.4-.66-7.531.784-12.487,1.467-5.041,5.2-8.413,8.155-10.491a63.658,63.658,0,0,1,42.713,14.422Z" transform="translate(-358.147 -1117.865)" fill="url(#linear-gradient-45)"/>
        <path id="Trazado_622987" data-name="Trazado 622987" d="M497.1,1145.6a63.658,63.658,0,0,1,42.713,14.422,20.262,20.262,0,0,1,1.738,8.376c-3.132-3.676-10.833-11.578-22.628-13.254-1.618-.23-14.487-2.058-18.266,4.087-2.434,3.956,1.6,6.826.084,13.647-1.795,8.07-8.279,7.815-11.178,16.656-2.225,6.785,1.083,8.5-1.676,14.994-2.7,6.367-6.315,5.737-8.171,11.613-2.394,7.579,1.658,14.8,2.229,15.788a23.706,23.706,0,0,0,6.519,6.938c8.209,6.1,17.59,6.855,22.555,6.843a8.24,8.24,0,0,1,.2,3.721,9.2,9.2,0,0,1-1.025,3.045c-2.64,4.034-16.91.516-28.813-4.778-5.191-2.309-21.1-9.421-20.3-15.914.148-1.2,1.23-2.328,3.078-4.46,2.917-3.366,4.245-3.306,5.412-5.19,2.085-3.368-.658-5.984-.106-11.088.575-5.317,3.868-5.406,7-12.129,3.674-7.9.112-9.884,3.652-17.687,3.152-6.952,6.451-6.417,8.04-12.65,1.377-5.4-.66-7.531.784-12.487C490.415,1151.054,494.145,1147.682,497.1,1145.6Z" transform="translate(-358.147 -1117.865)" opacity="0.3" fill="url(#linear-gradient-46)" style="mix-blend-mode: multiply;isolation: isolate"/>
        <path id="Trazado_622988" data-name="Trazado 622988" d="M397.975,1126.112a14.567,14.567,0,0,0-.171,1.519c-1.15,14,11.869,21.839,22.068,28.9,13.432,9.758,29.668,13.206,45.612,18.383,11.126,3.333,20.213,11.12,24.417,22.336-28.794-13.9-95.457-46.322-104.4-52.843C374.809,1136.611,382.561,1117.414,397.975,1126.112Z" transform="translate(-380.55 -1123.894)" opacity="0.3" fill="url(#linear-gradient-47)" style="mix-blend-mode: multiply;isolation: isolate"/>
      </g>
    </g>
  </g>
</svg>
