<svg xmlns="http://www.w3.org/2000/svg" xmlns:xlink="http://www.w3.org/1999/xlink" width="153" height="153" viewBox="0 0 153 153">
  <defs>
    <filter id="Elipse_5223" x="0" y="0" width="153" height="153" filterUnits="userSpaceOnUse">
      <feOffset dy="3" input="SourceAlpha"/>
      <feGaussianBlur stdDeviation="3" result="blur"/>
      <feFlood flood-opacity="0.161"/>
      <feComposite operator="in" in2="blur"/>
      <feComposite in="SourceGraphic"/>
    </filter>
  </defs>
  <g id="Grupo_895202" data-name="Grupo 895202" transform="translate(5523 11483.071)">
    <g transform="matrix(1, 0, 0, 1, -5523, -11483.07)" filter="url(#Elipse_5223)">
      <g id="Elipse_5223-2" data-name="Elipse 5223" transform="translate(9 6)" fill="#fff" stroke="#fecb2f" stroke-width="3">
        <circle cx="67.5" cy="67.5" r="67.5" stroke="none"/>
        <circle cx="67.5" cy="67.5" r="66" fill="none"/>
      </g>
    </g>
    <g id="Grupo_881345" data-name="Grupo 881345" transform="translate(-5487 -11456.071)">
      <g id="Grupo_881343" data-name="Grupo 881343" transform="translate(0 0)">
        <path id="Trazado_622549" data-name="Trazado 622549" d="M1191.057,1306.015l-.894-.682,5.1-7.248a1.309,1.309,0,0,0-.318-1.822,1.308,1.308,0,0,0-1.822.316l-5.137,7.3-.928-.545a40.288,40.288,0,0,0-17.945-5.461l-1.1-.064v-9.569h4.056a1.308,1.308,0,1,0,0-2.616h-10.521a1.308,1.308,0,0,0,0,2.616h3.849v9.569l-1.1.064a40.335,40.335,0,1,0,26.76,8.14Zm-24.351,69.758a37.68,37.68,0,1,1,37.679-37.681A37.724,37.724,0,0,1,1166.706,1375.773Z" transform="translate(-1126.409 -1285.625)" fill="#2d2d2a"/>
      </g>
      <g id="Grupo_881344" data-name="Grupo 881344" transform="translate(28.293 25.594)">
        <path id="Trazado_622550" data-name="Trazado 622550" d="M1163.956,1334.963v-26.107a1.308,1.308,0,0,0-2.616,0v25.023l-10.313,10.313a1.308,1.308,0,0,0,1.85,1.849Z" transform="translate(-1150.645 -1307.549)" fill="#2d2d2a"/>
      </g>
    </g>
  </g>
</svg>
