<svg xmlns="http://www.w3.org/2000/svg" xmlns:xlink="http://www.w3.org/1999/xlink" width="198.756" height="200.539" viewBox="0 0 198.756 200.539">
  <defs>
    <filter id="Elipse_6253" x="0" y="0" width="198.756" height="198.756" filterUnits="userSpaceOnUse">
      <feOffset dy="3" input="SourceAlpha"/>
      <feGaussianBlur stdDeviation="3" result="blur"/>
      <feFlood flood-opacity="0.161"/>
      <feComposite operator="in" in2="blur"/>
      <feComposite in="SourceGraphic"/>
    </filter>
  </defs>
  <g id="Grupo_895228" data-name="Grupo 895228" transform="translate(-171.333 -862)">
    <g id="Grupo_894676" data-name="Grupo 894676" transform="translate(191.568 869.274)">
      <path id="Trazado_29" data-name="Trazado 29" d="M25.632,310.921l-141.34,141.34a12.348,12.348,0,0,1-17.464,0h0a12.349,12.349,0,0,1,0-17.464L8.167,293.457a12.349,12.349,0,0,1,17.464,0h0A12.349,12.349,0,0,1,25.632,310.921Z" transform="translate(136.79 -289.84)" fill="none" stroke="#8f9294" stroke-miterlimit="10" stroke-width="2"/>
      <path id="Trazado_30" data-name="Trazado 30" d="M31.961,404.253-75.923,512.136a9.426,9.426,0,0,1-13.33,0h0a9.426,9.426,0,0,1,0-13.331L18.63,390.923a9.427,9.427,0,0,1,13.331,0h0A9.427,9.427,0,0,1,31.961,404.253Z" transform="translate(121.856 -322.633)" fill="none" stroke="#8f9294" stroke-miterlimit="10" stroke-width="2"/>
    </g>
    <g id="Grupo_895011" data-name="Grupo 895011">
      <g transform="matrix(1, 0, 0, 1, 171.33, 862)" filter="url(#Elipse_6253)">
        <g id="Elipse_6253-2" data-name="Elipse 6253" transform="translate(9 6)" fill="#fff" stroke="#fecb2f" stroke-width="3">
          <circle cx="90.378" cy="90.378" r="90.378" stroke="none"/>
          <circle cx="90.378" cy="90.378" r="88.878" fill="none"/>
        </g>
      </g>
      <g id="Grupo_895008" data-name="Grupo 895008" transform="translate(75.333 691)">
        <path id="Trazado_623733" data-name="Trazado 623733" d="M270.059,297.668V285.605l2.246-.982a19.948,19.948,0,0,0,11.965-18.281l.018-20.511a15.481,15.481,0,0,0-.124-1.939l-12.025,7.693A33.594,33.594,0,0,1,254,256.891H241.23v9.45a19.949,19.949,0,0,0,11.965,18.281l2.248.982v12.063Zm0,0" transform="translate(-67.52 -26.607)"/>
        <path id="Trazado_623734" data-name="Trazado 623734" d="M443.609,480.41v35.828h9.358v-18.07a21.486,21.486,0,0,0-9.358-17.759Zm0,0" transform="translate(-202.505 -184.363)"/>
        <path id="Trazado_623735" data-name="Trazado 623735" d="M149.358,480.41A21.49,21.49,0,0,0,140,498.169v18.07h9.358Zm0,0" transform="translate(0 -184.363)"/>
        <path id="Trazado_623736" data-name="Trazado 623736" d="M190.6,464.35h76.761V427.879H190.6ZM224.77,437.2h8.424v7.493H224.77Zm0,0" transform="translate(-33.75 -149.325)"/>
        <rect id="Rectángulo_302261" data-name="Rectángulo 302261" width="76.761" height="9.358" transform="translate(156.851 322.517)"/>
        <path id="Trazado_623737" data-name="Trazado 623737" d="M241.23,222.792H254a26.107,26.107,0,0,0,14.1-4.126l13.233-8.466a15.246,15.246,0,0,0-12.251-6.2H256.432a15.222,15.222,0,0,0-15.2,15.206Zm0,0" transform="translate(-67.52)"/>
      </g>
    </g>
  </g>
</svg>
