<svg xmlns="http://www.w3.org/2000/svg" xmlns:xlink="http://www.w3.org/1999/xlink" width="198.756" height="200.103" viewBox="0 0 198.756 200.103">
  <defs>
    <filter id="Elipse_6253" x="0" y="0" width="198.756" height="198.756" filterUnits="userSpaceOnUse">
      <feOffset dy="3" input="SourceAlpha"/>
      <feGaussianBlur stdDeviation="3" result="blur"/>
      <feFlood flood-opacity="0.161"/>
      <feComposite operator="in" in2="blur"/>
      <feComposite in="SourceGraphic"/>
    </filter>
  </defs>
  <g id="Grupo_895229" data-name="Grupo 895229" transform="translate(-801 -862.436)">
    <g id="Grupo_894676" data-name="Grupo 894676" transform="translate(821.568 869.274)">
      <path id="Trazado_29" data-name="Trazado 29" d="M25.632,310.921l-141.34,141.34a12.348,12.348,0,0,1-17.464,0h0a12.349,12.349,0,0,1,0-17.464L8.167,293.457a12.349,12.349,0,0,1,17.464,0h0A12.349,12.349,0,0,1,25.632,310.921Z" transform="translate(136.79 -289.84)" fill="none" stroke="#8f9294" stroke-miterlimit="10" stroke-width="2"/>
      <path id="Trazado_30" data-name="Trazado 30" d="M31.961,404.253-75.923,512.136a9.426,9.426,0,0,1-13.33,0h0a9.426,9.426,0,0,1,0-13.331L18.63,390.923a9.427,9.427,0,0,1,13.331,0h0A9.427,9.427,0,0,1,31.961,404.253Z" transform="translate(121.856 -322.633)" fill="none" stroke="#8f9294" stroke-miterlimit="10" stroke-width="2"/>
    </g>
    <g id="Grupo_895010" data-name="Grupo 895010">
      <g transform="matrix(1, 0, 0, 1, 801, 862.44)" filter="url(#Elipse_6253)">
        <g id="Elipse_6253-2" data-name="Elipse 6253" transform="translate(9 6)" fill="#fff" stroke="#fecb2f" stroke-width="3">
          <circle cx="90.378" cy="90.378" r="90.378" stroke="none"/>
          <circle cx="90.378" cy="90.378" r="88.878" fill="none"/>
        </g>
      </g>
      <g id="Grupo_895009" data-name="Grupo 895009" transform="translate(715.566 696.604)">
        <path id="Trazado_623738" data-name="Trazado 623738" d="M226.51,279.689h13.533L224.5,248.044v-.794a43.25,43.25,0,1,0-63.963,37.975l1.779.972v34.469h37.869V305.483h18.639ZM167.2,255.85l-4.834,4.834L149.073,247.4l13.288-13.287,4.834,4.834-8.455,8.453Zm13.516,9.7-6.672-1.485,7.748-34.829,6.672,1.485Zm19.428-4.87-4.834-4.834,8.455-8.453-8.455-8.453,4.834-4.834L213.427,247.4Zm0,0"/>
      </g>
    </g>
  </g>
</svg>
