<svg xmlns="http://www.w3.org/2000/svg" xmlns:xlink="http://www.w3.org/1999/xlink" width="170.578" height="170.578" viewBox="0 0 170.578 170.578">
  <defs>
    <filter id="Elipse_6253" x="0" y="0" width="170.578" height="170.578" filterUnits="userSpaceOnUse">
      <feOffset dy="3" input="SourceAlpha"/>
      <feGaussianBlur stdDeviation="3" result="blur"/>
      <feFlood flood-opacity="0.161"/>
      <feComposite operator="in" in2="blur"/>
      <feComposite in="SourceGraphic"/>
    </filter>
  </defs>
  <g id="Grupo_895225" data-name="Grupo 895225" transform="translate(-189.666 -6511.077)">
    <g id="Grupo_894676" data-name="Grupo 894676" transform="translate(208.588 6517.785)">
      <path id="Trazado_29" data-name="Trazado 29" d="M.312,307.635-119,426.942a10.423,10.423,0,0,1-14.742,0h0a10.424,10.424,0,0,1,0-14.742L-14.43,292.893a10.424,10.424,0,0,1,14.742,0h0A10.424,10.424,0,0,1,.312,307.635Z" transform="translate(136.79 -289.84)" fill="none" stroke="#8f9294" stroke-miterlimit="10" stroke-width="2"/>
      <path id="Trazado_30" data-name="Trazado 30" d="M12.634,401.745-78.431,492.81a7.957,7.957,0,0,1-11.252,0h0a7.956,7.956,0,0,1,0-11.253L1.382,390.492a7.957,7.957,0,0,1,11.253,0h0A7.957,7.957,0,0,1,12.634,401.745Z" transform="translate(117.204 -332.848)" fill="none" stroke="#8f9294" stroke-miterlimit="10" stroke-width="2"/>
    </g>
    <g transform="matrix(1, 0, 0, 1, 189.67, 6511.08)" filter="url(#Elipse_6253)">
      <g id="Elipse_6253-2" data-name="Elipse 6253" transform="translate(9 6)" fill="#fff" stroke="#fecb2f" stroke-width="3">
        <circle cx="76.289" cy="76.289" r="76.289" stroke="none"/>
        <circle cx="76.289" cy="76.289" r="74.789" fill="none"/>
      </g>
    </g>
    <g id="Grupo_894954" data-name="Grupo 894954" transform="translate(110.666 6339.077)">
      <path id="Trazado_623210" data-name="Trazado 623210" d="M215.108,262.813h-8.886V245.668H183.139L167.516,236V225.064h20.735V204H140.857v21.064h20.735V236l-15.623,9.664H122.886v17.145H114v17.773h8.886v15.636h30.194a11.85,11.85,0,0,0,22.946,0h30.194V280.586h8.886ZM200.3,290.3h-24.27a11.85,11.85,0,0,0-22.946,0h-24.27v-9.711H137.7V262.813h-8.886V251.592h17.158l18.585,11.5,18.585-11.5H200.3v11.221h-8.886v17.773H200.3Zm0,0"/>
    </g>
  </g>
</svg>
