<svg xmlns="http://www.w3.org/2000/svg" width="197.77" height="160.286" viewBox="0 0 197.77 160.286">
  <g id="Grupo_895193" data-name="Grupo 895193" transform="translate(13137.102 12216.48)">
    <path id="Rectángulo_297173" data-name="Rectángulo 297173" d="M4.57,0H148.334A4.568,4.568,0,0,1,152.9,4.568v91.47a4.57,4.57,0,0,1-4.57,4.57H4.57A4.57,4.57,0,0,1,0,96.039V4.57A4.57,4.57,0,0,1,4.57,0Z" transform="translate(-13114.48 -12194.54)" fill="#21cbae"/>
    <rect id="Rectángulo_297174" data-name="Rectángulo 297174" width="141.871" height="89.34" transform="translate(-13108.966 -12188.905)" fill="#bf3060"/>
    <path id="Trazado_605644" data-name="Trazado 605644" d="M1248.966,600.575v89.34h141.871Z" transform="translate(-14357.932 -12789.48)" fill="#d9d9d9" style="mix-blend-mode: multiply;isolation: isolate"/>
    <path id="Trazado_605645" data-name="Trazado 605645" d="M1397.309,697.394l21.29,29.545H1220.83l21-29.143a5.512,5.512,0,0,1,4.589-2.247h147.018A5.178,5.178,0,0,1,1397.309,697.394Z" transform="translate(-14357.932 -12789.48)" fill="#21cbae"/>
    <rect id="Rectángulo_297175" data-name="Rectángulo 297175" width="197.769" height="6.347" transform="translate(-13137.102 -12062.541)" fill="#137a68"/>
    <path id="Trazado_605646" data-name="Trazado 605646" d="M1248.508,698.7h141.8l12,16.927H1237.12Z" transform="translate(-14357.932 -12789.48)" fill="#137a68"/>
    <path id="Trazado_605647" data-name="Trazado 605647" d="M1305.09,716.962h28.977l5.274,7.439h-39.255Z" transform="translate(-14357.932 -12789.48)" fill="#137a68"/>
    <path id="Trazado_605648" data-name="Trazado 605648" d="M1355.736,587.716h-16.5V585.1l-8.385-2.882v-6.5H1312.91v6.5l-8.383,2.882v2.612h-16.5a2.467,2.467,0,0,0-2.466,2.466v85.792a2.466,2.466,0,0,0,2.466,2.466h67.706a2.466,2.466,0,0,0,2.464-2.466V590.182A2.467,2.467,0,0,0,1355.736,587.716Zm-39.8-10.01h11.893v5.076h-11.893Z" transform="translate(-14357.932 -12789.48)" fill="#4b57a2" style="mix-blend-mode: multiply;isolation: isolate"/>
    <path id="Rectángulo_297176" data-name="Rectángulo 297176" d="M2.466,0H70.172a2.466,2.466,0,0,1,2.466,2.466V88.257a2.465,2.465,0,0,1-2.465,2.465H2.467A2.467,2.467,0,0,1,0,88.255V2.466A2.466,2.466,0,0,1,2.466,0Z" transform="translate(-13074.852 -12204.487)" fill="#21cbae"/>
    <rect id="Rectángulo_297177" data-name="Rectángulo 297177" width="62.022" height="80.485" transform="translate(-13067.996 -12198.016)" fill="#b8cfde" style="mix-blend-mode: multiply;isolation: isolate"/>
    <rect id="Rectángulo_297178" data-name="Rectángulo 297178" width="62.024" height="80.486" transform="translate(-13069.545 -12199.37)" fill="#ffedb6"/>
    <path id="Trazado_605649" data-name="Trazado 605649" d="M1328.371,579.5V573h-17.943v6.5l-8.386,2.882V593.11h34.713V582.379Zm-3.025.561h-11.894v-5.076h11.894Z" transform="translate(-14357.932 -12789.48)" fill="#bf3060"/>
    <path id="Trazado_605650" data-name="Trazado 605650" d="M1305.524,589.631V583.37l4.9-3.874-8.385,2.883V593.11h34.712v-3.479Z" transform="translate(-14357.932 -12789.48)" fill="#c6c6c5" style="mix-blend-mode: multiply;isolation: isolate"/>
    <g id="Grupo_880836" data-name="Grupo 880836" transform="translate(-14357.932 -12789.48)">
      <rect id="Rectángulo_297179" data-name="Rectángulo 297179" width="16.245" height="16.632" transform="translate(1294.356 600.46)" fill="#fff"/>
      <g id="Grupo_880835" data-name="Grupo 880835">
        <g id="Grupo_880834" data-name="Grupo 880834">
          <path id="Trazado_605651" data-name="Trazado 605651" d="M1307.179,611.815a.893.893,0,0,0-.629-.728l-1.832-.621-.776-.289a2.122,2.122,0,0,1-2.928,0l-.778.289-1.833.621a.892.892,0,0,0-.626.728l-.578,3.154h10.557Z" fill="#c2def5"/>
          <path id="Trazado_605652" data-name="Trazado 605652" d="M1305.269,606.062c-.038,1.891-1.315,3.4-2.855,3.373s-2.76-1.586-2.725-3.478,1.313-3.4,2.854-3.371S1305.3,604.169,1305.269,606.062Z" fill="#c2def5"/>
        </g>
      </g>
    </g>
    <g id="Grupo_880839" data-name="Grupo 880839" transform="translate(-14357.932 -12789.48)">
      <rect id="Rectángulo_297180" data-name="Rectángulo 297180" width="16.245" height="16.631" transform="translate(1294.356 622.039)" fill="#fff"/>
      <g id="Grupo_880838" data-name="Grupo 880838">
        <g id="Grupo_880837" data-name="Grupo 880837">
          <path id="Trazado_605653" data-name="Trazado 605653" d="M1307.179,633.393a.894.894,0,0,0-.629-.729l-1.832-.621-.776-.289a2.119,2.119,0,0,1-2.928,0l-.778.289-1.833.621a.892.892,0,0,0-.626.729l-.578,3.153h10.557Z" fill="#c2def5"/>
          <path id="Trazado_605654" data-name="Trazado 605654" d="M1305.269,627.639c-.038,1.892-1.315,3.4-2.855,3.374s-2.76-1.586-2.725-3.48,1.313-3.4,2.854-3.371S1305.3,625.746,1305.269,627.639Z" fill="#c2def5"/>
        </g>
      </g>
    </g>
    <g id="Grupo_880842" data-name="Grupo 880842" transform="translate(-14357.932 -12789.48)">
      <rect id="Rectángulo_297181" data-name="Rectángulo 297181" width="16.245" height="16.632" transform="translate(1294.356 643.615)" fill="#fff"/>
      <g id="Grupo_880841" data-name="Grupo 880841">
        <g id="Grupo_880840" data-name="Grupo 880840">
          <path id="Trazado_605655" data-name="Trazado 605655" d="M1307.179,654.971a.89.89,0,0,0-.629-.729l-1.832-.621-.776-.291a2.116,2.116,0,0,1-2.928,0l-.778.291-1.833.621a.888.888,0,0,0-.626.729l-.578,3.153h10.557Z" fill="#c2def5"/>
          <path id="Trazado_605656" data-name="Trazado 605656" d="M1305.269,649.215c-.038,1.892-1.315,3.4-2.855,3.375s-2.76-1.586-2.725-3.48,1.313-3.4,2.854-3.37S1305.3,647.323,1305.269,649.215Z" fill="#c2def5"/>
        </g>
      </g>
    </g>
    <g id="Grupo_880843" data-name="Grupo 880843" transform="translate(-14357.932 -12789.48)">
      <path id="Trazado_605657" data-name="Trazado 605657" d="M1344.442,602.83a.63.63,0,0,1-.63.63h-29.487a.63.63,0,0,1-.632-.63h0a.63.63,0,0,1,.632-.63h29.487a.63.63,0,0,1,.63.63Z" fill="#b1daf5"/>
      <path id="Trazado_605658" data-name="Trazado 605658" d="M1344.442,606.794a.631.631,0,0,1-.63.631h-29.487a.631.631,0,0,1-.632-.631h0a.631.631,0,0,1,.632-.63h29.487a.631.631,0,0,1,.63.63Z" fill="#b1daf5"/>
      <path id="Trazado_605659" data-name="Trazado 605659" d="M1344.442,610.759a.63.63,0,0,1-.63.63h-29.487a.63.63,0,0,1-.632-.63h0a.631.631,0,0,1,.632-.631h29.487a.63.63,0,0,1,.63.631Z" fill="#b1daf5"/>
      <path id="Trazado_605660" data-name="Trazado 605660" d="M1344.442,614.723a.632.632,0,0,1-.63.632h-29.487a.632.632,0,0,1-.632-.632h0a.63.63,0,0,1,.632-.629h29.487a.63.63,0,0,1,.63.629Z" fill="#b1daf5"/>
    </g>
    <g id="Grupo_880844" data-name="Grupo 880844" transform="translate(-14357.932 -12789.48)">
      <path id="Trazado_605661" data-name="Trazado 605661" d="M1344.442,624.406a.631.631,0,0,1-.63.632h-29.487a.631.631,0,0,1-.632-.632h0a.631.631,0,0,1,.632-.63h29.487a.631.631,0,0,1,.63.63Z" fill="#b1daf5"/>
      <path id="Trazado_605662" data-name="Trazado 605662" d="M1344.442,628.372a.631.631,0,0,1-.63.63h-29.487a.631.631,0,0,1-.632-.63h0a.63.63,0,0,1,.632-.63h29.487a.63.63,0,0,1,.63.63Z" fill="#b1daf5"/>
      <path id="Trazado_605663" data-name="Trazado 605663" d="M1344.442,632.336a.629.629,0,0,1-.63.63h-29.487a.63.63,0,0,1-.632-.63h0a.63.63,0,0,1,.632-.63h29.487a.63.63,0,0,1,.63.63Z" fill="#b1daf5"/>
      <path id="Trazado_605664" data-name="Trazado 605664" d="M1344.442,636.3a.629.629,0,0,1-.63.63h-29.487a.63.63,0,0,1-.632-.63h0a.63.63,0,0,1,.632-.629h29.487a.63.63,0,0,1,.63.629Z" fill="#b1daf5"/>
    </g>
    <g id="Grupo_880845" data-name="Grupo 880845" transform="translate(-14357.932 -12789.48)">
      <path id="Trazado_605665" data-name="Trazado 605665" d="M1344.442,645.983a.629.629,0,0,1-.63.63h-29.487a.63.63,0,0,1-.632-.63h0a.632.632,0,0,1,.632-.63h29.487a.631.631,0,0,1,.63.63Z" fill="#b1daf5"/>
      <path id="Trazado_605666" data-name="Trazado 605666" d="M1344.442,649.947a.63.63,0,0,1-.63.632h-29.487a.631.631,0,0,1-.632-.632h0a.631.631,0,0,1,.632-.629h29.487a.63.63,0,0,1,.63.629Z" fill="#b1daf5"/>
      <path id="Trazado_605667" data-name="Trazado 605667" d="M1344.442,653.913a.631.631,0,0,1-.63.631h-29.487a.631.631,0,0,1-.632-.631h0a.63.63,0,0,1,.632-.63h29.487a.63.63,0,0,1,.63.63Z" fill="#b1daf5"/>
      <path id="Trazado_605668" data-name="Trazado 605668" d="M1344.442,657.878a.631.631,0,0,1-.63.63h-29.487a.631.631,0,0,1-.632-.63h0a.63.63,0,0,1,.632-.63h29.487a.629.629,0,0,1,.63.63Z" fill="#b1daf5"/>
    </g>
  </g>
</svg>
