<svg xmlns="http://www.w3.org/2000/svg" width="176.875" height="158.823" viewBox="0 0 176.875 158.823">
  <g id="Grupo_895192" data-name="Grupo 895192" transform="translate(13489.333 12071.194)">
    <rect id="Rectángulo_297169" data-name="Rectángulo 297169" width="119.758" height="155.408" transform="translate(-13432.217 -12071.194)" fill="#ffedb6"/>
    <rect id="Rectángulo_297170" data-name="Rectángulo 297170" width="31.365" height="32.113" transform="translate(-13420.691 -12040.1)" fill="#fff"/>
    <g id="Grupo_880821" data-name="Grupo 880821" transform="translate(-14368.458 -12474.799)">
      <g id="Grupo_880820" data-name="Grupo 880820">
        <path id="Trazado_605622" data-name="Trazado 605622" d="M972.525,456.625a1.722,1.722,0,0,0-1.212-1.409l-3.537-1.2-1.5-.559a4.091,4.091,0,0,1-5.652,0l-1.5.559-3.538,1.2a1.718,1.718,0,0,0-1.208,1.409l-1.118,6.088h20.387Z" fill="#c2def5"/>
        <path id="Trazado_605623" data-name="Trazado 605623" d="M968.835,445.512c-.069,3.654-2.534,6.57-5.506,6.515s-5.332-3.061-5.264-6.715,2.535-6.567,5.508-6.511S968.9,441.859,968.835,445.512Z" fill="#c2def5"/>
      </g>
    </g>
    <path id="Trazado_605624" data-name="Trazado 605624" d="M1044.477,439.274a1.219,1.219,0,0,1-1.217,1.218H986.323a1.217,1.217,0,0,1-1.217-1.218h0a1.214,1.214,0,0,1,1.217-1.216h56.937a1.216,1.216,0,0,1,1.217,1.216Z" transform="translate(-14368.458 -12474.799)" fill="#b1daf5"/>
    <path id="Trazado_605625" data-name="Trazado 605625" d="M1044.477,446.929a1.217,1.217,0,0,1-1.217,1.217H986.323a1.215,1.215,0,0,1-1.217-1.217h0a1.215,1.215,0,0,1,1.217-1.217h56.937a1.217,1.217,0,0,1,1.217,1.217Z" transform="translate(-14368.458 -12474.799)" fill="#b1daf5"/>
    <path id="Trazado_605626" data-name="Trazado 605626" d="M1044.477,454.583a1.217,1.217,0,0,1-1.217,1.218H986.323a1.215,1.215,0,0,1-1.217-1.218h0a1.214,1.214,0,0,1,1.217-1.215h56.937a1.216,1.216,0,0,1,1.217,1.215Z" transform="translate(-14368.458 -12474.799)" fill="#b1daf5"/>
    <path id="Trazado_605627" data-name="Trazado 605627" d="M1044.477,462.239a1.217,1.217,0,0,1-1.217,1.217H986.323a1.215,1.215,0,0,1-1.217-1.217h0a1.215,1.215,0,0,1,1.217-1.217h56.937a1.217,1.217,0,0,1,1.217,1.217Z" transform="translate(-14368.458 -12474.799)" fill="#b1daf5"/>
    <path id="Trazado_605628" data-name="Trazado 605628" d="M1044.477,477.233a1.217,1.217,0,0,1-1.217,1.217H948.374a1.217,1.217,0,0,1-1.217-1.217h0a1.217,1.217,0,0,1,1.217-1.217h94.886a1.217,1.217,0,0,1,1.217,1.217Z" transform="translate(-14368.458 -12474.799)" fill="#b1daf5"/>
    <path id="Trazado_605629" data-name="Trazado 605629" d="M1044.477,484.887a1.217,1.217,0,0,1-1.217,1.218H948.374a1.217,1.217,0,0,1-1.217-1.218h0a1.217,1.217,0,0,1,1.217-1.216h94.886a1.217,1.217,0,0,1,1.217,1.216Z" transform="translate(-14368.458 -12474.799)" fill="#b1daf5"/>
    <path id="Trazado_605630" data-name="Trazado 605630" d="M1044.477,492.543a1.217,1.217,0,0,1-1.217,1.217H948.374a1.217,1.217,0,0,1-1.217-1.217h0a1.218,1.218,0,0,1,1.217-1.217h94.886a1.218,1.218,0,0,1,1.217,1.217Z" transform="translate(-14368.458 -12474.799)" fill="#b1daf5"/>
    <path id="Trazado_605631" data-name="Trazado 605631" d="M1044.477,500.2a1.217,1.217,0,0,1-1.217,1.218H948.374a1.217,1.217,0,0,1-1.217-1.218h0a1.217,1.217,0,0,1,1.217-1.216h94.886a1.217,1.217,0,0,1,1.217,1.216Z" transform="translate(-14368.458 -12474.799)" fill="#b1daf5"/>
    <path id="Trazado_605632" data-name="Trazado 605632" d="M1044.477,510.782A1.217,1.217,0,0,1,1043.26,512H948.374a1.217,1.217,0,0,1-1.217-1.217h0a1.218,1.218,0,0,1,1.217-1.217h94.886a1.218,1.218,0,0,1,1.217,1.217Z" transform="translate(-14368.458 -12474.799)" fill="#b1daf5"/>
    <path id="Trazado_605633" data-name="Trazado 605633" d="M1044.477,518.437a1.218,1.218,0,0,1-1.217,1.217H948.374a1.218,1.218,0,0,1-1.217-1.217h0a1.216,1.216,0,0,1,1.217-1.216h94.886a1.216,1.216,0,0,1,1.217,1.216Z" transform="translate(-14368.458 -12474.799)" fill="#b1daf5"/>
    <path id="Trazado_605634" data-name="Trazado 605634" d="M1044.477,526.092a1.217,1.217,0,0,1-1.217,1.217H948.374a1.217,1.217,0,0,1-1.217-1.217h0a1.218,1.218,0,0,1,1.217-1.217h94.886a1.218,1.218,0,0,1,1.217,1.217Z" transform="translate(-14368.458 -12474.799)" fill="#b1daf5"/>
    <path id="Trazado_605635" data-name="Trazado 605635" d="M1044.477,533.747a1.217,1.217,0,0,1-1.217,1.217H948.374a1.217,1.217,0,0,1-1.217-1.217h0a1.216,1.216,0,0,1,1.217-1.216h94.886a1.216,1.216,0,0,1,1.217,1.216Z" transform="translate(-14368.458 -12474.799)" fill="#b1daf5"/>
    <path id="Trazado_605636" data-name="Trazado 605636" d="M1025.808,421.895a1.216,1.216,0,0,1-1.216,1.217H967.654a1.215,1.215,0,0,1-1.218-1.217h0a1.216,1.216,0,0,1,1.218-1.217h56.938a1.217,1.217,0,0,1,1.216,1.217Z" transform="translate(-14368.458 -12474.799)" fill="#b1daf5"/>
    <rect id="Rectángulo_297171" data-name="Rectángulo 297171" width="16.491" height="11.101" transform="translate(-13455.049 -11973.585) rotate(-61.322)" fill="#137a68"/>
    <path id="Trazado_605637" data-name="Trazado 605637" d="M978.31,468.351a35.619,35.619,0,1,1-14.154-48.342A35.616,35.616,0,0,1,978.31,468.351Z" transform="translate(-14368.458 -12474.799)" fill="#ffedb6" opacity="0.5"/>
    <path id="Trazado_605638" data-name="Trazado 605638" d="M941.052,416.157a35.612,35.612,0,1,0,12.159,70.178C948.815,463.012,945.173,439.537,941.052,416.157Z" transform="translate(-14368.458 -12474.799)" fill="#ffedb6" opacity="0.2"/>
    <path id="Trazado_605639" data-name="Trazado 605639" d="M969.3,410.6a46.344,46.344,0,1,0,18.417,62.9A46.346,46.346,0,0,0,969.3,410.6ZM929.97,482.507a35.618,35.618,0,1,1,48.34-14.156A35.619,35.619,0,0,1,929.97,482.507Z" transform="translate(-14368.458 -12474.799)" fill="#21cbae"/>
    <path id="Trazado_605640" data-name="Trazado 605640" d="M969.3,410.6a46.344,46.344,0,1,0,18.417,62.9A46.346,46.346,0,0,0,969.3,410.6Zm-42.058,76.888a41.3,41.3,0,1,1,56.046-16.412A41.3,41.3,0,0,1,927.245,487.487Z" transform="translate(-14368.458 -12474.799)" fill="#007db2" opacity="0.3" style="mix-blend-mode: multiply;isolation: isolate"/>
    <rect id="Rectángulo_297172" data-name="Rectángulo 297172" width="62.44" height="23.18" transform="matrix(0.48, -0.877, 0.877, 0.48, -13489.332, -11923.494)" fill="#bf3060"/>
    <path id="Trazado_605641" data-name="Trazado 605641" d="M889.611,549.969,916.6,500.63l-7.51-4.107L879.125,551.3l20.337,11.123,2.977-5.442Z" transform="translate(-14368.458 -12474.799)" fill="#c6c6c5" style="mix-blend-mode: multiply;isolation: isolate"/>
    <path id="Trazado_605642" data-name="Trazado 605642" d="M968.856,469.319a29.559,29.559,0,0,1-4.3,4.658" transform="translate(-14368.458 -12474.799)" fill="none" stroke="#fff" stroke-miterlimit="10" stroke-width="3.868"/>
    <path id="Trazado_605643" data-name="Trazado 605643" d="M959.255,425.495a29.738,29.738,0,0,1,11.816,40.359" transform="translate(-14368.458 -12474.799)" fill="none" stroke="#fff" stroke-miterlimit="10" stroke-width="3.868"/>
  </g>
</svg>
