<svg xmlns="http://www.w3.org/2000/svg" xmlns:xlink="http://www.w3.org/1999/xlink" width="153" height="153" viewBox="0 0 153 153">
  <defs>
    <filter id="Elipse_5228" x="0" y="0" width="153" height="153" filterUnits="userSpaceOnUse">
      <feOffset dy="3" input="SourceAlpha"/>
      <feGaussianBlur stdDeviation="3" result="blur"/>
      <feFlood flood-opacity="0.161"/>
      <feComposite operator="in" in2="blur"/>
      <feComposite in="SourceGraphic"/>
    </filter>
  </defs>
  <g id="Grupo_895206" data-name="Grupo 895206" transform="translate(6224 11163.071)">
    <g transform="matrix(1, 0, 0, 1, -6224, -11163.07)" filter="url(#Elipse_5228)">
      <g id="Elipse_5228-2" data-name="Elipse 5228" transform="translate(9 6)" fill="#fff" stroke="#fecb2f" stroke-width="3">
        <circle cx="67.5" cy="67.5" r="67.5" stroke="none"/>
        <circle cx="67.5" cy="67.5" r="66" fill="none"/>
      </g>
    </g>
    <g id="Grupo_881292" data-name="Grupo 881292" transform="translate(-6190 -11135.071)">
      <g id="Grupo_881291" data-name="Grupo 881291" transform="translate(0 0)">
        <g id="Grupo_881290" data-name="Grupo 881290">
          <g id="Grupo_881266" data-name="Grupo 881266" transform="translate(0 7.787)">
            <g id="Grupo_881251" data-name="Grupo 881251" transform="translate(40.888 52.482)">
              <path id="Trazado_622497" data-name="Trazado 622497" d="M1317.338,1245.291c-7.769,0-19.6-3.6-32.929-10.367l-1.018-.516,1.018-.516c2.5-1.26,4.928-2.575,7.234-3.909a139.281,139.281,0,0,0,18.331-12.549l.447-.366.534.647a74.59,74.59,0,0,1,10.691,10.467l.376.464-.477.361a1.684,1.684,0,0,0-.672,1.354,1.724,1.724,0,0,0,1.723,1.721,1.77,1.77,0,0,0,.964-.294l.5-.316.308.5c2.51,4.088,3.117,7.5,1.755,9.859C1324.766,1244.162,1321.688,1245.291,1317.338,1245.291Zm-31.387-10.885c19.151,9.537,35.887,12.493,39.167,6.848,1.088-1.888.582-4.722-1.466-8.217a2.875,2.875,0,0,1-3.244-4.543,75.744,75.744,0,0,0-10.108-9.834,141.074,141.074,0,0,1-18.079,12.324C1290.213,1232.148,1288.108,1233.3,1285.951,1234.406Z" transform="translate(-1283.391 -1217.069)" fill="#2d2d2a"/>
            </g>
            <g id="Grupo_881252" data-name="Grupo 881252" transform="translate(77.214 62.908)">
              <path id="Trazado_622498" data-name="Trazado 622498" d="M1317.672,1231.827a2.881,2.881,0,0,1-2.879-2.878,2.827,2.827,0,0,1,1.131-2.277,2.875,2.875,0,1,1,3.345,4.672A2.926,2.926,0,0,1,1317.672,1231.827Zm0-4.588a1.72,1.72,0,0,0-1.049.354,1.687,1.687,0,0,0-.673,1.356,1.724,1.724,0,0,0,1.723,1.721,1.768,1.768,0,0,0,.964-.294,1.714,1.714,0,0,0-.964-3.137Z" transform="translate(-1314.793 -1226.082)" fill="#2d2d2a"/>
            </g>
            <g id="Grupo_881253" data-name="Grupo 881253" transform="translate(73.416 23.72)">
              <path id="Trazado_622499" data-name="Trazado 622499" d="M1314.389,1197.938a2.867,2.867,0,1,1,2.865-2.865,3.026,3.026,0,0,1-.026.354A2.857,2.857,0,0,1,1314.389,1197.938Zm0-4.576a1.71,1.71,0,1,0,0,3.42,1.7,1.7,0,0,0,1.691-1.485,2.035,2.035,0,0,0,.017-.223A1.712,1.712,0,0,0,1314.389,1193.362Z" transform="translate(-1311.51 -1192.205)" fill="#2d2d2a"/>
            </g>
            <g id="Grupo_881254" data-name="Grupo 881254" transform="translate(25.604)">
              <path id="Trazado_622500" data-name="Trazado 622500" d="M1297.567,1206.35h-20.173v-3.288a17.313,17.313,0,1,1,20.173,0Zm-19.016-1.157h17.859v-2.734l.249-.172a16.146,16.146,0,1,0-18.357,0l.249.172Z" transform="translate(-1270.178 -1171.7)" fill="#2d2d2a"/>
            </g>
            <g id="Grupo_881255" data-name="Grupo 881255" transform="translate(32.82 40.18)">
              <path id="Trazado_622501" data-name="Trazado 622501" d="M1296.589,1210.668h-20.173v-4.234h20.173Zm-19.016-1.157h17.86v-1.92h-17.86Z" transform="translate(-1276.416 -1206.434)" fill="#2d2d2a"/>
            </g>
            <g id="Grupo_881256" data-name="Grupo 881256" transform="translate(32.82 36.978)">
              <path id="Trazado_622502" data-name="Trazado 622502" d="M1296.589,1208.025h-20.173v-4.359h20.173Zm-19.016-1.157h17.86v-2.045h-17.86Z" transform="translate(-1276.416 -1203.666)" fill="#2d2d2a"/>
            </g>
            <g id="Grupo_881257" data-name="Grupo 881257" transform="translate(32.82 33.494)">
              <path id="Trazado_622503" data-name="Trazado 622503" d="M1296.589,1205.295h-20.173v-4.641h20.173Zm-19.016-1.157h17.86v-2.328h-17.86Z" transform="translate(-1276.416 -1200.654)" fill="#2d2d2a"/>
            </g>
            <g id="Grupo_881258" data-name="Grupo 881258" transform="translate(36.132 43.257)">
              <path id="Trazado_622504" data-name="Trazado 622504" d="M1292.838,1215.865h-13.559v-6.771h13.559Zm-12.4-1.157h11.245v-4.457h-11.245Z" transform="translate(-1279.279 -1209.094)" fill="#2d2d2a"/>
            </g>
            <g id="Grupo_881260" data-name="Grupo 881260" transform="translate(40.339 48.871)">
              <path id="Trazado_622506" data-name="Trazado 622506" d="M1288.064,1219.985h-5.148v-6.038h5.148Zm-3.991-1.157h2.834V1215.1h-2.834Z" transform="translate(-1282.916 -1213.947)" fill="#2d2d2a"/>
            </g>
            <g id="Grupo_881263" data-name="Grupo 881263" transform="translate(0 25.968)">
              <path id="Trazado_622509" data-name="Trazado 622509" d="M1264.586,1222.355l-.374-.4c-12.555-10.266-18.325-19.379-15.436-24.379,1.793-3.123,6.688-4.137,14.157-2.943l.58.094-.1.577a1.907,1.907,0,0,0-.026.318,1.722,1.722,0,0,0,3.4.378l.132-.571.57.14a94.731,94.731,0,0,1,13.766,4.649h.767v10.244h-.535a136.907,136.907,0,0,0-16.533,11.482Zm-7.147-27.048c-3.926,0-6.581.968-7.661,2.848-2.479,4.288,3.328,13.14,14.807,22.611a137.793,137.793,0,0,1,16.28-11.279v-8.175a94.743,94.743,0,0,0-13.14-4.49,2.879,2.879,0,0,1-5.5-1.125A33.1,33.1,0,0,0,1257.439,1195.307Z" transform="translate(-1248.045 -1194.149)" fill="#2d2d2a"/>
            </g>
            <g id="Grupo_881264" data-name="Grupo 881264" transform="translate(14.183 24.566)">
              <path id="Trazado_622510" data-name="Trazado 622510" d="M1263.183,1198.692a2.886,2.886,0,0,1-2.833-3.394v-.009a2.88,2.88,0,0,1,5.711.525,3.042,3.042,0,0,1-.067.625A2.879,2.879,0,0,1,1263.183,1198.692Zm-1.695-3.192a1.843,1.843,0,0,0-.027.314,1.722,1.722,0,0,0,3.4.378,1.867,1.867,0,0,0,.042-.378,1.723,1.723,0,0,0-3.417-.314Z" transform="translate(-1260.305 -1192.936)" fill="#2d2d2a"/>
            </g>
            <g id="Grupo_881265" data-name="Grupo 881265" transform="translate(3.825 77.057)">
              <path id="Trazado_622511" data-name="Trazado 622511" d="M1254.217,1244.056a2.875,2.875,0,0,1-2.865-2.878,3.07,3.07,0,0,1,.067-.64,2.869,2.869,0,0,1,5.665.64,1.384,1.384,0,0,1-.023.282A2.843,2.843,0,0,1,1254.217,1244.056Zm0-4.587a1.7,1.7,0,0,0-1.668,1.32,1.792,1.792,0,0,0-.041.389,1.706,1.706,0,0,0,3.408.132l.589-.132h-.578A1.711,1.711,0,0,0,1254.217,1239.47Z" transform="translate(-1251.351 -1238.313)" fill="#2d2d2a"/>
            </g>
          </g>
          <g id="Grupo_881289" data-name="Grupo 881289">
            <g id="Grupo_881267" data-name="Grupo 881267" transform="translate(25.604 7.787)">
              <path id="Trazado_622512" data-name="Trazado 622512" d="M1297.567,1216.114h-3.881v-1.157h2.724v-12.5l.249-.172a16.146,16.146,0,1,0-18.357,0l.249.172v12.5h2.734v1.157h-3.89v-13.051a17.313,17.313,0,1,1,20.173,0Z" transform="translate(-1270.178 -1171.7)" fill="#2d2d2a"/>
            </g>
            <g id="Grupo_881268" data-name="Grupo 881268" transform="translate(0.001 48.994)">
              <path id="Trazado_622513" data-name="Trazado 622513" d="M1252.3,1246.064a6.225,6.225,0,0,1-3.525-2.706c-2.88-4.971,2.89-14.079,15.437-24.362a137.9,137.9,0,0,1,16.821-11.674l.591.995a136.9,136.9,0,0,0-16.669,11.563c-11.72,9.607-17.673,18.593-15.177,22.9a5.12,5.12,0,0,0,2.906,2.191Z" transform="translate(-1248.046 -1207.322)" fill="#2d2d2a"/>
            </g>
            <g id="Grupo_881269" data-name="Grupo 881269" transform="translate(8.967 34.101)">
              <path id="Trazado_622514" data-name="Trazado 622514" d="M1256.244,1248.809c-.152,0-.3,0-.448,0l.022-1.157c7.708.12,20.038-3.67,32.917-10.21,2.5-1.26,4.928-2.575,7.233-3.909a139.287,139.287,0,0,0,18.332-12.549c11.694-9.575,17.637-18.551,15.144-22.872a5.912,5.912,0,0,0-4.162-2.529l.237-1.132a7,7,0,0,1,4.925,3.08c2.88,4.989-2.88,14.09-15.41,24.347a140.323,140.323,0,0,1-18.487,12.656c-2.323,1.344-4.775,2.67-7.289,3.94C1276.461,1244.967,1264.175,1248.807,1256.244,1248.809Z" transform="translate(-1255.796 -1194.448)" fill="#2d2d2a"/>
            </g>
            <g id="Grupo_881270" data-name="Grupo 881270" transform="translate(52.38 33.771)">
              <path id="Trazado_622515" data-name="Trazado 622515" d="M1293.757,1200.769l-.432-1.073c8.469-3.414,15.937-5.326,21.593-5.533l.043,1.157C1309.514,1195.518,1301.985,1197.454,1293.757,1200.769Z" transform="translate(-1293.325 -1194.163)" fill="#2d2d2a"/>
            </g>
            <g id="Grupo_881271" data-name="Grupo 881271" transform="translate(67.639 60.837)">
              <path id="Trazado_622516" data-name="Trazado 622516" d="M1317.122,1228.833a74.509,74.509,0,0,0-10.605-10.379l.733-.894a75.656,75.656,0,0,1,10.771,10.545Z" transform="translate(-1306.516 -1217.56)" fill="#2d2d2a"/>
            </g>
            <g id="Grupo_881272" data-name="Grupo 881272" transform="translate(0 33.755)">
              <path id="Trazado_622517" data-name="Trazado 622517" d="M1322.88,1248.885c-7.769,0-19.6-3.6-32.929-10.367-2.515-1.27-4.967-2.595-7.289-3.939a140.322,140.322,0,0,1-18.451-12.622c-12.553-10.266-18.323-19.379-15.435-24.379,1.793-3.123,6.688-4.137,14.157-2.943l-.183,1.144c-6.853-1.1-11.459-.257-12.972,2.376-2.5,4.333,3.448,13.325,15.165,22.907a139,139,0,0,0,18.3,12.516c2.3,1.334,4.734,2.648,7.232,3.909,19.575,9.942,36.848,13.109,40.186,7.362,1.136-1.97.536-4.969-1.74-8.673l.986-.606c2.51,4.088,3.117,7.5,1.755,9.859C1330.308,1247.756,1327.23,1248.885,1322.88,1248.885Z" transform="translate(-1248.045 -1194.149)" fill="#2d2d2a"/>
            </g>
            <g id="Grupo_881273" data-name="Grupo 881273" transform="translate(19.167 35.177)">
              <path id="Trazado_622518" data-name="Trazado 622518" d="M1278.316,1201.139a93.809,93.809,0,0,0-13.7-4.638l.276-1.123a94.626,94.626,0,0,1,13.873,4.7Z" transform="translate(-1264.614 -1195.378)" fill="#2d2d2a"/>
            </g>
            <g id="Grupo_881274" data-name="Grupo 881274" transform="translate(41.308)">
              <rect id="Rectángulo_297188" data-name="Rectángulo 297188" width="1.157" height="5.659" fill="#2d2d2a"/>
            </g>
            <g id="Grupo_881275" data-name="Grupo 881275" transform="translate(48.128 0.685)">
              <rect id="Rectángulo_297189" data-name="Rectángulo 297189" width="5.669" height="1.157" transform="translate(0 5.481) rotate(-75.177)" fill="#2d2d2a"/>
            </g>
            <g id="Grupo_881276" data-name="Grupo 881276" transform="translate(54.576 3.5)">
              <path id="Trazado_622519" data-name="Trazado 622519" d="M1296.227,1173.486l-1-.576,2.816-4.915,1,.576Z" transform="translate(-1295.224 -1167.994)" fill="#2d2d2a"/>
            </g>
            <g id="Grupo_881277" data-name="Grupo 881277" transform="translate(25.635 4.434)">
              <rect id="Rectángulo_297190" data-name="Rectángulo 297190" width="1.158" height="5.662" transform="translate(0 0.578) rotate(-29.972)" fill="#2d2d2a"/>
            </g>
            <g id="Grupo_881278" data-name="Grupo 881278" transform="translate(33.153 1.182)">
              <rect id="Rectángulo_297191" data-name="Rectángulo 297191" width="1.157" height="5.658" transform="translate(0 0.297) rotate(-14.889)" fill="#2d2d2a"/>
            </g>
            <g id="Grupo_881279" data-name="Grupo 881279" transform="translate(29.177 12.105)">
              <path id="Trazado_622520" data-name="Trazado 622520" d="M1275.823,1197.273l-1.429-2.5,2.935-2.337a9.7,9.7,0,0,1-.341-1.271l-3.721-.551v-2.891l3.72-.566a10.041,10.041,0,0,1,.341-1.27l-2.934-2.338,1.429-2.5,3.507,1.375a9.526,9.526,0,0,1,.927-.921l-1.372-3.5,2.5-1.445,2.343,2.93a12.232,12.232,0,0,1,1.277-.337l.554-3.718h2.891l.554,3.715a10.755,10.755,0,0,1,1.277.34l2.345-2.93,2.493,1.445-1.371,3.5a9.017,9.017,0,0,1,.922.92l3.5-1.372,1.443,2.5-2.937,2.339a9.676,9.676,0,0,1,.333,1.27l3.731.566v2.878l-3.732.562a9.455,9.455,0,0,1-.333,1.272l2.938,2.338-1.443,2.5-3.89-1.522.422-1.078,2.964,1.16.446-.773-2.818-2.243.155-.4a8.275,8.275,0,0,0,.485-1.846l.062-.426,3.586-.54v-.889l-3.586-.542-.062-.423a8.254,8.254,0,0,0-.483-1.845l-.156-.4,2.818-2.244-.446-.775-3.363,1.319-.266-.335a7.884,7.884,0,0,0-1.337-1.335l-.339-.265,1.319-3.366-.774-.449-2.239,2.8-.394-.148a10.038,10.038,0,0,0-1.871-.5l-.418-.067-.531-3.554h-.9l-.527,3.546-.407.075a10.863,10.863,0,0,0-1.887.5l-.392.147-2.239-2.8-.776.449,1.319,3.364-.338.266a8.615,8.615,0,0,0-1.352,1.342l-.266.328-3.356-1.315-.441.773,2.819,2.245-.155.4a8.417,8.417,0,0,0-.494,1.847l-.062.423-3.575.542v.9l3.575.53.062.427a8.5,8.5,0,0,0,.494,1.849l.155.4-2.819,2.243.441.77,2.963-1.159.422,1.078Z" transform="translate(-1273.267 -1175.433)" fill="#2d2d2a"/>
            </g>
            <g id="Grupo_881280" data-name="Grupo 881280" transform="translate(30.95 41.281)">
              <rect id="Rectángulo_297192" data-name="Rectángulo 297192" width="23.923" height="1.157" fill="#2d2d2a"/>
            </g>
            <g id="Grupo_881281" data-name="Grupo 881281" transform="translate(30.95 44.764)">
              <rect id="Rectángulo_297193" data-name="Rectángulo 297193" width="23.923" height="1.157" fill="#2d2d2a"/>
            </g>
            <g id="Grupo_881282" data-name="Grupo 881282" transform="translate(30.95 47.966)">
              <rect id="Rectángulo_297194" data-name="Rectángulo 297194" width="23.923" height="1.157" fill="#2d2d2a"/>
            </g>
            <g id="Grupo_881283" data-name="Grupo 881283" transform="translate(36.132 51.043)">
              <path id="Trazado_622521" data-name="Trazado 622521" d="M1292.838,1215.865h-4.782v-1.157h3.625v-4.458h-11.245v4.458h3.628v1.157h-4.785v-6.771h13.558Z" transform="translate(-1279.279 -1209.094)" fill="#2d2d2a"/>
            </g>
            <g id="Grupo_881284" data-name="Grupo 881284" transform="translate(40.339 56.657)">
              <path id="Trazado_622522" data-name="Trazado 622522" d="M1288.064,1219.985h-5.148v-6.038h5.148Zm-3.991-1.157h2.834V1215.1h-2.834Z" transform="translate(-1282.916 -1213.947)" fill="#2d2d2a"/>
            </g>
            <g id="Grupo_881285" data-name="Grupo 881285" transform="translate(14.183 32.352)">
              <path id="Trazado_622523" data-name="Trazado 622523" d="M1263.183,1198.692a2.886,2.886,0,0,1-2.833-3.394v-.009a2.88,2.88,0,0,1,5.711.525,3.042,3.042,0,0,1-.067.625A2.879,2.879,0,0,1,1263.183,1198.692Zm-1.695-3.192a1.843,1.843,0,0,0-.027.314,1.722,1.722,0,0,0,3.4.378,1.867,1.867,0,0,0,.042-.378,1.723,1.723,0,0,0-3.417-.314Z" transform="translate(-1260.305 -1192.936)" fill="#2d2d2a"/>
            </g>
            <g id="Grupo_881286" data-name="Grupo 881286" transform="translate(77.214 70.695)">
              <path id="Trazado_622524" data-name="Trazado 622524" d="M1317.672,1231.827a2.881,2.881,0,0,1-2.879-2.878,2.825,2.825,0,0,1,1.13-2.276h0a2.875,2.875,0,1,1,3.347,4.671A2.926,2.926,0,0,1,1317.672,1231.827Zm0-4.588a1.72,1.72,0,0,0-1.049.354h0a1.684,1.684,0,0,0-.672,1.355,1.724,1.724,0,0,0,1.723,1.721,1.768,1.768,0,0,0,.964-.294,1.714,1.714,0,0,0-.964-3.137Z" transform="translate(-1314.793 -1226.082)" fill="#2d2d2a"/>
            </g>
            <g id="Grupo_881287" data-name="Grupo 881287" transform="translate(3.825 84.844)">
              <path id="Trazado_622525" data-name="Trazado 622525" d="M1254.217,1244.056a2.875,2.875,0,0,1-2.865-2.878,3.07,3.07,0,0,1,.067-.64l0-.009a2.869,2.869,0,0,1,5.662.649,1.384,1.384,0,0,1-.023.282A2.843,2.843,0,0,1,1254.217,1244.056Zm-1.667-3.271a1.833,1.833,0,0,0-.042.393,1.706,1.706,0,0,0,3.408.132l.589-.132h-.578a1.712,1.712,0,0,0-3.377-.393Z" transform="translate(-1251.351 -1238.313)" fill="#2d2d2a"/>
            </g>
            <g id="Grupo_881288" data-name="Grupo 881288" transform="translate(73.416 31.506)">
              <path id="Trazado_622526" data-name="Trazado 622526" d="M1314.389,1197.938a2.875,2.875,0,0,1-2.879-2.865v-.029a2.872,2.872,0,0,1,5.745.029,3.026,3.026,0,0,1-.026.354A2.857,2.857,0,0,1,1314.389,1197.938Zm-1.723-2.887v.022a1.718,1.718,0,0,0,1.723,1.709,1.7,1.7,0,0,0,1.691-1.485,2.035,2.035,0,0,0,.017-.223,1.716,1.716,0,0,0-3.431-.022Z" transform="translate(-1311.51 -1192.205)" fill="#2d2d2a"/>
            </g>
          </g>
        </g>
      </g>
    </g>
  </g>
</svg>
