<svg xmlns="http://www.w3.org/2000/svg" xmlns:xlink="http://www.w3.org/1999/xlink" width="170.578" height="170.578" viewBox="0 0 170.578 170.578">
  <defs>
    <filter id="Elipse_6253" x="0" y="0" width="170.578" height="170.578" filterUnits="userSpaceOnUse">
      <feOffset dy="3" input="SourceAlpha"/>
      <feGaussianBlur stdDeviation="3" result="blur"/>
      <feFlood flood-opacity="0.161"/>
      <feComposite operator="in" in2="blur"/>
      <feComposite in="SourceGraphic"/>
    </filter>
    <clipPath id="clip-path">
      <rect id="Rectángulo_301224" data-name="Rectángulo 301224" width="100" height="99" transform="translate(0.22 0.462)" fill="none"/>
    </clipPath>
  </defs>
  <g id="Grupo_895222" data-name="Grupo 895222" transform="translate(-189.823 -4909.077)">
    <g id="Grupo_894676" data-name="Grupo 894676" transform="translate(208.588 4915.785)">
      <path id="Trazado_29" data-name="Trazado 29" d="M.312,307.635-119,426.942a10.423,10.423,0,0,1-14.742,0h0a10.424,10.424,0,0,1,0-14.742L-14.43,292.893a10.424,10.424,0,0,1,14.742,0h0A10.424,10.424,0,0,1,.312,307.635Z" transform="translate(136.79 -289.84)" fill="none" stroke="#8f9294" stroke-miterlimit="10" stroke-width="2"/>
      <path id="Trazado_30" data-name="Trazado 30" d="M12.634,401.745-78.431,492.81a7.957,7.957,0,0,1-11.252,0h0a7.956,7.956,0,0,1,0-11.253L1.382,390.492a7.957,7.957,0,0,1,11.253,0h0A7.957,7.957,0,0,1,12.634,401.745Z" transform="translate(117.204 -332.848)" fill="none" stroke="#8f9294" stroke-miterlimit="10" stroke-width="2"/>
    </g>
    <g transform="matrix(1, 0, 0, 1, 189.82, 4909.08)" filter="url(#Elipse_6253)">
      <g id="Elipse_6253-2" data-name="Elipse 6253" transform="translate(9 6)" fill="#fff" stroke="#fecb2f" stroke-width="3">
        <circle cx="76.289" cy="76.289" r="76.289" stroke="none"/>
        <circle cx="76.289" cy="76.289" r="74.789" fill="none"/>
      </g>
    </g>
    <g id="Grupo_894675" data-name="Grupo 894675" transform="translate(224.446 4941.615)">
      <g id="Grupo_894674" data-name="Grupo 894674" transform="translate(0 0)">
        <g id="Grupo_894673" data-name="Grupo 894673" transform="translate(0 0)" clip-path="url(#clip-path)">
          <path id="Trazado_623202" data-name="Trazado 623202" d="M145.968,477.823l-12.508-12.5-16.876,16.875A8.843,8.843,0,0,0,129.09,494.7Zm0,0" transform="translate(-113.818 -397.781)"/>
          <path id="Trazado_623203" data-name="Trazado 623203" d="M225.2,438.925a41.3,41.3,0,0,1-3.219-3.62l-6.509,6.509,6.839,6.837,6.51-6.51a41.22,41.22,0,0,1-3.621-3.216Zm0,0" transform="translate(-188.845 -375.588)"/>
          <path id="Trazado_623204" data-name="Trazado 623204" d="M229.422,238.995a34.954,34.954,0,1,0,10.237-24.756,34.773,34.773,0,0,0-10.237,24.756Zm51.2-11.4,11.4,11.4-11.4,11.4-4.146-4.146,7.252-7.252-7.252-7.251ZM270.6,224.7l-6.646,29.873-5.724-1.274,6.647-29.873Zm-22.387,2.9,4.146,4.146-7.252,7.251,7.252,7.252-4.146,4.146-11.4-11.4Zm0,0" transform="translate(-199.162 -204.561)"/>
        </g>
      </g>
    </g>
  </g>
</svg>
