<svg xmlns="http://www.w3.org/2000/svg" xmlns:xlink="http://www.w3.org/1999/xlink" width="153" height="153" viewBox="0 0 153 153">
  <defs>
    <filter id="Elipse_5232" x="0" y="0" width="153" height="153" filterUnits="userSpaceOnUse">
      <feOffset dy="3" input="SourceAlpha"/>
      <feGaussianBlur stdDeviation="3" result="blur"/>
      <feFlood flood-opacity="0.161"/>
      <feComposite operator="in" in2="blur"/>
      <feComposite in="SourceGraphic"/>
    </filter>
  </defs>
  <g id="Grupo_895209" data-name="Grupo 895209" transform="translate(5166.239 11163.404)">
    <g transform="matrix(1, 0, 0, 1, -5166.24, -11163.4)" filter="url(#Elipse_5232)">
      <g id="Elipse_5232-2" data-name="Elipse 5232" transform="translate(9 6)" fill="#fff" stroke="#fecb2f" stroke-width="3">
        <circle cx="67.5" cy="67.5" r="67.5" stroke="none"/>
        <circle cx="67.5" cy="67.5" r="66" fill="none"/>
      </g>
    </g>
    <g id="Grupo_880984" data-name="Grupo 880984" transform="translate(-5131.239 -11133.404)">
      <g id="Grupo_880983" data-name="Grupo 880983" transform="translate(0 0)">
        <g id="Grupo_880960" data-name="Grupo 880960" transform="translate(0 7.303)">
          <g id="Grupo_880959" data-name="Grupo 880959">
            <g id="Grupo_880958" data-name="Grupo 880958">
              <path id="Trazado_622347" data-name="Trazado 622347" d="M1513.04,1480.281h-5.879a.713.713,0,0,1-.7-.608l-1.616-10.8a30.574,30.574,0,0,1-5.3-1.411l-6.8,8.541a.712.712,0,0,1-.913.172l-5.089-2.94a.711.711,0,0,1-.307-.875l4-10.177a31.281,31.281,0,0,1-3.872-3.874l-10.179,4a.711.711,0,0,1-.877-.305l-2.939-5.09a.712.712,0,0,1,.173-.913l8.55-6.811a30.481,30.481,0,0,1-1.42-5.293l-10.806-1.626a.711.711,0,0,1-.605-.7v-5.878a.712.712,0,0,1,.605-.7l10.806-1.627a30.756,30.756,0,0,1,1.42-5.291l-8.55-6.8a.712.712,0,0,1-.173-.913l2.939-5.09a.717.717,0,0,1,.876-.306l10.18,4a31.961,31.961,0,0,1,3.872-3.874l-4-10.175a.712.712,0,0,1,.307-.876l5.089-2.941a.709.709,0,0,1,.913.173l6.8,8.55a30.767,30.767,0,0,1,5.3-1.422l.946-6.3a.711.711,0,1,1,1.406.212l-1.022,6.813a.712.712,0,0,1-.6.6,29.35,29.35,0,0,0-6.019,1.611.712.712,0,0,1-.812-.221l-6.741-8.474-4.028,2.327,3.96,10.087a.713.713,0,0,1-.213.812,30.341,30.341,0,0,0-4.4,4.4.708.708,0,0,1-.812.213l-10.089-3.96-2.326,4.028,8.475,6.743a.715.715,0,0,1,.221.812,29.264,29.264,0,0,0-1.61,6.007.712.712,0,0,1-.6.593l-10.713,1.614v4.653l10.713,1.612a.712.712,0,0,1,.6.594,29.053,29.053,0,0,0,1.609,6.006.713.713,0,0,1-.22.813l-8.475,6.751,2.326,4.029,10.089-3.969a.707.707,0,0,1,.812.212,29.842,29.842,0,0,0,4.4,4.4.71.71,0,0,1,.215.813l-3.96,10.088,4.028,2.327,6.742-8.467a.71.71,0,0,1,.812-.22,29.076,29.076,0,0,0,6.018,1.6.712.712,0,0,1,.6.6l1.6,10.712h4.653l1.612-10.713a.712.712,0,0,1,.6-.6,28.942,28.942,0,0,0,6.006-1.6.717.717,0,0,1,.813.22l6.75,8.467,4.029-2.327-3.971-10.087a.711.711,0,0,1,.217-.815,28.986,28.986,0,0,0,4.407-4.4.708.708,0,0,1,.815-.214l10.077,3.959,2.326-4.019-8.465-6.753a.709.709,0,0,1-.22-.812,29.041,29.041,0,0,0,1.6-6.006.712.712,0,0,1,.6-.594l10.713-1.612V1436.3l-10.713-1.614a.712.712,0,0,1-.6-.593,29.266,29.266,0,0,0-1.6-6.007.71.71,0,0,1,.221-.811l5.164-4.122a.711.711,0,1,1,.888,1.112l-4.762,3.8a30.722,30.722,0,0,1,1.411,5.292l10.806,1.627a.711.711,0,0,1,.605.7v5.878a.711.711,0,0,1-.605.7l-10.806,1.626a30.382,30.382,0,0,1-1.411,5.293l8.541,6.812a.71.71,0,0,1,.172.912l-2.939,5.08a.707.707,0,0,1-.876.305l-10.166-3.994a30.515,30.515,0,0,1-3.883,3.875l4,10.174a.712.712,0,0,1-.306.876l-5.09,2.94a.711.711,0,0,1-.913-.172l-6.81-8.54a30.415,30.415,0,0,1-5.295,1.41l-1.626,10.806A.711.711,0,0,1,1513.04,1480.281Zm-2.94-25.906a15.745,15.745,0,0,1-1.928-31.37.712.712,0,0,1,.174,1.413,14.311,14.311,0,1,0,13.053,5.4.712.712,0,0,1,1.125-.873,15.751,15.751,0,0,1-12.425,25.425Z" transform="translate(-1468.45 -1400.991)" fill="#2d2d2a"/>
            </g>
          </g>
        </g>
        <g id="Grupo_880962" data-name="Grupo 880962" transform="translate(37.33)">
          <g id="Grupo_880961" data-name="Grupo 880961">
            <path id="Trazado_622348" data-name="Trazado 622348" d="M1510,1436.778a.721.721,0,0,1-.33-.082.713.713,0,0,1-.382-.63v-11.01h-6.027a.712.712,0,0,1-.712-.713V1395.03a.712.712,0,0,1,.712-.712h43.655a.711.711,0,0,1,.711.712v29.312a.712.712,0,0,1-.711.713h-19.774l-16.737,11.595A.707.707,0,0,1,1510,1436.778Zm-6.027-13.147H1510a.711.711,0,0,1,.711.712v10.365l15.8-10.949a.716.716,0,0,1,.405-.127h19.286v-27.889h-42.232Z" transform="translate(-1502.554 -1394.319)" fill="#2d2d2a"/>
          </g>
        </g>
        <g id="Grupo_880964" data-name="Grupo 880964" transform="translate(43.825 6.578)">
          <g id="Grupo_880963" data-name="Grupo 880963">
            <path id="Trazado_622349" data-name="Trazado 622349" d="M1533.124,1401.753H1509.2a.712.712,0,0,1,0-1.424h23.924a.712.712,0,0,1,0,1.424Z" transform="translate(-1508.488 -1400.329)" fill="#2d2d2a"/>
          </g>
        </g>
        <g id="Grupo_880966" data-name="Grupo 880966" transform="translate(70.836 6.578)">
          <g id="Grupo_880965" data-name="Grupo 880965">
            <path id="Trazado_622350" data-name="Trazado 622350" d="M1537.529,1401.753h-3.654a.712.712,0,0,1,0-1.424h3.654a.712.712,0,0,1,0,1.424Z" transform="translate(-1533.165 -1400.329)" fill="#2d2d2a"/>
          </g>
        </g>
        <g id="Grupo_880968" data-name="Grupo 880968" transform="translate(49.968 10.593)">
          <g id="Grupo_880967" data-name="Grupo 880967">
            <path id="Trazado_622351" data-name="Trazado 622351" d="M1539.333,1405.421h-24.521a.712.712,0,0,1,0-1.424h24.521a.712.712,0,0,1,0,1.424Z" transform="translate(-1514.1 -1403.997)" fill="#2d2d2a"/>
          </g>
        </g>
        <g id="Grupo_880970" data-name="Grupo 880970" transform="translate(43.825 10.593)">
          <g id="Grupo_880969" data-name="Grupo 880969">
            <path id="Trazado_622352" data-name="Trazado 622352" d="M1512.852,1405.421H1509.2a.712.712,0,0,1,0-1.424h3.653a.712.712,0,0,1,0,1.424Z" transform="translate(-1508.488 -1403.997)" fill="#2d2d2a"/>
          </g>
        </g>
        <g id="Grupo_880972" data-name="Grupo 880972" transform="translate(43.825 14.596)">
          <g id="Grupo_880971" data-name="Grupo 880971">
            <path id="Trazado_622353" data-name="Trazado 622353" d="M1531.026,1409.078H1509.2a.712.712,0,0,1,0-1.424h21.826a.712.712,0,0,1,0,1.424Z" transform="translate(-1508.488 -1407.654)" fill="#2d2d2a"/>
          </g>
        </g>
        <g id="Grupo_880974" data-name="Grupo 880974" transform="translate(70.836 14.596)">
          <g id="Grupo_880973" data-name="Grupo 880973">
            <path id="Trazado_622354" data-name="Trazado 622354" d="M1537.529,1409.078h-3.654a.712.712,0,0,1,0-1.424h3.654a.712.712,0,0,1,0,1.424Z" transform="translate(-1533.165 -1407.654)" fill="#2d2d2a"/>
          </g>
        </g>
        <g id="Grupo_880976" data-name="Grupo 880976" transform="translate(49.552 18.601)">
          <g id="Grupo_880975" data-name="Grupo 880975">
            <path id="Trazado_622355" data-name="Trazado 622355" d="M1539.369,1412.736h-24.937a.711.711,0,1,1,0-1.423h24.937a.711.711,0,1,1,0,1.423Z" transform="translate(-1513.72 -1411.313)" fill="#2d2d2a"/>
          </g>
        </g>
        <g id="Grupo_880978" data-name="Grupo 880978" transform="translate(43.825 18.601)">
          <g id="Grupo_880977" data-name="Grupo 880977">
            <path id="Trazado_622356" data-name="Trazado 622356" d="M1512.852,1412.736H1509.2a.711.711,0,0,1,0-1.423h3.653a.711.711,0,0,1,0,1.423Z" transform="translate(-1508.488 -1411.313)" fill="#2d2d2a"/>
          </g>
        </g>
        <g id="Grupo_880980" data-name="Grupo 880980" transform="translate(43.825 22.614)">
          <g id="Grupo_880979" data-name="Grupo 880979">
            <path id="Trazado_622357" data-name="Trazado 622357" d="M1532.793,1416.4H1509.2a.712.712,0,0,1,0-1.423h23.594a.712.712,0,1,1,0,1.423Z" transform="translate(-1508.488 -1414.979)" fill="#2d2d2a"/>
          </g>
        </g>
        <g id="Grupo_880982" data-name="Grupo 880982" transform="translate(70.836 22.614)">
          <g id="Grupo_880981" data-name="Grupo 880981">
            <path id="Trazado_622358" data-name="Trazado 622358" d="M1537.529,1416.4h-3.654a.712.712,0,0,1,0-1.423h3.654a.712.712,0,0,1,0,1.423Z" transform="translate(-1533.165 -1414.979)" fill="#2d2d2a"/>
          </g>
        </g>
      </g>
    </g>
  </g>
</svg>
