<svg xmlns="http://www.w3.org/2000/svg" xmlns:xlink="http://www.w3.org/1999/xlink" width="153" height="153" viewBox="0 0 153 153">
  <defs>
    <filter id="Elipse_5235" x="0" y="0" width="153" height="153" filterUnits="userSpaceOnUse">
      <feOffset dy="3" input="SourceAlpha"/>
      <feGaussianBlur stdDeviation="3" result="blur"/>
      <feFlood flood-opacity="0.161"/>
      <feComposite operator="in" in2="blur"/>
      <feComposite in="SourceGraphic"/>
    </filter>
  </defs>
  <g id="Grupo_895211" data-name="Grupo 895211" transform="translate(4465.239 11163.404)">
    <g transform="matrix(1, 0, 0, 1, -4465.24, -11163.4)" filter="url(#Elipse_5235)">
      <g id="Elipse_5235-2" data-name="Elipse 5235" transform="translate(9 6)" fill="#fff" stroke="#fecb2f" stroke-width="3">
        <circle cx="67.5" cy="67.5" r="67.5" stroke="none"/>
        <circle cx="67.5" cy="67.5" r="66" fill="none"/>
      </g>
    </g>
    <g id="Grupo_881250" data-name="Grupo 881250" transform="translate(-4427.239 -11133.404)">
      <g id="Grupo_881249" data-name="Grupo 881249" transform="translate(0 0)">
        <g id="Grupo_881216" data-name="Grupo 881216" transform="translate(0 3.547)">
          <g id="Grupo_881215" data-name="Grupo 881215">
            <path id="Trazado_622480" data-name="Trazado 622480" d="M1319.382,1592.131h-57.615a.707.707,0,0,1-.708-.708v-81.139a.708.708,0,0,1,.708-.708h57.615a.708.708,0,0,1,.708.708v81.139A.708.708,0,0,1,1319.382,1592.131Zm-56.907-1.414h56.2v-79.725h-56.2Z" transform="translate(-1261.059 -1509.578)" fill="#2d2d2a"/>
          </g>
        </g>
        <g id="Grupo_881218" data-name="Grupo 881218" transform="translate(62.693 24.407)">
          <g id="Grupo_881217" data-name="Grupo 881217">
            <path id="Trazado_622481" data-name="Trazado 622481" d="M1325.813,1589.233a.708.708,0,0,1-.637-.4l-6.444-13.271a.7.7,0,0,1-.071-.308v-45.8a.708.708,0,0,1,.708-.708h12.885a.708.708,0,0,1,.708.708v45.8a.7.7,0,0,1-.071.308l-6.441,13.271A.708.708,0,0,1,1325.813,1589.233Zm-5.737-14.141,5.737,11.814,5.734-11.814v-44.933h-11.47Z" transform="translate(-1318.661 -1528.744)" fill="#2d2d2a"/>
          </g>
        </g>
        <g id="Grupo_881220" data-name="Grupo 881220" transform="translate(67.302 79.51)">
          <g id="Grupo_881219" data-name="Grupo 881219">
            <path id="Trazado_622482" data-name="Trazado 622482" d="M1325.439,1584.758a.708.708,0,0,1-.637-.4l-1.836-3.778a.718.718,0,0,1,0-.616.708.708,0,0,1,.481-.383,9.51,9.51,0,0,1,3.981,0,.7.7,0,0,1,.48.383.712.712,0,0,1,0,.615l-1.832,3.779a.71.71,0,0,1-.636.4Zm-.783-3.937.781,1.609.78-1.609A8.735,8.735,0,0,0,1324.656,1580.822Z" transform="translate(-1322.896 -1579.372)" fill="#2d2d2a"/>
          </g>
        </g>
        <g id="Grupo_881222" data-name="Grupo 881222" transform="translate(62.693 68.364)">
          <g id="Grupo_881221" data-name="Grupo 881221">
            <path id="Trazado_622483" data-name="Trazado 622483" d="M1332.405,1572.411a.7.7,0,0,1-.36-.1l-2.074-1.229-1.317,1.137a.708.708,0,0,1-.875.038l-2.074-1.493-1.428,1.429a.708.708,0,0,1-.5.207h0a.7.7,0,0,1-.5-.209l-1.418-1.426-2.073,1.492a.708.708,0,0,1-.827-1.148l2.564-1.845a.7.7,0,0,1,.914.075l1.343,1.352,1.353-1.353a.707.707,0,0,1,.914-.074l2.108,1.519,1.28-1.106a.71.71,0,0,1,.823-.073l2.512,1.489a.707.707,0,0,1-.361,1.316Z" transform="translate(-1318.661 -1569.132)" fill="#2d2d2a"/>
          </g>
        </g>
        <g id="Grupo_881224" data-name="Grupo 881224" transform="translate(65.579 24.407)">
          <g id="Grupo_881223" data-name="Grupo 881223">
            <path id="Trazado_622484" data-name="Trazado 622484" d="M1322.021,1574.309a.707.707,0,0,1-.708-.708v-44.15a.708.708,0,0,1,1.416,0v44.15A.708.708,0,0,1,1322.021,1574.309Z" transform="translate(-1321.313 -1528.744)" fill="#2d2d2a"/>
          </g>
        </g>
        <g id="Grupo_881226" data-name="Grupo 881226" transform="translate(68.7 24.407)">
          <g id="Grupo_881225" data-name="Grupo 881225">
            <path id="Trazado_622485" data-name="Trazado 622485" d="M1325.09,1574.521a.708.708,0,0,1-.708-.7l-.2-44.362a.708.708,0,0,1,.705-.711h0a.708.708,0,0,1,.707.7l.2,44.363a.709.709,0,0,1-.705.709Z" transform="translate(-1324.18 -1528.744)" fill="#2d2d2a"/>
          </g>
        </g>
        <g id="Grupo_881228" data-name="Grupo 881228" transform="translate(72.267 24.407)">
          <g id="Grupo_881227" data-name="Grupo 881227">
            <path id="Trazado_622486" data-name="Trazado 622486" d="M1328.166,1575.04a.707.707,0,0,1-.708-.708v-44.881a.708.708,0,0,1,1.415,0v44.881A.707.707,0,0,1,1328.166,1575.04Z" transform="translate(-1327.458 -1528.744)" fill="#2d2d2a"/>
          </g>
        </g>
        <g id="Grupo_881230" data-name="Grupo 881230" transform="translate(62.693 17.721)">
          <g id="Grupo_881229" data-name="Grupo 881229">
            <path id="Trazado_622487" data-name="Trazado 622487" d="M1332.254,1530.7h-12.885a.707.707,0,0,1-.708-.707v-3.343a4.056,4.056,0,0,1,4.051-4.051h6.2a4.056,4.056,0,0,1,4.051,4.051v3.343A.707.707,0,0,1,1332.254,1530.7Zm-12.178-1.415h11.47v-2.635a2.639,2.639,0,0,0-2.636-2.636h-6.2a2.639,2.639,0,0,0-2.636,2.636Z" transform="translate(-1318.661 -1522.601)" fill="#2d2d2a"/>
          </g>
        </g>
        <g id="Grupo_881232" data-name="Grupo 881232" transform="translate(9.686 15.785)">
          <g id="Grupo_881231" data-name="Grupo 881231">
            <path id="Trazado_622488" data-name="Trazado 622488" d="M1308.913,1531.466h-38.247a.708.708,0,0,1-.709-.707v-9.23a.709.709,0,0,1,.709-.708h38.247a.708.708,0,0,1,.707.708v9.23A.707.707,0,0,1,1308.913,1531.466Zm-37.539-1.415H1308.2v-7.815h-36.831Z" transform="translate(-1269.958 -1520.822)" fill="#2d2d2a"/>
          </g>
        </g>
        <g id="Grupo_881234" data-name="Grupo 881234" transform="translate(10.396 31.092)">
          <g id="Grupo_881233" data-name="Grupo 881233">
            <path id="Trazado_622489" data-name="Trazado 622489" d="M1308.145,1536.3h-36.827a.707.707,0,1,1,0-1.415h36.827a.707.707,0,1,1,0,1.415Z" transform="translate(-1270.611 -1534.886)" fill="#2d2d2a"/>
          </g>
        </g>
        <g id="Grupo_881236" data-name="Grupo 881236" transform="translate(10.396 36.879)">
          <g id="Grupo_881235" data-name="Grupo 881235">
            <path id="Trazado_622490" data-name="Trazado 622490" d="M1308.145,1541.618h-36.827a.708.708,0,0,1,0-1.415h36.827a.708.708,0,1,1,0,1.415Z" transform="translate(-1270.611 -1540.203)" fill="#2d2d2a"/>
          </g>
        </g>
        <g id="Grupo_881238" data-name="Grupo 881238" transform="translate(21.873 42.662)">
          <g id="Grupo_881237" data-name="Grupo 881237">
            <path id="Trazado_622491" data-name="Trazado 622491" d="M1307.213,1546.932h-25.35a.708.708,0,0,1,0-1.415h25.35a.708.708,0,1,1,0,1.415Z" transform="translate(-1281.156 -1545.517)" fill="#2d2d2a"/>
          </g>
        </g>
        <g id="Grupo_881240" data-name="Grupo 881240" transform="translate(10.396 48.438)">
          <g id="Grupo_881239" data-name="Grupo 881239">
            <path id="Trazado_622492" data-name="Trazado 622492" d="M1298.925,1552.239h-27.607a.708.708,0,0,1,0-1.415h27.607a.708.708,0,1,1,0,1.415Z" transform="translate(-1270.611 -1550.824)" fill="#2d2d2a"/>
          </g>
        </g>
        <g id="Grupo_881242" data-name="Grupo 881242" transform="translate(10.396 54.222)">
          <g id="Grupo_881241" data-name="Grupo 881241">
            <path id="Trazado_622493" data-name="Trazado 622493" d="M1308.145,1557.553h-36.827a.707.707,0,1,1,0-1.415h36.827a.707.707,0,1,1,0,1.415Z" transform="translate(-1270.611 -1556.138)" fill="#2d2d2a"/>
          </g>
        </g>
        <g id="Grupo_881244" data-name="Grupo 881244" transform="translate(18.125 60.008)">
          <g id="Grupo_881243" data-name="Grupo 881243">
            <path id="Trazado_622494" data-name="Trazado 622494" d="M1307.517,1562.869h-29.1a.708.708,0,1,1,0-1.415h29.1a.708.708,0,1,1,0,1.415Z" transform="translate(-1277.712 -1561.454)" fill="#2d2d2a"/>
          </g>
        </g>
        <g id="Grupo_881246" data-name="Grupo 881246" transform="translate(10.396 65.781)">
          <g id="Grupo_881245" data-name="Grupo 881245">
            <path id="Trazado_622495" data-name="Trazado 622495" d="M1308.145,1568.173h-36.827a.707.707,0,1,1,0-1.415h36.827a.707.707,0,1,1,0,1.415Z" transform="translate(-1270.611 -1566.758)" fill="#2d2d2a"/>
          </g>
        </g>
        <g id="Grupo_881248" data-name="Grupo 881248" transform="translate(5.977)">
          <g id="Grupo_881247" data-name="Grupo 881247">
            <path id="Trazado_622496" data-name="Trazado 622496" d="M1312.912,1514.826a.708.708,0,0,1-.708-.707v-7.092a.708.708,0,0,1,1.415,0v7.092A.708.708,0,0,1,1312.912,1514.826Zm-7.611,0a.708.708,0,0,1-.709-.707v-7.092a.708.708,0,0,1,1.416,0v7.092A.707.707,0,0,1,1305.3,1514.826Zm-7.607,0a.708.708,0,0,1-.708-.707v-7.092a.708.708,0,0,1,1.416,0v7.092A.707.707,0,0,1,1297.694,1514.826Zm-7.609,0a.707.707,0,0,1-.707-.707v-7.092a.708.708,0,0,1,1.416,0v7.092A.708.708,0,0,1,1290.085,1514.826Zm-7.608,0a.707.707,0,0,1-.707-.707v-7.092a.707.707,0,1,1,1.415,0v7.092A.708.708,0,0,1,1282.477,1514.826Zm-7.608,0a.708.708,0,0,1-.709-.707v-7.092a.708.708,0,0,1,1.416,0v7.092A.708.708,0,0,1,1274.87,1514.826Zm-7.61,0a.708.708,0,0,1-.708-.707v-7.092a.708.708,0,0,1,1.416,0v7.092A.708.708,0,0,1,1267.26,1514.826Z" transform="translate(-1266.551 -1506.319)" fill="#2d2d2a"/>
          </g>
        </g>
      </g>
    </g>
  </g>
</svg>
