<svg xmlns="http://www.w3.org/2000/svg" xmlns:xlink="http://www.w3.org/1999/xlink" width="400" height="187.539" viewBox="0 0 400 187.539">
  <defs>
    <clipPath id="clip-path">
      <path id="Trazado_605675" data-name="Trazado 605675" d="M764.5,1208.508c-2.288-6.288-4.721-15.921-2.58-26.771,2.457-12.458,8.7-15.134,13.95-28.536,7.5-19.129-2.108-32.506,6.093-38.541a13.47,13.47,0,0,1,14.484-.454c11.569,7.694,9.59,42.885-7.919,57.152-7.918,6.453-15.024,5.944-20.858,14.154C762.518,1192.765,763.239,1202.094,764.5,1208.508Z" transform="translate(-761.097 -1112.311)" fill="#b1ede3"/>
    </clipPath>
    <clipPath id="clip-path-2">
      <path id="Trazado_605681" data-name="Trazado 605681" d="M734.225,1235.3c-1.167-5.883-2.024-15.1,2.526-23.515,7.938-14.679,23.4-10.388,37.557-26.3,11.419-12.829,7.386-22.388,20.217-31.082,2.148-1.456,13.485-9.448,22.244-5.132,4.936,2.432,6.865,7.687,7.227,8.673,5.471,14.91-9.124,38.993-28.784,50.423-11.3,6.567-15.07,4.659-35.065,12.537A113.862,113.862,0,0,0,734.225,1235.3Z" transform="translate(-733.296 -1148.013)" fill="#21cbae"/>
    </clipPath>
    <linearGradient id="linear-gradient" y1="0.5" x2="1" y2="0.5" gradientUnits="objectBoundingBox">
      <stop offset="0.494" stop-color="#ebeff2"/>
      <stop offset="1" stop-color="#fff"/>
    </linearGradient>
    <linearGradient id="linear-gradient-2" x1="0.329" y1="0.554" x2="-0.255" y2="0.738" gradientUnits="objectBoundingBox">
      <stop offset="0" stop-color="#fcb148"/>
      <stop offset="0.052" stop-color="#fdb946"/>
      <stop offset="0.142" stop-color="#fec144"/>
      <stop offset="0.318" stop-color="#ffc444"/>
      <stop offset="0.485" stop-color="#fdb946"/>
      <stop offset="0.775" stop-color="#f99c4c"/>
      <stop offset="0.866" stop-color="#f8924f"/>
      <stop offset="1" stop-color="#f8924f"/>
    </linearGradient>
    <linearGradient id="linear-gradient-3" x1="0.727" y1="0.007" x2="0.207" y2="1.135" gradientUnits="objectBoundingBox">
      <stop offset="0" stop-color="#ffdb44"/>
      <stop offset="1" stop-color="#feef06"/>
    </linearGradient>
    <linearGradient id="linear-gradient-4" x1="0.636" y1="1.231" x2="0.531" y2="0.666" xlink:href="#linear-gradient-2"/>
    <linearGradient id="linear-gradient-5" x1="0.409" y1="0.31" x2="0.858" y2="1.247" xlink:href="#linear-gradient-2"/>
    <linearGradient id="linear-gradient-6" x1="0.253" y1="0.019" x2="0.711" y2="1.039" xlink:href="#linear-gradient-3"/>
    <linearGradient id="linear-gradient-7" x1="0.464" y1="0.369" x2="1.215" y2="1.306" xlink:href="#linear-gradient-2"/>
    <linearGradient id="linear-gradient-8" x1="-522.366" y1="0.268" x2="-522.104" y2="1.66" gradientUnits="objectBoundingBox">
      <stop offset="0" stop-color="#ffc444"/>
      <stop offset="0.996" stop-color="#f36f56"/>
    </linearGradient>
    <linearGradient id="linear-gradient-9" x1="117.367" y1="-162.595" x2="117.583" y2="-160.789" xlink:href="#linear-gradient-8"/>
    <linearGradient id="linear-gradient-10" x1="-275.354" y1="-5.003" x2="-275.354" y2="-14.544" xlink:href="#linear-gradient-8"/>
    <linearGradient id="linear-gradient-11" x1="-45.806" y1="-0.293" x2="-45.976" y2="0.671" gradientUnits="objectBoundingBox">
      <stop offset="0" stop-color="#311944"/>
      <stop offset="1" stop-color="#893976"/>
    </linearGradient>
    <linearGradient id="linear-gradient-12" x1="210.553" y1="-708.942" x2="210.553" y2="-719.046" xlink:href="#linear-gradient-8"/>
    <linearGradient id="linear-gradient-13" x1="-74.642" y1="-1.756" x2="-75.294" y2="-0.896" xlink:href="#linear-gradient-8"/>
    <linearGradient id="linear-gradient-14" x1="-15.036" y1="0.53" x2="-14.502" y2="-0.552" gradientUnits="objectBoundingBox">
      <stop offset="0" stop-color="#444b8c"/>
      <stop offset="0.996" stop-color="#26264f"/>
    </linearGradient>
  </defs>
  <g id="Grupo_895194" data-name="Grupo 895194" transform="translate(-180 -396.461)">
    <g id="Grupo_880876" data-name="Grupo 880876">
      <rect id="Rectángulo_297182" data-name="Rectángulo 297182" width="400" height="187" transform="translate(180 397)" fill="#fff"/>
      <g id="Grupo_880853" data-name="Grupo 880853" transform="translate(184 397)">
        <path id="Trazado_1" data-name="Trazado 1" d="M11.759-75.2-45.679-17.761q.4,2.464,1.032,4.842L16.6-74.167Q14.224-74.8,11.759-75.2Z" transform="translate(46.333 75.853)" fill="none" stroke="#8f9294" stroke-miterlimit="10" stroke-width="1.078"/>
        <path id="Trazado_2" data-name="Trazado 2" d="M18.053-72.715-43.195-11.467Q-42.59-9.191-41.784-7l64.3-64.3Q20.332-72.112,18.053-72.715Z" transform="translate(44.881 74.401)" fill="none" stroke="#8f9294" stroke-miterlimit="10" stroke-width="1.078"/>
        <path id="Trazado_3" data-name="Trazado 3" d="M51.521-48.491-18.971,22c.893,1.061,1.825,2.089,2.8,3.072L54.593-45.688C53.61-46.665,52.582-47.6,51.521-48.491Z" transform="translate(30.722 60.242)" fill="none" stroke="#8f9294" stroke-miterlimit="10" stroke-width="1.078"/>
        <path id="Trazado_4" data-name="Trazado 4" d="M44.605-54.647-25.128,15.086Q-23.915,16.8-22.57,18.4L47.922-52.089Q46.321-53.437,44.605-54.647Z" transform="translate(34.321 63.84)" fill="none" stroke="#8f9294" stroke-miterlimit="10" stroke-width="1.078"/>
        <path id="Trazado_5" data-name="Trazado 5" d="M31.086-65.12-35.6,1.566c.624,1.311,1.31,2.587,2.043,3.832L34.918-63.077C33.673-63.81,32.4-64.5,31.086-65.12Z" transform="translate(40.442 69.962)" fill="none" stroke="#8f9294" stroke-miterlimit="10" stroke-width="1.078"/>
        <path id="Trazado_6" data-name="Trazado 6" d="M37.792-60.2-30.684,8.272q1.079,1.835,2.308,3.566L41.358-57.895Q39.627-59.122,37.792-60.2Z" transform="translate(37.568 67.088)" fill="none" stroke="#8f9294" stroke-miterlimit="10" stroke-width="1.078"/>
        <path id="Trazado_7" data-name="Trazado 7" d="M24.5-69.319l-64.3,64.3q.781,2.112,1.745,4.13L28.632-67.574Q26.615-68.535,24.5-69.319Z" transform="translate(42.896 72.416)" fill="none" stroke="#8f9294" stroke-miterlimit="10" stroke-width="1.078"/>
        <path id="Trazado_8" data-name="Trazado 8" d="M-38.97-40.125l28.364-28.364A50.177,50.177,0,0,0-38.97-40.125Z" transform="translate(42.412 71.931)" fill="none" stroke="#8f9294" stroke-miterlimit="10" stroke-width="1.078"/>
        <path id="Trazado_9" data-name="Trazado 9" d="M-14.063-71.947-42.427-43.583a49.6,49.6,0,0,0-2.458,8.332L-5.73-74.4A49.618,49.618,0,0,0-14.063-71.947Z" transform="translate(45.869 75.389)" fill="none" stroke="#8f9294" stroke-miterlimit="10" stroke-width="1.078"/>
        <path id="Trazado_10" data-name="Trazado 10" d="M5.65-76.583-47.064-23.869a50.165,50.165,0,0,0,.575,5.3L10.95-76.008A50.176,50.176,0,0,0,5.65-76.583Z" transform="translate(47.143 76.662)" fill="none" stroke="#8f9294" stroke-miterlimit="10" stroke-width="1.078"/>
        <path id="Trazado_11" data-name="Trazado 11" d="M2.786-76.773c-1.059,0-2.108.044-3.151.109L-47.144-29.885c-.065,1.043-.109,2.092-.109,3.151,0,.924.029,1.841.079,2.753L5.54-76.694C4.628-76.743,3.71-76.773,2.786-76.773Z" transform="translate(47.253 76.773)" fill="none" stroke="#8f9294" stroke-miterlimit="10" stroke-width="1.078"/>
        <path id="Trazado_12" data-name="Trazado 12" d="M-6.961-75.636-46.116-36.481a50.06,50.06,0,0,0-.875,6.75L-.212-76.511A50.13,50.13,0,0,0-6.961-75.636Z" transform="translate(47.1 76.62)" fill="none" stroke="#8f9294" stroke-miterlimit="10" stroke-width="1.078"/>
        <path id="Trazado_13" data-name="Trazado 13" d="M110.672,23.422,52.941,81.152a50.085,50.085,0,0,0,5.266.609l53.074-53.074A50.057,50.057,0,0,0,110.672,23.422Z" transform="translate(-11.311 18.208)" fill="none" stroke="#8f9294" stroke-miterlimit="10" stroke-width="1.078"/>
        <path id="Trazado_14" data-name="Trazado 14" d="M118.8,39.239c0-1.057-.044-2.1-.108-3.144L65.614,89.169c1.041.065,2.087.108,3.144.108.905,0,1.8-.027,2.7-.074l47.268-47.268C118.77,41.042,118.8,40.144,118.8,39.239Z" transform="translate(-18.719 10.801)" fill="none" stroke="#8f9294" stroke-miterlimit="10" stroke-width="1.078"/>
        <path id="Trazado_15" data-name="Trazado 15" d="M126.939,50.152,79.671,97.42a50.066,50.066,0,0,0,6.693-.818l39.757-39.757A50.142,50.142,0,0,0,126.939,50.152Z" transform="translate(-26.935 2.584)" fill="none" stroke="#8f9294" stroke-miterlimit="10" stroke-width="1.078"/>
        <path id="Trazado_16" data-name="Trazado 16" d="M135.536,66.26,95.779,106.017a49.636,49.636,0,0,0,8.151-2.276l29.33-29.33A49.727,49.727,0,0,0,135.536,66.26Z" transform="translate(-36.35 -6.831)" fill="none" stroke="#8f9294" stroke-miterlimit="10" stroke-width="1.078"/>
        <path id="Trazado_17" data-name="Trazado 17" d="M144.726,85.877l-29.33,29.33A50.18,50.18,0,0,0,144.726,85.877Z" transform="translate(-47.817 -18.297)" fill="none" stroke="#8f9294" stroke-miterlimit="10" stroke-width="1.078"/>
        <path id="Trazado_18" data-name="Trazado 18" d="M102.839,11.837,41.357,73.32q2.363.646,4.813,1.061L103.9,16.65Q103.486,14.2,102.839,11.837Z" transform="translate(-4.54 24.98)" fill="none" stroke="#8f9294" stroke-miterlimit="10" stroke-width="1.078"/>
        <path id="Trazado_19" data-name="Trazado 19" d="M72.869-26.455l-69.8,69.8c1.148.823,2.328,1.6,3.545,2.33L75.2-22.91C74.473-24.127,73.693-25.307,72.869-26.455Z" transform="translate(17.842 47.362)" fill="none" stroke="#8f9294" stroke-miterlimit="10" stroke-width="1.078"/>
        <path id="Trazado_20" data-name="Trazado 20" d="M65.653-34.388-4.869,36.134q1.592,1.356,3.3,2.578l69.8-69.8Q67.01-32.795,65.653-34.388Z" transform="translate(22.479 51.999)" fill="none" stroke="#8f9294" stroke-miterlimit="10" stroke-width="1.078"/>
        <path id="Trazado_21" data-name="Trazado 21" d="M95.159,1.157,30.676,65.64q2.173.82,4.438,1.437L96.6,5.594Q95.978,3.331,95.159,1.157Z" transform="translate(1.703 31.222)" fill="none" stroke="#8f9294" stroke-miterlimit="10" stroke-width="1.078"/>
        <path id="Trazado_22" data-name="Trazado 22" d="M58.536-41.745-12.225,29.016c.977.983,2,1.919,3.056,2.818L61.354-38.688C60.454-39.744,59.519-40.768,58.536-41.745Z" transform="translate(26.779 56.299)" fill="none" stroke="#8f9294" stroke-miterlimit="10" stroke-width="1.078"/>
        <path id="Trazado_23" data-name="Trazado 23" d="M87.611-8.746,20.773,58.092c1.338.648,2.713,1.231,4.115,1.76L89.371-4.631C88.842-6.033,88.259-7.408,87.611-8.746Z" transform="translate(7.491 37.011)" fill="none" stroke="#8f9294" stroke-miterlimit="10" stroke-width="1.078"/>
        <path id="Trazado_24" data-name="Trazado 24" d="M80.186-17.923,11.6,50.666c1.238.739,2.508,1.43,3.813,2.062L82.248-14.11C81.616-15.415,80.924-16.684,80.186-17.923Z" transform="translate(12.855 42.375)" fill="none" stroke="#8f9294" stroke-miterlimit="10" stroke-width="1.078"/>
      </g>
      <g id="Rectángulo_297183" data-name="Rectángulo 297183" transform="translate(228.457 415.749)" fill="none" stroke="#0b5999" stroke-width="5">
        <rect width="301.335" height="147.519" rx="30" stroke="none"/>
        <rect x="2.5" y="2.5" width="296.335" height="142.519" rx="27.5" fill="none"/>
      </g>
      <g id="Grupo_880854" data-name="Grupo 880854" transform="translate(479.585 483.585)">
        <g id="Grupo_68" data-name="Grupo 68" transform="translate(44.14 0)">
          <g id="Grupo_67" data-name="Grupo 67" transform="translate(0)">
            <rect id="Rectángulo_193" data-name="Rectángulo 193" width="1.765" height="1.765" transform="translate(53.779 55.027) rotate(-44.999)" fill="#8f9294"/>
            <rect id="Rectángulo_194" data-name="Rectángulo 194" width="1.675" height="1.675" transform="translate(48.89 50.075) rotate(-45)" fill="#8f9294"/>
            <rect id="Rectángulo_195" data-name="Rectángulo 195" width="1.585" height="1.585" transform="translate(44.001 45.122) rotate(-45)" fill="#8f9294"/>
            <rect id="Rectángulo_196" data-name="Rectángulo 196" width="1.495" height="1.495" transform="matrix(0.707, -0.707, 0.707, 0.707, 39.112, 40.17)" fill="#8f9294"/>
            <rect id="Rectángulo_197" data-name="Rectángulo 197" width="1.406" height="1.406" transform="translate(34.223 35.217) rotate(-45)" fill="#8f9294"/>
            <rect id="Rectángulo_198" data-name="Rectángulo 198" width="1.316" height="1.316" transform="matrix(0.707, -0.707, 0.707, 0.707, 29.334, 30.265)" fill="#8f9294"/>
            <rect id="Rectángulo_199" data-name="Rectángulo 199" width="1.226" height="1.226" transform="translate(24.445 25.312) rotate(-45)" fill="#8f9294"/>
            <rect id="Rectángulo_200" data-name="Rectángulo 200" width="1.136" height="1.136" transform="translate(19.556 20.359) rotate(-45.001)" fill="#8f9294"/>
            <rect id="Rectángulo_201" data-name="Rectángulo 201" width="1.046" height="1.046" transform="translate(14.667 15.407) rotate(-45)" fill="#8f9294"/>
            <rect id="Rectángulo_202" data-name="Rectángulo 202" width="0.956" height="0.956" transform="matrix(0.707, -0.707, 0.707, 0.707, 9.778, 10.454)" fill="#8f9294"/>
            <rect id="Rectángulo_203" data-name="Rectángulo 203" width="0.866" height="0.866" transform="translate(4.889 5.502) rotate(-45)" fill="#8f9294"/>
            <rect id="Rectángulo_204" data-name="Rectángulo 204" width="0.776" height="0.776" transform="matrix(0.707, -0.707, 0.707, 0.707, 0, 0.549)" fill="#8f9294"/>
          </g>
        </g>
        <g id="Grupo_70" data-name="Grupo 70" transform="translate(40.127 4.013)">
          <g id="Grupo_69" data-name="Grupo 69" transform="translate(0 0)">
            <rect id="Rectángulo_205" data-name="Rectángulo 205" width="1.765" height="1.765" transform="translate(53.779 55.027) rotate(-44.999)" fill="#8f9294"/>
            <rect id="Rectángulo_206" data-name="Rectángulo 206" width="1.675" height="1.675" transform="translate(48.89 50.075) rotate(-45)" fill="#8f9294"/>
            <rect id="Rectángulo_207" data-name="Rectángulo 207" width="1.585" height="1.585" transform="translate(44.001 45.122) rotate(-44.999)" fill="#8f9294"/>
            <rect id="Rectángulo_208" data-name="Rectángulo 208" width="1.495" height="1.495" transform="translate(39.112 40.17) rotate(-45)" fill="#8f9294"/>
            <rect id="Rectángulo_209" data-name="Rectángulo 209" width="1.406" height="1.406" transform="translate(34.223 35.217) rotate(-45)" fill="#8f9294"/>
            <rect id="Rectángulo_210" data-name="Rectángulo 210" width="1.316" height="1.316" transform="translate(29.334 30.265) rotate(-45)" fill="#8f9294"/>
            <rect id="Rectángulo_211" data-name="Rectángulo 211" width="1.226" height="1.226" transform="translate(24.445 25.312) rotate(-45)" fill="#8f9294"/>
            <rect id="Rectángulo_212" data-name="Rectángulo 212" width="1.136" height="1.136" transform="translate(19.556 20.359) rotate(-45)" fill="#8f9294"/>
            <rect id="Rectángulo_213" data-name="Rectángulo 213" width="1.046" height="1.046" transform="translate(14.667 15.407) rotate(-45)" fill="#8f9294"/>
            <rect id="Rectángulo_214" data-name="Rectángulo 214" width="0.956" height="0.956" transform="translate(9.778 10.454) rotate(-45)" fill="#8f9294"/>
            <rect id="Rectángulo_215" data-name="Rectángulo 215" width="0.866" height="0.866" transform="translate(4.889 5.502) rotate(-45)" fill="#8f9294"/>
            <rect id="Rectángulo_216" data-name="Rectángulo 216" width="0.776" height="0.776" transform="matrix(0.707, -0.707, 0.707, 0.707, 0, 0.549)" fill="#8f9294"/>
          </g>
        </g>
        <g id="Grupo_72" data-name="Grupo 72" transform="translate(36.114 8.026)">
          <g id="Grupo_71" data-name="Grupo 71" transform="translate(0 0)">
            <rect id="Rectángulo_217" data-name="Rectángulo 217" width="1.765" height="1.765" transform="translate(53.779 55.027) rotate(-44.999)" fill="#8f9294"/>
            <rect id="Rectángulo_218" data-name="Rectángulo 218" width="1.675" height="1.675" transform="translate(48.89 50.075) rotate(-44.999)" fill="#8f9294"/>
            <rect id="Rectángulo_219" data-name="Rectángulo 219" width="1.585" height="1.585" transform="translate(44.001 45.122) rotate(-44.999)" fill="#8f9294"/>
            <rect id="Rectángulo_220" data-name="Rectángulo 220" width="1.495" height="1.495" transform="matrix(0.707, -0.707, 0.707, 0.707, 39.112, 40.17)" fill="#8f9294"/>
            <rect id="Rectángulo_221" data-name="Rectángulo 221" width="1.406" height="1.406" transform="translate(34.223 35.217) rotate(-44.999)" fill="#8f9294"/>
            <rect id="Rectángulo_222" data-name="Rectángulo 222" width="1.316" height="1.316" transform="matrix(0.707, -0.707, 0.707, 0.707, 29.334, 30.264)" fill="#8f9294"/>
            <rect id="Rectángulo_223" data-name="Rectángulo 223" width="1.226" height="1.226" transform="matrix(0.707, -0.707, 0.707, 0.707, 24.445, 25.312)" fill="#8f9294"/>
            <rect id="Rectángulo_224" data-name="Rectángulo 224" width="1.136" height="1.136" transform="translate(19.556 20.359) rotate(-44.999)" fill="#8f9294"/>
            <rect id="Rectángulo_225" data-name="Rectángulo 225" width="1.046" height="1.046" transform="translate(14.667 15.407) rotate(-45)" fill="#8f9294"/>
            <rect id="Rectángulo_226" data-name="Rectángulo 226" width="0.956" height="0.956" transform="translate(9.778 10.454) rotate(-44.998)" fill="#8f9294"/>
            <rect id="Rectángulo_227" data-name="Rectángulo 227" width="0.866" height="0.866" transform="translate(4.889 5.502) rotate(-45)" fill="#8f9294"/>
            <rect id="Rectángulo_228" data-name="Rectángulo 228" width="0.776" height="0.776" transform="matrix(0.707, -0.707, 0.707, 0.707, 0, 0.549)" fill="#8f9294"/>
          </g>
        </g>
        <g id="Grupo_74" data-name="Grupo 74" transform="translate(32.102 12.038)">
          <g id="Grupo_73" data-name="Grupo 73" transform="translate(0 0)">
            <rect id="Rectángulo_229" data-name="Rectángulo 229" width="1.765" height="1.765" transform="translate(53.779 55.027) rotate(-45.001)" fill="#8f9294"/>
            <rect id="Rectángulo_230" data-name="Rectángulo 230" width="1.675" height="1.675" transform="translate(48.89 50.075) rotate(-45.001)" fill="#8f9294"/>
            <rect id="Rectángulo_231" data-name="Rectángulo 231" width="1.585" height="1.585" transform="translate(44.001 45.122) rotate(-45)" fill="#8f9294"/>
            <rect id="Rectángulo_232" data-name="Rectángulo 232" width="1.495" height="1.495" transform="matrix(0.707, -0.707, 0.707, 0.707, 39.112, 40.17)" fill="#8f9294"/>
            <rect id="Rectángulo_233" data-name="Rectángulo 233" width="1.406" height="1.406" transform="translate(34.223 35.217) rotate(-45)" fill="#8f9294"/>
            <rect id="Rectángulo_234" data-name="Rectángulo 234" width="1.316" height="1.316" transform="matrix(0.707, -0.707, 0.707, 0.707, 29.334, 30.265)" fill="#8f9294"/>
            <rect id="Rectángulo_235" data-name="Rectángulo 235" width="1.226" height="1.226" transform="translate(24.445 25.312) rotate(-45)" fill="#8f9294"/>
            <rect id="Rectángulo_236" data-name="Rectángulo 236" width="1.136" height="1.136" transform="translate(19.556 20.359) rotate(-45.001)" fill="#8f9294"/>
            <rect id="Rectángulo_237" data-name="Rectángulo 237" width="1.046" height="1.046" transform="translate(14.667 15.407) rotate(-45)" fill="#8f9294"/>
            <rect id="Rectángulo_238" data-name="Rectángulo 238" width="0.956" height="0.956" transform="translate(9.778 10.454) rotate(-45)" fill="#8f9294"/>
            <rect id="Rectángulo_239" data-name="Rectángulo 239" width="0.866" height="0.866" transform="translate(4.889 5.502) rotate(-45)" fill="#8f9294"/>
            <rect id="Rectángulo_240" data-name="Rectángulo 240" width="0.776" height="0.776" transform="translate(0 0.549) rotate(-44.998)" fill="#8f9294"/>
          </g>
        </g>
        <g id="Grupo_76" data-name="Grupo 76" transform="translate(28.089 16.051)">
          <g id="Grupo_75" data-name="Grupo 75" transform="translate(0 0)">
            <rect id="Rectángulo_241" data-name="Rectángulo 241" width="1.765" height="1.765" transform="translate(53.779 55.027) rotate(-45.001)" fill="#8f9294"/>
            <rect id="Rectángulo_242" data-name="Rectángulo 242" width="1.675" height="1.675" transform="translate(48.89 50.075) rotate(-45.001)" fill="#8f9294"/>
            <rect id="Rectángulo_243" data-name="Rectángulo 243" width="1.585" height="1.585" transform="translate(44.001 45.122) rotate(-45)" fill="#8f9294"/>
            <rect id="Rectángulo_244" data-name="Rectángulo 244" width="1.495" height="1.495" transform="matrix(0.707, -0.707, 0.707, 0.707, 39.112, 40.17)" fill="#8f9294"/>
            <rect id="Rectángulo_245" data-name="Rectángulo 245" width="1.406" height="1.406" transform="translate(34.223 35.217) rotate(-45)" fill="#8f9294"/>
            <rect id="Rectángulo_246" data-name="Rectángulo 246" width="1.316" height="1.316" transform="translate(29.334 30.265) rotate(-45.001)" fill="#8f9294"/>
            <rect id="Rectángulo_247" data-name="Rectángulo 247" width="1.226" height="1.226" transform="translate(24.445 25.312) rotate(-45)" fill="#8f9294"/>
            <rect id="Rectángulo_248" data-name="Rectángulo 248" width="1.136" height="1.136" transform="translate(19.556 20.359) rotate(-45.001)" fill="#8f9294"/>
            <rect id="Rectángulo_249" data-name="Rectángulo 249" width="1.046" height="1.046" transform="translate(14.667 15.407) rotate(-45)" fill="#8f9294"/>
            <rect id="Rectángulo_250" data-name="Rectángulo 250" width="0.956" height="0.956" transform="matrix(0.707, -0.707, 0.707, 0.707, 9.778, 10.454)" fill="#8f9294"/>
            <rect id="Rectángulo_251" data-name="Rectángulo 251" width="0.866" height="0.866" transform="translate(4.889 5.502) rotate(-45)" fill="#8f9294"/>
            <rect id="Rectángulo_252" data-name="Rectángulo 252" width="0.776" height="0.776" transform="matrix(0.707, -0.707, 0.707, 0.707, 0, 0.549)" fill="#8f9294"/>
          </g>
        </g>
        <g id="Grupo_78" data-name="Grupo 78" transform="translate(24.076 20.064)">
          <g id="Grupo_77" data-name="Grupo 77" transform="translate(0 0)">
            <rect id="Rectángulo_253" data-name="Rectángulo 253" width="1.765" height="1.765" transform="translate(53.779 55.027) rotate(-45)" fill="#8f9294"/>
            <rect id="Rectángulo_254" data-name="Rectángulo 254" width="1.675" height="1.675" transform="translate(48.89 50.075) rotate(-45)" fill="#8f9294"/>
            <rect id="Rectángulo_255" data-name="Rectángulo 255" width="1.585" height="1.585" transform="translate(44.001 45.122) rotate(-45.001)" fill="#8f9294"/>
            <rect id="Rectángulo_256" data-name="Rectángulo 256" width="1.495" height="1.495" transform="matrix(0.707, -0.707, 0.707, 0.707, 39.112, 40.17)" fill="#8f9294"/>
            <rect id="Rectángulo_257" data-name="Rectángulo 257" width="1.406" height="1.406" transform="matrix(0.707, -0.707, 0.707, 0.707, 34.223, 35.217)" fill="#8f9294"/>
            <rect id="Rectángulo_258" data-name="Rectángulo 258" width="1.316" height="1.316" transform="matrix(0.707, -0.707, 0.707, 0.707, 29.334, 30.265)" fill="#8f9294"/>
            <rect id="Rectángulo_259" data-name="Rectángulo 259" width="1.226" height="1.226" transform="translate(24.445 25.312) rotate(-45)" fill="#8f9294"/>
            <rect id="Rectángulo_260" data-name="Rectángulo 260" width="1.136" height="1.136" transform="translate(19.556 20.359) rotate(-45.001)" fill="#8f9294"/>
            <rect id="Rectángulo_261" data-name="Rectángulo 261" width="1.046" height="1.046" transform="translate(14.667 15.407) rotate(-45)" fill="#8f9294"/>
            <rect id="Rectángulo_262" data-name="Rectángulo 262" width="0.956" height="0.956" transform="matrix(0.707, -0.707, 0.707, 0.707, 9.778, 10.454)" fill="#8f9294"/>
            <rect id="Rectángulo_263" data-name="Rectángulo 263" width="0.866" height="0.866" transform="translate(4.889 5.502) rotate(-45)" fill="#8f9294"/>
            <rect id="Rectángulo_264" data-name="Rectángulo 264" width="0.776" height="0.776" transform="matrix(0.707, -0.707, 0.707, 0.707, 0, 0.549)" fill="#8f9294"/>
          </g>
        </g>
        <g id="Grupo_80" data-name="Grupo 80" transform="translate(20.064 24.076)">
          <g id="Grupo_79" data-name="Grupo 79" transform="translate(0 0)">
            <rect id="Rectángulo_265" data-name="Rectángulo 265" width="1.765" height="1.765" transform="translate(53.779 55.027) rotate(-44.999)" fill="#8f9294"/>
            <rect id="Rectángulo_266" data-name="Rectángulo 266" width="1.675" height="1.675" transform="translate(48.89 50.075) rotate(-45)" fill="#8f9294"/>
            <rect id="Rectángulo_267" data-name="Rectángulo 267" width="1.585" height="1.585" transform="translate(44.001 45.122) rotate(-44.999)" fill="#8f9294"/>
            <rect id="Rectángulo_268" data-name="Rectángulo 268" width="1.495" height="1.495" transform="translate(39.112 40.17) rotate(-45)" fill="#8f9294"/>
            <rect id="Rectángulo_269" data-name="Rectángulo 269" width="1.406" height="1.406" transform="translate(34.223 35.217) rotate(-44.999)" fill="#8f9294"/>
            <rect id="Rectángulo_270" data-name="Rectángulo 270" width="1.316" height="1.316" transform="matrix(0.707, -0.707, 0.707, 0.707, 29.334, 30.265)" fill="#8f9294"/>
            <rect id="Rectángulo_271" data-name="Rectángulo 271" width="1.226" height="1.226" transform="matrix(0.707, -0.707, 0.707, 0.707, 24.445, 25.312)" fill="#8f9294"/>
            <rect id="Rectángulo_272" data-name="Rectángulo 272" width="1.136" height="1.136" transform="translate(19.556 20.359) rotate(-45.001)" fill="#8f9294"/>
            <rect id="Rectángulo_273" data-name="Rectángulo 273" width="1.046" height="1.046" transform="translate(14.667 15.407) rotate(-45)" fill="#8f9294"/>
            <rect id="Rectángulo_274" data-name="Rectángulo 274" width="0.956" height="0.956" transform="translate(9.778 10.454) rotate(-45.002)" fill="#8f9294"/>
            <rect id="Rectángulo_275" data-name="Rectángulo 275" width="0.866" height="0.866" transform="translate(4.889 5.502) rotate(-45)" fill="#8f9294"/>
            <rect id="Rectángulo_276" data-name="Rectángulo 276" width="0.776" height="0.776" transform="matrix(0.707, -0.707, 0.707, 0.707, 0, 0.549)" fill="#8f9294"/>
          </g>
        </g>
        <g id="Grupo_82" data-name="Grupo 82" transform="translate(16.051 28.089)">
          <g id="Grupo_81" data-name="Grupo 81" transform="translate(0 0)">
            <rect id="Rectángulo_277" data-name="Rectángulo 277" width="1.765" height="1.765" transform="translate(53.779 55.027) rotate(-44.999)" fill="#8f9294"/>
            <rect id="Rectángulo_278" data-name="Rectángulo 278" width="1.675" height="1.675" transform="translate(48.89 50.075) rotate(-45)" fill="#8f9294"/>
            <rect id="Rectángulo_279" data-name="Rectángulo 279" width="1.585" height="1.585" transform="translate(44.001 45.122) rotate(-44.999)" fill="#8f9294"/>
            <rect id="Rectángulo_280" data-name="Rectángulo 280" width="1.495" height="1.495" transform="translate(39.112 40.17) rotate(-45)" fill="#8f9294"/>
            <rect id="Rectángulo_281" data-name="Rectángulo 281" width="1.406" height="1.406" transform="translate(34.223 35.217) rotate(-44.999)" fill="#8f9294"/>
            <rect id="Rectángulo_282" data-name="Rectángulo 282" width="1.316" height="1.316" transform="translate(29.334 30.264) rotate(-45)" fill="#8f9294"/>
            <rect id="Rectángulo_283" data-name="Rectángulo 283" width="1.226" height="1.226" transform="matrix(0.707, -0.707, 0.707, 0.707, 24.445, 25.312)" fill="#8f9294"/>
            <rect id="Rectángulo_284" data-name="Rectángulo 284" width="1.136" height="1.136" transform="translate(19.556 20.359) rotate(-45)" fill="#8f9294"/>
            <rect id="Rectángulo_285" data-name="Rectángulo 285" width="1.046" height="1.046" transform="translate(14.667 15.407) rotate(-45)" fill="#8f9294"/>
            <rect id="Rectángulo_286" data-name="Rectángulo 286" width="0.956" height="0.956" transform="translate(9.778 10.454) rotate(-45)" fill="#8f9294"/>
            <rect id="Rectángulo_287" data-name="Rectángulo 287" width="0.866" height="0.866" transform="translate(4.889 5.502) rotate(-45)" fill="#8f9294"/>
            <rect id="Rectángulo_288" data-name="Rectángulo 288" width="0.776" height="0.776" transform="matrix(0.707, -0.707, 0.707, 0.707, 0, 0.549)" fill="#8f9294"/>
          </g>
        </g>
        <g id="Grupo_84" data-name="Grupo 84" transform="translate(12.038 32.102)">
          <g id="Grupo_83" data-name="Grupo 83" transform="translate(0 0)">
            <rect id="Rectángulo_289" data-name="Rectángulo 289" width="1.765" height="1.765" transform="translate(53.779 55.027) rotate(-44.999)" fill="#8f9294"/>
            <rect id="Rectángulo_290" data-name="Rectángulo 290" width="1.675" height="1.675" transform="translate(48.89 50.075) rotate(-44.999)" fill="#8f9294"/>
            <rect id="Rectángulo_291" data-name="Rectángulo 291" width="1.585" height="1.585" transform="translate(44.001 45.122) rotate(-44.999)" fill="#8f9294"/>
            <rect id="Rectángulo_292" data-name="Rectángulo 292" width="1.495" height="1.495" transform="matrix(0.707, -0.707, 0.707, 0.707, 39.112, 40.17)" fill="#8f9294"/>
            <rect id="Rectángulo_293" data-name="Rectángulo 293" width="1.406" height="1.406" transform="translate(34.223 35.217) rotate(-44.999)" fill="#8f9294"/>
            <rect id="Rectángulo_294" data-name="Rectángulo 294" width="1.316" height="1.316" transform="matrix(0.707, -0.707, 0.707, 0.707, 29.334, 30.264)" fill="#8f9294"/>
            <rect id="Rectángulo_295" data-name="Rectángulo 295" width="1.226" height="1.226" transform="matrix(0.707, -0.707, 0.707, 0.707, 24.445, 25.312)" fill="#8f9294"/>
            <rect id="Rectángulo_296" data-name="Rectángulo 296" width="1.136" height="1.136" transform="translate(19.556 20.359) rotate(-44.999)" fill="#8f9294"/>
            <rect id="Rectángulo_297" data-name="Rectángulo 297" width="1.046" height="1.046" transform="matrix(0.707, -0.707, 0.707, 0.707, 14.667, 15.407)" fill="#8f9294"/>
            <rect id="Rectángulo_298" data-name="Rectángulo 298" width="0.956" height="0.956" transform="translate(9.778 10.454) rotate(-44.998)" fill="#8f9294"/>
            <rect id="Rectángulo_299" data-name="Rectángulo 299" width="0.866" height="0.866" transform="translate(4.889 5.502) rotate(-44.998)" fill="#8f9294"/>
            <rect id="Rectángulo_300" data-name="Rectángulo 300" width="0.776" height="0.776" transform="translate(0 0.549) rotate(-44.998)" fill="#8f9294"/>
          </g>
        </g>
        <g id="Grupo_86" data-name="Grupo 86" transform="translate(8.026 36.114)">
          <g id="Grupo_85" data-name="Grupo 85" transform="translate(0 0)">
            <rect id="Rectángulo_301" data-name="Rectángulo 301" width="1.765" height="1.765" transform="matrix(0.707, -0.707, 0.707, 0.707, 53.779, 55.027)" fill="#8f9294"/>
            <rect id="Rectángulo_302" data-name="Rectángulo 302" width="1.675" height="1.675" transform="translate(48.89 50.075) rotate(-45.001)" fill="#8f9294"/>
            <rect id="Rectángulo_303" data-name="Rectángulo 303" width="1.585" height="1.585" transform="translate(44.001 45.122) rotate(-45.001)" fill="#8f9294"/>
            <rect id="Rectángulo_304" data-name="Rectángulo 304" width="1.495" height="1.495" transform="matrix(0.707, -0.707, 0.707, 0.707, 39.112, 40.17)" fill="#8f9294"/>
            <rect id="Rectángulo_305" data-name="Rectángulo 305" width="1.406" height="1.406" transform="translate(34.223 35.217) rotate(-45)" fill="#8f9294"/>
            <rect id="Rectángulo_306" data-name="Rectángulo 306" width="1.316" height="1.316" transform="translate(29.334 30.265) rotate(-45.001)" fill="#8f9294"/>
            <rect id="Rectángulo_307" data-name="Rectángulo 307" width="1.226" height="1.226" transform="translate(24.445 25.312) rotate(-45)" fill="#8f9294"/>
            <rect id="Rectángulo_308" data-name="Rectángulo 308" width="1.136" height="1.136" transform="translate(19.556 20.359) rotate(-45.001)" fill="#8f9294"/>
            <rect id="Rectángulo_309" data-name="Rectángulo 309" width="1.046" height="1.046" transform="translate(14.667 15.407) rotate(-45)" fill="#8f9294"/>
            <rect id="Rectángulo_310" data-name="Rectángulo 310" width="0.956" height="0.956" transform="translate(9.778 10.454) rotate(-45)" fill="#8f9294"/>
            <rect id="Rectángulo_311" data-name="Rectángulo 311" width="0.866" height="0.866" transform="translate(4.889 5.502) rotate(-45)" fill="#8f9294"/>
            <rect id="Rectángulo_312" data-name="Rectángulo 312" width="0.776" height="0.776" transform="translate(0 0.549) rotate(-45)" fill="#8f9294"/>
          </g>
        </g>
        <g id="Grupo_88" data-name="Grupo 88" transform="translate(4.013 40.127)">
          <g id="Grupo_87" data-name="Grupo 87" transform="translate(0 0)">
            <rect id="Rectángulo_313" data-name="Rectángulo 313" width="1.765" height="1.765" transform="translate(53.779 55.027) rotate(-45)" fill="#8f9294"/>
            <rect id="Rectángulo_314" data-name="Rectángulo 314" width="1.675" height="1.675" transform="translate(48.89 50.075) rotate(-45)" fill="#8f9294"/>
            <rect id="Rectángulo_315" data-name="Rectángulo 315" width="1.585" height="1.585" transform="translate(44.001 45.122) rotate(-45)" fill="#8f9294"/>
            <rect id="Rectángulo_316" data-name="Rectángulo 316" width="1.495" height="1.495" transform="matrix(0.707, -0.707, 0.707, 0.707, 39.112, 40.17)" fill="#8f9294"/>
            <rect id="Rectángulo_317" data-name="Rectángulo 317" width="1.406" height="1.406" transform="translate(34.223 35.217) rotate(-45.001)" fill="#8f9294"/>
            <rect id="Rectángulo_318" data-name="Rectángulo 318" width="1.316" height="1.316" transform="matrix(0.707, -0.707, 0.707, 0.707, 29.334, 30.265)" fill="#8f9294"/>
            <rect id="Rectángulo_319" data-name="Rectángulo 319" width="1.226" height="1.226" transform="translate(24.445 25.312) rotate(-45)" fill="#8f9294"/>
            <rect id="Rectángulo_320" data-name="Rectángulo 320" width="1.136" height="1.136" transform="translate(19.556 20.359) rotate(-45.001)" fill="#8f9294"/>
            <rect id="Rectángulo_321" data-name="Rectángulo 321" width="1.046" height="1.046" transform="translate(14.667 15.407) rotate(-45)" fill="#8f9294"/>
            <rect id="Rectángulo_322" data-name="Rectángulo 322" width="0.956" height="0.956" transform="matrix(0.707, -0.707, 0.707, 0.707, 9.778, 10.454)" fill="#8f9294"/>
            <rect id="Rectángulo_323" data-name="Rectángulo 323" width="0.866" height="0.866" transform="translate(4.889 5.502) rotate(-45)" fill="#8f9294"/>
            <rect id="Rectángulo_324" data-name="Rectángulo 324" width="0.776" height="0.776" transform="matrix(0.707, -0.707, 0.707, 0.707, 0, 0.549)" fill="#8f9294"/>
          </g>
        </g>
        <g id="Grupo_90" data-name="Grupo 90" transform="translate(0 44.14)">
          <g id="Grupo_89" data-name="Grupo 89" transform="translate(0 0)">
            <rect id="Rectángulo_325" data-name="Rectángulo 325" width="1.765" height="1.765" transform="translate(53.779 55.027) rotate(-45)" fill="#8f9294"/>
            <rect id="Rectángulo_326" data-name="Rectángulo 326" width="1.675" height="1.675" transform="translate(48.89 50.075) rotate(-45)" fill="#8f9294"/>
            <rect id="Rectángulo_327" data-name="Rectángulo 327" width="1.585" height="1.585" transform="translate(44.001 45.122) rotate(-45)" fill="#8f9294"/>
            <rect id="Rectángulo_328" data-name="Rectángulo 328" width="1.495" height="1.495" transform="translate(39.112 40.17) rotate(-45)" fill="#8f9294"/>
            <rect id="Rectángulo_329" data-name="Rectángulo 329" width="1.406" height="1.406" transform="translate(34.223 35.217) rotate(-45)" fill="#8f9294"/>
            <rect id="Rectángulo_330" data-name="Rectángulo 330" width="1.316" height="1.316" transform="translate(29.334 30.264) rotate(-45)" fill="#8f9294"/>
            <rect id="Rectángulo_331" data-name="Rectángulo 331" width="1.226" height="1.226" transform="matrix(0.707, -0.707, 0.707, 0.707, 24.445, 25.312)" fill="#8f9294"/>
            <rect id="Rectángulo_332" data-name="Rectángulo 332" width="1.136" height="1.136" transform="translate(19.556 20.359) rotate(-45.001)" fill="#8f9294"/>
            <rect id="Rectángulo_333" data-name="Rectángulo 333" width="1.046" height="1.046" transform="translate(14.667 15.407) rotate(-45.002)" fill="#8f9294"/>
            <rect id="Rectángulo_334" data-name="Rectángulo 334" width="0.956" height="0.956" transform="translate(9.778 10.454) rotate(-45.002)" fill="#8f9294"/>
            <rect id="Rectángulo_335" data-name="Rectángulo 335" width="0.866" height="0.866" transform="matrix(0.707, -0.707, 0.707, 0.707, 4.889, 5.502)" fill="#8f9294"/>
            <rect id="Rectángulo_336" data-name="Rectángulo 336" width="0.776" height="0.776" transform="matrix(0.707, -0.707, 0.707, 0.707, 0, 0.549)" fill="#8f9294"/>
          </g>
        </g>
      </g>
      <g id="Grupo_880875" data-name="Grupo 880875" transform="translate(-317.992 -656.979)">
        <path id="Trazado_605669" data-name="Trazado 605669" d="M687.025,1063.1c-17.649,7.017-19.339,24.956-35.23,26.5-13.846,1.341-19.109-11.644-28.825-9.317-14.8,3.544-24.1,38.828-18.16,67.84,6.137,29.957,31.925,69.781,74.646,72.5,47.963,3.052,84.255-42.77,86.471-82.981.24-4.348,1.655-40.785-26.2-62.308C738.333,1074.251,710.883,1053.611,687.025,1063.1Z" fill="#fabbd0"/>
        <g id="Grupo_880858" data-name="Grupo 880858" transform="translate(703.357 1093.431)">
          <g id="Grupo_880857" data-name="Grupo 880857" transform="translate(0 0)">
            <path id="Trazado_605670" data-name="Trazado 605670" d="M764.5,1208.508c-2.288-6.288-4.721-15.921-2.58-26.771,2.457-12.458,8.7-15.134,13.95-28.536,7.5-19.129-2.108-32.506,6.093-38.541a13.47,13.47,0,0,1,14.484-.454c11.569,7.694,9.59,42.885-7.919,57.152-7.918,6.453-15.024,5.944-20.858,14.154C762.518,1192.765,763.239,1202.094,764.5,1208.508Z" transform="translate(-761.097 -1112.311)" fill="#b1ede3"/>
            <g id="Grupo_880856" data-name="Grupo 880856" clip-path="url(#clip-path)">
              <g id="Grupo_880855" data-name="Grupo 880855" transform="translate(1.418 -3.266)" style="mix-blend-mode: soft-light;isolation: isolate">
                <path id="Trazado_605671" data-name="Trazado 605671" d="M763.538,1190.682l-.208-.046a48.426,48.426,0,0,1,2.478-7.927c2.409-5.874,5.166-9.145,8.656-13.286a112.231,112.231,0,0,0,7.777-10.083c5.5-8.127,7.2-10.972,8.649-15.507a44.35,44.35,0,0,0,1.439-20.862,43.248,43.248,0,0,0-6.1-15.69l.18-.114a43.435,43.435,0,0,1,6.132,15.767,44.555,44.555,0,0,1-1.445,20.965c-1.46,4.56-3.161,7.414-8.675,15.561a112.415,112.415,0,0,1-7.79,10.1c-3.478,4.127-6.226,7.387-8.622,13.23A48.216,48.216,0,0,0,763.538,1190.682Z" transform="translate(-763.33 -1107.166)" fill="#fff"/>
                <path id="Trazado_605672" data-name="Trazado 605672" d="M800,1141.509l-.009-.175c-.324-6.532-4.638-10.629-8.2-12.916a28.612,28.612,0,0,0-7.741-3.437l.05-.208a28.862,28.862,0,0,1,7.807,3.465c3.571,2.293,7.889,6.387,8.287,12.9a23.835,23.835,0,0,0,5.973-5.668,21.346,21.346,0,0,0,3.753-17.436l.209-.043a21.554,21.554,0,0,1-3.8,17.612,23.577,23.577,0,0,1-6.182,5.811Z" transform="translate(-770.896 -1111.121)" fill="#fff"/>
                <path id="Trazado_605673" data-name="Trazado 605673" d="M799.992,1176.572a22.014,22.014,0,0,1-7.663-1.359l-.083-.034.02-.088a18.794,18.794,0,0,0-1.75-13.947,15.321,15.321,0,0,0-3.888-4.54l.123-.174a15.563,15.563,0,0,1,3.95,4.607,18.987,18.987,0,0,1,1.793,14.012c1.007.391,10.927,3.975,18.96-2.7l.136.164A17.784,17.784,0,0,1,799.992,1176.572Z" transform="translate(-771.839 -1125.157)" fill="#fff"/>
                <path id="Trazado_605674" data-name="Trazado 605674" d="M790.163,1196.379a18.014,18.014,0,0,1-4.18-.47,12.221,12.221,0,0,1-4.757-2.126l-.058-.05.028-.071c2.637-6.609-1.676-17.152-1.72-17.258l.2-.082c.044.106,4.358,10.652,1.75,17.345.671.519,7.016,5.043,18.448.447l.08.2A26.218,26.218,0,0,1,790.163,1196.379Z" transform="translate(-769.227 -1132.422)" fill="#fff"/>
              </g>
            </g>
          </g>
        </g>
        <g id="Grupo_880862" data-name="Grupo 880862" transform="translate(685.709 1116.094)">
          <g id="Grupo_880861" data-name="Grupo 880861">
            <path id="Trazado_605676" data-name="Trazado 605676" d="M734.225,1235.3c-1.167-5.883-2.024-15.1,2.526-23.515,7.938-14.679,23.4-10.388,37.557-26.3,11.419-12.829,7.386-22.388,20.217-31.082,2.148-1.456,13.485-9.448,22.244-5.132,4.936,2.432,6.865,7.687,7.227,8.673,5.471,14.91-9.124,38.993-28.784,50.423-11.3,6.567-15.07,4.659-35.065,12.537A113.862,113.862,0,0,0,734.225,1235.3Z" transform="translate(-733.296 -1148.013)" fill="#21cbae"/>
            <g id="Grupo_880860" data-name="Grupo 880860" clip-path="url(#clip-path-2)">
              <g id="Grupo_880859" data-name="Grupo 880859" transform="translate(-0.783 -5.59)" style="mix-blend-mode: soft-light;isolation: isolate">
                <path id="Trazado_605677" data-name="Trazado 605677" d="M732.272,1239.255l-.21-.037c2.491-14.23,7.769-23.906,15.687-28.758,3.876-2.375,7.008-2.832,10.324-3.315a26.458,26.458,0,0,0,12.046-4.167c4.657-3.023,6.271-5.842,8.314-9.411a55.727,55.727,0,0,1,9.373-12.6A59.406,59.406,0,0,1,798.783,1172c3.238-2.151,5.8-3.851,8.69-7.906,4.728-6.624,7.042-15,6.878-24.887l.213,0c.165,9.937-2.162,18.353-6.917,25.015-2.918,4.087-5.489,5.8-8.745,7.96a59.209,59.209,0,0,0-10.942,8.935,55.554,55.554,0,0,0-9.34,12.555c-2.057,3.594-3.683,6.434-8.383,9.484a26.645,26.645,0,0,1-12.131,4.2c-3.294.48-6.405.933-10.244,3.286C740,1215.461,734.752,1225.088,732.272,1239.255Z" transform="translate(-732.062 -1139.207)" fill="#fff"/>
                <path id="Trazado_605678" data-name="Trazado 605678" d="M834.026,1176.335l.041-.137c.058-.2,5.777-20.024-1.711-27.9l.155-.147c2.187,2.3,4.614,7.135,3.754,17.093a63.9,63.9,0,0,1-1.954,10.881,38.278,38.278,0,0,0,23.337-8,36.167,36.167,0,0,0,7.753-7.987l.18.116a36.391,36.391,0,0,1-7.8,8.035,38.494,38.494,0,0,1-23.615,8.054Z" transform="translate(-768.689 -1142.472)" fill="#fff"/>
                <path id="Trazado_605679" data-name="Trazado 605679" d="M827.4,1202.86c-1.084,0-2.111-.037-3.071-.1a44.927,44.927,0,0,1-12.765-2.588l-.084-.035.022-.089c2.5-10.321-.46-24.8-.49-24.944l.209-.044c.03.145,2.98,14.586.51,24.947a46.729,46.729,0,0,0,40.231-4.49l.115.18A45.256,45.256,0,0,1,827.4,1202.86Z" transform="translate(-760.894 -1152.301)" fill="#fff"/>
                <path id="Trazado_605680" data-name="Trazado 605680" d="M806.466,1238.06c-17.929,0-28.4-7.042-28.507-7.118l-.092-.064.068-.089c7.464-9.73,3.938-25.3,3.9-25.458l.208-.049c.037.157,3.564,15.73-3.87,25.546,1.155.748,12.833,7.947,32.009,6.919l.011.213Q808.281,1238.062,806.466,1238.06Z" transform="translate(-748.79 -1163.338)" fill="#fff"/>
              </g>
            </g>
          </g>
        </g>
        <g id="Grupo_880865" data-name="Grupo 880865" transform="translate(679.125 1163.189)">
          <g id="Grupo_880864" data-name="Grupo 880864">
            <g id="Grupo_880863" data-name="Grupo 880863">
              <path id="Trazado_605682" data-name="Trazado 605682" d="M722.924,1262.488a63.9,63.9,0,0,1,15.647-8.861c12.734-4.977,18.722-2.473,24-8.092,5.464-5.817,1.631-11.251,8.186-17.761.551-.547,7.6-7.362,14.238-5.121,4.646,1.569,6.6,6.727,7.518,9.148,3.559,9.394,2.129,23.927-7.776,31.39-9.391,7.076-21.657,4.239-25.552,3.311-6.834-1.628-8.524-4.218-15.464-5.667A39.3,39.3,0,0,0,722.924,1262.488Z" transform="translate(-722.924 -1222.202)" fill="#b1ede3"/>
            </g>
          </g>
        </g>
        <g id="Grupo_880870" data-name="Grupo 880870" transform="translate(606.036 1129.148)">
          <g id="Grupo_880868" data-name="Grupo 880868" transform="translate(0 0)">
            <g id="Grupo_880867" data-name="Grupo 880867">
              <path id="Trazado_605683" data-name="Trazado 605683" d="M781.55,1301.891l-167.381-1.447v4.281a2.274,2.274,0,0,0,1.718,2.327l47.331,8.429a6.572,6.572,0,0,0,1.7.079l114.814-9.612a2.165,2.165,0,0,0,1.819-2.271Z" transform="translate(-610.118 -1216.734)" fill="#bfc8d6"/>
              <g id="Grupo_880866" data-name="Grupo 880866">
                <path id="Trazado_605684" data-name="Trazado 605684" d="M717.622,1246.873,611.238,1254.7a3.225,3.225,0,0,1-3.451-3.326v-79.221a3.52,3.52,0,0,1,3.451-3.58H717.622a3.055,3.055,0,0,1,2.836,3.237v71.615A3.341,3.341,0,0,1,717.622,1246.873Z" transform="translate(-607.787 -1168.576)" fill="#bfc8d6"/>
                <path id="Trazado_605685" data-name="Trazado 605685" d="M720.294,1246.873,613.911,1254.7a3.225,3.225,0,0,1-3.452-3.326v-79.221a3.52,3.52,0,0,1,3.452-3.58H720.294a3.056,3.056,0,0,1,2.837,3.237v71.615A3.341,3.341,0,0,1,720.294,1246.873Z" transform="translate(-608.763 -1168.576)" fill="#fff"/>
                <path id="Trazado_605686" data-name="Trazado 605686" d="M719.643,1244.469l-99.086,6.8a2.644,2.644,0,0,1-2.808-2.73v-69.358a2.883,2.883,0,0,1,2.808-2.935l99.086-.427a2.5,2.5,0,0,1,2.34,2.652v63.173A2.734,2.734,0,0,1,719.643,1244.469Z" transform="translate(-611.425 -1171.222)" fill="#d8dee8"/>
                <path id="Trazado_605687" data-name="Trazado 605687" d="M704.2,1171.223a1.229,1.229,0,1,1-1.224-1.332A1.286,1.286,0,0,1,704.2,1171.223Z" transform="translate(-642.102 -1169.056)" fill="#fff"/>
                <path id="Trazado_605688" data-name="Trazado 605688" d="M613.91,1254.7l105.846-7.792.538-.039a2.854,2.854,0,0,0,1.874-.948c-7.617-.417-12.348-3.119-15.4-5.913-6.128-5.609-5.065-11.14-11.675-14.828-8.243-4.6-14.725,1.228-20.98-4.522-3.792-3.487-1.93-6.086-6.6-11.3-5.169-5.771-8.534-3.831-13.728-9.024-6.568-6.567-3.283-11.676-8.94-16.391-6.863-5.72-14.265-.426-20.8-5.911-2.818-2.366-4.364-5.805-5.171-9.464h-4.971a3.52,3.52,0,0,0-3.452,3.58v79.221A3.224,3.224,0,0,0,613.91,1254.7Z" transform="translate(-608.763 -1168.576)" fill="#fff" opacity="0.48" style="mix-blend-mode: soft-light;isolation: isolate"/>
              </g>
              <path id="Trazado_605689" data-name="Trazado 605689" d="M726.662,1291.219l-112.493,8.243,49.049,8.736a6.588,6.588,0,0,0,1.7.079l116.633-9.764-53.1-7.239A8.553,8.553,0,0,0,726.662,1291.219Z" transform="translate(-610.118 -1213.357)" fill="url(#linear-gradient)"/>
              <path id="Trazado_605690" data-name="Trazado 605690" d="M640.027,1300.322l93.654-6.965,28.985,3.92-92.847,7.445Z" transform="translate(-619.561 -1214.146)" fill="#d8dee8"/>
            </g>
          </g>
          <g id="Grupo_880869" data-name="Grupo 880869" transform="translate(40.733 12.381)">
            <path id="Trazado_605691" data-name="Trazado 605691" d="M708.572,1202.133c-3.21-10.305-13.531-16.256-23.054-13.29s-14.64,13.725-11.43,24.031,13.531,16.256,23.054,13.29S711.783,1212.439,708.572,1202.133Zm-14.927,12.583.065,2.812-2.7.063-.061-2.62a11.093,11.093,0,0,1-4.715-1.076l.752-3.246a9.743,9.743,0,0,0,4.605,1.107c1.572-.036,2.633-.668,2.607-1.771-.024-1.048-.922-1.689-2.978-2.331-2.973-.924-5.018-2.257-5.08-4.931-.057-2.426,1.609-4.369,4.546-5.016l-.061-2.62,2.7-.062.056,2.426a9.93,9.93,0,0,1,4.02.817l-.727,3.135a9.149,9.149,0,0,0-3.992-.846c-1.793.042-2.353.827-2.335,1.6.021.91,1,1.466,3.364,2.294,3.309,1.082,4.667,2.568,4.725,5.049C698.492,1211.954,696.8,1214.09,693.646,1214.716Z" transform="translate(-672.384 -1188.08)" fill="#97a6b7" opacity="0.3" style="mix-blend-mode: multiply;isolation: isolate"/>
            <path id="Trazado_605692" data-name="Trazado 605692" d="M709.711,1265.651a2.506,2.506,0,0,1-2.347,2.492l-32.567,1.789a2.563,2.563,0,0,1-2.843-2.432v-5.391a2.853,2.853,0,0,1,2.857-2.673l32.533-.991a2.274,2.274,0,0,1,2.367,2.289Z" transform="translate(-671.954 -1213.777)" fill="#97a6b7" opacity="0.3" style="mix-blend-mode: multiply;isolation: isolate"/>
          </g>
        </g>
        <g id="Grupo_880872" data-name="Grupo 880872" transform="translate(649.945 1088.681)">
          <path id="Trazado_605693" data-name="Trazado 605693" d="M757.311,1151.4c0,21.74-17,38.841-38.726,38.174-22.611-.694-41.628-20.222-41.628-43.591s19.017-40.333,41.628-37.978C740.311,1110.263,757.311,1129.657,757.311,1151.4Z" transform="translate(-676.957 -1105.908)" fill="url(#linear-gradient-2)"/>
          <path id="Trazado_605694" data-name="Trazado 605694" d="M766.559,1148.443c0,21.74-17,38.841-38.725,38.174-22.612-.694-41.628-20.223-41.628-43.592s19.017-40.333,41.628-37.978C749.56,1107.31,766.559,1126.7,766.559,1148.443Z" transform="translate(-680.334 -1104.829)" fill="url(#linear-gradient-3)"/>
          <path id="Trazado_605695" data-name="Trazado 605695" d="M765.984,1149.407c0,20.782-16.265,37.1-37.02,36.431-21.562-.7-39.664-19.335-39.664-41.6s18.1-38.462,39.664-36.253C749.719,1110.111,765.984,1128.625,765.984,1149.407Z" transform="translate(-681.464 -1105.908)" fill="url(#linear-gradient-4)"/>
          <path id="Trazado_605696" data-name="Trazado 605696" d="M765.567,1150.094c0,20.1-15.739,35.86-35.8,35.186-20.813-.7-38.265-18.7-38.265-40.179s17.453-37.128,38.265-35.02C749.829,1112.112,765.567,1130,765.567,1150.094Z" transform="translate(-682.269 -1106.678)" fill="url(#linear-gradient-5)"/>
          <g id="Grupo_880871" data-name="Grupo 880871" transform="translate(28.93 10.232)">
            <path id="Trazado_605697" data-name="Trazado 605697" d="M740.894,1120.956h0a2.187,2.187,0,0,1,1.932,2.146v3.7a54.423,54.423,0,0,1,6.413,1.113q2.367.556,4.7,1.324a2.164,2.164,0,0,1,1.474,2.221l-.454,4.64a1.739,1.739,0,0,1-2.483,1.443,26.906,26.906,0,0,0-3.155-1.175,28.59,28.59,0,0,0-5.951-1.112l-.546-.045v10.6c5.569,1.558,9.659,3.654,12.3,6.29a13.3,13.3,0,0,1,3.941,9.819,12.929,12.929,0,0,1-4.358,10.208q-4.387,3.866-12.328,4.341v4.084a1.857,1.857,0,0,1-1.933,1.887l-.035,0a2.053,2.053,0,0,1-1.94-2.047v-4.029l-.86-.039a56.62,56.62,0,0,1-7.142-.761,46.6,46.6,0,0,1-4.936-1.135,2.128,2.128,0,0,1-1.548-2.2l.534-5.965a1.886,1.886,0,0,1,2.637-1.556,38.7,38.7,0,0,0,4.341,1.424,38.1,38.1,0,0,0,6.94,1.16l.034-11.788c-5.345-1.323-9.348-3.282-11.977-5.877a13.457,13.457,0,0,1-3.967-10q0-6.3,4.3-9.713,4.273-3.395,12.125-3.386v-3.783A1.747,1.747,0,0,1,740.894,1120.956Zm-1.938,14.145a6.532,6.532,0,0,0-3.863,1.362,3.972,3.972,0,0,0-1.386,3.181,4.27,4.27,0,0,0,1.282,3.161,9.082,9.082,0,0,0,3.966,2.023Zm3.426,21.344v10.809a5.979,5.979,0,0,0,4.134-1.285,4.629,4.629,0,0,0,1.439-3.639,4.971,4.971,0,0,0-1.337-3.558A9.822,9.822,0,0,0,742.381,1156.445Z" transform="translate(-722.53 -1120.947)" fill="url(#linear-gradient-6)"/>
          </g>
          <path id="Trazado_605698" data-name="Trazado 605698" d="M723.289,1155.129c1.21-11.946,12.189-17,10.756-27.992-.883-6.773-6.017-12.481-11.743-16.937-17.37,1.821-30.8,16.2-30.8,35.014,0,21.481,17.453,39.481,38.265,40.179a36.112,36.112,0,0,0,5.913-.288C727.416,1176.88,722.251,1165.391,723.289,1155.129Z" transform="translate(-682.269 -1106.791)" opacity="0.3" fill="url(#linear-gradient-7)" style="mix-blend-mode: multiply;isolation: isolate"/>
        </g>
        <g id="Grupo_880873" data-name="Grupo 880873" transform="translate(616.117 1062.785)">
          <path id="Trazado_605699" data-name="Trazado 605699" d="M735.987,1108.537v.17a72.7,72.7,0,0,0-5.738-6.476c-.03-.072-.08-.145-.109-.216a38.249,38.249,0,0,0-3.653-6.744,37.232,37.232,0,0,0-5.835-6.677c-.276-.272-.594-.512-.889-.768-.15-.125-.3-.255-.455-.38l-.223-.191c-.079-.063-.159-.121-.238-.182q-.474-.36-.95-.726l-.238-.182-.25-.17c-.166-.114-.331-.229-.5-.342-.653-.473-1.358-.882-2.045-1.315-.35-.209-.717-.4-1.073-.6-.176-.1-.357-.2-.537-.3l-.554-.276a34.629,34.629,0,0,0-9.45-3.154l-1.239-.2c-.413-.057-.833-.093-1.245-.142l-.624-.07-.626-.034-.625-.039c-.208-.01-.414-.032-.624-.027l-1.249-.008c-.1,0-.212-.006-.307,0l-.278.015-.556.03-.552.027-.146.006-.566.043-.757.053-.566.042-.1.006-.034,0s-.2,0,.133.006l-1.224.18c-.2.032-.4.051-.606.1l-.6.121-.6.119-.3.059c-.1.019-.2.049-.295.072-.393.1-.785.2-1.176.3-.2.042-.388.11-.579.167l-.573.18-.573.172-.56.206c-.373.14-.747.263-1.109.411s-.724.305-1.082.46a31.105,31.105,0,0,0-7.6,4.781l-.411.344-.39.367c-.259.242-.526.473-.773.721-.01.008-.019.021-.029.03-.48.5-.966.963-1.4,1.476-.115.125-.227.253-.337.38l-.17.187-.157.2c-.21.258-.418.519-.626.776-.051.063-.106.125-.157.19l-.142.2c-.1.134-.193.267-.288.4-.187.267-.39.514-.558.789a29.525,29.525,0,0,0-3.23,6.266,28.639,28.639,0,0,0-1.432,5.588c-.027.21-.055.416-.083.62s-.063.4-.072.6q-.048.591-.1,1.128c-.022.365-.022.715-.036,1.044-.006.166-.017.327-.019.482s.011.314.013.462q.007.45.013.844a1.14,1.14,0,0,0,.015.164c.006.049.013.1.019.144.009.093.022.081.03.166s.015.106.022.106H680.09l-8.485,9.407-19.725,21.573-28.213-30.98H638.5a2.313,2.313,0,0,0,.067-.454c.058-.431.119-.851.187-1.362.039-.255.072-.492.113-.766.021-.134.04-.261.062-.4s.038-.286.065-.407c.1-.514.212-1.054.327-1.631.062-.286.121-.579.184-.88s.148-.606.229-.92c.161-.626.319-1.283.514-1.96s.424-1.371.647-2.1c.109-.365.25-.723.382-1.094s.271-.74.411-1.122a53.549,53.549,0,0,1,4.826-9.624,52.808,52.808,0,0,1,7.925-9.669c.384-.392.808-.751,1.218-1.127.208-.184.414-.371.621-.557l.316-.281.323-.267c.435-.354.874-.712,1.311-1.071l.331-.267.344-.255c.231-.172.46-.342.691-.511.906-.694,1.88-1.32,2.846-1.965.488-.314.993-.606,1.5-.91.248-.149.5-.3.753-.45l.776-.42a50.223,50.223,0,0,1,13.424-5l1.782-.352c.594-.11,1.2-.187,1.8-.277l.9-.128.906-.089.9-.087c.3-.028.6-.062.9-.072.6-.027,1.207-.1,1.811-.127.149-.006.3-.064.452-.064h.454l.9.051.9.029c.3,0,.6.041.9.055l1.792.109c.407.006.14.01.244.013l.046.006.1.01.187.026.377.046.751.093.378.047.187.023.231.032.95.14.95.144.471.074c.155.025.293.06.441.089.579.123,1.159.248,1.737.369.288.057.573.14.857.214l.855.227.848.227.838.265c.556.18,1.114.35,1.659.545l1.627.611a46.618,46.618,0,0,1,11.574,6.631c.212.163.422.329.632.492s.407.342.609.516c.4.344.808.675,1.2,1.027.766.719,1.529,1.408,2.227,2.155.178.182.352.367.53.547l.261.272.251.282q.5.567.986,1.124l.244.28.233.289c.151.193.305.383.456.575.3.384.617.749.889,1.146a46.778,46.778,0,0,1,3.918,6.255c.526,1.007.995,2.011,1.409,3a44.257,44.257,0,0,1,2.617,8.468c.057.322.119.638.176.95s.121.613.157.916c.08.6.161,1.184.235,1.742s.1,1.1.145,1.61c.019.255.044.5.059.748s.06.48.07.713C735.913,1107.685,735.987,1108.128,735.987,1108.537Z" transform="translate(-623.668 -1064.036)" fill="#0b5999"/>
          <path id="Trazado_605700" data-name="Trazado 605700" d="M765.412,1115.246v.169a72.715,72.715,0,0,0-5.738-6.476c-.03-.072-.08-.145-.109-.216a38.249,38.249,0,0,0-3.653-6.744,37.231,37.231,0,0,0-5.835-6.677c-.275-.272-.594-.512-.889-.768-.15-.125-.3-.255-.455-.38l-.223-.191c-.079-.063-.159-.12-.238-.182q-.474-.36-.95-.726l-.238-.182-.25-.17c-.166-.114-.331-.229-.5-.341-.653-.473-1.358-.882-2.045-1.315-.35-.209-.717-.4-1.073-.6-.176-.1-.357-.2-.537-.3l-.554-.276a34.625,34.625,0,0,0-9.45-3.154l-1.239-.2c-.413-.057-.833-.093-1.245-.142l-.624-.07-.626-.034-.625-.039c-.208-.01-.414-.032-.624-.027l-1.249-.008c-.1,0-.212-.006-.307,0l-.278.015-.556.03-.552.027c-.048,0-.083,0-.146.006l-.566.043-.757.053-.566.042-.1.006-.034,0s-.2,0,.133.006l-1.224.18c-.2.032-.4.051-.606.1l-.6.121-.6.119-.3.059c-.1.019-.2.049-.295.073-.393.1-.785.2-1.176.3-.2.042-.388.11-.579.168l-.573.18-.573.172-.56.206c-.373.14-.747.263-1.109.411s-.724.305-1.082.46a31.1,31.1,0,0,0-7.6,4.781l-.411.344-.39.367c-.259.242-.526.473-.773.721-.01.008-.019.021-.029.03a35.721,35.721,0,0,1,27.881-12.8c11.741,0,22.111,5.292,28.336,13.376.526,1.007.995,2.011,1.409,3a44.258,44.258,0,0,1,2.617,8.468c.057.322.119.638.176.95s.121.613.157.916c.08.6.161,1.184.235,1.742s.1,1.1.145,1.61c.019.255.044.5.059.748s.06.48.07.713C765.338,1114.393,765.412,1114.836,765.412,1115.246Z" transform="translate(-653.093 -1070.744)" fill="#08477a"/>
        </g>
        <g id="Grupo_880874" data-name="Grupo 880874" transform="translate(603.172 1143.891)">
          <path id="Trazado_605701" data-name="Trazado 605701" d="M666.223,1198.822a3.071,3.071,0,0,1-.961-1.268c-.254-.652-.076-.942-.393-1.35a1.619,1.619,0,0,0-1.8-.486.727.727,0,0,0-.356.283c-.252.425.307,1.162.753,1.553a6.634,6.634,0,0,0,.83.524,3.434,3.434,0,0,1,1.136,1.443Z" transform="translate(-624.96 -1193.194)" fill="url(#linear-gradient-8)"/>
          <path id="Trazado_605702" data-name="Trazado 605702" d="M638.853,1193.862a3.074,3.074,0,0,0,1.38-.792c.488-.5.437-.838.889-1.089a1.617,1.617,0,0,1,1.843.253.728.728,0,0,1,.218.4c.066.49-.736.95-1.3,1.137a6.826,6.826,0,0,1-.969.159,3.431,3.431,0,0,0-1.609.884Z" transform="translate(-616.268 -1191.801)" fill="url(#linear-gradient-9)"/>
          <path id="Trazado_605703" data-name="Trazado 605703" d="M634.361,1195.159c.248,1.181-1.029,2.231-1.95,3.263-1.847,2.069-3.781,5.762-3.071,8.931a6.884,6.884,0,0,0,3.387,4.49c1.889.955,3.021.086,4.987,1.22.145.084,2.63,1.557,2.7,3.546.089,2.453-3.518,5.063-6.605,5.262-5.647.366-12.451-7.144-12.134-14.6.345-8.112,9.062-14.551,11.569-13.46A2.068,2.068,0,0,1,634.361,1195.159Z" transform="translate(-609.992 -1192.493)" fill="#ef3c79"/>
          <path id="Trazado_605704" data-name="Trazado 605704" d="M644.82,1328.3l.2,2.055-.957-.174-.643-1.931Z" transform="translate(-617.937 -1241.631)" fill="url(#linear-gradient-10)"/>
          <path id="Trazado_605705" data-name="Trazado 605705" d="M636.436,1268.5a51.791,51.791,0,0,0,1.094,9.323,42.2,42.2,0,0,1,1.1,5.113c.394,4.127-.936,4.718-1.181,9.382a28.414,28.414,0,0,0,1.638,10.807,29.51,29.51,0,0,0,1.334,3.234c.472.412,1.194.253,1.955.1.281-4.672.63-9.069.911-13.741L646,1271.634Z" transform="translate(-615.386 -1219.812)" fill="#08477a"/>
          <path id="Trazado_605706" data-name="Trazado 605706" d="M642.376,1306.46c.281-4.672.63-9.069.911-13.741L646,1271.634l-9.565-3.132c.006.242.019.475.029.712,4.473,3.884,5.348,6.962,5.3,9.061-.053,2.546-1.445,3.808-1.173,7.5.195,2.64.988,3.1.988,5.486,0,3.067-1.317,4.791-1.958,6.563-.62,1.713-.84,4.139.357,7.589.157.356.306.675.439.949C640.894,1306.772,641.615,1306.615,642.376,1306.46Z" transform="translate(-615.386 -1219.812)" opacity="0.3" fill="url(#linear-gradient-11)" style="mix-blend-mode: multiply;isolation: isolate"/>
          <path id="Trazado_605707" data-name="Trazado 605707" d="M644.508,1331.657c-.453-.562-.869-.521-.945-.9a.776.776,0,0,1,.409-.793,1.058,1.058,0,0,1,.957.2c.709.483.5,1.21,1.169,1.541a1.807,1.807,0,0,1,.573.357c.1.093.33.322.27.476-.069.178-.5.162-.9.148a1.777,1.777,0,0,1-.963-.178C644.756,1332.3,644.858,1332.091,644.508,1331.657Z" transform="translate(-617.985 -1242.236)" fill="#ef3c79"/>
          <path id="Trazado_605708" data-name="Trazado 605708" d="M645.244,1304.358l-1.79.7-.522-.821,1.4-.94Z" transform="translate(-617.758 -1232.519)" fill="url(#linear-gradient-12)"/>
          <path id="Trazado_605709" data-name="Trazado 605709" d="M642.126,1305.842c.105-.714-.207-.992.022-1.306a.775.775,0,0,1,.86-.238c.4.161.485.714.5.839.126.848-.551,1.186-.34,1.9a1.823,1.823,0,0,1,.126.664c0,.133-.013.461-.166.521-.177.07-.456-.255-.72-.562-.318-.37-.477-.555-.522-.828C641.825,1306.457,642.045,1306.393,642.126,1305.842Z" transform="translate(-617.373 -1232.868)" fill="#ef3c79"/>
          <path id="Trazado_605710" data-name="Trazado 605710" d="M653.51,1263.392a49.419,49.419,0,0,1,4.895,16.171c.276,2.381.249,3.853-.437,5.332-2.455,5.3-11.023,5.646-12.326,5.682l-1.285-2.632a13.161,13.161,0,0,1,4.519-4.973c1.812-1.14,2.52-.9,2.972-1.661,1.815-3.071-7.981-9.723-6.518-14.152C645.837,1265.628,647.786,1264.074,653.51,1263.392Z" transform="translate(-618.278 -1217.946)" fill="#08477a"/>
          <path id="Trazado_605711" data-name="Trazado 605711" d="M631.281,1224.752c3.6.619,6.347,1.263,7.571,3.15,1.294,1.993-.763,3.494-1.322,7.868-.856,6.7,2.994,9.2,1.886,15.939a17.1,17.1,0,0,1-.75,2.916,6.9,6.9,0,0,1-2.848,3.538,17.835,17.835,0,0,1-3.606,1.742c-3.654,1.279-5.456.535-10.373.816-8.041.459-9.245,2.791-12.878,1.357-3.672-1.449-6.329-5.366-5.55-7.039.466-1,1.937-.376,4.047-1.607,2.719-1.586,2.262-3.75,4.469-5.607,3.169-2.667,6.217.026,8.928-2.293,2.742-2.345,3.069-8.051,1.9-11.447-.761-2.218-.776-4.63-1.341-6.907a1.466,1.466,0,0,1,.034-.833c.449-1.308,2.843-1.559,4.652-1.732A20.664,20.664,0,0,1,631.281,1224.752Z" transform="translate(-603.275 -1203.749)" fill="#ef3c79"/>
          <path id="Trazado_605712" data-name="Trazado 605712" d="M609.687,1270.3c1.113-.742.51-2.845,2.159-3.962,1.53-1.036,2.724.319,4.979-.372,2.893-.888,2.742-3.672,5.514-4.561,1.993-.639,2.6.633,5.47.688a11.434,11.434,0,0,0,9.017-4.173,10.245,10.245,0,0,0,1.886-3.948c.767,2.48,1.6,4.877,1.007,8.5a17.209,17.209,0,0,1-1.048,3.7,5.131,5.131,0,0,1-1.819,2.272,18.01,18.01,0,0,1-4.337,2.226c-3.654,1.278-5.456.535-10.373.816-8.041.459-9.245,2.791-12.878,1.357a10.429,10.429,0,0,1-5.16-4.571C607.283,1270.576,608.879,1270.834,609.687,1270.3Z" transform="translate(-603.578 -1214.505)" fill="#ef3c79" style="mix-blend-mode: multiply;isolation: isolate"/>
          <path id="Trazado_605713" data-name="Trazado 605713" d="M648.121,1215.062a9.763,9.763,0,0,1,1.056,3.172c.063,1.308-1.413,1.213-1.413,1.213l.055.825a1.788,1.788,0,0,0,1.167,1.558l.583.214s-3.8.814-5.878-.652l.6-.059a1.788,1.788,0,0,0,1.605-1.6l.036-.353S645.271,1215.305,648.121,1215.062Z" transform="translate(-618.035 -1200.296)" fill="url(#linear-gradient-13)"/>
          <path id="Trazado_605714" data-name="Trazado 605714" d="M658.594,1200.68c-.564,1.067.373,2.429.974,3.674,1.2,2.5,2.045,6.582.489,9.431a6.883,6.883,0,0,1-4.493,3.382c-2.08.4-2.928-.75-5.13-.2-.163.041-2.958.771-3.576,2.663-.762,2.333,1.985,5.837,4.9,6.881,5.327,1.908,13.938-3.434,15.689-10.683,1.906-7.893-4.7-16.486-7.409-16.128A2.068,2.068,0,0,0,658.594,1200.68Z" transform="translate(-619.145 -1194.681)" fill="#ef3c79"/>
          <path id="Trazado_605715" data-name="Trazado 605715" d="M633.861,1215.243c-.2-.016-.359-.265-.494-.191s-.125.441,0,.7a.923.923,0,0,0,.356.382,2.414,2.414,0,0,0-.425.964,3.334,3.334,0,0,0,.533,2.15c.941,2-.524,5.174-2.131,6.775-1.307,1.3-1.916.778-2.7,1.84-1.518,2.068.577,4.342-.208,7.126-1.194,4.233-7.878,5.492-8.155,5.54-.109.02-.183.032-.3.05-3,.477-7.543,1.2-10.743-1.263a9.333,9.333,0,0,1-3.311-7.868,9.118,9.118,0,0,1,2.569-5.861,8.322,8.322,0,0,1,5.44-2.548c1.545-.014,1.857.53,3.038.194a6.335,6.335,0,0,0,3.232-2.843c1.137-1.678.675-2.036,1.493-2.862,1.6-1.617,3.483-.347,5.195-1.774,1.687-1.406.67-3.314,2.3-4.532,1.68-1.256,4.894-.817,5.579.678C635.72,1213.18,634.463,1215.294,633.861,1215.243Z" transform="translate(-604.368 -1198.624)" fill="url(#linear-gradient-14)"/>
        </g>
      </g>
    </g>
  </g>
</svg>
