<svg xmlns="http://www.w3.org/2000/svg" width="543.966" height="772.205" viewBox="0 0 543.966 772.205">
  <g id="Grupo_895227" data-name="Grupo 895227" transform="translate(-138.345 -7651.828)">
    <g id="Grupo_895226" data-name="Grupo 895226">
      <g id="Grupo_880763" data-name="Grupo 880763" transform="translate(-756.655 6262.067)">
        <g id="Grupo_879317" data-name="Grupo 879317" transform="translate(895 2050.444) rotate(-90)">
          <path id="Trazado_601212" data-name="Trazado 601212" d="M261.467,33.937,33.937,261.467a19.878,19.878,0,0,1-28.114,0h0a19.88,19.88,0,0,1,0-28.114L233.352,5.823a19.88,19.88,0,0,1,28.114,0h0A19.88,19.88,0,0,1,261.467,33.937Z" fill="#edfbf9"/>
          <path id="Trazado_601213" data-name="Trazado 601213" d="M199.575,25.9,25.9,199.575a15.174,15.174,0,0,1-21.459,0h0a15.173,15.173,0,0,1,0-21.46L178.114,4.444a15.175,15.175,0,0,1,21.46,0h0A15.175,15.175,0,0,1,199.575,25.9Z" transform="translate(48.04 105.489)" fill="#edfbf9"/>
        </g>
        <g id="Grupo_873686" data-name="Grupo 873686" transform="translate(1003.192 1390.3)" opacity="0.502">
          <path id="Trazado_1" data-name="Trazado 1" d="M81.906-75.2-45.679,52.386q.886,5.472,2.293,10.756L92.662-72.906Q87.382-74.31,81.906-75.2Z" transform="translate(47.132 76.652)" fill="none" stroke="#275894" stroke-miterlimit="10" stroke-width="1.078"/>
          <path id="Trazado_2" data-name="Trazado 2" d="M92.853-72.715-43.195,63.333q1.344,5.054,3.134,9.915L102.768-69.581Q97.915-71.375,92.853-72.715Z" transform="translate(46.94 76.46)" fill="none" stroke="#275894" stroke-miterlimit="10" stroke-width="1.078"/>
          <path id="Trazado_3" data-name="Trazado 3" d="M137.61-48.491-18.971,108.09c1.984,2.357,4.054,4.639,6.226,6.823L144.433-42.265C142.249-44.436,139.967-46.507,137.61-48.491Z" transform="translate(45.073 74.593)" fill="none" stroke="#275894" stroke-miterlimit="10" stroke-width="1.078"/>
          <path id="Trazado_4" data-name="Trazado 4" d="M129.767-54.647l-154.9,154.9q2.694,3.8,5.682,7.367L137.135-48.966Q133.578-51.96,129.767-54.647Z" transform="translate(45.547 75.067)" fill="none" stroke="#275894" stroke-miterlimit="10" stroke-width="1.078"/>
          <path id="Trazado_5" data-name="Trazado 5" d="M112.528-65.12-35.6,83.008c1.387,2.913,2.911,5.746,4.537,8.512l152.1-152.1C118.274-62.209,115.44-63.733,112.528-65.12Z" transform="translate(46.355 75.875)" fill="none" stroke="#275894" stroke-miterlimit="10" stroke-width="1.078"/>
          <path id="Trazado_6" data-name="Trazado 6" d="M121.419-60.2-30.684,91.9q2.4,4.077,5.128,7.921l154.9-154.9Q125.495-57.8,121.419-60.2Z" transform="translate(45.976 75.496)" fill="none" stroke="#275894" stroke-miterlimit="10" stroke-width="1.078"/>
          <path id="Trazado_7" data-name="Trazado 7" d="M103.03-69.319-39.8,73.51q1.735,4.692,3.875,9.174L112.2-65.444Q107.723-67.577,103.03-69.319Z" transform="translate(46.678 76.198)" fill="none" stroke="#275894" stroke-miterlimit="10" stroke-width="1.078"/>
          <path id="Trazado_8" data-name="Trazado 8" d="M-38.97-5.484l63-63A111.455,111.455,0,0,0-38.97-5.484Z" transform="translate(46.614 76.134)" fill="none" stroke="#275894" stroke-miterlimit="10" stroke-width="1.078"/>
          <path id="Trazado_9" data-name="Trazado 9" d="M23.579-68.945l-63,63a110.174,110.174,0,0,0-5.459,18.508L42.088-74.4A110.213,110.213,0,0,0,23.579-68.945Z" transform="translate(47.07 76.59)" fill="none" stroke="#275894" stroke-miterlimit="10" stroke-width="1.078"/>
          <path id="Trazado_10" data-name="Trazado 10" d="M70.028-76.583-47.064,40.508A111.431,111.431,0,0,0-45.786,52.28L81.8-75.306A111.459,111.459,0,0,0,70.028-76.583Z" transform="translate(47.238 76.758)" fill="none" stroke="#275894" stroke-miterlimit="10" stroke-width="1.078"/>
          <path id="Trazado_11" data-name="Trazado 11" d="M63.9-76.773c-2.353,0-4.682.1-7,.242L-47.011,27.378c-.144,2.317-.242,4.646-.242,7,0,2.053.065,4.09.174,6.116L70.013-76.6C67.987-76.707,65.95-76.773,63.9-76.773Z" transform="translate(47.253 76.773)" fill="none" stroke="#275894" stroke-miterlimit="10" stroke-width="1.078"/>
          <path id="Trazado_12" data-name="Trazado 12" d="M41.925-74.567-45.047,12.405A111.2,111.2,0,0,0-46.991,27.4L56.917-76.511A111.347,111.347,0,0,0,41.925-74.567Z" transform="translate(47.233 76.753)" fill="none" stroke="#275894" stroke-miterlimit="10" stroke-width="1.078"/>
          <path id="Trazado_13" data-name="Trazado 13" d="M181.176,23.422,52.941,151.656a111.246,111.246,0,0,0,11.7,1.353L182.529,35.118A111.193,111.193,0,0,0,181.176,23.422Z" transform="translate(39.529 69.049)" fill="none" stroke="#275894" stroke-miterlimit="10" stroke-width="1.078"/>
          <path id="Trazado_14" data-name="Trazado 14" d="M183.747,43.078c0-2.348-.1-4.672-.241-6.983L65.614,153.986c2.312.144,4.636.241,6.983.241,2.011,0,4.006-.06,5.991-.165L183.582,49.068C183.687,47.084,183.747,45.088,183.747,43.078Z" transform="translate(38.552 68.072)" fill="none" stroke="#275894" stroke-miterlimit="10" stroke-width="1.078"/>
          <path id="Trazado_15" data-name="Trazado 15" d="M184.665,50.152,79.671,155.145a111.2,111.2,0,0,0,14.866-1.817l88.311-88.31A111.374,111.374,0,0,0,184.665,50.152Z" transform="translate(37.469 66.989)" fill="none" stroke="#275894" stroke-miterlimit="10" stroke-width="1.078"/>
          <path id="Trazado_16" data-name="Trazado 16" d="M184.09,66.26,95.779,154.57a110.257,110.257,0,0,0,18.1-5.056l65.15-65.149A110.459,110.459,0,0,0,184.09,66.26Z" transform="translate(36.227 65.747)" fill="none" stroke="#275894" stroke-miterlimit="10" stroke-width="1.078"/>
          <path id="Trazado_17" data-name="Trazado 17" d="M180.546,85.877,115.4,151.026A111.463,111.463,0,0,0,180.546,85.877Z" transform="translate(34.715 64.235)" fill="none" stroke="#275894" stroke-miterlimit="10" stroke-width="1.078"/>
          <path id="Trazado_18" data-name="Trazado 18" d="M177.925,11.837,41.357,148.406q5.248,1.434,10.691,2.357L180.283,22.529Q179.363,17.088,177.925,11.837Z" transform="translate(40.422 69.942)" fill="none" stroke="#275894" stroke-miterlimit="10" stroke-width="1.078"/>
          <path id="Trazado_19" data-name="Trazado 19" d="M158.118-26.455,3.065,128.6c2.549,1.829,5.17,3.562,7.874,5.175L163.293-18.581C161.681-21.285,159.947-23.906,158.118-26.455Z" transform="translate(43.374 72.894)" fill="none" stroke="#275894" stroke-miterlimit="10" stroke-width="1.078"/>
          <path id="Trazado_20" data-name="Trazado 20" d="M151.779-34.388-4.869,122.26q3.537,3.012,7.322,5.727L157.507-27.067Q154.792-30.849,151.779-34.388Z" transform="translate(43.986 73.506)" fill="none" stroke="#275894" stroke-miterlimit="10" stroke-width="1.078"/>
          <path id="Trazado_21" data-name="Trazado 21" d="M173.91,1.157,30.676,144.39q4.826,1.822,9.858,3.192L177.1,11.014Q175.728,5.987,173.91,1.157Z" transform="translate(41.246 70.766)" fill="none" stroke="#275894" stroke-miterlimit="10" stroke-width="1.078"/>
          <path id="Trazado_22" data-name="Trazado 22" d="M144.953-41.745-12.225,115.433c2.17,2.184,4.445,4.262,6.789,6.26L151.212-34.955C149.214-37.3,147.136-39.574,144.953-41.745Z" transform="translate(44.553 74.073)" fill="none" stroke="#275894" stroke-miterlimit="10" stroke-width="1.078"/>
          <path id="Trazado_23" data-name="Trazado 23" d="M169.237-8.746,20.773,139.717c2.973,1.44,6.027,2.735,9.14,3.909L173.147.394C171.972-2.72,170.676-5.774,169.237-8.746Z" transform="translate(42.009 71.529)" fill="none" stroke="#275894" stroke-miterlimit="10" stroke-width="1.078"/>
          <path id="Trazado_24" data-name="Trazado 24" d="M163.951-17.923,11.6,134.431c2.75,1.641,5.571,3.177,8.469,4.58L168.53-9.453C167.127-12.352,165.591-15.172,163.951-17.923Z" transform="translate(42.716 72.236)" fill="none" stroke="#275894" stroke-miterlimit="10" stroke-width="1.078"/>
        </g>
        <g id="Grupo_873687" data-name="Grupo 873687" transform="translate(1215.92 1938.92)">
          <g id="Grupo_68" data-name="Grupo 68" transform="translate(98.044 0)">
            <g id="Grupo_67" data-name="Grupo 67" transform="translate(0)">
              <rect id="Rectángulo_193" data-name="Rectángulo 193" width="3.921" height="3.921" transform="translate(119.458 122.23) rotate(-44.999)" fill="#8f9294"/>
              <rect id="Rectángulo_194" data-name="Rectángulo 194" width="3.721" height="3.721" transform="translate(108.598 111.229) rotate(-45)" fill="#8f9294"/>
              <rect id="Rectángulo_195" data-name="Rectángulo 195" width="3.521" height="3.521" transform="translate(97.738 100.228) rotate(-45)" fill="#8f9294"/>
              <rect id="Rectángulo_196" data-name="Rectángulo 196" width="3.322" height="3.322" transform="matrix(0.707, -0.707, 0.707, 0.707, 86.878, 89.227)" fill="#8f9294"/>
              <rect id="Rectángulo_197" data-name="Rectángulo 197" width="3.122" height="3.122" transform="translate(76.019 78.226) rotate(-45)" fill="#8f9294"/>
              <rect id="Rectángulo_198" data-name="Rectángulo 198" width="2.922" height="2.922" transform="matrix(0.707, -0.707, 0.707, 0.707, 65.159, 67.225)" fill="#8f9294"/>
              <rect id="Rectángulo_199" data-name="Rectángulo 199" width="2.723" height="2.723" transform="translate(54.299 56.224) rotate(-45)" fill="#8f9294"/>
              <rect id="Rectángulo_200" data-name="Rectángulo 200" width="2.523" height="2.523" transform="translate(43.439 45.223) rotate(-45.001)" fill="#8f9294"/>
              <rect id="Rectángulo_201" data-name="Rectángulo 201" width="2.324" height="2.324" transform="translate(32.579 34.222) rotate(-45)" fill="#8f9294"/>
              <rect id="Rectángulo_202" data-name="Rectángulo 202" width="2.124" height="2.124" transform="matrix(0.707, -0.707, 0.707, 0.707, 21.72, 23.222)" fill="#8f9294"/>
              <rect id="Rectángulo_203" data-name="Rectángulo 203" width="1.924" height="1.924" transform="translate(10.86 12.221) rotate(-45)" fill="#8f9294"/>
              <rect id="Rectángulo_204" data-name="Rectángulo 204" width="1.725" height="1.725" transform="matrix(0.707, -0.707, 0.707, 0.707, 0, 1.22)" fill="#8f9294"/>
            </g>
          </g>
          <g id="Grupo_70" data-name="Grupo 70" transform="translate(89.131 8.913)">
            <g id="Grupo_69" data-name="Grupo 69" transform="translate(0 0)">
              <rect id="Rectángulo_205" data-name="Rectángulo 205" width="3.921" height="3.921" transform="translate(119.458 122.23) rotate(-44.999)" fill="#8f9294"/>
              <rect id="Rectángulo_206" data-name="Rectángulo 206" width="3.721" height="3.721" transform="translate(108.598 111.229) rotate(-45)" fill="#8f9294"/>
              <rect id="Rectángulo_207" data-name="Rectángulo 207" width="3.521" height="3.521" transform="translate(97.738 100.228) rotate(-44.999)" fill="#8f9294"/>
              <rect id="Rectángulo_208" data-name="Rectángulo 208" width="3.322" height="3.322" transform="translate(86.878 89.227) rotate(-45)" fill="#8f9294"/>
              <rect id="Rectángulo_209" data-name="Rectángulo 209" width="3.122" height="3.122" transform="translate(76.019 78.226) rotate(-45)" fill="#8f9294"/>
              <rect id="Rectángulo_210" data-name="Rectángulo 210" width="2.922" height="2.922" transform="translate(65.159 67.225) rotate(-45)" fill="#8f9294"/>
              <rect id="Rectángulo_211" data-name="Rectángulo 211" width="2.723" height="2.723" transform="translate(54.299 56.224) rotate(-45)" fill="#8f9294"/>
              <rect id="Rectángulo_212" data-name="Rectángulo 212" width="2.523" height="2.523" transform="translate(43.439 45.223) rotate(-45)" fill="#8f9294"/>
              <rect id="Rectángulo_213" data-name="Rectángulo 213" width="2.324" height="2.324" transform="translate(32.579 34.222) rotate(-45)" fill="#8f9294"/>
              <rect id="Rectángulo_214" data-name="Rectángulo 214" width="2.124" height="2.124" transform="translate(21.72 23.221) rotate(-45)" fill="#8f9294"/>
              <rect id="Rectángulo_215" data-name="Rectángulo 215" width="1.924" height="1.924" transform="translate(10.86 12.221) rotate(-45)" fill="#8f9294"/>
              <rect id="Rectángulo_216" data-name="Rectángulo 216" width="1.725" height="1.725" transform="matrix(0.707, -0.707, 0.707, 0.707, 0, 1.22)" fill="#8f9294"/>
            </g>
          </g>
          <g id="Grupo_72" data-name="Grupo 72" transform="translate(80.218 17.826)">
            <g id="Grupo_71" data-name="Grupo 71" transform="translate(0 0)">
              <rect id="Rectángulo_217" data-name="Rectángulo 217" width="3.921" height="3.921" transform="translate(119.458 122.23) rotate(-44.999)" fill="#8f9294"/>
              <rect id="Rectángulo_218" data-name="Rectángulo 218" width="3.721" height="3.721" transform="translate(108.598 111.229) rotate(-44.999)" fill="#8f9294"/>
              <rect id="Rectángulo_219" data-name="Rectángulo 219" width="3.521" height="3.521" transform="translate(97.738 100.228) rotate(-44.999)" fill="#8f9294"/>
              <rect id="Rectángulo_220" data-name="Rectángulo 220" width="3.322" height="3.322" transform="matrix(0.707, -0.707, 0.707, 0.707, 86.878, 89.227)" fill="#8f9294"/>
              <rect id="Rectángulo_221" data-name="Rectángulo 221" width="3.122" height="3.122" transform="translate(76.019 78.226) rotate(-44.999)" fill="#8f9294"/>
              <rect id="Rectángulo_222" data-name="Rectángulo 222" width="2.923" height="2.923" transform="matrix(0.707, -0.707, 0.707, 0.707, 65.159, 67.225)" fill="#8f9294"/>
              <rect id="Rectángulo_223" data-name="Rectángulo 223" width="2.723" height="2.723" transform="matrix(0.707, -0.707, 0.707, 0.707, 54.299, 56.224)" fill="#8f9294"/>
              <rect id="Rectángulo_224" data-name="Rectángulo 224" width="2.523" height="2.523" transform="translate(43.439 45.223) rotate(-44.999)" fill="#8f9294"/>
              <rect id="Rectángulo_225" data-name="Rectángulo 225" width="2.324" height="2.324" transform="translate(32.579 34.222) rotate(-45)" fill="#8f9294"/>
              <rect id="Rectángulo_226" data-name="Rectángulo 226" width="2.124" height="2.124" transform="translate(21.72 23.221) rotate(-44.998)" fill="#8f9294"/>
              <rect id="Rectángulo_227" data-name="Rectángulo 227" width="1.924" height="1.924" transform="translate(10.86 12.221) rotate(-45)" fill="#8f9294"/>
              <rect id="Rectángulo_228" data-name="Rectángulo 228" width="1.725" height="1.725" transform="matrix(0.707, -0.707, 0.707, 0.707, 0, 1.22)" fill="#8f9294"/>
            </g>
          </g>
          <g id="Grupo_74" data-name="Grupo 74" transform="translate(71.305 26.739)">
            <g id="Grupo_73" data-name="Grupo 73" transform="translate(0 0)">
              <rect id="Rectángulo_229" data-name="Rectángulo 229" width="3.921" height="3.921" transform="translate(119.458 122.23) rotate(-45.001)" fill="#8f9294"/>
              <rect id="Rectángulo_230" data-name="Rectángulo 230" width="3.721" height="3.721" transform="translate(108.598 111.229) rotate(-45.001)" fill="#8f9294"/>
              <rect id="Rectángulo_231" data-name="Rectángulo 231" width="3.521" height="3.521" transform="translate(97.738 100.228) rotate(-45)" fill="#8f9294"/>
              <rect id="Rectángulo_232" data-name="Rectángulo 232" width="3.322" height="3.322" transform="matrix(0.707, -0.707, 0.707, 0.707, 86.878, 89.227)" fill="#8f9294"/>
              <rect id="Rectángulo_233" data-name="Rectángulo 233" width="3.122" height="3.122" transform="translate(76.019 78.226) rotate(-45)" fill="#8f9294"/>
              <rect id="Rectángulo_234" data-name="Rectángulo 234" width="2.923" height="2.923" transform="matrix(0.707, -0.707, 0.707, 0.707, 65.159, 67.225)" fill="#8f9294"/>
              <rect id="Rectángulo_235" data-name="Rectángulo 235" width="2.723" height="2.723" transform="translate(54.299 56.224) rotate(-45)" fill="#8f9294"/>
              <rect id="Rectángulo_236" data-name="Rectángulo 236" width="2.523" height="2.523" transform="translate(43.439 45.223) rotate(-45.001)" fill="#8f9294"/>
              <rect id="Rectángulo_237" data-name="Rectángulo 237" width="2.324" height="2.324" transform="translate(32.579 34.222) rotate(-45)" fill="#8f9294"/>
              <rect id="Rectángulo_238" data-name="Rectángulo 238" width="2.124" height="2.124" transform="translate(21.72 23.221) rotate(-45)" fill="#8f9294"/>
              <rect id="Rectángulo_239" data-name="Rectángulo 239" width="1.924" height="1.924" transform="translate(10.86 12.221) rotate(-45)" fill="#8f9294"/>
              <rect id="Rectángulo_240" data-name="Rectángulo 240" width="1.725" height="1.725" transform="translate(0 1.22) rotate(-44.998)" fill="#8f9294"/>
            </g>
          </g>
          <g id="Grupo_76" data-name="Grupo 76" transform="translate(62.392 35.653)">
            <g id="Grupo_75" data-name="Grupo 75" transform="translate(0 0)">
              <rect id="Rectángulo_241" data-name="Rectángulo 241" width="3.921" height="3.921" transform="translate(119.458 122.23) rotate(-45.001)" fill="#8f9294"/>
              <rect id="Rectángulo_242" data-name="Rectángulo 242" width="3.721" height="3.721" transform="translate(108.598 111.229) rotate(-45.001)" fill="#8f9294"/>
              <rect id="Rectángulo_243" data-name="Rectángulo 243" width="3.521" height="3.521" transform="translate(97.738 100.228) rotate(-45)" fill="#8f9294"/>
              <rect id="Rectángulo_244" data-name="Rectángulo 244" width="3.322" height="3.322" transform="matrix(0.707, -0.707, 0.707, 0.707, 86.878, 89.227)" fill="#8f9294"/>
              <rect id="Rectángulo_245" data-name="Rectángulo 245" width="3.122" height="3.122" transform="translate(76.019 78.226) rotate(-45)" fill="#8f9294"/>
              <rect id="Rectángulo_246" data-name="Rectángulo 246" width="2.923" height="2.923" transform="translate(65.159 67.225) rotate(-45.001)" fill="#8f9294"/>
              <rect id="Rectángulo_247" data-name="Rectángulo 247" width="2.723" height="2.723" transform="translate(54.299 56.224) rotate(-45)" fill="#8f9294"/>
              <rect id="Rectángulo_248" data-name="Rectángulo 248" width="2.523" height="2.523" transform="translate(43.439 45.223) rotate(-45.001)" fill="#8f9294"/>
              <rect id="Rectángulo_249" data-name="Rectángulo 249" width="2.324" height="2.324" transform="translate(32.579 34.222) rotate(-45)" fill="#8f9294"/>
              <rect id="Rectángulo_250" data-name="Rectángulo 250" width="2.124" height="2.124" transform="matrix(0.707, -0.707, 0.707, 0.707, 21.72, 23.222)" fill="#8f9294"/>
              <rect id="Rectángulo_251" data-name="Rectángulo 251" width="1.924" height="1.924" transform="translate(10.86 12.22) rotate(-45)" fill="#8f9294"/>
              <rect id="Rectángulo_252" data-name="Rectángulo 252" width="1.725" height="1.725" transform="matrix(0.707, -0.707, 0.707, 0.707, 0, 1.22)" fill="#8f9294"/>
            </g>
          </g>
          <g id="Grupo_78" data-name="Grupo 78" transform="translate(53.479 44.566)">
            <g id="Grupo_77" data-name="Grupo 77" transform="translate(0 0)">
              <rect id="Rectángulo_253" data-name="Rectángulo 253" width="3.921" height="3.921" transform="translate(119.458 122.23) rotate(-45)" fill="#8f9294"/>
              <rect id="Rectángulo_254" data-name="Rectángulo 254" width="3.721" height="3.721" transform="translate(108.598 111.229) rotate(-45)" fill="#8f9294"/>
              <rect id="Rectángulo_255" data-name="Rectángulo 255" width="3.521" height="3.521" transform="translate(97.738 100.228) rotate(-45.001)" fill="#8f9294"/>
              <rect id="Rectángulo_256" data-name="Rectángulo 256" width="3.322" height="3.322" transform="matrix(0.707, -0.707, 0.707, 0.707, 86.878, 89.227)" fill="#8f9294"/>
              <rect id="Rectángulo_257" data-name="Rectángulo 257" width="3.122" height="3.122" transform="matrix(0.707, -0.707, 0.707, 0.707, 76.019, 78.226)" fill="#8f9294"/>
              <rect id="Rectángulo_258" data-name="Rectángulo 258" width="2.922" height="2.922" transform="matrix(0.707, -0.707, 0.707, 0.707, 65.159, 67.225)" fill="#8f9294"/>
              <rect id="Rectángulo_259" data-name="Rectángulo 259" width="2.723" height="2.723" transform="translate(54.299 56.224) rotate(-45)" fill="#8f9294"/>
              <rect id="Rectángulo_260" data-name="Rectángulo 260" width="2.523" height="2.523" transform="translate(43.439 45.223) rotate(-45.001)" fill="#8f9294"/>
              <rect id="Rectángulo_261" data-name="Rectángulo 261" width="2.324" height="2.324" transform="translate(32.579 34.222) rotate(-45)" fill="#8f9294"/>
              <rect id="Rectángulo_262" data-name="Rectángulo 262" width="2.124" height="2.124" transform="matrix(0.707, -0.707, 0.707, 0.707, 21.72, 23.221)" fill="#8f9294"/>
              <rect id="Rectángulo_263" data-name="Rectángulo 263" width="1.924" height="1.924" transform="translate(10.86 12.221) rotate(-45)" fill="#8f9294"/>
              <rect id="Rectángulo_264" data-name="Rectángulo 264" width="1.725" height="1.725" transform="matrix(0.707, -0.707, 0.707, 0.707, 0, 1.22)" fill="#8f9294"/>
            </g>
          </g>
          <g id="Grupo_80" data-name="Grupo 80" transform="translate(44.566 53.479)">
            <g id="Grupo_79" data-name="Grupo 79" transform="translate(0 0)">
              <rect id="Rectángulo_265" data-name="Rectángulo 265" width="3.921" height="3.921" transform="translate(119.458 122.23) rotate(-44.999)" fill="#8f9294"/>
              <rect id="Rectángulo_266" data-name="Rectángulo 266" width="3.721" height="3.721" transform="translate(108.598 111.229) rotate(-45)" fill="#8f9294"/>
              <rect id="Rectángulo_267" data-name="Rectángulo 267" width="3.521" height="3.521" transform="translate(97.738 100.228) rotate(-44.999)" fill="#8f9294"/>
              <rect id="Rectángulo_268" data-name="Rectángulo 268" width="3.322" height="3.322" transform="translate(86.878 89.227) rotate(-45)" fill="#8f9294"/>
              <rect id="Rectángulo_269" data-name="Rectángulo 269" width="3.122" height="3.122" transform="translate(76.018 78.226) rotate(-44.999)" fill="#8f9294"/>
              <rect id="Rectángulo_270" data-name="Rectángulo 270" width="2.922" height="2.922" transform="matrix(0.707, -0.707, 0.707, 0.707, 65.159, 67.225)" fill="#8f9294"/>
              <rect id="Rectángulo_271" data-name="Rectángulo 271" width="2.723" height="2.723" transform="matrix(0.707, -0.707, 0.707, 0.707, 54.299, 56.224)" fill="#8f9294"/>
              <rect id="Rectángulo_272" data-name="Rectángulo 272" width="2.523" height="2.523" transform="translate(43.439 45.223) rotate(-45.001)" fill="#8f9294"/>
              <rect id="Rectángulo_273" data-name="Rectángulo 273" width="2.324" height="2.324" transform="translate(32.579 34.222) rotate(-45)" fill="#8f9294"/>
              <rect id="Rectángulo_274" data-name="Rectángulo 274" width="2.124" height="2.124" transform="translate(21.72 23.221) rotate(-45.002)" fill="#8f9294"/>
              <rect id="Rectángulo_275" data-name="Rectángulo 275" width="1.924" height="1.924" transform="translate(10.86 12.221) rotate(-45)" fill="#8f9294"/>
              <rect id="Rectángulo_276" data-name="Rectángulo 276" width="1.725" height="1.725" transform="matrix(0.707, -0.707, 0.707, 0.707, 0, 1.22)" fill="#8f9294"/>
            </g>
          </g>
          <g id="Grupo_82" data-name="Grupo 82" transform="translate(35.652 62.392)">
            <g id="Grupo_81" data-name="Grupo 81" transform="translate(0 0)">
              <rect id="Rectángulo_277" data-name="Rectángulo 277" width="3.921" height="3.921" transform="translate(119.458 122.23) rotate(-44.999)" fill="#8f9294"/>
              <rect id="Rectángulo_278" data-name="Rectángulo 278" width="3.721" height="3.721" transform="translate(108.598 111.229) rotate(-45)" fill="#8f9294"/>
              <rect id="Rectángulo_279" data-name="Rectángulo 279" width="3.521" height="3.521" transform="translate(97.738 100.228) rotate(-44.999)" fill="#8f9294"/>
              <rect id="Rectángulo_280" data-name="Rectángulo 280" width="3.322" height="3.322" transform="translate(86.878 89.227) rotate(-45)" fill="#8f9294"/>
              <rect id="Rectángulo_281" data-name="Rectángulo 281" width="3.122" height="3.122" transform="translate(76.019 78.226) rotate(-44.999)" fill="#8f9294"/>
              <rect id="Rectángulo_282" data-name="Rectángulo 282" width="2.922" height="2.922" transform="translate(65.159 67.225) rotate(-45)" fill="#8f9294"/>
              <rect id="Rectángulo_283" data-name="Rectángulo 283" width="2.723" height="2.723" transform="matrix(0.707, -0.707, 0.707, 0.707, 54.299, 56.224)" fill="#8f9294"/>
              <rect id="Rectángulo_284" data-name="Rectángulo 284" width="2.523" height="2.523" transform="translate(43.439 45.223) rotate(-45)" fill="#8f9294"/>
              <rect id="Rectángulo_285" data-name="Rectángulo 285" width="2.324" height="2.324" transform="translate(32.579 34.222) rotate(-45)" fill="#8f9294"/>
              <rect id="Rectángulo_286" data-name="Rectángulo 286" width="2.124" height="2.124" transform="translate(21.72 23.221) rotate(-45)" fill="#8f9294"/>
              <rect id="Rectángulo_287" data-name="Rectángulo 287" width="1.924" height="1.924" transform="translate(10.86 12.221) rotate(-45)" fill="#8f9294"/>
              <rect id="Rectángulo_288" data-name="Rectángulo 288" width="1.725" height="1.725" transform="matrix(0.707, -0.707, 0.707, 0.707, 0, 1.22)" fill="#8f9294"/>
            </g>
          </g>
          <g id="Grupo_84" data-name="Grupo 84" transform="translate(26.739 71.305)">
            <g id="Grupo_83" data-name="Grupo 83" transform="translate(0 0)">
              <rect id="Rectángulo_289" data-name="Rectángulo 289" width="3.921" height="3.921" transform="translate(119.458 122.23) rotate(-44.999)" fill="#8f9294"/>
              <rect id="Rectángulo_290" data-name="Rectángulo 290" width="3.721" height="3.721" transform="translate(108.598 111.229) rotate(-44.999)" fill="#8f9294"/>
              <rect id="Rectángulo_291" data-name="Rectángulo 291" width="3.521" height="3.521" transform="translate(97.738 100.228) rotate(-44.999)" fill="#8f9294"/>
              <rect id="Rectángulo_292" data-name="Rectángulo 292" width="3.322" height="3.322" transform="matrix(0.707, -0.707, 0.707, 0.707, 86.878, 89.227)" fill="#8f9294"/>
              <rect id="Rectángulo_293" data-name="Rectángulo 293" width="3.122" height="3.122" transform="translate(76.019 78.226) rotate(-44.999)" fill="#8f9294"/>
              <rect id="Rectángulo_294" data-name="Rectángulo 294" width="2.923" height="2.923" transform="matrix(0.707, -0.707, 0.707, 0.707, 65.159, 67.225)" fill="#8f9294"/>
              <rect id="Rectángulo_295" data-name="Rectángulo 295" width="2.723" height="2.723" transform="matrix(0.707, -0.707, 0.707, 0.707, 54.299, 56.224)" fill="#8f9294"/>
              <rect id="Rectángulo_296" data-name="Rectángulo 296" width="2.523" height="2.523" transform="translate(43.439 45.223) rotate(-44.999)" fill="#8f9294"/>
              <rect id="Rectángulo_297" data-name="Rectángulo 297" width="2.324" height="2.324" transform="matrix(0.707, -0.707, 0.707, 0.707, 32.579, 34.222)" fill="#8f9294"/>
              <rect id="Rectángulo_298" data-name="Rectángulo 298" width="2.124" height="2.124" transform="translate(21.72 23.221) rotate(-44.998)" fill="#8f9294"/>
              <rect id="Rectángulo_299" data-name="Rectángulo 299" width="1.924" height="1.924" transform="translate(10.86 12.22) rotate(-44.998)" fill="#8f9294"/>
              <rect id="Rectángulo_300" data-name="Rectángulo 300" width="1.725" height="1.725" transform="translate(0 1.22) rotate(-44.998)" fill="#8f9294"/>
            </g>
          </g>
          <g id="Grupo_86" data-name="Grupo 86" transform="translate(17.826 80.218)">
            <g id="Grupo_85" data-name="Grupo 85" transform="translate(0 0)">
              <rect id="Rectángulo_301" data-name="Rectángulo 301" width="3.921" height="3.921" transform="matrix(0.707, -0.707, 0.707, 0.707, 119.458, 122.23)" fill="#8f9294"/>
              <rect id="Rectángulo_302" data-name="Rectángulo 302" width="3.721" height="3.721" transform="translate(108.598 111.229) rotate(-45.001)" fill="#8f9294"/>
              <rect id="Rectángulo_303" data-name="Rectángulo 303" width="3.521" height="3.521" transform="translate(97.738 100.228) rotate(-45.001)" fill="#8f9294"/>
              <rect id="Rectángulo_304" data-name="Rectángulo 304" width="3.322" height="3.322" transform="matrix(0.707, -0.707, 0.707, 0.707, 86.878, 89.227)" fill="#8f9294"/>
              <rect id="Rectángulo_305" data-name="Rectángulo 305" width="3.122" height="3.122" transform="translate(76.019 78.226) rotate(-45)" fill="#8f9294"/>
              <rect id="Rectángulo_306" data-name="Rectángulo 306" width="2.923" height="2.923" transform="translate(65.159 67.225) rotate(-45.001)" fill="#8f9294"/>
              <rect id="Rectángulo_307" data-name="Rectángulo 307" width="2.723" height="2.723" transform="translate(54.299 56.224) rotate(-45)" fill="#8f9294"/>
              <rect id="Rectángulo_308" data-name="Rectángulo 308" width="2.523" height="2.523" transform="translate(43.439 45.223) rotate(-45.001)" fill="#8f9294"/>
              <rect id="Rectángulo_309" data-name="Rectángulo 309" width="2.324" height="2.324" transform="translate(32.579 34.222) rotate(-45)" fill="#8f9294"/>
              <rect id="Rectángulo_310" data-name="Rectángulo 310" width="2.124" height="2.124" transform="translate(21.72 23.222) rotate(-45)" fill="#8f9294"/>
              <rect id="Rectángulo_311" data-name="Rectángulo 311" width="1.924" height="1.924" transform="translate(10.86 12.221) rotate(-45)" fill="#8f9294"/>
              <rect id="Rectángulo_312" data-name="Rectángulo 312" width="1.725" height="1.725" transform="translate(0 1.22) rotate(-45)" fill="#8f9294"/>
            </g>
          </g>
          <g id="Grupo_88" data-name="Grupo 88" transform="translate(8.913 89.131)">
            <g id="Grupo_87" data-name="Grupo 87" transform="translate(0 0)">
              <rect id="Rectángulo_313" data-name="Rectángulo 313" width="3.921" height="3.921" transform="translate(119.458 122.23) rotate(-45)" fill="#8f9294"/>
              <rect id="Rectángulo_314" data-name="Rectángulo 314" width="3.721" height="3.721" transform="translate(108.598 111.229) rotate(-45)" fill="#8f9294"/>
              <rect id="Rectángulo_315" data-name="Rectángulo 315" width="3.521" height="3.521" transform="translate(97.738 100.228) rotate(-45)" fill="#8f9294"/>
              <rect id="Rectángulo_316" data-name="Rectángulo 316" width="3.322" height="3.322" transform="matrix(0.707, -0.707, 0.707, 0.707, 86.878, 89.227)" fill="#8f9294"/>
              <rect id="Rectángulo_317" data-name="Rectángulo 317" width="3.122" height="3.122" transform="translate(76.018 78.226) rotate(-45.001)" fill="#8f9294"/>
              <rect id="Rectángulo_318" data-name="Rectángulo 318" width="2.923" height="2.923" transform="matrix(0.707, -0.707, 0.707, 0.707, 65.159, 67.225)" fill="#8f9294"/>
              <rect id="Rectángulo_319" data-name="Rectángulo 319" width="2.723" height="2.723" transform="translate(54.299 56.224) rotate(-45)" fill="#8f9294"/>
              <rect id="Rectángulo_320" data-name="Rectángulo 320" width="2.523" height="2.523" transform="translate(43.439 45.223) rotate(-45.001)" fill="#8f9294"/>
              <rect id="Rectángulo_321" data-name="Rectángulo 321" width="2.324" height="2.324" transform="translate(32.579 34.222) rotate(-45)" fill="#8f9294"/>
              <rect id="Rectángulo_322" data-name="Rectángulo 322" width="2.124" height="2.124" transform="matrix(0.707, -0.707, 0.707, 0.707, 21.72, 23.221)" fill="#8f9294"/>
              <rect id="Rectángulo_323" data-name="Rectángulo 323" width="1.924" height="1.924" transform="translate(10.86 12.221) rotate(-45)" fill="#8f9294"/>
              <rect id="Rectángulo_324" data-name="Rectángulo 324" width="1.725" height="1.725" transform="matrix(0.707, -0.707, 0.707, 0.707, 0, 1.22)" fill="#8f9294"/>
            </g>
          </g>
          <g id="Grupo_90" data-name="Grupo 90" transform="translate(0 98.044)">
            <g id="Grupo_89" data-name="Grupo 89" transform="translate(0 0)">
              <rect id="Rectángulo_325" data-name="Rectángulo 325" width="3.921" height="3.921" transform="translate(119.458 122.23) rotate(-45)" fill="#8f9294"/>
              <rect id="Rectángulo_326" data-name="Rectángulo 326" width="3.721" height="3.721" transform="translate(108.598 111.229) rotate(-45)" fill="#8f9294"/>
              <rect id="Rectángulo_327" data-name="Rectángulo 327" width="3.521" height="3.521" transform="translate(97.738 100.228) rotate(-45)" fill="#8f9294"/>
              <rect id="Rectángulo_328" data-name="Rectángulo 328" width="3.322" height="3.322" transform="translate(86.878 89.227) rotate(-45)" fill="#8f9294"/>
              <rect id="Rectángulo_329" data-name="Rectángulo 329" width="3.122" height="3.122" transform="translate(76.019 78.226) rotate(-45)" fill="#8f9294"/>
              <rect id="Rectángulo_330" data-name="Rectángulo 330" width="2.922" height="2.922" transform="translate(65.159 67.225) rotate(-45)" fill="#8f9294"/>
              <rect id="Rectángulo_331" data-name="Rectángulo 331" width="2.723" height="2.723" transform="matrix(0.707, -0.707, 0.707, 0.707, 54.299, 56.224)" fill="#8f9294"/>
              <rect id="Rectángulo_332" data-name="Rectángulo 332" width="2.523" height="2.523" transform="translate(43.439 45.223) rotate(-45.001)" fill="#8f9294"/>
              <rect id="Rectángulo_333" data-name="Rectángulo 333" width="2.324" height="2.324" transform="translate(32.579 34.222) rotate(-45.002)" fill="#8f9294"/>
              <rect id="Rectángulo_334" data-name="Rectángulo 334" width="2.124" height="2.124" transform="translate(21.72 23.221) rotate(-45.002)" fill="#8f9294"/>
              <rect id="Rectángulo_335" data-name="Rectángulo 335" width="1.924" height="1.924" transform="matrix(0.707, -0.707, 0.707, 0.707, 10.86, 12.221)" fill="#8f9294"/>
              <rect id="Rectángulo_336" data-name="Rectángulo 336" width="1.725" height="1.725" transform="matrix(0.707, -0.707, 0.707, 0.707, 0, 1.22)" fill="#8f9294"/>
            </g>
          </g>
        </g>
        <g id="Grupo_879320" data-name="Grupo 879320" transform="translate(1348.782 1736.728)">
          <path id="Trazado_34" data-name="Trazado 34" d="M696.457,390.082l-9.14,15.83H705.6Z" transform="translate(-687.318 -257.043)" fill="#fdfdfd"/>
          <path id="Trazado_35" data-name="Trazado 35" d="M696.457,361.354l-9.14,15.83H705.6Z" transform="translate(-687.318 -254.828)" fill="#fdfdfd"/>
          <path id="Trazado_36" data-name="Trazado 36" d="M696.457,332.626l-9.14,15.83H705.6Z" transform="translate(-687.318 -252.614)" fill="#fdfdfd"/>
          <path id="Trazado_37" data-name="Trazado 37" d="M696.778,245.931l-5.3,9.184h10.6Z" transform="translate(-687.638 -245.931)" fill="#f13b76"/>
        </g>
      </g>
      <g id="Grupo_894987" data-name="Grupo 894987" transform="translate(-264.427 6618.895)">
        <g id="Grupo_894975" data-name="Grupo 894975" transform="translate(597.301 1100.68)">
          <g id="Grupo_894967" data-name="Grupo 894967">
            <rect id="Rectángulo_302234" data-name="Rectángulo 302234" width="234.868" height="453.718" rx="17.275" fill="#21cbae"/>
            <rect id="Rectángulo_302235" data-name="Rectángulo 302235" width="226.073" height="443.297" rx="15.132" transform="translate(4.398 3.973)" fill="#fff"/>
            <path id="Trazado_623211" data-name="Trazado 623211" d="M760.447,1124.237v393.49a16.71,16.71,0,0,1-16.711,16.711H570.876a16.71,16.71,0,0,1-16.709-16.711v-393.49a16.71,16.71,0,0,1,16.709-16.711H599.7a4.225,4.225,0,0,1,3.778,2.333l3.061,6.112a8.259,8.259,0,0,0,7.4,4.585h86.72a8.257,8.257,0,0,0,7.4-4.585l3.061-6.112a4.229,4.229,0,0,1,3.78-2.333h28.825A16.711,16.711,0,0,1,760.447,1124.237Z" transform="translate(-539.872 -1096.363)" fill="#def7f3"/>
            <path id="Trazado_623212" data-name="Trazado 623212" d="M667.887,1113.408H598.04a2.94,2.94,0,0,1-2.94-2.94h0a2.941,2.941,0,0,1,2.94-2.942h69.847a2.941,2.941,0,0,1,2.94,2.942h0A2.939,2.939,0,0,1,667.887,1113.408Z" transform="translate(-514.059 -1096.363)" fill="#def7f3"/>
          </g>
          <rect id="Rectángulo_302236" data-name="Rectángulo 302236" width="177.537" height="76.993" rx="6.78" transform="translate(26.654 347.424)" fill="none" stroke="#698bd1" stroke-linecap="round" stroke-linejoin="round" stroke-width="0.809" stroke-dasharray="2.296"/>
          <rect id="Rectángulo_302237" data-name="Rectángulo 302237" width="93.051" height="54.056" rx="4.891" transform="translate(100.181 181.428)" fill="none" stroke="#698bd1" stroke-linecap="round" stroke-linejoin="round" stroke-width="0.809" stroke-dasharray="2.296"/>
          <g id="Grupo_894971" data-name="Grupo 894971" transform="translate(26.653 241.48)">
            <rect id="Rectángulo_302238" data-name="Rectángulo 302238" width="178.242" height="86.166" rx="5.827" transform="translate(6.463 6.971)" fill="#0b5999"/>
            <path id="Trazado_623213" data-name="Trazado 623213" d="M739.283,1258.257v67.2a9.477,9.477,0,0,1-9.487,9.474H571.233a9.478,9.478,0,0,1-9.487-9.474v-67.2a9.489,9.489,0,0,1,9.487-9.487H729.8A9.488,9.488,0,0,1,739.283,1258.257Z" transform="translate(-561.746 -1248.77)" fill="#a9c5db"/>
            <rect id="Rectángulo_302239" data-name="Rectángulo 302239" width="59.541" height="59.541" rx="3.933" transform="translate(8.203 19.619)" fill="#fff"/>
            <g id="Grupo_894968" data-name="Grupo 894968" transform="translate(73.527 23.101)">
              <path id="Trazado_623214" data-name="Trazado 623214" d="M650,1266.989H608.862a2.025,2.025,0,0,1-2.025-2.025h0a2.026,2.026,0,0,1,2.025-2.027H650a2.028,2.028,0,0,1,2.027,2.027h0A2.027,2.027,0,0,1,650,1266.989Z" transform="translate(-606.837 -1262.937)" fill="#ffedb6"/>
              <path id="Trazado_623215" data-name="Trazado 623215" d="M631.256,1271.948H608.862a2.025,2.025,0,0,1-2.025-2.025h0a2.025,2.025,0,0,1,2.025-2.025h22.394a2.025,2.025,0,0,1,2.025,2.025h0A2.025,2.025,0,0,1,631.256,1271.948Z" transform="translate(-606.837 -1259.809)" fill="#ffedb6"/>
              <path id="Trazado_623216" data-name="Trazado 623216" d="M688.242,1271.948H627.649a2.025,2.025,0,0,1-2.025-2.025h0a2.025,2.025,0,0,1,2.025-2.025h60.593a2.027,2.027,0,0,1,2.027,2.025h0A2.027,2.027,0,0,1,688.242,1271.948Z" transform="translate(-594.989 -1259.809)" fill="#ffedb6"/>
              <path id="Trazado_623217" data-name="Trazado 623217" d="M643.51,1276.907H608.862a2.025,2.025,0,0,1-2.025-2.025h0a2.025,2.025,0,0,1,2.025-2.025H643.51a2.025,2.025,0,0,1,2.025,2.025h0A2.025,2.025,0,0,1,643.51,1276.907Z" transform="translate(-606.837 -1256.681)" fill="#ffedb6"/>
              <path id="Trazado_623218" data-name="Trazado 623218" d="M656.569,1276.907h-21.78a2.025,2.025,0,0,1-2.025-2.025h0a2.025,2.025,0,0,1,2.025-2.025h21.78a2.025,2.025,0,0,1,2.025,2.025h0A2.025,2.025,0,0,1,656.569,1276.907Z" transform="translate(-590.487 -1256.681)" fill="#ffedb6"/>
              <path id="Trazado_623219" data-name="Trazado 623219" d="M672.565,1276.907H652.508a2.025,2.025,0,0,1-2.025-2.025h0a2.025,2.025,0,0,1,2.025-2.025h20.057a2.026,2.026,0,0,1,2.027,2.025h0A2.026,2.026,0,0,1,672.565,1276.907Z" transform="translate(-579.312 -1256.681)" fill="#ffedb6"/>
              <path id="Trazado_623220" data-name="Trazado 623220" d="M700.09,1281.868H608.862a2.025,2.025,0,0,1-2.025-2.025h0a2.025,2.025,0,0,1,2.025-2.027H700.09a2.027,2.027,0,0,1,2.027,2.027h0A2.026,2.026,0,0,1,700.09,1281.868Z" transform="translate(-606.837 -1253.554)" fill="#ffedb6"/>
              <path id="Trazado_623221" data-name="Trazado 623221" d="M659.071,1286.826H608.862a2.025,2.025,0,0,1-2.025-2.025h0a2.025,2.025,0,0,1,2.025-2.025h50.209a2.025,2.025,0,0,1,2.025,2.025h0A2.025,2.025,0,0,1,659.071,1286.826Z" transform="translate(-606.837 -1250.426)" fill="#ffedb6"/>
              <path id="Trazado_623222" data-name="Trazado 623222" d="M677.541,1286.826H644.617a2.025,2.025,0,0,1-2.025-2.025h0a2.025,2.025,0,0,1,2.025-2.025h32.924a2.026,2.026,0,0,1,2.027,2.025h0A2.026,2.026,0,0,1,677.541,1286.826Z" transform="translate(-584.289 -1250.426)" fill="#ffedb6"/>
              <path id="Trazado_623223" data-name="Trazado 623223" d="M638.362,1291.786h-29.5a2.025,2.025,0,0,1-2.025-2.025h0a2.025,2.025,0,0,1,2.025-2.025h29.5a2.026,2.026,0,0,1,2.027,2.025h0A2.027,2.027,0,0,1,638.362,1291.786Z" transform="translate(-606.837 -1247.298)" fill="#ffedb6"/>
              <path id="Trazado_623224" data-name="Trazado 623224" d="M661.35,1291.786h-29.5a2.025,2.025,0,0,1-2.025-2.025h0a2.025,2.025,0,0,1,2.025-2.025h29.5a2.025,2.025,0,0,1,2.025,2.025h0A2.025,2.025,0,0,1,661.35,1291.786Z" transform="translate(-592.34 -1247.298)" fill="#ffedb6"/>
              <path id="Trazado_623225" data-name="Trazado 623225" d="M671.428,1291.786H654.311a2.025,2.025,0,0,1-2.025-2.025h0a2.025,2.025,0,0,1,2.025-2.025h17.117a2.026,2.026,0,0,1,2.027,2.025h0A2.026,2.026,0,0,1,671.428,1291.786Z" transform="translate(-578.175 -1247.298)" fill="#ffedb6"/>
              <path id="Trazado_623226" data-name="Trazado 623226" d="M650,1296.747H608.862a2.026,2.026,0,0,1-2.025-2.027h0a2.025,2.025,0,0,1,2.025-2.025H650a2.027,2.027,0,0,1,2.027,2.025h0A2.027,2.027,0,0,1,650,1296.747Z" transform="translate(-606.837 -1244.17)" fill="#ffedb6"/>
              <path id="Trazado_623227" data-name="Trazado 623227" d="M680.719,1266.989H639.578a2.025,2.025,0,0,1-2.025-2.025h0a2.026,2.026,0,0,1,2.025-2.027h41.141a2.028,2.028,0,0,1,2.027,2.027h0A2.027,2.027,0,0,1,680.719,1266.989Z" transform="translate(-587.466 -1262.937)" fill="#ffedb6"/>
            </g>
            <g id="Grupo_894970" data-name="Grupo 894970">
              <path id="Trazado_623228" data-name="Trazado 623228" d="M739.283,1258.257v2.824H561.746v-2.824a9.489,9.489,0,0,1,9.487-9.487H729.8A9.488,9.488,0,0,1,739.283,1258.257Z" transform="translate(-561.746 -1248.77)" fill="#21cbae"/>
              <g id="Grupo_894969" data-name="Grupo 894969" transform="translate(139.675 4.178)">
                <path id="Trazado_623229" data-name="Trazado 623229" d="M651.8,1253.532a2.2,2.2,0,1,1-2.2-2.2A2.2,2.2,0,0,1,651.8,1253.532Z" transform="translate(-647.403 -1251.332)" fill="#def7f3"/>
                <path id="Trazado_623230" data-name="Trazado 623230" d="M658.7,1253.532a2.2,2.2,0,1,1-2.2-2.2A2.2,2.2,0,0,1,658.7,1253.532Z" transform="translate(-643.052 -1251.332)" fill="#def7f3"/>
                <path id="Trazado_623231" data-name="Trazado 623231" d="M665.6,1253.532a2.2,2.2,0,1,1-2.2-2.2A2.2,2.2,0,0,1,665.6,1253.532Z" transform="translate(-638.7 -1251.332)" fill="#def7f3"/>
              </g>
            </g>
          </g>
          <g id="Grupo_894973" data-name="Grupo 894973" transform="translate(37.047 181.477)">
            <rect id="Rectángulo_302240" data-name="Rectángulo 302240" width="54.007" height="54.007" rx="5.786" fill="none" stroke="#495ad6" stroke-miterlimit="10" stroke-width="0.725"/>
            <g id="Grupo_894972" data-name="Grupo 894972" transform="translate(10.798 19.192)">
              <path id="Trazado_623232" data-name="Trazado 623232" d="M582.523,1223.742l-7.781,7.781,7.842,7.842" transform="translate(-574.742 -1223.742)" fill="none" stroke="#495ad6" stroke-linecap="round" stroke-linejoin="round" stroke-width="1.353"/>
              <path id="Trazado_623233" data-name="Trazado 623233" d="M589.87,1223.742l7.781,7.781-7.842,7.842" transform="translate(-565.24 -1223.742)" fill="none" stroke="#495ad6" stroke-linecap="round" stroke-linejoin="round" stroke-width="1.353"/>
              <line id="Línea_861" data-name="Línea 861" x1="7.287" y2="15.623" transform="translate(12.562)" fill="none" stroke="#495ad6" stroke-linecap="round" stroke-linejoin="round" stroke-width="1.353"/>
            </g>
          </g>
          <g id="Grupo_894974" data-name="Grupo 894974" transform="translate(26.653 38.86)">
            <rect id="Rectángulo_302241" data-name="Rectángulo 302241" width="177.537" height="131.46" rx="6.619" transform="translate(0)" fill="#ffedb6"/>
            <circle id="Elipse_6254" data-name="Elipse 6254" cx="25.73" cy="25.73" r="25.73" transform="translate(115.851 8.986)" fill="#f0f4ff"/>
            <path id="Trazado_623234" data-name="Trazado 623234" d="M666.1,1244.5H572.539a10.8,10.8,0,0,1-10.793-10.793v-17.3l40.944-70.922a5.562,5.562,0,0,1,9.632,0l30.915,53.545L666.2,1238.8A5.457,5.457,0,0,1,666.1,1244.5Z" transform="translate(-561.746 -1113.038)" fill="#fff"/>
            <path id="Trazado_623235" data-name="Trazado 623235" d="M685.094,1233.161H595.619l26.256-45.47,14.146-24.5a5,5,0,0,1,8.668,0Z" transform="translate(-540.384 -1101.7)" fill="#f0f4ff"/>
          </g>
        </g>
        <g id="Grupo_894985" data-name="Grupo 894985" transform="translate(685.443 1417.174)">
          <g id="Grupo_894977" data-name="Grupo 894977" transform="translate(74.659 197.991)">
            <rect id="Rectángulo_302242" data-name="Rectángulo 302242" width="68.978" height="103.663" transform="translate(0 0)" fill="#08477a"/>
            <rect id="Rectángulo_302243" data-name="Rectángulo 302243" width="26.411" height="103.663" transform="translate(95.389 103.663) rotate(180)" fill="#495ad6"/>
            <g id="Grupo_894976" data-name="Grupo 894976" transform="translate(72.759 3.981)">
              <rect id="Rectángulo_302244" data-name="Rectángulo 302244" width="19.391" height="3.308" fill="#ffedb6"/>
              <rect id="Rectángulo_302245" data-name="Rectángulo 302245" width="19.391" height="3.308" transform="translate(0 7.107)" fill="#ffedb6"/>
              <rect id="Rectángulo_302246" data-name="Rectángulo 302246" width="19.391" height="3.308" transform="translate(0 14.214)" fill="#ffedb6"/>
              <rect id="Rectángulo_302247" data-name="Rectángulo 302247" width="19.391" height="3.308" transform="translate(0 21.321)" fill="#ffedb6"/>
              <rect id="Rectángulo_302248" data-name="Rectángulo 302248" width="19.391" height="3.308" transform="translate(0 28.428)" fill="#ffedb6"/>
              <rect id="Rectángulo_302249" data-name="Rectángulo 302249" width="19.391" height="3.308" transform="translate(0 35.535)" fill="#ffedb6"/>
              <rect id="Rectángulo_302250" data-name="Rectángulo 302250" width="19.391" height="3.308" transform="translate(0 42.643)" fill="#ffedb6"/>
              <rect id="Rectángulo_302251" data-name="Rectángulo 302251" width="19.391" height="3.308" transform="translate(0 49.749)" fill="#ffedb6"/>
              <rect id="Rectángulo_302252" data-name="Rectángulo 302252" width="19.391" height="3.308" transform="translate(0 56.857)" fill="#ffedb6"/>
              <rect id="Rectángulo_302253" data-name="Rectángulo 302253" width="19.391" height="3.308" transform="translate(0 63.964)" fill="#ffedb6"/>
              <rect id="Rectángulo_302254" data-name="Rectángulo 302254" width="19.391" height="3.308" transform="translate(0 71.071)" fill="#ffedb6"/>
              <rect id="Rectángulo_302255" data-name="Rectángulo 302255" width="19.391" height="3.308" transform="translate(0 78.178)" fill="#ffedb6"/>
              <rect id="Rectángulo_302256" data-name="Rectángulo 302256" width="19.391" height="3.308" transform="translate(0 85.285)" fill="#ffedb6"/>
              <rect id="Rectángulo_302257" data-name="Rectángulo 302257" width="19.391" height="3.308" transform="translate(0 92.392)" fill="#ffedb6"/>
            </g>
          </g>
          <g id="Grupo_894984" data-name="Grupo 894984">
            <path id="Trazado_623236" data-name="Trazado 623236" d="M668.169,1399.313h35.057s1.958-6.242-2.288-13.976c0,0-2.821,2.263-11.273.732a37.594,37.594,0,0,1-5.963,4.166C681.253,1391.421,667.223,1394.175,668.169,1399.313Z" transform="translate(-604.714 -1097.659)" fill="#281616"/>
            <path id="Trazado_623237" data-name="Trazado 623237" d="M669.958,1336.035c2.265,13.51,12.712,59.219,17.2,86.221,8.209.7,12.151-.243,14.24-.724-.409-9.415-1.22-31.939-1.123-41.816.156-16.693.939-38.706-6.408-50.786l-24.709,1.945c.15,1.3.287,2.364.408,3.124C669.688,1334.728,669.823,1335.4,669.958,1336.035Z" transform="translate(-604.06 -1133.231)" fill="#002c54"/>
            <path id="Trazado_623238" data-name="Trazado 623238" d="M629.283,1399.313H664.34s1.958-6.242-2.288-13.976c0,0-2.821,2.263-11.273.732a37.6,37.6,0,0,1-5.963,4.166C642.367,1391.421,628.337,1394.175,629.283,1399.313Z" transform="translate(-629.237 -1097.659)" fill="#281616"/>
            <path id="Trazado_623239" data-name="Trazado 623239" d="M641.824,1424.61a40.281,40.281,0,0,0,13.849,1.238c1.864-10.854,4.807-34.736,7.458-45.928,4.111-17.4,8.135-41.328,5.34-49.866l-24.306-6.1C644.084,1324.719,642.106,1397.952,641.824,1424.61Z" transform="translate(-621.299 -1136.373)" fill="#052635"/>
            <path id="Trazado_623240" data-name="Trazado 623240" d="M737.678,1311.885h0c-.489-4.8-1.05-8.312-1.05-8.312l-27.157,6.645-23.067,5.257c-8.551,1.9-18.881,4.2-27.99,6.257-10.219,2.322-17,10.084-14.765,20.318l2.562,12.413c14.294-.194,81.5-6.637,87.247-9.539C739.951,1341.643,741.908,1330.046,737.678,1311.885Z" transform="translate(-620.418 -1149.222)" fill="#052635"/>
            <path id="Trazado_623241" data-name="Trazado 623241" d="M762.538,1312.521h0a37.512,37.512,0,0,0-2.829-9.958l-25.376,8.292-23.067,5.257c-8.551,1.9-18.883,4.2-27.99,6.257-10.219,2.322-17,10.084-14.765,20.317l2.562,12.413c14.292-.194,74.036-2.276,87.245-9.539C764.692,1342.054,766.767,1330.683,762.538,1312.521Z" transform="translate(-604.74 -1149.859)" fill="#002c54"/>
            <g id="Grupo_894978" data-name="Grupo 894978" transform="translate(41.871 121.327)">
              <path id="Trazado_623242" data-name="Trazado 623242" d="M694.835,1285.737s12.06-5.448,15.38.016c1.817,2.99.561,8.548-3.553,10.88s-27.359,12.164-49.3,17.647a53.332,53.332,0,0,0-2.448-6.258,115.575,115.575,0,0,0,19.628-10.955,124.973,124.973,0,0,1,20.292-11.33Z" transform="translate(-654.915 -1283.321)" fill="#e5918f"/>
            </g>
            <path id="Trazado_623243" data-name="Trazado 623243" d="M685.243,1261.7l-10.337,41.288s1.068,10.438,11.609,5.315,17.528-38.017,17.528-38.017Z" transform="translate(-600.436 -1175.626)" fill="#e5918f"/>
            <path id="Trazado_623244" data-name="Trazado 623244" d="M700.574,1293.99c-1.278-.308-2.5-.647-3.675-1q-1.81-.531-3.441-1.1c-9.823-3.369-15.131-7.411-15.131-7.411,3.087-13.425,6.808-22.439,10.116-28.379a4.333,4.333,0,0,0,.25-.442l.264-.44a25.781,25.781,0,0,1,7.191-7.485c.294-.205.572-.4.868-.6l1.22,21.557.205,2.219Z" transform="translate(-598.279 -1184.819)" fill="#fff"/>
            <path id="Trazado_623245" data-name="Trazado 623245" d="M694.722,1285.824c-1.278-.308-2.5-.647-3.675-1q-1.81-.531-3.441-1.1c2.061-14.521,3.925-23.646,3.925-23.646l1.058,2.661Z" transform="translate(-592.427 -1176.653)" fill="#c7e5f2"/>
            <path id="Trazado_623246" data-name="Trazado 623246" d="M755.662,1259.856c-.249,6.382-1.368,16.631-2.338,26.925-.308,3.265-.6,6.542-.853,9.7-.176,1.971-3.147,12.484-3.264,14.366-.528,9-4.941,15.734-.765,29.44a21.61,21.61,0,0,1,1.251,6.322c0,.941-1.221,1.926-1.706,2.192-1.75,1.014-5.19,1.72-9.366,2.234h-.015a242.458,242.458,0,0,1-26,1.192c-8.983,0-22.467-1.427-24.173-3.692-1.559-2.073-.119-5.088.616-9.249,3.309-18.777,2.133-28.57,1.927-42.127,0-.338-.015-.677-.015-1.029-.339-20.91-1.72-38.8-.75-45.26.294-.205.572-.4.868-.6,1.425-.97,2.823-1.838,4.176-2.6.117-.059.264-.147.411-.235.413-.237.838-.457,1.236-.677a4.653,4.653,0,0,1,.47-.235,102.435,102.435,0,0,1,10.029-3.956c.324-.1.618-.206.867-.279,2.4-.148,5-.178,7.809-.1,2.441.075,6.175.4,10.234.928h.015a105.392,105.392,0,0,1,13.586,2.544.7.7,0,0,1,.073.029c.75.235,5.617,2.058,10.69,7.485A36.125,36.125,0,0,1,755.662,1259.856Z" transform="translate(-592.344 -1187.962)" fill="#fff"/>
            <path id="Trazado_623247" data-name="Trazado 623247" d="M729.514,1328.112a21.608,21.608,0,0,1,1.251,6.322c0,.941-1.221,1.926-1.706,2.192-1.75,1.014-5.19,1.72-9.366,2.234,1.72-.206,4.69-2.935,4.69-5.4,0-1.723-2.234-13.366-1.618-20.88s1.838-19.439-.484-29c-2.338-9.557-4.53-22.129-4.53-22.129l13.1,7.91s1.691,2.368,3.543,5.236c-.308,3.265-.6,6.542-.853,9.7C733.368,1286.277,725.338,1314.406,729.514,1328.112Z" transform="translate(-573.417 -1175.783)" fill="#c7e5f2"/>
            <g id="Grupo_894982" data-name="Grupo 894982" transform="translate(92.306)">
              <path id="Trazado_623248" data-name="Trazado 623248" d="M689.618,1219.117s1.135,13.7,5.678,14.622,3.428-4.9,3.428-4.9l-.634-6.506Z" transform="translate(-683.464 -1202.483)" fill="#002c54"/>
              <path id="Trazado_623249" data-name="Trazado 623249" d="M704.78,1262.85c-8.9-1.058-5.573-9.705-4.354-11.69.324-.1,1.854-.574,1.971-.647a.045.045,0,0,1,.029-.015,2.46,2.46,0,0,0,.691-1.029c.866-2.28.47-6.823.44-7.118v-.838c.147-.543.293-1.058.411-1.544l4.677-3.675,9.9-7.778s-2.632,13.013-.515,21.218a3.094,3.094,0,0,0,1.309,1.972c0,.015.015,0,.015,0a2.371,2.371,0,0,0,.985.352C722.763,1253.2,719.381,1264.585,704.78,1262.85Z" transform="translate(-677.674 -1196.557)" fill="#e5918f"/>
              <path id="Trazado_623250" data-name="Trazado 623250" d="M710.953,1233.586s-.083,8.685-9.51,12.68c.876-2.267.473-6.814.445-7.106l3.949-3.1Z" transform="translate(-676.007 -1193.359)" fill="#cc6362"/>
              <path id="Trazado_623251" data-name="Trazado 623251" d="M690.951,1225.573s2.056,28.43,9.732,30.847c0,0,9.782.922,16.8-8.527,2.024-2.72,4.58-3.333,5.415-6.619,1.357-5.339,3.27-15.184.828-21.118C720.253,1211.7,691.28,1204.994,690.951,1225.573Z" transform="translate(-682.624 -1206.989)" fill="#e5918f"/>
              <path id="Trazado_623252" data-name="Trazado 623252" d="M727.068,1217.392c-.126-5.166-5.353-7.095-5.353-7.095-5.2-2.436-16.018-1.384-27.168,1.1-2.614.584-5.893-1.021-7.719.245-2.206,1.531-.01,8.525-.01,8.525,4.3,13.024,20.127,8.789,24.883,7.181,1.13,3.354.985,8.016,3.8,10.422,1.606,1.37,4.4,1.409,7.239.936.349.664,1.662,1.249,1.929,2.161.894,3.046.766,7.806.739,11.48l1.342-.656C726.928,1250.7,740.809,1217.817,727.068,1217.392Z" transform="translate(-685.844 -1208.916)" fill="#002c54"/>
              <g id="Grupo_894979" data-name="Grupo 894979" transform="translate(9.467 22.678)">
                <path id="Trazado_623253" data-name="Trazado 623253" d="M698.385,1227.634c.4,2.359-.763,4.527-2.6,4.84s-3.653-1.347-4.055-3.708.763-4.528,2.6-4.841S697.982,1225.273,698.385,1227.634Z" transform="translate(-691.649 -1222.154)" fill="none" stroke="#fff" stroke-miterlimit="10" stroke-width="0.405"/>
                <path id="Trazado_623254" data-name="Trazado 623254" d="M704.074,1226.571c.4,2.361-.763,4.528-2.6,4.84s-3.653-1.347-4.055-3.708.763-4.528,2.6-4.841S703.671,1224.21,704.074,1226.571Z" transform="translate(-688.062 -1222.824)" fill="none" stroke="#fff" stroke-miterlimit="10" stroke-width="0.405"/>
                <path id="Trazado_623255" data-name="Trazado 623255" d="M695.78,1226.382s.4-.66,2.542-.476" transform="translate(-689.045 -1220.901)" fill="none" stroke="#fff" stroke-miterlimit="10" stroke-width="0.405"/>
                <line id="Línea_862" data-name="Línea 862" y1="1.267" x2="7.93" transform="translate(16.091 3.046)" fill="none" stroke="#fff" stroke-miterlimit="10" stroke-width="0.405"/>
              </g>
              <g id="Grupo_894980" data-name="Grupo 894980" transform="translate(31.803 23.818)">
                <path id="Trazado_623256" data-name="Trazado 623256" d="M707.615,1235.494c5.461,2.092,7.165-11.348,1.98-11.944-3.932-.452-4.093,5.035-4.093,5.035S704.5,1234.3,707.615,1235.494Z" transform="translate(-705.347 -1223.523)" fill="#e5918f"/>
              </g>
              <g id="Grupo_894981" data-name="Grupo 894981" transform="translate(34.021 25.871)" opacity="0.5">
                <path id="Trazado_623257" data-name="Trazado 623257" d="M708.557,1224.782s-3.227,1.706-1.156,6.947" transform="translate(-706.708 -1224.782)" fill="none" stroke="#cc6362" stroke-miterlimit="10" stroke-width="0.586"/>
                <path id="Trazado_623258" data-name="Trazado 623258" d="M709.391,1226.347a2.85,2.85,0,0,0-2.653,1.968" transform="translate(-706.689 -1223.795)" fill="none" stroke="#cc6362" stroke-miterlimit="10" stroke-width="0.586"/>
              </g>
            </g>
            <path id="Trazado_623259" data-name="Trazado 623259" d="M749.73,1304.967l0,.013c-2.4,2.785-11.507,4.814-15.889.962-1.376-1.226-2.932-4.46-4.458-8.471-3.886-10.256-7.563-25.6-7.563-25.6l20.38-10.413s2.622,11.755,4.882,22.928c0,0,.02.113.06.312.735,3.578,1.42,7.1,1.958,10.12a1.346,1.346,0,0,1,.037.24A42.693,42.693,0,0,1,749.73,1304.967Z" transform="translate(-570.852 -1175.782)" fill="#e5918f"/>
            <path id="Trazado_623260" data-name="Trazado 623260" d="M717.1,1267.529c1.97,8.184,8.155,23.693,8.155,23.693,4.333.719,10.144-.078,14.959-1.808a27.542,27.542,0,0,0,9.526-6.188s-4.1-11.53-7.785-19.815c-3.305-7.436-5.29-10.213-6.72-11.687a32.431,32.431,0,0,0-8.093-6.019Z" transform="translate(-573.83 -1185.716)" fill="#fff"/>
            <path id="Trazado_623261" data-name="Trazado 623261" d="M741.173,1273.753l-11.961-5.159-9.423-24.282s1.727.525,4,1.443h.01c.044.023.143.055.307.121a1.389,1.389,0,0,1,.176.077c2.033.951,9.914,5.6,15.37,22.477l.131.427c.58,1.945,1.006,3.509,1.236,4.318.023.077.044.153.065.242C741.118,1273.525,741.141,1273.644,741.173,1273.753Z" transform="translate(-572.132 -1186.594)" fill="#fff"/>
            <g id="Grupo_894983" data-name="Grupo 894983" transform="translate(102.391 108.301)">
              <path id="Trazado_623262" data-name="Trazado 623262" d="M763.177,1296.217l0,.013c-.176,1.494-.587,2.565-1.324,2.945-.117.075-1.79,1.071-1.908,1.146a101.465,101.465,0,0,1-12.633,6.532A457.6,457.6,0,0,1,703.2,1322.7a52.03,52.03,0,0,0-2.7-6.157,115.619,115.619,0,0,0,19.152-11.757c9.507-7.256,23.181-16.07,23.181-16.07l3.452-4.062s12.276-11.3,14.247-9.024c0,0,.02.113.06.312.294,1.177,1.267,5.511,1.958,10.12a1.35,1.35,0,0,1,.037.24A42.7,42.7,0,0,1,763.177,1296.217Z" transform="translate(-686.69 -1275.333)" fill="#e5918f"/>
              <path id="Trazado_623263" data-name="Trazado 623263" d="M707.246,1300.837a7.589,7.589,0,0,1-4.845.931c-1.353-.284-1.9-.836-2.9-1.013a22.528,22.528,0,0,1-4.983-1.153c-1.318-.647-1.833-.719-1.787.6s2.648,2.47,3.354,2.837a6.693,6.693,0,0,1,1.688,1.689c.095.147-4.338,2.467-5.529,2a3.468,3.468,0,0,0-.153,1.663c.2.6,1.114.806,1.184,1.1s-.209.912-.011,1.386,1.011.478,1.34,1.249-.033.786.205,1.591,1.27.949,1.464,1.365.093.9.525,1.187,4.417-.993,5.874-1.616,5.344-6.223,9.647-8.13Z" transform="translate(-692.029 -1260.311)" fill="#e5918f"/>
            </g>
            <path id="Trazado_623264" data-name="Trazado 623264" d="M725.845,1316.682h-31v-3.033h31a1.517,1.517,0,0,1,1.518,1.516h0A1.517,1.517,0,0,1,725.845,1316.682Z" transform="translate(-587.864 -1142.868)" fill="#375f84"/>
            <path id="Trazado_623265" data-name="Trazado 623265" d="M740.535,1339.189h-77.63a2.071,2.071,0,0,1-1.994-1.515l-15.887-57.2a1.987,1.987,0,0,1,1.914-2.519h75.068a3.9,3.9,0,0,1,3.752,2.852l15.832,56.99A1.1,1.1,0,0,1,740.535,1339.189Z" transform="translate(-619.328 -1165.375)" fill="#375f84"/>
            <path id="Trazado_623266" data-name="Trazado 623266" d="M738.812,1339.189h-77.63a2.071,2.071,0,0,1-1.994-1.515l-15.887-57.2a1.987,1.987,0,0,1,1.914-2.519h75.068a3.9,3.9,0,0,1,3.752,2.852l15.832,56.99A1.1,1.1,0,0,1,738.812,1339.189Z" transform="translate(-620.415 -1165.375)" fill="#fabbd0"/>
          </g>
        </g>
        <g id="Grupo_894986" data-name="Grupo 894986" transform="translate(463.102 1379.315)">
          <path id="Trazado_623267" data-name="Trazado 623267" d="M555.162,1302.2l8.993-9.219s.311-4.112.8-4.978,1.756-4.078,2.385-4.429a3.26,3.26,0,0,1,1.89,0,8.652,8.652,0,0,1,1.81-.421,5.314,5.314,0,0,1,1.608.512s1.345-.092,1.9-.092a1.2,1.2,0,0,1,.74.157,39.607,39.607,0,0,1,3.217-3.333c1.05-.84,2.656-2.387,3.132-2.381.448,0,.647.794.32,1.634a9.311,9.311,0,0,1-1.748,2.2l-4.1,6.208a8.87,8.87,0,0,0,1.075-.514c.373-.233,2.872-2.567,3.023-2.661s1.27-.84,1.924-.093-4.29,6.669-5.083,7.462a43.258,43.258,0,0,1-5.337,3.095s-4.8,8.629-5.265,9.19S555.162,1302.2,555.162,1302.2Z" transform="translate(-405.046 -1239.481)" fill="#e49191"/>
          <path id="Trazado_623268" data-name="Trazado 623268" d="M573.273,1272.634s-5.024,29.1-9.751,29.772c0,0-18.875.761-23.08-22.136-3.646-19.858,10.981-24.092,17.821-22.573S574.742,1260.2,573.273,1272.634Z" transform="translate(-414.692 -1252.472)" fill="#e49191"/>
          <path id="Trazado_623269" data-name="Trazado 623269" d="M557.348,1288.266s-2.645,3.564-3.573,12.2a28.02,28.02,0,0,1-15.108-2.609,106.843,106.843,0,0,0,4.385-25.4" transform="translate(-415.448 -1242.987)" fill="#e49191"/>
          <path id="Trazado_623270" data-name="Trazado 623270" d="M552.782,1254.736c-10.314,2.278-9.49,8.7-9.49,8.7-4.828,1.2-5.865,3.19-5.826,12.1s3.266,19.617,5.044,20.489,11.863.911,12.7.606,4.372-8.483,3.548-9.922.042-7.095,2.391-7.31,1.888,3.426,1.888,3.426l1.931-.422,1.49-3.656c13.629.81,17.151-14.721,17.151-14.721C580.338,1261.9,563.1,1252.458,552.782,1254.736Z" transform="translate(-416.207 -1254.384)" fill="#002c54"/>
          <path id="Trazado_623271" data-name="Trazado 623271" d="M478.89,1375.449l10.428,1.508-3.454,12.178-11.3-2.849s-4.6-6.229,2.343-10.837A3.816,3.816,0,0,1,478.89,1375.449Z" transform="translate(-456.811 -1178.12)" fill="#e5918f"/>
          <path id="Trazado_623272" data-name="Trazado 623272" d="M552.937,1374.5l-15.372-46.543s-4.659-1.66-7.046,0c0,0-16.013,8.611-14.3,33.164,1.288,18.509,5.2,38.584,6.779,46.635l-41.011-1.515a13.975,13.975,0,0,0-1.787,13.842s51.533,13.859,58.793,15.139c5.9,1.042,12.357,1.844,15.475-.827C559.957,1429.69,552.937,1374.5,552.937,1374.5Z" transform="translate(-453.017 -1208.451)"/>
          <path id="Trazado_623273" data-name="Trazado 623273" d="M508.669,1375.449l10.428,1.508-3.454,12.178-11.3-2.849s-4.6-6.229,2.343-10.837A3.816,3.816,0,0,1,508.669,1375.449Z" transform="translate(-438.032 -1178.12)" fill="#e5918f"/>
          <path id="Trazado_623274" data-name="Trazado 623274" d="M511.176,1383.043c-.233,2.4,1.864,4.557,1.481,5.154s-7.395,12.36-7.395,12.36,5.293,2.3,4.439,5.634H496.3a11.123,11.123,0,0,1-3.416-7.684,38.912,38.912,0,0,1,3.3-9.818c2.39-4.61,7.825-15.018,7.825-15.018a7.574,7.574,0,0,1,4.466.086,27.147,27.147,0,0,1,6.485,2.9S511.751,1377.119,511.176,1383.043Z" transform="translate(-444.323 -1179.328)" fill="#bf3060"/>
          <path id="Trazado_623275" data-name="Trazado 623275" d="M608.92,1424.334c-3.31-12.349-34.445-65.062-44.978-79.3-21.635-9.394-44.694-17.365-44.694-17.365-9.536,2.276-14.234,21.492-8.825,34.3,3.711,8.789,27.251,30.907,41.666,43.931l-40-.049s-4.712,7.044-.442,13.735c0,0,66.53,15.126,72.366,15.98s18.932,0,18.932,0S611.705,1434.727,608.92,1424.334Z" transform="translate(-434.7 -1208.166)" fill="#002c54"/>
          <path id="Trazado_623276" data-name="Trazado 623276" d="M481.4,1383.043c-.233,2.4,1.864,4.557,1.481,5.154s-7.395,12.36-7.395,12.36,5.293,2.3,4.439,5.634h-13.4a11.117,11.117,0,0,1-3.414-7.684,38.872,38.872,0,0,1,3.3-9.818c2.39-4.61,7.825-15.018,7.825-15.018a7.573,7.573,0,0,1,4.466.086,27.147,27.147,0,0,1,6.485,2.9S481.972,1377.119,481.4,1383.043Z" transform="translate(-463.102 -1179.328)" fill="#bf3060"/>
          <path id="Trazado_623277" data-name="Trazado 623277" d="M619.821,1287.351l-21.458,37.741L583,1309.776l-12.719,18.932,3.693,1.774-1.329,1.105s29.655,14.443,33.208,11.256,20.111-51.2,20.111-51.2Z" transform="translate(-395.512 -1233.594)" fill="#e49191"/>
          <path id="Trazado_623278" data-name="Trazado 623278" d="M625.012,1314.843s-4.052,17.087-12.153,25.188l-20.729-7.891s-9.619,16.177-19.028,28.58c-3.615,4.789-4.815,11.532-9.065,12.417-.264-.093-.514-.173-.778-.238-11.519-3.457-28.515.21-42.54-5-15.491-5.766-12.483-9.013-12.483-9.013s9.394-16.929,14.725-34.86a213.819,213.819,0,0,0,5.12-21.021,24.2,24.2,0,0,1,20.373-19.488c.119-.013.223-.041.342-.054,11.744-1.49,42.488,2.138,48.466,4.7S625.012,1314.843,625.012,1314.843Z" transform="translate(-434.787 -1236.264)" fill="#fabbd0"/>
          <path id="Trazado_623279" data-name="Trazado 623279" d="M570.458,1314.242s-9.619,16.177-19.028,28.58c-3.615,4.789-4.815,11.532-9.065,12.417,1.861-.66,4.949-10.451,6.043-12.655s2.863-4.393,6.664-12.086,8.926-19,8.926-19Z" transform="translate(-413.115 -1218.365)" fill="#bf3060"/>
          <path id="Trazado_623280" data-name="Trazado 623280" d="M535.092,1375.655a67.084,67.084,0,0,1,20.678,2.971" transform="translate(-417.703 -1177.914)" fill="none" stroke="#000" stroke-miterlimit="10" stroke-width="0.862"/>
          <path id="Trazado_623281" data-name="Trazado 623281" d="M617.178,1281.444c-.347-.036-2.545,1.73-3.609,2.6l1.225-2.343a23.075,23.075,0,0,0,2.2-2.42c.582-.858.276-1.716-.184-1.761-.323-.033-2.258,1.5-3.379,2.417l.246-.471a23.077,23.077,0,0,0,2.2-2.42c.582-.858.276-1.716-.184-1.761s-4.181,3.079-4.181,3.079l-1.813,2.426,1.366-2.655a11.418,11.418,0,0,0,1.2-1.839c.479-.959.134-1.252-.134-1.572s-2.772,1.546-3.411,2.291a38.737,38.737,0,0,0-2.826,4.2l-2.094,4.331c-.134-1.254-.344-3.4-.491-4.771-.214-1.971-2-2.438-2.063-1.479s-1.057,5.678-.832,8.236.654,4.238.814,5.678-1.332,4.314-1.332,4.314,5.971,3.708,6.958,2.6a46.245,46.245,0,0,0,4.1-5.233,27.938,27.938,0,0,0,2.337-5.278l1.865-3.987a23.063,23.063,0,0,0,2.2-2.42C617.943,1282.348,617.637,1281.49,617.178,1281.444Z" transform="translate(-376.834 -1241.578)" fill="#e49191"/>
        </g>
      </g>
    </g>
  </g>
</svg>
