<svg xmlns="http://www.w3.org/2000/svg" xmlns:xlink="http://www.w3.org/1999/xlink" width="153" height="153" viewBox="0 0 153 153">
  <defs>
    <filter id="Elipse_5214" x="0" y="0" width="153" height="153" filterUnits="userSpaceOnUse">
      <feOffset dy="3" input="SourceAlpha"/>
      <feGaussianBlur stdDeviation="3" result="blur"/>
      <feFlood flood-opacity="0.161"/>
      <feComposite operator="in" in2="blur"/>
      <feComposite in="SourceGraphic"/>
    </filter>
  </defs>
  <g id="Grupo_895197" data-name="Grupo 895197" transform="translate(-379 -643.929)">
    <g transform="matrix(1, 0, 0, 1, 379, 643.93)" filter="url(#Elipse_5214)">
      <g id="Elipse_5214-2" data-name="Elipse 5214" transform="translate(9 6)" fill="#fff" stroke="#fecb2f" stroke-width="3">
        <circle cx="67.5" cy="67.5" r="67.5" stroke="none"/>
        <circle cx="67.5" cy="67.5" r="66" fill="none"/>
      </g>
    </g>
    <g id="Grupo_881347" data-name="Grupo 881347" transform="translate(408.189 679.954)">
      <g id="Grupo_881346" data-name="Grupo 881346" transform="translate(0 0)">
        <path id="Trazado_622551" data-name="Trazado 622551" d="M1445.131,1121.582a7.72,7.72,0,0,0-.645-3.086l-.175-.4.168-.4c1.729-4.156,2.509-11.25,2.509-14.959a29.256,29.256,0,0,0-42.249-26.23l-.455.224-.455-.224a29.255,29.255,0,0,0-42.247,26.23,38.983,38.983,0,0,0,2.241,12.849l.242.622-1.766,1.766a7.252,7.252,0,0,0,5.729,12.358l1.2-.1-.1,1.2a7.232,7.232,0,0,0,7.818,7.818l1.2-.1-.1,1.2a7.234,7.234,0,0,0,7.822,7.82l1.2-.1-.1,1.2a7.255,7.255,0,0,0,12.357,5.727l.849-.845,2.407,2.406a7.8,7.8,0,0,0,13.2-5.649,7.658,7.658,0,0,0-.056-.889l-.144-1.281,1.28.148a7.965,7.965,0,0,0,.886.056,7.825,7.825,0,0,0,7.816-7.816,7.577,7.577,0,0,0-.057-.885l-.15-1.285,1.285.148a8,8,0,0,0,.887.056,7.824,7.824,0,0,0,7.816-7.816,7.983,7.983,0,0,0-.056-.887l-.144-1.281,1.28.146a7.575,7.575,0,0,0,.886.058A7.823,7.823,0,0,0,1445.131,1121.582Zm-40.141-43.108a27.4,27.4,0,0,1,40.113,24.261,50.535,50.535,0,0,1-1.6,11.963l-.462,1.669-19.094-18.567a15.776,15.776,0,0,0-22.054.155l-4.208,4.209a5.9,5.9,0,0,1-8.227,0,5.82,5.82,0,0,1,0-8.229Zm-37.594,49.983a5.307,5.307,0,0,1-3.766-1.552,5.382,5.382,0,0,1,0-7.6l7.816-7.815a5.383,5.383,0,0,1,7.6,0,5.4,5.4,0,0,1,.063,7.529l-.1.094-7.784,7.785A5.48,5.48,0,0,1,1367.4,1128.457Zm8.924,8.924a5.3,5.3,0,0,1-3.766-1.552,5.4,5.4,0,0,1-.059-7.529l7.881-7.879a5.366,5.366,0,0,1,7.656,7.52l-7.887,7.88A5.488,5.488,0,0,1,1376.321,1137.382Zm8.926,8.926a5.3,5.3,0,0,1-3.766-1.552,5.4,5.4,0,0,1-.06-7.53l.1-.094,7.781-7.783a5.365,5.365,0,0,1,7.656,7.519l-7.885,7.88A5.491,5.491,0,0,1,1385.247,1146.307Zm12.759,7.373a5.38,5.38,0,0,1-7.6,0h0a5.4,5.4,0,0,1-.06-7.529l7.883-7.877a5.436,5.436,0,0,1,7.591-.01,5.379,5.379,0,0,1,0,7.6Zm39.311-26.167a5.879,5.879,0,0,1-3.295-1.01l-1.565,1.565a5.873,5.873,0,0,1,1.01,3.293,5.938,5.938,0,0,1-5.932,5.932,5.858,5.858,0,0,1-3.293-1.01l-1.565,1.567a5.873,5.873,0,0,1,1.01,3.293,5.939,5.939,0,0,1-5.932,5.932,5.866,5.866,0,0,1-3.293-1.012l-1.567,1.567a5.862,5.862,0,0,1,1.012,3.295,5.938,5.938,0,0,1-5.932,5.93,5.856,5.856,0,0,1-4.064-1.627l-2.4-2.394,5.636-5.636a7.251,7.251,0,0,0-5.725-12.358l-1.2.1.1-1.2a7.234,7.234,0,0,0-7.821-7.818l-1.2.1.1-1.2a7.238,7.238,0,0,0-7.821-7.82l-1.2.1.1-1.2a7.256,7.256,0,0,0-12.359-5.727l-4.648,4.646-.491-1.647a38.5,38.5,0,0,1-1.509-10.423,27.376,27.376,0,0,1,37.838-25.312l1.423.586-14.6,14.594a7.7,7.7,0,0,0,10.891,10.893l4.208-4.209a13.876,13.876,0,0,1,19.407-.135l19.354,18.83a5.846,5.846,0,0,1,1.258,3.6A5.937,5.937,0,0,1,1437.317,1127.513Z" transform="translate(-1360.177 -1073.462)" fill="#2d2d2a"/>
      </g>
    </g>
  </g>
</svg>
