<svg xmlns="http://www.w3.org/2000/svg" xmlns:xlink="http://www.w3.org/1999/xlink" width="153" height="153" viewBox="0 0 153 153">
  <defs>
    <filter id="Elipse_5233" x="0" y="0" width="153" height="153" filterUnits="userSpaceOnUse">
      <feOffset dy="3" input="SourceAlpha"/>
      <feGaussianBlur stdDeviation="3" result="blur"/>
      <feFlood flood-opacity="0.161"/>
      <feComposite operator="in" in2="blur"/>
      <feComposite in="SourceGraphic"/>
    </filter>
  </defs>
  <g id="Grupo_895210" data-name="Grupo 895210" transform="translate(4815.239 11163.404)">
    <g transform="matrix(1, 0, 0, 1, -4815.24, -11163.4)" filter="url(#Elipse_5233)">
      <g id="Elipse_5233-2" data-name="Elipse 5233" transform="translate(9 6)" fill="#fff" stroke="#fecb2f" stroke-width="3">
        <circle cx="67.5" cy="67.5" r="67.5" stroke="none"/>
        <circle cx="67.5" cy="67.5" r="66" fill="none"/>
      </g>
    </g>
    <circle id="Elipse_5234" data-name="Elipse 5234" cx="6.5" cy="6.5" r="6.5" transform="translate(-4760.239 -11063.403)" fill="#fff"/>
    <g id="Grupo_880927" data-name="Grupo 880927" transform="translate(-4779.239 -11125.404)">
      <g id="Grupo_880916" data-name="Grupo 880916" transform="translate(0 0)">
        <g id="Grupo_880908" data-name="Grupo 880908" transform="translate(31.844 28.4)">
          <path id="Trazado_622315" data-name="Trazado 622315" d="M1181.8,1548.858c-1.593-.126-3.017-.19-4.232-.19h-.77v-5.318h5.842l-.01,4.8-.114.7Zm-3.462-1.722c.844.017,1.767.059,2.761.125v-2.371h-2.761Z" transform="translate(-1176.8 -1543.349)" fill="#2d2d2a"/>
        </g>
        <g id="Grupo_880909" data-name="Grupo 880909" transform="translate(38.732 22.964)">
          <path id="Trazado_622316" data-name="Trazado 622316" d="M1189.241,1550.125l-.717-.148c-1.336-.273-2.753-.5-4.214-.69l-.8-.1.143-.8v-10.331h5.832l-.056,11.36Zm-4.051-2.276c.94.13,1.86.278,2.751.445v-8.7h-2.751Z" transform="translate(-1183.507 -1538.055)" fill="#2d2d2a"/>
        </g>
        <g id="Grupo_880910" data-name="Grupo 880910" transform="translate(45.904 17.759)">
          <path id="Trazado_622317" data-name="Trazado 622317" d="M1195.8,1552.422l-.712-.308a30.248,30.248,0,0,0-4.026-1.369l-.569-.154v-17.6h5.832v18.2Zm-3.766-3.005c1,.288,1.919.592,2.751.911v-15.8h-2.751Z" transform="translate(-1190.491 -1532.987)" fill="#2d2d2a"/>
        </g>
        <g id="Grupo_880911" data-name="Grupo 880911" transform="translate(59.953 10.188)">
          <path id="Trazado_622318" data-name="Trazado 622318" d="M1204.171,1557.294v-31.679h5.849l.012,28.03.3.712-.712.3c-1.528.637-2.979,1.322-4.314,2.034Zm1.54-30.139v27.588c.885-.443,1.813-.871,2.769-1.283v-26.306Z" transform="translate(-1204.171 -1525.615)" fill="#2d2d2a"/>
        </g>
        <g id="Grupo_880912" data-name="Grupo 880912" transform="translate(52.733 14.039)">
          <path id="Trazado_622319" data-name="Trazado 622319" d="M1198.707,1561.3l1.2-2.819a2.981,2.981,0,0,0,.128-1.644,5.125,5.125,0,0,0-2.55-3.269l-.345-.228v-.667l.2-.28v-23.031h5.834v27.7l.382.618-.637.409a22.01,22.01,0,0,0-1.822,1.3Zm.173-8.634a6.186,6.186,0,0,1,2.676,3.931c.028.17.047.338.059.5l.017-.011V1530.9h-2.753Z" transform="translate(-1197.141 -1529.364)" fill="#2d2d2a"/>
        </g>
        <g id="Grupo_880913" data-name="Grupo 880913" transform="translate(24.402)">
          <path id="Trazado_622320" data-name="Trazado 622320" d="M1203.006,1558.884l-.629-1.017v-26.594h-2.753v22l-.786,1.062-.609-.4a15.706,15.706,0,0,0-2.571-1.345l-.714-.3.4-.949v-16.342H1192.6v16.477l-.968-.259c-.821-.219-1.713-.425-2.725-.631l-.795-.162.21-.818v-9.4h-2.751l-.012,9-.13.722-.738-.033c-.912-.119-1.815-.21-2.695-.287l-.828-.072.135-.82v-3.076h-2.761v3.782l-.774,0a22.915,22.915,0,0,0-4.3.3c-.559.116-1.159.272-1.777.463l-.721.222-.237-.717a24.733,24.733,0,0,1-1.173-7.772,26.217,26.217,0,1,1,50.521,9.854l-.194.482-.524,0a38.177,38.177,0,0,0-8.8,2.674l-.713.3-.428-1.026v-26.771h-2.769v29.317l-.411.218c-.952.5-1.816,1.007-2.567,1.5Zm-4.922-29.151h5.834v26.755q.565-.336,1.186-.672v-29.934h5.849v27.207a38.338,38.338,0,0,1,7.857-2.32,24.68,24.68,0,1,0-47.716-8.864,23.742,23.742,0,0,0,.875,6.58c.407-.11.8-.205,1.188-.285a22.574,22.574,0,0,1,3.838-.325v-3.781h5.842v4.038q.59.057,1.188.124v-9.6h5.832v10.549q.625.135,1.2.272v-16.026h5.832v17.988c.419.192.819.393,1.2.6Z" transform="translate(-1169.554 -1515.694)" fill="#2d2d2a"/>
        </g>
        <g id="Grupo_880914" data-name="Grupo 880914" transform="translate(0 39.789)">
          <path id="Trazado_622321" data-name="Trazado 622321" d="M1148.338,1585.224l-2.546-26.994,12.267-3.791,10.318,16.672.627,4.833Zm-.9-25.893,2.227,23.605,17.66-7.929-.437-3.369-9.518-15.377Zm11.652,15.363a2.7,2.7,0,0,1-.3-5.388h0a2.7,2.7,0,1,1,.6,5.371A2.541,2.541,0,0,1,1159.094,1574.695Zm-.126-3.858a1.163,1.163,0,1,0,1.043,1.88,1.179,1.179,0,0,0-.188-1.637A1.165,1.165,0,0,0,1158.968,1570.836Z" transform="translate(-1145.792 -1554.439)" fill="#2d2d2a"/>
        </g>
        <g id="Grupo_880915" data-name="Grupo 880915" transform="translate(10.852 32.179)">
          <path id="Trazado_622322" data-name="Trazado 622322" d="M1194.524,1573.6a28.919,28.919,0,0,1-9.53-1.808c-4.533-1.46-8.814-2.835-17.364.5l-.6.233-10.673-17.246.689-.4c2.326-1.339,9.4-5.414,14.536-7.026.667-.205,1.316-.374,1.93-.5a25.39,25.39,0,0,1,4.612-.328c1.252,0,2.716.066,4.348.194.909.08,1.832.174,2.766.295,1.5.19,2.952.429,4.326.71,1.043.213,1.964.426,2.816.653a31.794,31.794,0,0,1,4.237,1.442,17.038,17.038,0,0,1,2.818,1.479l.345.246a6.316,6.316,0,0,1,2.876,4.077c.028.17.047.338.059.5.153-.1.31-.206.47-.309.786-.511,1.69-1.038,2.682-1.565,1.376-.735,2.872-1.441,4.446-2.1a39.243,39.243,0,0,1,9.151-2.774,1.131,1.131,0,0,1,.251-.024c1.4-.189,4.18-.31,5.895,1.088a3.8,3.8,0,0,1,1.391,2.786c.079,1.051-.489,2.266-1.734,3.709-5.552,6.441-22.874,15.654-28.781,16.087C1195.8,1573.578,1195.15,1573.6,1194.524,1573.6Zm-17.423-4.929a25.871,25.871,0,0,1,8.365,1.653,26.184,26.184,0,0,0,10.908,1.666h0c5.533-.407,22.476-9.466,27.727-15.556,1.248-1.448,1.392-2.245,1.365-2.591a2.289,2.289,0,0,0-.827-1.706c-1.315-1.069-3.81-.878-4.824-.747l-.1.01a38.179,38.179,0,0,0-8.8,2.674c-1.531.638-2.982,1.323-4.317,2.035-.955.506-1.819,1.009-2.571,1.5a21.947,21.947,0,0,0-1.825,1.3l-2.391,1.916,1.2-2.819a2.98,2.98,0,0,0,.128-1.644,5.124,5.124,0,0,0-2.55-3.269l-.345-.23a16.322,16.322,0,0,0-2.227-1.126,30.373,30.373,0,0,0-4.034-1.372c-.818-.218-1.71-.424-2.722-.631-1.337-.274-2.754-.505-4.215-.691-.914-.119-1.817-.21-2.7-.287q-2.508-.2-4.424-.189a23.106,23.106,0,0,0-4.1.3c-.559.116-1.159.272-1.777.463-4.539,1.426-10.752,4.9-13.534,6.495l9.164,14.806A26.719,26.719,0,0,1,1177.1,1568.671Z" transform="translate(-1156.359 -1547.028)" fill="#2d2d2a"/>
        </g>
      </g>
      <g id="Grupo_880917" data-name="Grupo 880917" transform="translate(11.541 32.179)">
        <path id="Trazado_622323" data-name="Trazado 622323" d="M1196.208,1561.313c-3.677,0-8.288-1.07-12.133-2.108l-.6-.161.391-1.491.615.166c12.339,3.331,15.788,2,16.511.291a2.989,2.989,0,0,0,.128-1.646,5.125,5.125,0,0,0-2.55-3.269l-.345-.23a16.313,16.313,0,0,0-2.226-1.126,30.381,30.381,0,0,0-4.034-1.372c-.817-.218-1.71-.424-2.722-.631-1.337-.274-2.754-.505-4.215-.691-.914-.119-1.817-.21-2.7-.287q-2.508-.2-4.424-.189a23.107,23.107,0,0,0-4.1.3c-.559.116-1.159.272-1.776.463-4.966,1.56-11.933,5.571-14.225,6.891l-.768-1.336c2.326-1.339,9.4-5.414,14.535-7.026.667-.205,1.316-.374,1.93-.5a25.388,25.388,0,0,1,4.612-.328c1.252,0,2.716.066,4.348.194.909.08,1.832.174,2.766.295,1.5.19,2.951.429,4.326.71,1.043.213,1.964.426,2.816.653a31.786,31.786,0,0,1,4.237,1.442,17.045,17.045,0,0,1,2.818,1.479l.345.246a6.316,6.316,0,0,1,2.875,4.077,4.487,4.487,0,0,1-.231,2.487C1201.561,1560.608,1199.192,1561.313,1196.208,1561.313Z" transform="translate(-1157.03 -1547.028)" fill="#2d2d2a"/>
      </g>
      <g id="Grupo_880918" data-name="Grupo 880918" transform="translate(21.563 34.894)">
        <path id="Trazado_622324" data-name="Trazado 622324" d="M1194.243,1573.529a28.892,28.892,0,0,1-9.53-1.808c-4.533-1.46-8.814-2.835-17.364.5l-.56-1.434c9.059-3.536,13.594-2.077,18.4-.533a26.184,26.184,0,0,0,10.908,1.666c5.534-.407,22.477-9.466,27.728-15.556,1.248-1.448,1.391-2.245,1.365-2.591a2.288,2.288,0,0,0-.827-1.706c-1.314-1.069-3.81-.878-4.824-.747l-.1.01a38.178,38.178,0,0,0-8.8,2.674c-1.531.638-2.982,1.323-4.317,2.035-.955.506-1.819,1.009-2.571,1.5a21.926,21.926,0,0,0-1.825,1.3l-.962-1.2a22.7,22.7,0,0,1,1.951-1.393c.786-.511,1.69-1.038,2.683-1.565,1.375-.735,2.871-1.441,4.445-2.1a39.244,39.244,0,0,1,9.151-2.774,1.133,1.133,0,0,1,.252-.024c1.4-.189,4.18-.31,5.895,1.088a3.8,3.8,0,0,1,1.391,2.786c.079,1.051-.489,2.266-1.734,3.709-5.552,6.441-22.874,15.654-28.781,16.087C1195.522,1573.506,1194.869,1573.529,1194.243,1573.529Z" transform="translate(-1166.789 -1549.672)" fill="#2d2d2a"/>
      </g>
      <g id="Grupo_880919" data-name="Grupo 880919" transform="translate(0 39.789)">
        <path id="Trazado_622325" data-name="Trazado 622325" d="M1148.338,1585.224l-2.546-26.994,12.267-3.791,10.318,16.672.627,4.833Zm-.9-25.893,2.227,23.605,17.66-7.929-.437-3.369-9.518-15.377Z" transform="translate(-1145.792 -1554.439)" fill="#2d2d2a"/>
      </g>
      <g id="Grupo_880920" data-name="Grupo 880920" transform="translate(10.601 54.639)">
        <path id="Trazado_622326" data-name="Trazado 622326" d="M1158.816,1574.3a2.7,2.7,0,0,1-.3-5.388h0a2.7,2.7,0,1,1,.6,5.371A2.519,2.519,0,0,1,1158.816,1574.3Zm-.126-3.858a1.163,1.163,0,1,0,1.043,1.88,1.179,1.179,0,0,0-.188-1.637A1.164,1.164,0,0,0,1158.69,1570.447Z" transform="translate(-1156.115 -1568.899)" fill="#2d2d2a"/>
      </g>
      <g id="Grupo_880921" data-name="Grupo 880921" transform="translate(59.953 10.189)">
        <path id="Trazado_622327" data-name="Trazado 622327" d="M1205.711,1556.009h-1.541v-30.393h5.85v28.156h-1.54v-26.615h-2.769Z" transform="translate(-1204.171 -1525.615)" fill="#2d2d2a"/>
      </g>
      <g id="Grupo_880922" data-name="Grupo 880922" transform="translate(52.932 14.039)">
        <path id="Trazado_622328" data-name="Trazado 622328" d="M1203.169,1557.28h-1.541V1530.9h-2.753v21.743h-1.541v-23.284h5.834Z" transform="translate(-1197.335 -1529.364)" fill="#2d2d2a"/>
      </g>
      <g id="Grupo_880923" data-name="Grupo 880923" transform="translate(45.904 17.759)">
        <path id="Trazado_622329" data-name="Trazado 622329" d="M1196.323,1551.026h-1.54v-16.5h-2.751V1550l-1.54.03v-17.045h5.832Z" transform="translate(-1190.491 -1532.987)" fill="#2d2d2a"/>
      </g>
      <g id="Grupo_880924" data-name="Grupo 880924" transform="translate(38.874 22.963)">
        <path id="Trazado_622330" data-name="Trazado 622330" d="M1189.478,1549.094h-1.54v-9.5h-2.752v8.866h-1.541v-10.407h5.833Z" transform="translate(-1183.646 -1538.055)" fill="#2d2d2a"/>
      </g>
      <g id="Grupo_880925" data-name="Grupo 880925" transform="translate(31.844 28.4)">
        <path id="Trazado_622331" data-name="Trazado 622331" d="M1182.643,1548.028h-1.54v-3.139h-2.762v3.009l-1.541.071v-4.62h5.843Z" transform="translate(-1176.8 -1543.349)" fill="#2d2d2a"/>
      </g>
      <g id="Grupo_880926" data-name="Grupo 880926" transform="translate(24.402 0)">
        <path id="Trazado_622332" data-name="Trazado 622332" d="M1219.862,1552.061l-.5-.569h-.785l.012-.027v-.145l.056-.139a24.679,24.679,0,1,0-47.552-9.276,23.194,23.194,0,0,0,1.095,7.288l.039.242h-.614l-.816.427-.049-.193-.021.007a24.733,24.733,0,0,1-1.173-7.772,26.217,26.217,0,1,1,50.578,9.714v.2Z" transform="translate(-1169.554 -1515.694)" fill="#2d2d2a"/>
      </g>
    </g>
  </g>
</svg>
