<svg xmlns="http://www.w3.org/2000/svg" xmlns:xlink="http://www.w3.org/1999/xlink" width="376" height="344" viewBox="0 0 376 344">
  <defs>
    <filter id="Rect치ngulo_300539" x="0" y="0" width="376" height="344" filterUnits="userSpaceOnUse">
      <feOffset dy="3" input="SourceAlpha"/>
      <feGaussianBlur stdDeviation="3" result="blur"/>
      <feFlood flood-opacity="0.161"/>
      <feComposite operator="in" in2="blur"/>
      <feComposite in="SourceGraphic"/>
    </filter>
    <linearGradient id="linear-gradient" y1="0.5" x2="1" y2="0.5" gradientUnits="objectBoundingBox">
      <stop offset="0" stop-color="#f4f7fa"/>
      <stop offset="0.996" stop-color="#d8dee8"/>
    </linearGradient>
    <linearGradient id="linear-gradient-3" x1="0.492" y1="0.31" x2="0.518" y2="0.899" gradientUnits="objectBoundingBox">
      <stop offset="0" stop-color="#444b8c"/>
      <stop offset="0.996" stop-color="#26264f"/>
    </linearGradient>
    <linearGradient id="linear-gradient-4" x1="-78.055" y1="0.308" x2="-78.026" y2="0.915" xlink:href="#linear-gradient-3"/>
    <linearGradient id="linear-gradient-5" y1="0.5" x2="1" y2="0.5" gradientUnits="objectBoundingBox">
      <stop offset="0" stop-color="#40447e"/>
      <stop offset="0.996" stop-color="#3c3b6b"/>
    </linearGradient>
    <linearGradient id="linear-gradient-6" x1="0.457" y1="-0.484" x2="0.668" y2="4.363" xlink:href="#linear-gradient-3"/>
    <linearGradient id="linear-gradient-8" x1="0.44" y1="-0.887" x2="0.651" y2="3.96" xlink:href="#linear-gradient-3"/>
    <linearGradient id="linear-gradient-9" x1="0.493" y1="0.218" x2="0.664" y2="0.831" xlink:href="#linear-gradient-3"/>
    <linearGradient id="linear-gradient-10" x1="0.451" y1="0.789" x2="0.225" y2="1.425" gradientUnits="objectBoundingBox">
      <stop offset="0" stop-color="#ffc444"/>
      <stop offset="0.996" stop-color="#f36f56"/>
    </linearGradient>
    <linearGradient id="linear-gradient-11" x1="0.402" y1="-3.525" x2="0.634" y2="6.387" xlink:href="#linear-gradient-3"/>
    <linearGradient id="linear-gradient-12" x1="0.561" y1="1.882" x2="0.206" y2="-8.958" xlink:href="#linear-gradient-10"/>
    <linearGradient id="linear-gradient-13" x1="0.365" y1="-1.189" x2="0.664" y2="2.684" xlink:href="#linear-gradient-3"/>
    <linearGradient id="linear-gradient-14" x1="0.527" y1="1.268" x2="0.349" y2="-3.814" xlink:href="#linear-gradient-10"/>
    <linearGradient id="linear-gradient-15" x1="-0.055" y1="0.668" x2="0.95" y2="0.31" xlink:href="#linear-gradient-3"/>
    <linearGradient id="linear-gradient-16" x1="-0.132" y1="0.737" x2="1.486" y2="0.111" xlink:href="#linear-gradient-3"/>
    <linearGradient id="linear-gradient-17" x1="-6.079" y1="-3.525" x2="-6.239" y2="-3.828" xlink:href="#linear-gradient-3"/>
    <linearGradient id="linear-gradient-18" x1="-0.295" y1="0.693" x2="1.109" y2="0.332" xlink:href="#linear-gradient-3"/>
    <linearGradient id="linear-gradient-19" x1="0.15" y1="0.316" x2="0.742" y2="0.983" xlink:href="#linear-gradient-10"/>
    <linearGradient id="linear-gradient-20" x1="0.315" y1="-0.146" x2="0.528" y2="0.812" xlink:href="#linear-gradient-10"/>
    <linearGradient id="linear-gradient-21" x1="0.819" y1="-0.779" x2="0.191" y2="2.476" xlink:href="#linear-gradient-10"/>
    <linearGradient id="linear-gradient-22" x1="0.192" y1="0.615" x2="3.889" y2="-1.369" xlink:href="#linear-gradient-10"/>
    <linearGradient id="linear-gradient-23" x1="0.573" y1="-0.111" x2="0.398" y2="1.052" xlink:href="#linear-gradient-10"/>
    <linearGradient id="linear-gradient-24" x1="0" y1="0.5" x2="1" y2="0.5" xlink:href="#linear-gradient-10"/>
    <linearGradient id="linear-gradient-25" x1="0.465" y1="0.266" x2="1.389" y2="6.348" xlink:href="#linear-gradient-10"/>
  </defs>
  <g id="Grupo_895200" data-name="Grupo 895200" transform="translate(-1011 -2621)">
    <g id="Grupo_894047" data-name="Grupo 894047" transform="translate(1020 2627)">
      <g transform="matrix(1, 0, 0, 1, -9, -6)" filter="url(#Rect치ngulo_300539)">
        <rect id="Rect치ngulo_300539-2" data-name="Rect치ngulo 300539" width="358" height="326" rx="20" transform="translate(9 6)" fill="#fff"/>
      </g>
    </g>
    <g id="Grupo_894509" data-name="Grupo 894509" transform="translate(648.942 1316)">
      <path id="Trazado_622799" data-name="Trazado 622799" d="M470.492,1337.619c-10.259,14.956,1.77,39.2-13.453,50.451-14.819,10.949-33.024-7-46.99,2.427-20.718,13.981-16.934,77.958,13.356,117.707,9.109,11.955,16.721,16.606,20.093,30.125,7.239,29.031-18.2,46.3-13.361,60.657,10.9,32.328,178.547,59.455,245.814-37.7,31.416-45.377,36.117-110.9,8.047-160.666C633.277,1310.692,493.514,1304.06,470.492,1337.619Z" transform="translate(0 0)" fill="#f4f7fa"/>
      <g id="Grupo_894490" data-name="Grupo 894490" transform="translate(434.811 1353.153)">
        <path id="Trazado_622800" data-name="Trazado 622800" d="M526.452,1589.17c6.869-.541,18.432-1.451,28.537-9.759,18.369-15.1,19.987-44.85,14.056-65.328-5.1-17.59-18.721-31.318-45.971-58.775-25.663-25.86-35.394-30.347-35.337-42.628.083-17.507,19.941-26.1,17-46.527-.353-2.451-1.566-10.87-7.938-15.359-10.909-7.687-29.285,1.535-38.649,9.272-9.034,7.465-20.281,22.3-17.59,36.936,1.949,10.6,9.558,12.085,9.171,21.348-.39,9.32-8.211,10.628-14.826,24.63-2.643,5.594-7.948,16.822-5.06,28.15,3.734,14.646,17.785,16.2,17.838,27.7.038,8.307-7.286,10.213-9.185,19.4-2.5,12.091,7.143,23.522,15.3,32.925C463.394,1562.223,489.294,1592.1,526.452,1589.17Z" transform="translate(-429.008 -1347.903)" fill="#d9dde3"/>
        <path id="Trazado_622801" data-name="Trazado 622801" d="M489.891,1354.088c5.328,6.211-18.586,21.714-20.1,49.836-1.632,30.259,23.66,56.668,35.348,68.872,19.943,20.823,30.828,20.264,41.847,40.807,4.36,8.13,13.445,25.069,7.191,43.762-.58,1.737-7.344,21-24.774,26.491-19.772,6.225-38.237-10.011-54.147-24-9.614-8.453-28.818-25.339-24.076-37.3,2.9-7.313,14.08-11.1,22.43-10.894,11.916.3,19.7,8.782,21.215,7.065,1.368-1.546-3.626-9.917-11.545-17.194-15.839-14.557-27.182-9.857-38.473-22.522-1.368-1.535-12.036-13.858-8.791-27.673,1.872-7.968,8.419-16.64,15.177-16.639,7.644,0,12.257,11.1,14.32,9.966,1.972-1.081-1.048-11.881-5.581-22.11-6.66-15.028-11.035-16.3-12.665-25.155-2.486-13.511,5.031-25.045,6.135-26.687C463.746,1355.32,485.336,1348.778,489.891,1354.088Z" transform="translate(-427.847 -1347.111)" fill="#fff" opacity="0.3" style="mix-blend-mode: soft-light;isolation: isolate"/>
      </g>
      <g id="Grupo_894491" data-name="Grupo 894491" transform="translate(398.094 1457.134)">
        <path id="Trazado_622802" data-name="Trazado 622802" d="M512.567,1567.554c3.891-2.467,10.44-6.622,13.822-14.69,6.148-14.668-2.165-32.75-12.05-43-8.491-8.8-20.82-12.651-45.478-20.353-23.222-7.254-30.37-6.862-34.162-14.136-5.407-10.37,3.65-21.658-4.452-32.807-.973-1.338-4.312-5.933-9.477-6.594-8.841-1.13-16.827,10.065-19.948,17.565-3.012,7.235-5.034,19.521,1.114,27.324,4.455,5.654,9.414,4.152,12.072,9.746,2.673,5.628-1.541,8.847-1.087,19.189.182,4.132.546,12.425,5.782,18.215,6.771,7.487,15.557,4.01,19.171,10.788,2.611,4.9-1.123,8.312.617,14.332,2.289,7.926,11.551,11.664,19.3,14.671C466.91,1571.35,491.522,1580.9,512.567,1567.554Z" transform="translate(-397.934 -1435.9)" fill="#bfc6d1"/>
        <path id="Trazado_622803" data-name="Trazado 622803" d="M418,1439.56c5.083,2-4.217,18.641,3.65,35.731,8.463,18.39,31.637,26.085,42.346,29.64,18.272,6.068,24.531,2.334,37.441,11.026,5.111,3.44,15.756,10.606,17.886,23.608.2,1.208,2.2,14.707-6.386,23.4-9.743,9.861-25.712,6.042-39.473,2.752-8.315-1.989-24.926-5.96-25.85-14.512-.566-5.229,4.86-10.964,9.858-13.452,7.134-3.55,14.375-.969,14.737-2.459.327-1.341-5.232-4.726-12.179-6.55-13.895-3.648-19.134,2.676-29.751-1.276-1.287-.479-11.43-4.424-13.818-13.6-1.377-5.293-.209-12.464,3.785-14.577,4.516-2.389,10.7,2.722,11.566,1.41.83-1.255-4.321-6.692-10.186-11.318-8.619-6.8-11.6-6.18-15.322-10.9-5.679-7.206-4.831-16.371-4.69-17.687C402.936,1448.464,413.655,1437.847,418,1439.56Z" transform="translate(-397.288 -1435.268)" fill="#fff" opacity="0.3" style="mix-blend-mode: soft-light;isolation: isolate"/>
      </g>
      <g id="Grupo_894496" data-name="Grupo 894496" transform="translate(456.094 1550.313)">
        <path id="Trazado_622804" data-name="Trazado 622804" d="M454.864,1517.456l62.108-2.7,71.559,2.507-70.595,15.431Z" transform="translate(-445.594 -1514.755)" fill="#0b5999"/>
        <g id="Grupo_894493" data-name="Grupo 894493" transform="translate(0 30.316)">
          <path id="Trazado_622805" data-name="Trazado 622805" d="M506.33,1572.645l-50.308-13.539c-5.067-1.364-9-6.385-9-11.253v-.053c0-4.868,3.936-8.134,9-7.241l53.958,8.83Z" transform="translate(-447.019 -1540.411)" fill="#ef3c79"/>
          <g id="Grupo_894492" data-name="Grupo 894492" transform="translate(50.273 2.682)">
            <path id="Trazado_622806" data-name="Trazado 622806" d="M581.98,1561.914l-81.288,9.077c-5.092.57-9.277-2.981-9.277-7.937v-3.363a10.09,10.09,0,0,1,9.277-9.713l81.288-6.469C578.381,1550.2,577.552,1556.469,581.98,1561.914Z" transform="translate(-489.228 -1542.531)" fill="url(#linear-gradient)"/>
            <path id="Trazado_622807" data-name="Trazado 622807" d="M583.022,1562.966l-81.315,9.22c-6.641.753-12.144-3.9-12.144-10.383v-.071c0-6.485,5.5-12.189,12.144-12.707l81.315-6.342a.852.852,0,0,1,.885.91,1.031,1.031,0,0,1-.885,1.05l-81.315,6.621a10.651,10.651,0,0,0-9.753,10.239v.071c0,5.209,4.411,8.96,9.753,8.373L583.022,1561a.823.823,0,0,1,.885.883A1.075,1.075,0,0,1,583.022,1562.966Z" transform="translate(-489.564 -1542.681)" fill="#ef3c79"/>
          </g>
        </g>
        <g id="Grupo_894495" data-name="Grupo 894495" transform="translate(0 2.546)">
          <path id="Trazado_622808" data-name="Trazado 622808" d="M508.444,1553.7l-52.422-8.885c-5.067-.893-9-7.534-9-14.844v-.08c0-7.31,3.936-13.11,9-12.922l55.609,2.066Z" transform="translate(-447.019 -1516.9)" fill="#0b5999"/>
          <g id="Grupo_894494" data-name="Grupo 894494" transform="translate(50.273)">
            <path id="Trazado_622809" data-name="Trazado 622809" d="M581.98,1545.73l-76.733,5.788c-7.567.571-13.832-4.989-13.832-12.431v-5.049a14.166,14.166,0,0,1,13.832-13.852l76.733-2.092C578.371,1528.129,577.564,1537.524,581.98,1545.73Z" transform="translate(-489.228 -1516.695)" fill="url(#linear-gradient)"/>
            <path id="Trazado_622810" data-name="Trazado 622810" d="M583.022,1547.364l-81.315,6.342c-6.641.519-12.144-6.974-12.144-16.71v-.108c0-9.736,5.5-17.793,12.144-17.959l81.315-2.021c.489-.013.885.636.885,1.448s-.4,1.482-.885,1.5l-81.315,2.439c-5.342.161-9.753,6.655-9.753,14.474v.108c0,7.819,4.411,13.859,9.753,13.471l81.315-5.925c.489-.036.885.594.885,1.406S583.511,1547.327,583.022,1547.364Z" transform="translate(-489.564 -1516.91)" fill="#0b5999"/>
          </g>
        </g>
        <path id="Trazado_622811" data-name="Trazado 622811" d="M487.258,1545.469l-11.205-1.959c-2.617-7.142-2.42-13.7,0-21.544l11.205.8A41.2,41.2,0,0,0,487.258,1545.469Z" transform="translate(-442.089 -1513.446)" fill="#fff" opacity="0.5" style="mix-blend-mode: soft-light;isolation: isolate"/>
      </g>
      <g id="Grupo_894505" data-name="Grupo 894505" transform="translate(402.115 1332.963)">
        <g id="Grupo_894497" data-name="Grupo 894497" transform="translate(70.959 25.485)">
          <path id="Trazado_622812" data-name="Trazado 622812" d="M541.938,1390.954l-80.549,1.177v-16.2c0-4.61,6.464-7.326,9.487-4.235l1.686,3.671a9.157,9.157,0,0,0,10.252,2.22l59.123-25.2Z" transform="translate(-461.389 -1352.384)" fill="url(#linear-gradient-3)"/>
          <path id="Trazado_622813" data-name="Trazado 622813" d="M536.2,1390.813l68.909-1.007,2.683-14.3c0-3.971-6.334-5.744-8.627-3.072l-2.511,2.922a6.628,6.628,0,0,1-8.039,1.983l-52.415-24.81Z" transform="translate(-447.801 -1352.358)" fill="url(#linear-gradient-4)"/>
        </g>
        <g id="Grupo_894498" data-name="Grupo 894498" transform="translate(73.711 26.045)">
          <path id="Trazado_622814" data-name="Trazado 622814" d="M544.266,1391.428l-80.548,1.177v-16.2c0-4.609,4.874-7,7.9-3.912l3.274,3.349a9.157,9.157,0,0,0,10.252,2.22l59.123-25.2Z" transform="translate(-463.718 -1352.858)" fill="#ef3c79"/>
          <path id="Trazado_622815" data-name="Trazado 622815" d="M538.525,1391.287l68.909-1.007v-13.962c0-3.973-3.65-6.082-5.944-3.41l-2.511,2.922a6.625,6.625,0,0,1-8.039,1.982L538.525,1353Z" transform="translate(-450.13 -1352.832)" fill="#ef3c79"/>
        </g>
        <g id="Grupo_894503" data-name="Grupo 894503" transform="translate(0 53.109)">
          <g id="Grupo_894500" data-name="Grupo 894500">
            <path id="Trazado_622816" data-name="Trazado 622816" d="M545.708,1505.9l-70.986-121.068-70.985,120.479-.606-.445,71.592-121.51.3.516,71.289,121.584Z" transform="translate(-401.012 -1374.382)" fill="url(#linear-gradient-5)"/>
            <g id="Grupo_894499" data-name="Grupo 894499" transform="translate(0 121.131)">
              <path id="Trazado_622817" data-name="Trazado 622817" d="M548.759,1488.384c0,5.408-33,26.382-73.711,26.382s-73.711-20.974-73.711-26.382,33-9.795,73.711-9.795S548.759,1482.974,548.759,1488.384Z" transform="translate(-401.338 -1478.216)" fill="#0b5999"/>
              <ellipse id="Elipse_6240" data-name="Elipse 6240" cx="73.711" cy="9.794" rx="73.711" ry="9.794" fill="#fff"/>
              <ellipse id="Elipse_6241" data-name="Elipse 6241" cx="71.289" cy="7.615" rx="71.289" ry="7.615" transform="translate(2.422 1.297)" fill="#ef3c79"/>
            </g>
            <ellipse id="Elipse_6242" data-name="Elipse 6242" cx="8.7" cy="9.715" rx="8.7" ry="9.715" transform="translate(65.01)" fill="url(#linear-gradient-6)"/>
          </g>
          <g id="Grupo_894502" data-name="Grupo 894502" transform="translate(166.664)">
            <path id="Trazado_622818" data-name="Trazado 622818" d="M668.42,1489.376l-61.972-105.693-61.971,105.18-.529-.388,62.5-106.079.264.45,62.236,106.144Z" transform="translate(-542.098 -1374.557)" fill="url(#linear-gradient-5)"/>
            <g id="Grupo_894501" data-name="Grupo 894501" transform="translate(0 105.701)">
              <path id="Trazado_622819" data-name="Trazado 622819" d="M671.082,1474.081c0,4.722-28.81,23.032-64.35,23.032s-64.35-18.311-64.35-23.032,28.811-8.55,64.35-8.55S671.082,1469.359,671.082,1474.081Z" transform="translate(-542.383 -1465.158)" fill="#0b5999"/>
              <ellipse id="Elipse_6243" data-name="Elipse 6243" cx="64.35" cy="8.55" rx="64.35" ry="8.55" fill="#fff"/>
              <ellipse id="Elipse_6244" data-name="Elipse 6244" cx="62.236" cy="6.846" rx="62.236" ry="6.846" transform="translate(2.114 1.19)" fill="#ef3c79"/>
            </g>
            <ellipse id="Elipse_6245" data-name="Elipse 6245" cx="7.595" cy="8.481" rx="7.595" ry="8.481" transform="translate(56.755)" fill="url(#linear-gradient-8)"/>
          </g>
        </g>
        <path id="Trazado_622820" data-name="Trazado 622820" d="M543.881,1331.45l-13.592-.629c-3.086-.143-5.6,2.745-5.6,6.452v11.277l3.629,52.381c.24,3.463,2.656,6.07,5.544,6l6.516-.167c2.837-.072,5.187-2.758,5.42-6.174l3.486-51.313v-11.018C549.283,1334.636,546.871,1331.589,543.881,1331.45Z" transform="translate(-378.932 -1330.817)" fill="url(#linear-gradient-9)"/>
        <path id="Trazado_622821" data-name="Trazado 622821" d="M546.3,1331.45l-13.592-.629c-3.085-.143-5.6,2.745-5.6,6.452v11.277l3.628,52.381c.24,3.463,2.658,6.07,5.544,6l6.517-.167c2.836-.072,5.187-2.758,5.419-6.174l3.487-51.313v-11.018C551.707,1334.636,549.295,1331.589,546.3,1331.45Z" transform="translate(-378.492 -1330.817)" fill="#ef3c79"/>
        <g id="Grupo_894504" data-name="Grupo 894504" transform="translate(148.62 0.283)" opacity="0.3" style="mix-blend-mode: soft-light;isolation: isolate">
          <path id="Trazado_622822" data-name="Trazado 622822" d="M543.467,1381.987c-4.192-16.417-11.748-23.307-12.948-39.1a55.133,55.133,0,0,1,.393-11.829,6.369,6.369,0,0,0-3.8,6.174v11.277l3.628,52.381c.24,3.463,2.658,6.07,5.544,6l6.517-.167a4.89,4.89,0,0,0,3-1.169A80.1,80.1,0,0,0,543.467,1381.987Z" transform="translate(-527.112 -1331.056)" fill="#fff"/>
        </g>
      </g>
      <g id="Grupo_894508" data-name="Grupo 894508" transform="translate(535.18 1403.534)">
        <path id="Trazado_622823" data-name="Trazado 622823" d="M534.518,1395.976s-24.211,9.689-20.1,35.892,40.115,17.981,40.115,17.981l2.114-17.981s-27.364,1.146-23.917-15.682c3.754-18.319,6.955-18.515,6.955-18.515Z" transform="translate(-513.948 -1389.552)" fill="url(#linear-gradient-10)"/>
        <path id="Trazado_622824" data-name="Trazado 622824" d="M559.981,1572.532a14.55,14.55,0,0,1,.1,3.188c-.2.8-7.145,1.378-9.5,1.1s1.4-2.686,2.906-3.137S559.981,1572.532,559.981,1572.532Z" transform="translate(-507.432 -1357.482)" fill="url(#linear-gradient-11)"/>
        <path id="Trazado_622825" data-name="Trazado 622825" d="M555.461,1569.193l.732,4.792s1.867.839,2.764.01l.1-5.015Z" transform="translate(-506.408 -1358.128)" fill="url(#linear-gradient-12)"/>
        <path id="Trazado_622826" data-name="Trazado 622826" d="M588.763,1569.028s-1.473,1.093-1.081,2.4,3.831,6.556,6.28,8.045,1.683-1.613.969-3.545-2.535-6.188-3.246-6.9S588.763,1569.028,588.763,1569.028Z" transform="translate(-500.567 -1358.176)" fill="url(#linear-gradient-13)"/>
        <path id="Trazado_622827" data-name="Trazado 622827" d="M586.344,1564.524c.711,1.985,1.4,3.617,1.933,4.821a17.2,17.2,0,0,0,2.567,4.529c.64.755,2.155,2.365,2.562,2.1s-.695-2.229-2.83-7.963c-.311-.832-1.29-3.484-1.29-3.484h-2.941Z" transform="translate(-500.798 -1358.937)" fill="url(#linear-gradient-14)"/>
        <path id="Trazado_622828" data-name="Trazado 622828" d="M543.253,1494.346a124.036,124.036,0,0,0-.266,22.133c.95,12.247,3.4,20,6.468,33.053,1.878,7.98,4.406,19.724,6.7,34.413a6.463,6.463,0,0,0,4.1.8,6.25,6.25,0,0,0,2.466-.937c6-18.347,4.23-29.717,1.333-36.8-1.235-3.02-2.733-5.4-3.533-10.043-1.059-6.141.25-9.573,2.117-23.8,1.332-10.138,1.1-11.705.215-13.226C559.312,1493.868,548.484,1493.986,543.253,1494.346Z" transform="translate(-508.741 -1371.709)" fill="url(#linear-gradient-15)"/>
        <path id="Trazado_622829" data-name="Trazado 622829" d="M560.645,1496.131c3.678,18.995,7.288,28.971,10.02,34.614a94.868,94.868,0,0,1,5.047,12.319,100.463,100.463,0,0,1,3.066,11.734c1.268,5.823,4.4,14.324,12.835,25.475a3.2,3.2,0,0,0,2.919.15,2.817,2.817,0,0,0,1.179-1.225c-1.1-10.661-2.368-19.619-3.466-26.534-.232-1.45-1.245-7.794-2.838-16.177-.623-3.28-1.535-8.086-2.629-13.023-1.361-6.148-3.449-14.512-6.667-24.533Z" transform="translate(-505.466 -1371.36)" fill="url(#linear-gradient-16)"/>
        <path id="Trazado_622830" data-name="Trazado 622830" d="M567.506,1432.355c-2.928-.736-7.957-.851-12.066-4.483-1.236-1.093-5.617-4.967-3.988-10.141a11.164,11.164,0,0,1,7.343-7.06c2.926-.755,4.065.662,10.129,1.84a36.968,36.968,0,0,0,9.876.889c6.379-.525,8.891-3.811,14.527-6.065,6.924-2.769,16.265-3.064,22.155-.077,10.453,5.3,4.391,18.078,16.121,24.518,3.844,2.11,4.723.864,13.214,4.482s12.752,5.433,13.921,9.446c1.621,5.57-2.836,13.556-8.979,16.692-6,3.063-11.729.7-14.064,3.884-1.663,2.264.711,4.178-.332,8.209-1.345,5.2-7,8.624-7.915,9.177-8.479,5.139-24.559,1.6-34.4-6.69C575.3,1462.032,583.425,1436.356,567.506,1432.355Z" transform="translate(-507.201 -1387.888)" fill="url(#linear-gradient-17)"/>
        <path id="Trazado_622831" data-name="Trazado 622831" d="M563,1546.956c-1.235-3.021-2.733-5.4-3.533-10.043-1.059-6.141.25-9.573,2.117-23.8,1.332-10.138,1.1-11.705.215-13.226-1.924-3.3-6-4.769-10.161-5.368.056.214.111.428.156.633,2.184,9.971-6.148,16.054-2.391,27.013,1.853,5.4,4.809,6.641,5.5,12.909.645,5.87-1.695,7.093-1.195,12.431.747,7.976,6.414,9.907,7.889,16.016.958,3.969.151,9.773-6.848,18.176.117.723.233,1.45.349,2.188a6.465,6.465,0,0,0,4.1.8,6.251,6.251,0,0,0,2.466-.937C567.671,1565.409,565.9,1554.039,563,1546.956Z" transform="translate(-507.688 -1371.652)" opacity="0.3" fill="url(#linear-gradient-18)" style="mix-blend-mode: multiply;isolation: isolate"/>
        <path id="Trazado_622832" data-name="Trazado 622832" d="M536.824,1432.31c.551-.855,2.3-3.225,9.728-4.971a42.735,42.735,0,0,1,19.463-.5,43.48,43.48,0,0,1,22.592,12.944,30.478,30.478,0,0,0-11.97,14.961c-.993,2.738-3.927,12.1.269,20.868,2.416,5.052,6.693,8.845,9.94,11.727,4.871,4.32,7.392,4.984,9.025,8.856,1.778,4.215-.013,6.271,2.2,9.156,2.372,3.1,5.15,1.659,9.17,4.793,4.118,3.21,2.653,5.853,6.4,9.4,5.445,5.156,12.664,3.481,13,5.8.289,1.995-4.841,4.7-9.2,5.8-8.632,2.174-16.16-1.475-18.4-2.6-6.2-3.115-5.128-5.13-9.854-7.5-7.913-3.975-13.322.449-31.346.9-9.76.247-14.7.3-17.4-3-2.47-3.017-1.172-6.325.31-20.585h0c.476-4.762,1.472-14.733,1.478-20.415,0-3.358-1.16-8.845-3.489-19.817-.138-.648-1.4-6.576-2.417-14.5C535.4,1436.5,535.536,1434.312,536.824,1432.31Z" transform="translate(-509.992 -1384.109)" fill="url(#linear-gradient-19)"/>
        <g id="Grupo_894506" data-name="Grupo 894506" transform="translate(51.531 54.868)" opacity="0.3" style="mix-blend-mode: multiply;isolation: isolate">
          <path id="Trazado_622833" data-name="Trazado 622833" d="M609.673,1517.542c-3.748-3.547-2.283-6.189-6.4-9.4-4.02-3.134-6.8-1.693-9.17-4.793-2.208-2.885-.417-4.942-2.2-9.156-1.633-3.872-4.155-4.536-9.025-8.856-3.247-2.882-7.523-6.675-9.94-11.727-4.2-8.768-1.262-18.13-.269-20.868a30.478,30.478,0,0,1,11.97-14.961c-.226-.242-.49-.518-.774-.808-15.384,2.114-24.354,11-25.462,13.635-2.565,6.084,1.495,8.32,1.6,25.867.05,8.388-.855,11.7,1.866,15.2,3.112,4,6.7,2.765,11.2,8,3.457,4.022,2.9,6.572,6.133,8.267,3.473,1.822,5.684-.3,9.6.534,6.543,1.394,7.941,8.939,12.267,13.065,3.271,3.122,9.317,5.3,21.244,2.961a1.651,1.651,0,0,0,.356-1.16C622.337,1521.023,615.118,1522.7,609.673,1517.542Z" transform="translate(-557.558 -1436.973)" fill="url(#linear-gradient-20)"/>
        </g>
        <path id="Trazado_622834" data-name="Trazado 622834" d="M558.971,1418.655s.775,6.2,3.065,7.624,5.99,3.275,6.4,3.78-14.181,2.071-21.411-1.576h0c2.383-.5,3.031-.679,3.031-.679a13.435,13.435,0,0,0,3.062-1.212,10.417,10.417,0,0,0,3.367-3.114l-.026-3.434Z" transform="translate(-507.941 -1385.432)" fill="url(#linear-gradient-21)"/>
        <path id="Trazado_622835" data-name="Trazado 622835" d="M558.186,1421.391a3.431,3.431,0,0,1-3.832,1.195c-2.1-.765-.846-6.178.816-6.794a2.943,2.943,0,0,1,2.253.309,3.26,3.26,0,0,1,1.024,3.667c.529-.154,1-.014,1.112.248.149.332-.3.785-.4.887A1.77,1.77,0,0,1,558.186,1421.391Z" transform="translate(-506.809 -1385.972)" fill="url(#linear-gradient-22)"/>
        <path id="Trazado_622836" data-name="Trazado 622836" d="M535.881,1397.444l3.42-1.748s-7.224-.455-8.969-3.07-2.99-2.616-2.117-.872c.591,1.183,3.192,3.75,4.8,5.277A2.5,2.5,0,0,0,535.881,1397.444Z" transform="translate(-511.409 -1390.539)" fill="url(#linear-gradient-23)"/>
        <path id="Trazado_622837" data-name="Trazado 622837" d="M566.556,1457.143c-1.526,3.24,5.485,10.787,13.278,14.37,1.588.73,12.99,5.973,18.071.932,4.2-4.167,1.49-12.779.522-15.855-4.751-15.1-19.341-22.782-25.455-25.552-4.563,11.41-1.875,16.493-.818,18.081a60.86,60.86,0,0,0,7.463,8.21c2.3,2.159,3.739,3.209,3.546,3.546-.24.418-2.94-.372-13.429-5.478C568.519,1455.594,567.079,1456.037,566.556,1457.143Z" transform="translate(-504.431 -1383.183)" fill="url(#linear-gradient-24)"/>
        <g id="Grupo_894507" data-name="Grupo 894507" transform="translate(35.146 55.018)">
          <path id="Trazado_622838" data-name="Trazado 622838" d="M544.731,1437.1l18.566,1.738a.95.95,0,0,1,.825.684l6.928,24.193a.95.95,0,0,1-1,1.208l-18.718-1.652a.95.95,0,0,1-.831-.69l-6.777-24.28A.949.949,0,0,1,544.731,1437.1Z" transform="translate(-543.692 -1437.1)" fill="#0b5999"/>
          <path id="Trazado_622839" data-name="Trazado 622839" d="M557.088,1458.03c-.7-3.824,1.457-6.79-.61-10.375-2.128-3.688-5.862-3.065-8.544-6.1a8.823,8.823,0,0,1-2-4.336l-1.206-.112a.949.949,0,0,0-1,1.2l6.777,24.28a.95.95,0,0,0,.831.69l9.505.839A10.786,10.786,0,0,1,557.088,1458.03Z" transform="translate(-543.692 -1437.1)" fill="#0b5999"/>
        </g>
        <path id="Trazado_622840" data-name="Trazado 622840" d="M570.33,1453.658s-6.394-6.543-9-7.509-.3,5.934,1.227,6.908a7.145,7.145,0,0,0,3.309,1.494l1.19.149,1.561.832S570.628,1455.293,570.33,1453.658Z" transform="translate(-505.555 -1380.455)" fill="url(#linear-gradient-25)"/>
      </g>
    </g>
  </g>
</svg>
