<svg xmlns="http://www.w3.org/2000/svg" xmlns:xlink="http://www.w3.org/1999/xlink" width="376" height="344" viewBox="0 0 376 344">
  <defs>
    <filter id="Rect치ngulo_300539" x="0" y="0" width="376" height="344" filterUnits="userSpaceOnUse">
      <feOffset dy="3" input="SourceAlpha"/>
      <feGaussianBlur stdDeviation="3" result="blur"/>
      <feFlood flood-opacity="0.161"/>
      <feComposite operator="in" in2="blur"/>
      <feComposite in="SourceGraphic"/>
    </filter>
    <linearGradient id="linear-gradient" x1="-0.538" y1="-0.982" x2="1.171" y2="1.492" gradientUnits="objectBoundingBox">
      <stop offset="0" stop-color="#ffc444"/>
      <stop offset="0.996" stop-color="#f36f56"/>
    </linearGradient>
    <linearGradient id="linear-gradient-2" x1="0.144" y1="0.004" x2="1.852" y2="2.479" xlink:href="#linear-gradient"/>
    <linearGradient id="linear-gradient-3" x1="0.168" y1="-0.519" x2="0.902" y2="1.657" xlink:href="#linear-gradient"/>
    <linearGradient id="linear-gradient-4" x1="0.243" y1="0.001" x2="0.685" y2="1.487" xlink:href="#linear-gradient"/>
    <linearGradient id="linear-gradient-5" x1="0.525" y1="3.978" x2="0.482" y2="-1.365" xlink:href="#linear-gradient"/>
    <linearGradient id="linear-gradient-6" x1="0.328" y1="-8.99" x2="1.588" y2="-5.675" gradientUnits="objectBoundingBox">
      <stop offset="0" stop-color="#06355c"/>
      <stop offset="1" stop-color="#8f2448"/>
    </linearGradient>
    <linearGradient id="linear-gradient-7" x1="-0.665" y1="-0.607" x2="0.752" y2="0.747" xlink:href="#linear-gradient-6"/>
    <linearGradient id="linear-gradient-8" x1="-0.665" y1="-0.607" x2="0.752" y2="0.747" xlink:href="#linear-gradient-6"/>
    <linearGradient id="linear-gradient-9" x1="0.471" y1="-12.193" x2="1.677" y2="-8.276" xlink:href="#linear-gradient-6"/>
    <linearGradient id="linear-gradient-10" x1="0.421" y1="0.95" x2="0.691" y2="-0.004" xlink:href="#linear-gradient"/>
    <linearGradient id="linear-gradient-11" x1="-56.828" y1="-2.789" x2="-55.776" y2="-1.34" gradientUnits="objectBoundingBox">
      <stop offset="0" stop-color="#444b8c"/>
      <stop offset="0.996" stop-color="#26264f"/>
    </linearGradient>
    <linearGradient id="linear-gradient-12" x1="-351.539" y1="0.164" x2="-351.539" y2="-1.187" xlink:href="#linear-gradient"/>
    <linearGradient id="linear-gradient-13" x1="-72.492" y1="-3.905" x2="-71.16" y2="-2.116" xlink:href="#linear-gradient-11"/>
    <linearGradient id="linear-gradient-14" x1="-0.232" y1="-0.515" x2="0.863" y2="0.793" xlink:href="#linear-gradient-11"/>
    <linearGradient id="linear-gradient-15" x1="89.522" y1="-402.857" x2="90.483" y2="-402.258" xlink:href="#linear-gradient"/>
    <linearGradient id="linear-gradient-16" x1="-356.074" y1="1.222" x2="-356.074" y2="-0.193" xlink:href="#linear-gradient"/>
    <linearGradient id="linear-gradient-17" x1="-193.291" y1="1.09" x2="-193.948" y2="-0.252" xlink:href="#linear-gradient-11"/>
    <linearGradient id="linear-gradient-18" x1="-0.217" y1="0.072" x2="1.256" y2="0.961" xlink:href="#linear-gradient"/>
    <linearGradient id="linear-gradient-19" x1="-0.781" y1="-1.298" x2="0.579" y2="0.479" xlink:href="#linear-gradient-11"/>
    <linearGradient id="linear-gradient-20" x1="0.421" y1="0.29" x2="1.456" y2="1.505" xlink:href="#linear-gradient"/>
    <linearGradient id="linear-gradient-21" x1="-0.134" y1="-0.002" x2="1.214" y2="1.837" xlink:href="#linear-gradient"/>
    <linearGradient id="linear-gradient-22" x1="-3.539" y1="-2.785" x2="12.467" y2="10.463" xlink:href="#linear-gradient"/>
  </defs>
  <g id="Grupo_895216" data-name="Grupo 895216" transform="translate(-1011 -4448)">
    <g id="Grupo_894057" data-name="Grupo 894057" transform="translate(1020 4454)">
      <g transform="matrix(1, 0, 0, 1, -9, -6)" filter="url(#Rect치ngulo_300539)">
        <rect id="Rect치ngulo_300539-2" data-name="Rect치ngulo 300539" width="358" height="326" rx="20" transform="translate(9 6)" fill="#fff"/>
      </g>
    </g>
    <g id="Grupo_894595" data-name="Grupo 894595" transform="translate(831.026 2866.411)">
      <path id="Trazado_623060" data-name="Trazado 623060" d="M249.851,1844.772c62.594,87.1,255.21,11.246,255.123-12.174-.035-9.56-32.169-7.922-42.259-30.782-16.168-36.628,50.564-76.563,40.955-112.318-12.173-45.3-148.781-90.956-225.05-20.934C229.6,1713.568,215.591,1797.1,249.851,1844.772Z" transform="translate(0 4.186)" fill="#f4f7fa"/>
      <g id="Grupo_894586" data-name="Grupo 894586" transform="translate(255.404 1610.589)">
        <path id="Trazado_623061" data-name="Trazado 623061" d="M405.771,1828.131a4.557,4.557,0,0,1-4.136,4.623L256.316,1840.3a4.52,4.52,0,0,1-4.836-4.527v-215.6a4.472,4.472,0,0,1,4.836-4.483l1.947-.1,143.371,8.971a4.608,4.608,0,0,1,4.136,4.662Z" transform="translate(-251.481 -1609.632)" fill="url(#linear-gradient)"/>
        <path id="Trazado_623062" data-name="Trazado 623062" d="M408.174,1828.031a4.556,4.556,0,0,1-4.136,4.623L258.719,1840.2a4.52,4.52,0,0,1-4.835-4.527v-215.6a4.472,4.472,0,0,1,4.835-4.484l145.318,8.866a4.608,4.608,0,0,1,4.136,4.662Z" transform="translate(-251.021 -1609.633)" fill="url(#linear-gradient-2)"/>
        <path id="Trazado_623063" data-name="Trazado 623063" d="M290.017,1635.3c-3.612,4.644-4.128,13.416,2.065,17.027,13.415,8.257,30.96,5.677,43.859-3.095,9.493-6.646,5.45-18.968,2.734-28.933l-28.581-1.743C307.636,1625.427,294.548,1629.257,290.017,1635.3Z" transform="translate(-244.619 -1609.065)" fill="url(#linear-gradient-3)"/>
        <path id="Trazado_623064" data-name="Trazado 623064" d="M400.058,1815.947a4.014,4.014,0,0,1-3.674,4.075l-131.579,6.159a3.988,3.988,0,0,1-4.233-4V1637.634a3.971,3.971,0,0,1,4.233-3.986l131.579,6.63a4.032,4.032,0,0,1,3.674,4.089Z" transform="translate(-249.742 -1606.179)" fill="#fff"/>
        <path id="Trazado_623065" data-name="Trazado 623065" d="M357.93,1638.818a2.339,2.339,0,0,0-2.2-1.991l-6.924-.373a5.584,5.584,0,0,1-5.244-6.057l.343-7.6a2.419,2.419,0,0,0-2.254-2.615l-2.235-.139a2.849,2.849,0,0,1-2.6-3.4,5.08,5.08,0,0,0-4.614-6.045,6.255,6.255,0,0,0-6.37,5.344,3.633,3.633,0,0,1-1.26,2.225,3.359,3.359,0,0,1-2.355.808l-2.283-.142a3.076,3.076,0,0,0-3.069,2.319l-1.982,7.614a7.288,7.288,0,0,1-7.221,5.476l-7.286-.392a3.156,3.156,0,0,0-2.926,1.776l-5.229,10.493.449.574,67.07,2.609Zm-26.711-21.683a1.488,1.488,0,0,1-1.358-1.773,1.833,1.833,0,0,1,1.863-1.567,1.489,1.489,0,0,1,1.356,1.773A1.833,1.833,0,0,1,331.218,1617.135Z" transform="translate(-243.686 -1610.589)" fill="#6165d7"/>
        <path id="Trazado_623066" data-name="Trazado 623066" d="M358.307,1639.3a2.338,2.338,0,0,0-2.2-1.991l-6.925-.373a5.583,5.583,0,0,1-5.244-6.057l.343-7.6a2.418,2.418,0,0,0-2.254-2.615l-2.235-.139a2.85,2.85,0,0,1-2.6-3.4,5.079,5.079,0,0,0-4.614-6.045,6.252,6.252,0,0,0-6.369,5.344,3.645,3.645,0,0,1-1.26,2.225,3.365,3.365,0,0,1-2.356.808l-2.281-.142a3.076,3.076,0,0,0-3.07,2.32l-1.982,7.614a7.288,7.288,0,0,1-7.221,5.476l-7.286-.392a3.16,3.16,0,0,0-2.926,1.776l-5.229,10.493,67.52,3.183ZM331.6,1617.617a1.489,1.489,0,0,1-1.358-1.773,1.833,1.833,0,0,1,1.863-1.567,1.49,1.49,0,0,1,1.356,1.773A1.833,1.833,0,0,1,331.6,1617.617Z" transform="translate(-243.614 -1610.497)" fill="url(#linear-gradient-4)"/>
        <g id="Grupo_894585" data-name="Grupo 894585" transform="translate(24.201 47.641)">
          <path id="Trazado_623067" data-name="Trazado 623067" d="M356.6,1665.528l-62.3-2.516v-12.432l62.3,3.056Z" transform="translate(-267.492 -1650.579)" fill="#d8dee8"/>
          <g id="Grupo_894581" data-name="Grupo 894581" transform="translate(63.794 32.034)">
            <path id="Trazado_623068" data-name="Trazado 623068" d="M378.22,1689.909a.75.75,0,0,1-.687.817l-51.445-1.151a.832.832,0,0,1-.741-.881v-10.382a.78.78,0,0,1,.741-.842l51.445,1.6a.8.8,0,0,1,.687.853Z" transform="translate(-325.346 -1677.469)" fill="#d8dee8"/>
            <path id="Trazado_623069" data-name="Trazado 623069" d="M378.22,1698.3a.758.758,0,0,1-.687.823l-51.445-.711a.822.822,0,0,1-.741-.876v-2.883a.794.794,0,0,1,.741-.853l51.445.88a.787.787,0,0,1,.687.845Z" transform="translate(-325.346 -1674.344)" fill="#d8dee8"/>
            <path id="Trazado_623070" data-name="Trazado 623070" d="M378.22,1707.085a.764.764,0,0,1-.687.828l-51.445-.307a.816.816,0,0,1-.741-.87v-2.884a.8.8,0,0,1,.741-.858l51.445.478a.779.779,0,0,1,.687.839Z" transform="translate(-325.346 -1672.586)" fill="#d8dee8"/>
            <path id="Trazado_623071" data-name="Trazado 623071" d="M378.22,1715.87a.772.772,0,0,1-.687.834l-51.445.1a.808.808,0,0,1-.741-.864v-2.884a.808.808,0,0,1,.741-.864l51.445.074a.772.772,0,0,1,.687.834Z" transform="translate(-325.346 -1670.827)" fill="#d8dee8"/>
            <path id="Trazado_623072" data-name="Trazado 623072" d="M378.22,1724.709a.779.779,0,0,1-.687.839l-51.445.5a.8.8,0,0,1-.741-.858V1722.3a.816.816,0,0,1,.741-.87l51.445-.33a.765.765,0,0,1,.687.829Z" transform="translate(-325.346 -1669.121)" fill="#d8dee8"/>
          </g>
          <g id="Grupo_894582" data-name="Grupo 894582" transform="translate(0 29.744)">
            <path id="Trazado_623073" data-name="Trazado 623073" d="M317.844,1735.379l-43.113.431a3.085,3.085,0,0,1-2.934-3.25v-53.824a3.008,3.008,0,0,1,2.934-3.188l43.113,1.35a3.1,3.1,0,0,1,2.752,3.256v52.028A3.018,3.018,0,0,1,317.844,1735.379Z" transform="translate(-271.796 -1675.547)" fill="#d8dee8"/>
            <path id="Trazado_623074" data-name="Trazado 623074" d="M274.633,1677h.055l43.115,1.337a1.729,1.729,0,0,1,1.519,1.825V1732.2a1.636,1.636,0,0,1-1.469,1.736l-43.113.419a1.728,1.728,0,0,1-1.644-1.819v-53.811A1.63,1.63,0,0,1,274.633,1677Zm0-1.452a3.022,3.022,0,0,0-2.837,3.189v53.824a3.085,3.085,0,0,0,2.934,3.25l43.113-.431h.017a3.022,3.022,0,0,0,2.735-3.2v-52.028a3.1,3.1,0,0,0-2.752-3.256l-43.113-1.35Z" transform="translate(-271.796 -1675.547)" fill="#d8dee8"/>
          </g>
          <g id="Grupo_894583" data-name="Grupo 894583" transform="translate(0.695 111.599)">
            <path id="Trazado_623075" data-name="Trazado 623075" d="M300.291,1749.008l-27.578.584a.346.346,0,0,1-.335-.366v-4.1a.363.363,0,0,1,.335-.379l27.578-.492a.338.338,0,0,1,.32.36v4.02A.353.353,0,0,1,300.291,1749.008Z" transform="translate(-272.379 -1744.257)" fill="#d8dee8"/>
            <path id="Trazado_623076" data-name="Trazado 623076" d="M319.6,1756.719l-46.889,1.312a.345.345,0,0,1-.335-.365v-4.1a.367.367,0,0,1,.335-.381l46.889-1.156a.331.331,0,0,1,.313.354v3.965A.351.351,0,0,1,319.6,1756.719Z" transform="translate(-272.379 -1742.77)" fill="#d8dee8"/>
            <path id="Trazado_623077" data-name="Trazado 623077" d="M319.6,1764.783l-46.889,1.628a.34.34,0,0,1-.335-.361v-4.1a.37.37,0,0,1,.335-.384l46.889-1.474a.327.327,0,0,1,.313.352v3.963A.355.355,0,0,1,319.6,1764.783Z" transform="translate(-272.379 -1741.227)" fill="#d8dee8"/>
            <path id="Trazado_623078" data-name="Trazado 623078" d="M319.6,1772.846l-46.889,1.949a.339.339,0,0,1-.335-.36v-4.1a.373.373,0,0,1,.335-.386l46.889-1.793a.325.325,0,0,1,.313.349v3.965A.357.357,0,0,1,319.6,1772.846Z" transform="translate(-272.379 -1739.685)" fill="#d8dee8"/>
          </g>
          <g id="Grupo_894584" data-name="Grupo 894584" transform="translate(63.794 110.254)">
            <path id="Trazado_623079" data-name="Trazado 623079" d="M365.455,1747.631l-39.8.842a.327.327,0,0,1-.306-.352v-3.92a.342.342,0,0,1,.306-.362l39.8-.711a.315.315,0,0,1,.289.342v3.807A.331.331,0,0,1,365.455,1747.631Z" transform="translate(-325.346 -1743.128)" fill="#d8dee8"/>
            <path id="Trazado_623080" data-name="Trazado 623080" d="M377.249,1755.092l-51.6,1.443a.323.323,0,0,1-.306-.348v-3.922a.345.345,0,0,1,.306-.365l51.6-1.271a.308.308,0,0,1,.284.337v3.774A.329.329,0,0,1,377.249,1755.092Z" transform="translate(-325.346 -1741.693)" fill="#d8dee8"/>
            <path id="Trazado_623081" data-name="Trazado 623081" d="M377.249,1762.769l-51.6,1.794a.322.322,0,0,1-.306-.347v-3.922a.346.346,0,0,1,.306-.366l51.6-1.623a.306.306,0,0,1,.284.335v3.774A.331.331,0,0,1,377.249,1762.769Z" transform="translate(-325.346 -1740.225)" fill="#d8dee8"/>
            <path id="Trazado_623082" data-name="Trazado 623082" d="M377.249,1770.446l-51.6,2.145a.319.319,0,0,1-.306-.344v-3.921a.351.351,0,0,1,.306-.369l51.6-1.973a.3.3,0,0,1,.284.333v3.774A.333.333,0,0,1,377.249,1770.446Z" transform="translate(-325.346 -1738.756)" fill="#d8dee8"/>
          </g>
        </g>
        <path id="Trazado_623083" data-name="Trazado 623083" d="M356.109,1633.645l-6.925-.373a5.417,5.417,0,0,1-4.631-3.048c-6.416,1.343-13.177-.06-19.938,1.292-4.644,1.032-4.128,8.256-9.287,8.772a175.781,175.781,0,0,1-21.97,1.141l-.754,1.512,67.52,3.183-1.817-10.488A2.338,2.338,0,0,0,356.109,1633.645Z" transform="translate(-243.614 -1606.833)" fill="url(#linear-gradient-5)"/>
      </g>
      <g id="Grupo_894587" data-name="Grupo 894587" transform="translate(275.893 1744.691)">
        <path id="Trazado_623084" data-name="Trazado 623084" d="M283.634,1809.808h-5.283s-6.308,19.268-9.146,22.107,3.849,11.353,70.048,10.644c45.146-.947,57.682-5.441,58.629-10.171s-5.08-10.171-5.024-13.01-7.864-9.57-7.864-9.57Z" transform="translate(-268.68 -1706.58)" fill="#0b5999"/>
        <path id="Trazado_623085" data-name="Trazado 623085" d="M391.68,1819.378c.056-2.838-7.864-9.57-7.864-9.57H277.173s-.978,2.987-2.336,6.781c3.887,3.014,8.929,3.726,13.735,3.726,7.412.337,14.489-3.032,21.228-.673,12.13,4.043,23.923,10.108,37.064,6.738,8.087-2.022,15.836-5.391,24.26-5.053,5.055,0,10.445,5.391,6.739,9.771-10.445,11.12-26.956,4.38-41.107,7.076-8.424,1.685-16.173,1.01-24.261,1.01-1.01,0-2.358,1.011-3.369,1.011a103.082,103.082,0,0,1-15.047,1c10.425.994,24.676,1.573,44,1.366,45.146-.947,57.682-5.441,58.629-10.171S391.624,1822.217,391.68,1819.378Z" transform="translate(-267.502 -1706.58)" fill="#0b5999" style="mix-blend-mode: soft-light;isolation: isolate"/>
        <ellipse id="Elipse_6249" data-name="Elipse 6249" cx="53.322" cy="5.076" rx="53.322" ry="5.076" transform="translate(9.671 98.153)" fill="#0b5999"/>
        <ellipse id="Elipse_6250" data-name="Elipse 6250" cx="35.444" cy="3.303" rx="35.444" ry="3.303" transform="translate(27.549 98.153)" fill="#0b5999" style="mix-blend-mode: soft-light;isolation: isolate"/>
        <path id="Trazado_623086" data-name="Trazado 623086" d="M341.585,1764.455s98.706,12.2,119.629,11.572,16.377,20.928,3.1,20.895-121.656-20.433-121.656-20.433Z" transform="translate(-254.733 -1715.256)" fill="url(#linear-gradient-6)"/>
        <path id="Trazado_623087" data-name="Trazado 623087" d="M327.067,1723.245a18.251,18.251,0,0,0-6.918,6.919c-3.425,6.34.019,10.413-2.839,18.095-2.532,6.8-5.951,5.54-7.888,12.092-2.119,7.164,1.683,9.638-1.17,15.782-2.147,4.624-5.125,5-5.739,9.522-.1.7-.021.681.782,8.2.646,6.051.695,6.965,0,8.107-1.131,1.861-2.819,2-4.174,4.7a8.638,8.638,0,0,0-.913,2.87c-.242,4.51,12.493,9.76,24.422,12.357,5.2,1.132,21.164,4.57,24.158-.779.554-.99.361-2.441.147-5.076-.34-4.16-1.377-4.85-1.215-6.921.291-3.7,3.813-4.156,6.226-8.32,2.511-4.336.073-6.229,1.434-13.044,1.6-8,5.393-7.531,7.043-15.39,1.47-7-1.319-8.425.934-14.015,1.953-4.844,4.672-5.326,6.328-9.871,1.685-4.624.736-9.239-.349-12.447a59.64,59.64,0,0,0-40.271-12.773Z" transform="translate(-263.031 -1723.156)" fill="url(#linear-gradient-7)"/>
        <path id="Trazado_623088" data-name="Trazado 623088" d="M367.337,1736.018a59.64,59.64,0,0,0-40.271-12.773,18.965,18.965,0,0,0-5.955,5.366c4.4-1.042,14.6-2.746,24.444,2.524,1.351.723,12.088,6.473,11.54,13.211-.354,4.338-4.994,4.271-7.627,10.266-3.116,7.093,1.925,10.494-.783,18.782-2.08,6.36-5.529,5.823-7.044,12.261-1.484,6.31,1.594,7.834-.261,13.3-2.391,7.055-9.458,10.268-10.433,10.7a22.254,22.254,0,0,1-8.772,1.631c-9.583.057-17.093-4.568-20.838-7.329a7.715,7.715,0,0,0-2.216,2.7,8.638,8.638,0,0,0-.913,2.87c-.242,4.51,12.493,9.76,24.422,12.357,5.2,1.132,21.164,4.57,24.158-.779.554-.99.361-2.441.147-5.076-.34-4.16-1.377-4.85-1.215-6.921.291-3.7,3.813-4.156,6.226-8.32,2.511-4.336.073-6.229,1.434-13.044,1.6-8,5.393-7.531,7.043-15.39,1.47-7-1.319-8.425.934-14.015,1.953-4.844,4.672-5.326,6.328-9.871C369.371,1743.842,368.423,1739.227,367.337,1736.018Z" transform="translate(-263.031 -1723.156)" fill="url(#linear-gradient-8)"/>
        <path id="Trazado_623089" data-name="Trazado 623089" d="M462.689,1774.732a13.715,13.715,0,0,1-.711,1.241c-6.893,11.221-21.073,9.927-32.7,9.614-15.558-.07-29.739-6.463-44.657-11.386a34.455,34.455,0,0,0-30.83,3.349c29.462,5.453,97.809,17.9,108.179,17.922C474.378,1795.5,479.159,1776.7,462.689,1774.732Z" transform="translate(-252.397 -1713.806)" fill="url(#linear-gradient-9)"/>
      </g>
      <g id="Grupo_894594" data-name="Grupo 894594" transform="translate(386.694 1699.767)">
        <path id="Trazado_623090" data-name="Trazado 623090" d="M362.529,1698.178a1.143,1.143,0,0,0-.7.546,1.111,1.111,0,0,0-.087.877l6.515,20.425a1.145,1.145,0,0,0,1.409.742l15.132-4.346a1.122,1.122,0,0,0,.779-1.388l-5.866-20.326a1.144,1.144,0,0,0-1.4-.777Z" transform="translate(-361.688 -1683.831)" fill="#26264f"/>
        <path id="Trazado_623091" data-name="Trazado 623091" d="M363.524,1698.937a1.02,1.02,0,0,0-.625.487.989.989,0,0,0-.077.781l5.81,18.215a1.023,1.023,0,0,0,1.258.662l13.494-3.876a1,1,0,0,0,.695-1.237l-5.232-18.127a1.02,1.02,0,0,0-1.249-.693Z" transform="translate(-361.48 -1683.598)" fill="#fff"/>
        <path id="Trazado_623092" data-name="Trazado 623092" d="M439.067,1706.287c.838.317,13.624,5.4,16.252,18.746.212,1.078,2.267,12.543-5.509,20.643-8.719,9.083-25.508,8.857-32.171,1.264a13.612,13.612,0,0,1-2.834-5.381h0l1.756-4.665a11.432,11.432,0,0,1,6.618-3.583c3.841-.946,6.74.765,8.94-1.088a5.787,5.787,0,0,0,1.675-3.817c.736-4.488-1.8-7.249-1.981-10.016-.138-2.069-.861-6.6,1.838-9.558A8.714,8.714,0,0,1,439.067,1706.287Z" transform="translate(-351.526 -1681.46)" fill="url(#linear-gradient-10)"/>
        <path id="Trazado_623093" data-name="Trazado 623093" d="M439.353,1831.29c.15-.821,2.8-1.564,4.116-.465.653.547,1.1,1.655.724,2.155-.137.181.425.5-.113.508C442.293,1833.51,439.205,1832.108,439.353,1831.29Z" transform="translate(-346.831 -1657.741)" fill="url(#linear-gradient-11)"/>
        <path id="Trazado_623094" data-name="Trazado 623094" d="M441.88,1832.463l2.728-.385c-1.264-1.522-1.03-6.369-1.03-6.369l-2.9.647s.33,1.331.892,3.293A12.878,12.878,0,0,1,441.88,1832.463Z" transform="translate(-346.577 -1658.614)" fill="url(#linear-gradient-12)"/>
        <path id="Trazado_623095" data-name="Trazado 623095" d="M441.492,1831.155s3.284-.756,3.639-.1.631,2.4-1.452,2.34S441.306,1831.708,441.492,1831.155Z" transform="translate(-346.43 -1657.643)" fill="url(#linear-gradient-13)"/>
        <path id="Trazado_623096" data-name="Trazado 623096" d="M407.929,1833.828c.263-.792,2.994-1.157,4.141.117.569.631.859,1.792.415,2.234-.161.161.351.556-.183.487C410.528,1836.437,407.668,1834.616,407.929,1833.828Z" transform="translate(-352.845 -1657.198)" fill="url(#linear-gradient-14)"/>
        <path id="Trazado_623097" data-name="Trazado 623097" d="M369.024,1718.316l-2.493-1.195a5.5,5.5,0,0,1-1.43-1.7,6.51,6.51,0,0,1-.717-2.889c.006,0-.114-2.018.742-2.36a.732.732,0,0,1,.391-.034l.888,2.336s.142,1.016,1.744,2.071a9.887,9.887,0,0,1,2.229,2.649Z" transform="translate(-361.173 -1680.726)" fill="url(#linear-gradient-15)"/>
        <path id="Trazado_623098" data-name="Trazado 623098" d="M410.256,1835.325h2.755c-1.038-1.684-.129-6.451-.129-6.451l-2.963.236s.141,1.363.423,3.384A12.882,12.882,0,0,1,410.256,1835.325Z" transform="translate(-352.461 -1658.008)" fill="url(#linear-gradient-16)"/>
        <path id="Trazado_623099" data-name="Trazado 623099" d="M405.038,1747.174a127.638,127.638,0,0,0-4.272,19.555c-3.348,24.348,3.767,25.125,2.439,52.105-.424,8.612,7.461,28.471,8.156,28.909a8.58,8.58,0,0,0,1.09.043,10.852,10.852,0,0,0,2.778-.464c1.249-.214,5.752-12.412,4.708-19.665-.739-5.133-.524-10.642-.1-21.659.07-1.786,4.638-34.731,4.638-34.731h0c1.389,12.194,2.987,22.556,4.372,30.59,4.451,25.811,18.92,41.434,19.676,41.684a3.063,3.063,0,0,0,2.617-.179,1.8,1.8,0,0,0,.661-.746c.387-.3-.113-25.769-4.527-44.935-6.407-27.818-3.617-34.327-5.647-46.753C439.875,1740.179,405.038,1747.174,405.038,1747.174Z" transform="translate(-354.385 -1674.066)" fill="url(#linear-gradient-17)"/>
        <path id="Trazado_623100" data-name="Trazado 623100" d="M430.567,1704.509c-4.254-.125-12.492-1.514-17.877,3.331-.093.085-.529.561-1.072,1.2a35.276,35.276,0,0,0-3.8,5.456,36.622,36.622,0,0,0-3.2,7.9,67.958,67.958,0,0,0-2.523,13.791c-.984,12.945-.008,18.917.878,22.978a44.805,44.805,0,0,0,25.562,3.754,39.87,39.87,0,0,0,12.743-4.2c-3.064-9.275-.66-14.24.474-18.814,1.617-6.523,1.643-6.03,2.975-11.214,2.2-8.55,2.557-17.288,1.047-19.077C441.708,1704.8,434.374,1704.621,430.567,1704.509Z" transform="translate(-354.036 -1681.854)" fill="url(#linear-gradient-18)"/>
        <path id="Trazado_623101" data-name="Trazado 623101" d="M410.059,1833.99s3.358-.289,3.619.405.289,2.461-1.767,2.113S409.8,1834.511,410.059,1833.99Z" transform="translate(-352.455 -1657.041)" fill="url(#linear-gradient-19)"/>
        <path id="Trazado_623102" data-name="Trazado 623102" d="M426.423,1705.862c-4.652-3.027-16.816,6.456-20.5,9.072-14.281,10.142-12.569,16.467-19.055,13.311-4.385-2.136-4.981-8.573-12.475-10.993a15.92,15.92,0,0,0-3.2-.68c-.01,0-2.474,1.316-2.485,1.319a5.583,5.583,0,0,0-2.486,1.32,19.471,19.471,0,0,0-1.713,5.444,27.936,27.936,0,0,0,.559,3.518c.281,1.251,3.574,14.939,15.019,19.154a20.308,20.308,0,0,0,4.731,1.1c3.761.455,7.17-.1,13-2.11,9.871-3.4,17.407-6.592,24.07-14.391a10.456,10.456,0,0,0,.83-1.128C427.673,1723.2,430.914,1708.783,426.423,1705.862Z" transform="translate(-361.148 -1681.654)" fill="url(#linear-gradient-20)"/>
        <g id="Grupo_894588" data-name="Grupo 894588" transform="translate(61.934)">
          <path id="Trazado_623103" data-name="Trazado 623103" d="M416.3,1701.966a7.389,7.389,0,0,1-.6-5.323c.554-2.3.76-2.651,1.187-3.138l.6-.639s.038-.029.077-.056a8.722,8.722,0,0,1,2.328-.776c1.082-.054,3.283,3.825,4.544,9.8q.154.32.3.647.936,2.035,1.621,3.991c7.311.618,8.326,1.476,8.358,1.972.069,1.042-4.1,2.247-7.23,2.707-6.832,1-13.855-.8-13.823-2.077.014-.554,1.372-1.277,7.163-2.036l-.406-2.875C419.963,1704.062,417.273,1703.606,416.3,1701.966Z" transform="translate(-413.676 -1684.187)" fill="url(#linear-gradient-21)"/>
          <path id="Trazado_623104" data-name="Trazado 623104" d="M414.764,1693.018a7.1,7.1,0,0,0,2.4,3.742,3.2,3.2,0,0,1,.854.547.9.9,0,0,1,.161.188c.708,1.043-.761,2.886-.27,3.307.355.306,1.466-.525,1.7-.242.22.267-.646,1.171-.391,1.493.193.243.762-.177,1.276.136.255.156.241.338.624.922a5.929,5.929,0,0,0,.678.868c.917.9,2.809.82,3.039.3.063-.146-.045-.224-.055-.652a3.326,3.326,0,0,1,.136-.9,8.618,8.618,0,0,1,1.71-2.279,6.111,6.111,0,0,0,1.571-3.172c.017-.136.021-.237.025-.31a7.029,7.029,0,0,0-1.38-4.495c-1.557-1.767-3.586-.189-6-1.709-2.781-1.753-2.343-5.279-3.608-5.318C415.837,1685.4,413.853,1689.643,414.764,1693.018Z" transform="translate(-413.512 -1685.447)" fill="#26264f"/>
          <path id="Trazado_623105" data-name="Trazado 623105" d="M417.864,1697.893c.284-.734,1.223-.366,1.44.429a1.5,1.5,0,0,1-1.123,1.869C417.391,1700.234,417.481,1698.881,417.864,1697.893Z" transform="translate(-412.929 -1683.142)" fill="url(#linear-gradient-22)"/>
        </g>
        <path id="Trazado_623106" data-name="Trazado 623106" d="M418.395,1696.63l-.678,1.629s-.678,1.952-1.574,1.221c-.731-.6-.865-.546-.89-.506a.074.074,0,0,0,0,.018c-.011,0-.02-.39-.027-.733a6.291,6.291,0,0,0-.38,2.143,3.491,3.491,0,0,0,.705,2.6,2.683,2.683,0,0,0,1.845.787,7.123,7.123,0,0,0,1.954-.733,9.417,9.417,0,0,1-2.225-1.113c-.3-.811.737-1.568,1.14-3.5A7.044,7.044,0,0,0,418.395,1696.63Z" transform="translate(-351.519 -1683.307)" fill="#26264f"/>
        <g id="Grupo_894593" data-name="Grupo 894593" transform="translate(4.55 13.994)">
          <path id="Trazado_623107" data-name="Trazado 623107" d="M374.276,1698.577l-6.9,1.794-.441-1.418,6.908-1.76Z" transform="translate(-365.234 -1697.194)" fill="#d8dee8"/>
          <g id="Grupo_894589" data-name="Grupo 894589" transform="translate(6.882 2.65)">
            <path id="Trazado_623108" data-name="Trazado 623108" d="M377.624,1700.67a.088.088,0,0,1-.049.118l-5.8,1.563a.1.1,0,0,1-.113-.078l-.373-1.2a.092.092,0,0,1,.051-.122l5.809-1.534a.1.1,0,0,1,.11.076Z" transform="translate(-371.284 -1699.418)" fill="#d8dee8"/>
            <path id="Trazado_623109" data-name="Trazado 623109" d="M377.932,1701.668a.09.09,0,0,1-.048.119l-5.791,1.591a.1.1,0,0,1-.113-.077l-.1-.333a.093.093,0,0,1,.051-.123l5.793-1.58a.1.1,0,0,1,.11.076Z" transform="translate(-371.172 -1699.065)" fill="#d8dee8"/>
            <path id="Trazado_623110" data-name="Trazado 623110" d="M378.254,1702.707a.092.092,0,0,1-.048.12l-5.783,1.616a.1.1,0,0,1-.113-.076l-.1-.334a.092.092,0,0,1,.051-.121l5.786-1.607a.1.1,0,0,1,.108.076Z" transform="translate(-371.109 -1698.866)" fill="#d8dee8"/>
            <path id="Trazado_623111" data-name="Trazado 623111" d="M378.577,1703.746a.092.092,0,0,1-.049.12l-5.774,1.643a.1.1,0,0,1-.113-.076l-.1-.333a.093.093,0,0,1,.051-.123l5.778-1.633a.1.1,0,0,1,.11.076Z" transform="translate(-371.046 -1698.668)" fill="#d8dee8"/>
            <path id="Trazado_623112" data-name="Trazado 623112" d="M378.9,1704.785a.092.092,0,0,1-.048.12l-5.767,1.67a.1.1,0,0,1-.112-.076l-.1-.334a.092.092,0,0,1,.05-.123l5.771-1.659a.1.1,0,0,1,.108.076Z" transform="translate(-370.983 -1698.469)" fill="#d8dee8"/>
          </g>
          <g id="Grupo_894590" data-name="Grupo 894590" transform="translate(0 4.675)">
            <path id="Trazado_623113" data-name="Trazado 623113" d="M372.481,1707.836l-4.633,1.343a.368.368,0,0,1-.425-.281l-1.894-6.085a.342.342,0,0,1,.2-.454l4.668-1.232a.372.372,0,0,1,.416.283l1.86,5.976A.344.344,0,0,1,372.481,1707.836Z" transform="translate(-365.507 -1701.118)" fill="#d8dee8"/>
            <path id="Trazado_623114" data-name="Trazado 623114" d="M365.767,1702.525h.006l4.666-1.23a.208.208,0,0,1,.231.16l1.858,5.973a.185.185,0,0,1-.1.244l-4.632,1.344a.206.206,0,0,1-.238-.157l-1.9-6.087A.187.187,0,0,1,365.767,1702.525Zm-.051-.164a.344.344,0,0,0-.187.452l1.894,6.085a.368.368,0,0,0,.425.281l4.633-1.343h0a.344.344,0,0,0,.186-.45l-1.86-5.976a.372.372,0,0,0-.416-.283l-4.668,1.232Z" transform="translate(-365.507 -1701.118)" fill="#d8dee8"/>
          </g>
          <g id="Grupo_894591" data-name="Grupo 894591" transform="translate(2.891 14.432)">
            <path id="Trazado_623115" data-name="Trazado 623115" d="M371.072,1709.851l-2.943.862a.044.044,0,0,1-.049-.032l-.144-.464a.04.04,0,0,1,.023-.052l2.944-.856a.041.041,0,0,1,.048.032l.143.458A.039.039,0,0,1,371.072,1709.851Z" transform="translate(-367.934 -1709.308)" fill="#d8dee8"/>
            <path id="Trazado_623116" data-name="Trazado 623116" d="M373.45,1710.263l-5.027,1.494a.041.041,0,0,1-.048-.032l-.145-.463a.041.041,0,0,1,.023-.052l5.031-1.484a.04.04,0,0,1,.046.031l.142.456A.039.039,0,0,1,373.45,1710.263Z" transform="translate(-367.878 -1709.228)" fill="#d8dee8"/>
            <path id="Trazado_623117" data-name="Trazado 623117" d="M373.738,1711.189l-5.023,1.513a.041.041,0,0,1-.048-.031l-.144-.463a.042.042,0,0,1,.021-.054l5.025-1.5a.04.04,0,0,1,.046.031l.142.455A.041.041,0,0,1,373.738,1711.189Z" transform="translate(-367.822 -1709.051)" fill="#d8dee8"/>
            <path id="Trazado_623118" data-name="Trazado 623118" d="M374.025,1712.113l-5.015,1.533a.04.04,0,0,1-.049-.031l-.144-.463a.04.04,0,0,1,.023-.052l5.018-1.524a.038.038,0,0,1,.046.031l.142.455A.04.04,0,0,1,374.025,1712.113Z" transform="translate(-367.766 -1708.874)" fill="#d8dee8"/>
          </g>
          <g id="Grupo_894592" data-name="Grupo 894592" transform="translate(9.703 12.016)">
            <path id="Trazado_623119" data-name="Trazado 623119" d="M378.28,1707.808l-4.439,1.3a.04.04,0,0,1-.046-.031l-.141-.453a.04.04,0,0,1,.02-.051l4.442-1.291a.041.041,0,0,1,.045.031l.138.446A.037.037,0,0,1,378.28,1707.808Z" transform="translate(-373.652 -1707.28)" fill="#d8dee8"/>
            <path id="Trazado_623120" data-name="Trazado 623120" d="M379.9,1708.379l-5.771,1.714a.04.04,0,0,1-.046-.031l-.141-.453a.039.039,0,0,1,.021-.051l5.773-1.7a.04.04,0,0,1,.044.031l.138.443A.039.039,0,0,1,379.9,1708.379Z" transform="translate(-373.597 -1707.17)" fill="#d8dee8"/>
            <path id="Trazado_623121" data-name="Trazado 623121" d="M380.177,1709.28l-5.762,1.737a.04.04,0,0,1-.046-.031l-.141-.453a.039.039,0,0,1,.02-.051l5.766-1.726a.04.04,0,0,1,.045.031l.137.443A.038.038,0,0,1,380.177,1709.28Z" transform="translate(-373.542 -1706.998)" fill="#d8dee8"/>
            <path id="Trazado_623122" data-name="Trazado 623122" d="M380.456,1710.181l-5.755,1.759a.04.04,0,0,1-.046-.031l-.141-.453a.04.04,0,0,1,.02-.051l5.759-1.749a.04.04,0,0,1,.045.031l.138.443A.039.039,0,0,1,380.456,1710.181Z" transform="translate(-373.488 -1706.826)" fill="#d8dee8"/>
          </g>
        </g>
      </g>
    </g>
  </g>
</svg>
