<svg xmlns="http://www.w3.org/2000/svg" xmlns:xlink="http://www.w3.org/1999/xlink" width="376" height="344" viewBox="0 0 376 344">
  <defs>
    <filter id="Rectángulo_300539" x="0" y="0" width="376" height="344" filterUnits="userSpaceOnUse">
      <feOffset dy="3" input="SourceAlpha"/>
      <feGaussianBlur stdDeviation="3" result="blur"/>
      <feFlood flood-opacity="0.161"/>
      <feComposite operator="in" in2="blur"/>
      <feComposite in="SourceGraphic"/>
    </filter>
    <linearGradient id="linear-gradient" y1="0.5" x2="1" y2="0.5" gradientUnits="objectBoundingBox">
      <stop offset="0" stop-color="#ffc444"/>
      <stop offset="0.996" stop-color="#f36f56"/>
    </linearGradient>
    <clipPath id="clip-path">
      <path id="Trazado_623129" data-name="Trazado 623129" d="M588.447,1850.678c-.887-3.749-4.19-30.7-11.959-35.646-8.851-5.631-14.818-1.367-17.634-10.695-4.4-14.58-18.782-25.783-34.112-10.046-15.13,15.532,12.453,64.469,30,72.128,14.413,10.96,23.512,10.591,28.006,31.085C585.894,1911.86,591.779,1864.775,588.447,1850.678Z" transform="translate(-520.367 -1786.655)" fill="none"/>
    </clipPath>
    <linearGradient id="linear-gradient-2" x1="14.111" y1="-20.269" x2="14.839" y2="-18.905" gradientUnits="objectBoundingBox">
      <stop offset="0" stop-color="#a9c5db"/>
      <stop offset="0.996" stop-color="#0b5999"/>
    </linearGradient>
    <clipPath id="clip-path-2">
      <path id="Trazado_623135" data-name="Trazado 623135" d="M603.169,1903.693c-6.706,8.051-14.237,17.186-25.1,8.05-9.046-7.606-14.709-13.117-28.023-10.179s-26.706-2.321-27.669-15.893c-1.014-14.283-18.925-26.211-12.328-39.663,11.494-23.44,35.862,2.9,46.494,18.786s18.253,3.516,29.045-1.86C600.317,1855.594,608.587,1897.189,603.169,1903.693Z" transform="translate(-508.591 -1836.703)" fill="none"/>
    </clipPath>
    <clipPath id="clip-path-3">
      <path id="Trazado_623142" data-name="Trazado 623142" d="M684.237,1799.849c3.451,9.107,6.588,18.517,10.014,27.707,5.554.181,12.092.259,12.988-6.6,1.246-9.54,17.489-13.977,25.233-14.539,9.584-.7,30.161-4.125,25.143-17.335-4.178-11-11.113-16.116,1.047-23.779s16.679-17.593,10.263-29.08c-6.751-12.088,4.581-29.455-7.764-36.788-21.511-12.778-35.437,23.988-33.109,43.636s-8.659,15.906-21.154,20.4c-17.058,6.132-1.544,21.4-7.541,29.418C694.655,1799.166,690.667,1798.252,684.237,1799.849Z" transform="translate(-684.237 -1696.796)" fill="none"/>
    </clipPath>
    <clipPath id="clip-path-4">
      <path id="Trazado_623151" data-name="Trazado 623151" d="M717.669,1824.826q-10.125.282-20.3.108c-.089.116-4.76-13.808.716-22.5,10.881-16.893-.461-28.344-4.4-35.618-6.046-10.172-6.257-23.788,6.182-23.417,12.068.082,9.611-24.3,4.334-42.493-3.309-8.723,3.283-21.171,11.341-25.168,8.189-4.3,17.844-.143,23.66,17.382,7.677,20.125-5.317,35.359-9.111,46.792-3.738,11.226,10.606,17.257,1.831,28.164-7.3,9.6-17.28,17.339-11.476,26.772C726.335,1804.143,726.786,1812.512,717.669,1824.826Z" transform="translate(-689.654 -1674.169)" fill="none"/>
    </clipPath>
    <linearGradient id="linear-gradient-3" x1="23.661" y1="1.931" x2="22.736" y2="2.835" xlink:href="#linear-gradient"/>
    <linearGradient id="linear-gradient-4" y1="0.5" x2="1" y2="0.5" gradientUnits="objectBoundingBox">
      <stop offset="0" stop-color="#444b8c"/>
      <stop offset="0.996" stop-color="#26264f"/>
    </linearGradient>
    <linearGradient id="linear-gradient-5" x1="0" y1="0.5" x2="1" y2="0.5" xlink:href="#linear-gradient-2"/>
    <linearGradient id="linear-gradient-8" x1="-1.195" y1="0.174" x2="1.546" y2="0.651" xlink:href="#linear-gradient-4"/>
    <linearGradient id="linear-gradient-9" x1="-60.265" y1="0.186" x2="-61.376" y2="0.814" xlink:href="#linear-gradient-2"/>
    <linearGradient id="linear-gradient-10" x1="-67.993" y1="0.492" x2="-69.201" y2="0.506" xlink:href="#linear-gradient-4"/>
    <clipPath id="clip-path-5">
      <path id="Trazado_623188" data-name="Trazado 623188" d="M719.742,1894.207a13.347,13.347,0,0,0,8.835-3.772,34.139,34.139,0,0,0,7.762-10.952c4.758-9.922,7.378-23.154,7.378-37.26s-2.62-27.337-7.378-37.259a34.127,34.127,0,0,0-7.762-10.952,12.233,12.233,0,0,0-17.67,0,34.129,34.129,0,0,0-7.763,10.952c-4.757,9.922-7.377,23.154-7.377,37.259s2.62,27.338,7.377,37.26a34.142,34.142,0,0,0,7.763,10.952A13.345,13.345,0,0,0,719.742,1894.207Z" transform="translate(-695.767 -1790.24)" fill="none"/>
    </clipPath>
    <linearGradient id="linear-gradient-11" x1="-26.122" y1="-0.563" x2="-25.646" y2="1.571" xlink:href="#linear-gradient"/>
    <linearGradient id="linear-gradient-12" x1="-54.009" y1="-0.557" x2="-53.288" y2="1.565" xlink:href="#linear-gradient"/>
    <linearGradient id="linear-gradient-13" x1="95.076" y1="0.804" x2="93.833" y2="1.929" xlink:href="#linear-gradient-4"/>
    <linearGradient id="linear-gradient-14" x1="0.56" y1="-0.156" x2="0.465" y2="0.877" xlink:href="#linear-gradient-4"/>
    <linearGradient id="linear-gradient-15" x1="94.895" y1="0.783" x2="93.652" y2="1.908" xlink:href="#linear-gradient"/>
    <linearGradient id="linear-gradient-16" x1="0.56" y1="-0.156" x2="0.465" y2="0.877" xlink:href="#linear-gradient"/>
    <clipPath id="clip-path-6">
      <path id="Trazado_623200" data-name="Trazado 623200" d="M618.051,1815.091l26.321,63.679,86.833,26.174s31.806-68.443,31.235-69.934-21.938-57.388-21.938-57.388Z" transform="translate(-618.051 -1777.622)" fill="none"/>
    </clipPath>
  </defs>
  <g id="Grupo_895217" data-name="Grupo 895217" transform="translate(-1011 -5033)">
    <g id="Grupo_894061" data-name="Grupo 894061" transform="translate(1020 5039)">
      <g transform="matrix(1, 0, 0, 1, -9, -6)" filter="url(#Rectángulo_300539)">
        <rect id="Rectángulo_300539-2" data-name="Rectángulo 300539" width="358" height="326" rx="20" transform="translate(9 6)" fill="#fff"/>
      </g>
    </g>
    <g id="Grupo_894636" data-name="Grupo 894636" transform="translate(558.41 3395.73)">
      <path id="Trazado_623123" data-name="Trazado 623123" d="M766.762,1803.382c4.307,22.314,13.037,67.539-7.853,97.793-37.914,54.909-166.855,51.039-221.319-18.189-4.709-5.985-28.33-37.2-25.753-79.955,4.471-74.152,85.161-139.876,149.828-126.967,37.847,7.555,63,40.6,73.358,54.212C739.29,1735.883,758.836,1762.319,766.762,1803.382Z" transform="translate(0 0)" fill="#f4f7fa"/>
      <g id="Grupo_894606" data-name="Grupo 894606" transform="translate(508.591 1786.646)">
        <g id="Grupo_894605" data-name="Grupo 894605">
          <g id="Grupo_894604" data-name="Grupo 894604">
            <g id="Grupo_894599" data-name="Grupo 894599" transform="translate(11.776)">
              <path id="Trazado_623124" data-name="Trazado 623124" d="M582.3,1896.543c.584,3.373.684,6.212,1.1,9.534,12.232-7.642,25.425-12.767,37.841-20.493-16.034-9.914-27.246-11.994-32.352-33.248-2.4-9.974-4.2-30.335-12.313-36.906-9.248-7.486-14.821-1.265-17.7-10.921-4.492-15.092-18.8-25.835-34.134-10.182-15.131,15.449,12.384,64.375,30.048,72.19C568.5,1876.18,579.257,1878.927,582.3,1896.543Z" transform="translate(-520.367 -1786.646)" fill="url(#linear-gradient)"/>
              <g id="Grupo_894598" data-name="Grupo 894598" transform="translate(0 0.009)">
                <g id="Grupo_894597" data-name="Grupo 894597" clip-path="url(#clip-path)">
                  <g id="Grupo_894596" data-name="Grupo 894596" transform="translate(-4.664 -5.733)">
                    <path id="Trazado_623125" data-name="Trazado 623125" d="M602.172,1893.979c-3.437-4.061-7.234-7.9-10.906-11.616l-1.394-1.41c-2.949-2.99-5.534-5.717-7.814-8.123-1.282-1.352-2.493-2.63-3.678-3.859-3.631-3.77-6.177-6.4-7.437-7.7l-.825-.852c-9.926-10.309-19.624-27.972-24.833-37.461-.565-1.029-1.07-1.948-1.508-2.735A219.046,219.046,0,0,0,515.7,1781.1l.2-.182a219.233,219.233,0,0,1,28.109,39.169c.439.787.944,1.707,1.509,2.736,5.2,9.478,14.889,27.12,24.79,37.4l.825.852c1.26,1.3,3.806,3.929,7.438,7.7,1.185,1.23,2.4,2.508,3.679,3.861,2.279,2.405,4.863,5.131,7.81,8.119l1.393,1.41c3.676,3.717,7.478,7.561,10.921,11.631Z" transform="translate(-515.703 -1780.922)" fill="#fcfdfe"/>
                    <path id="Trazado_623126" data-name="Trazado 623126" d="M583.666,1875.064c-6.235-7.124-10.689-18.005-12.88-31.467a119.116,119.116,0,0,1-.407-34.7l.271.039a118.825,118.825,0,0,0,.406,34.615c2.183,13.411,6.615,24.245,12.817,31.331Z" transform="translate(-515.703 -1780.922)" fill="#fcfdfe"/>
                    <path id="Trazado_623127" data-name="Trazado 623127" d="M546.107,1824.486a196.825,196.825,0,0,1-4.063-24.131c-.685-5.451-1.394-11.088-2.415-16.582l.27-.05c1.022,5.5,1.731,11.143,2.417,16.6a196.41,196.41,0,0,0,4.057,24.1Z" transform="translate(-515.703 -1780.922)" fill="#fcfdfe"/>
                    <path id="Trazado_623128" data-name="Trazado 623128" d="M559.763,1847.26c-8.882-7.127-24.007-12.642-32.367-11.8l-.028-.272c8.421-.847,23.638,4.695,32.567,11.859Z" transform="translate(-515.703 -1780.922)" fill="#fcfdfe"/>
                  </g>
                </g>
              </g>
            </g>
            <g id="Grupo_894603" data-name="Grupo 894603" transform="translate(0 50.006)">
              <path id="Trazado_623130" data-name="Trazado 623130" d="M556.47,1864.538c10.014,14.431,17.675,7.1,27.864-1.837,4.377,15.763,9.219,30.951,14.186,46.346-6.908,5.879-11.966,9.96-20.344,2.814-9.476-8.083-14.676-13.062-28.105-10.271s-26.691-2.249-27.692-15.926c-1.053-14.392-18.9-26.026-12.338-39.665C521.473,1822.235,546.042,1849.512,556.47,1864.538Z" transform="translate(-508.591 -1836.652)" fill="url(#linear-gradient-2)"/>
              <g id="Grupo_894602" data-name="Grupo 894602" transform="translate(0 0.051)">
                <g id="Grupo_894601" data-name="Grupo 894601" clip-path="url(#clip-path-2)">
                  <g id="Grupo_894600" data-name="Grupo 894600" transform="translate(2.144 -9.312)">
                    <path id="Trazado_623131" data-name="Trazado 623131" d="M589.281,1890.539c-14.793-.675-27.1-1.649-39.581-7.4-11.944-5.507-20.057-13.486-27.13-26.679-3.666-6.839-7.066-11.324-11.835-17.385l.216-.17c4.777,6.074,8.183,10.568,11.86,17.426,7.043,13.136,15.118,21.079,27,26.56,12.435,5.734,24.716,6.705,39.479,7.378Z" transform="translate(-510.735 -1827.391)" fill="#fcfdfe"/>
                    <path id="Trazado_623132" data-name="Trazado 623132" d="M582.232,1916.837l-.263-.075a47.071,47.071,0,0,1,5.618-12.629,30.42,30.42,0,0,1,4.51-5.314l.193.2a30.175,30.175,0,0,0-4.472,5.266A46.81,46.81,0,0,0,582.232,1916.837Z" transform="translate(-510.735 -1827.391)" fill="#fcfdfe"/>
                    <path id="Trazado_623133" data-name="Trazado 623133" d="M523.867,1897.025l-.16-.223c10.565-7.551,22.571-11.414,33.806-10.882l-.013.274C546.325,1885.662,534.381,1889.51,523.867,1897.025Z" transform="translate(-510.735 -1827.391)" fill="#fcfdfe"/>
                    <path id="Trazado_623134" data-name="Trazado 623134" d="M531.626,1869.875c-.662-1.144-3.392-11.885-5.727-21.555-2.345-9.709-4.741-20.192-4.693-20.929l.273.018c-.041.626,2.061,9.978,4.686,20.847,2.331,9.652,5.051,20.363,5.7,21.481Z" transform="translate(-510.735 -1827.391)" fill="#fcfdfe"/>
                  </g>
                </g>
              </g>
            </g>
          </g>
        </g>
      </g>
      <g id="Grupo_894611" data-name="Grupo 894611" transform="translate(684.237 1696.796)">
        <g id="Grupo_894610" data-name="Grupo 894610">
          <path id="Trazado_623136" data-name="Trazado 623136" d="M704.744,1823.351a11.68,11.68,0,0,1-5-2.314c-4.089-4.715-12.317-13.045-12.247-19.642.012-1.126,4.982-2.411,5.636-3.477,2.97-1.588,4.1-1.955,6.181-4.852,6.145-8.554-9.524-23.3,7.577-29.578,12.525-4.6,23.478-.733,21.158-20.411s11.6-56.41,33.111-43.644c12.346,7.327,1.01,24.7,7.764,36.789,6.418,11.486,1.9,21.415-10.264,29.08s-5.22,12.773-1.047,23.781c5.012,13.223-15.537,16.6-25.158,17.35C724.709,1807.037,705.39,1813.8,704.744,1823.351Z" transform="translate(-684.237 -1696.796)" fill="#0b5999"/>
          <g id="Grupo_894609" data-name="Grupo 894609">
            <g id="Grupo_894608" data-name="Grupo 894608" clip-path="url(#clip-path-3)">
              <g id="Grupo_894607" data-name="Grupo 894607" transform="translate(9.438 -3.103)">
                <path id="Trazado_623137" data-name="Trazado 623137" d="M693.829,1811.783l-.154-.282a115.236,115.236,0,0,0,47.59-49.66c10.172-20.244,15.025-43.8,14.032-68.134l.321-.014c.995,24.385-3.869,48-14.066,68.292A115.563,115.563,0,0,1,693.829,1811.783Z" transform="translate(-693.675 -1693.693)" fill="#fcfdfe"/>
                <path id="Trazado_623138" data-name="Trazado 623138" d="M715.405,1796.276l-.108-.3c12.587-4.453,32.825-5.32,45.113-1.934l-.085.309C748.09,1790.979,727.938,1791.843,715.405,1796.276Z" transform="translate(-693.675 -1693.693)" fill="#fcfdfe"/>
                <path id="Trazado_623139" data-name="Trazado 623139" d="M701.768,1807.309l-.226-.228c4.9-4.871,7.147-12.032,6.683-21.284-.341-6.785-2.106-14.516-5.246-22.979l.3-.111a78.963,78.963,0,0,1,5.266,23.074C709.015,1795.128,706.735,1802.371,701.768,1807.309Z" transform="translate(-693.675 -1693.693)" fill="#fcfdfe"/>
                <path id="Trazado_623140" data-name="Trazado 623140" d="M742.885,1759.051l-.237-.216c8.768-9.663,22.13-12.779,31.795-13.692l.03.32C764.865,1746.371,751.585,1749.465,742.885,1759.051Z" transform="translate(-693.675 -1693.693)" fill="#fcfdfe"/>
                <path id="Trazado_623141" data-name="Trazado 623141" d="M752.536,1730.784l-.322-.008c.153-6.3-1.479-19.017-14.113-33.32l.241-.212C751.049,1711.629,752.689,1724.432,752.536,1730.784Z" transform="translate(-693.675 -1693.693)" fill="#fcfdfe"/>
              </g>
            </g>
          </g>
        </g>
      </g>
      <g id="Grupo_894615" data-name="Grupo 894615" transform="translate(689.654 1674.169)">
        <g id="Grupo_894614" data-name="Grupo 894614">
          <g id="Grupo_894613" data-name="Grupo 894613" clip-path="url(#clip-path-4)">
            <path id="Trazado_623143" data-name="Trazado 623143" d="M717.669,1824.826q-10.125.282-20.3.108c-.089.116-4.76-13.808.716-22.5,10.881-16.893-.461-28.344-4.4-35.618-6-10.171-5.925-22.34,5.127-24.462,12.216-2.595,10.869-23.332,5.389-41.448-3.309-8.723,3.283-21.171,11.341-25.168,8.189-4.3,17.844-.143,23.66,17.382,7.677,20.125-5.317,35.359-9.111,46.792-3.738,11.226,10.606,17.257,1.831,28.164-7.3,9.6-17.28,17.339-11.476,26.772C726.335,1804.143,726.786,1812.512,717.669,1824.826Z" transform="translate(-689.654 -1674.169)" fill="url(#linear-gradient-3)"/>
            <g id="Grupo_894612" data-name="Grupo 894612" transform="translate(-1.299 -3.148)">
              <path id="Trazado_623144" data-name="Trazado 623144" d="M708.727,1827.269a473.294,473.294,0,0,1,6.671-62.523c.664-5,1.45-10.073,2.21-14.975,2.036-13.125,4.141-26.695,3.969-39.808-.193-14.655-3.271-27.343-9.413-38.79l.283-.152c6.167,11.493,9.258,24.23,9.452,38.938.172,13.139-1.935,26.724-3.973,39.861-.76,4.9-1.546,9.967-2.21,14.976a475.553,475.553,0,0,0-6.672,62.424Z" transform="translate(-688.356 -1671.021)" fill="#fcfdfe"/>
              <path id="Trazado_623145" data-name="Trazado 623145" d="M721.315,1724.471l-.272-.171c5.9-9.439,12.718-22.577,16.38-29.635,2.951-5.69,2.974-5.69,3.152-5.694l.006.322,0-.161.093.127c-.175.179-1.406,2.551-2.963,5.554C734.044,1701.875,727.225,1715.021,721.315,1724.471Z" transform="translate(-688.356 -1671.021)" fill="#fcfdfe"/>
              <path id="Trazado_623146" data-name="Trazado 623146" d="M721.523,1712.9c-5.881-16.893-18.174-21.961-19.2-21.961h-.008l0-.121-.142-.149c.073-.07.181-.061.354-.019,2.673.643,13.783,6.285,19.305,22.144Z" transform="translate(-688.356 -1671.021)" fill="#fcfdfe"/>
              <path id="Trazado_623147" data-name="Trazado 623147" d="M712.308,1785.012c-.493-8.868-4.159-17.855-10.9-26.713a82.051,82.051,0,0,0-12.539-13.05c-.35-.294-.473-.4-.516-.449l.246-.208c.031.037.238.21.477.411a82.47,82.47,0,0,1,12.588,13.1c6.777,8.91,10.466,17.957,10.962,26.89Z" transform="translate(-688.356 -1671.021)" fill="#fcfdfe"/>
              <path id="Trazado_623148" data-name="Trazado 623148" d="M713.984,1775.333l-.3-.119c5.645-14.123,22.1-17.939,22.3-17.939h0l.144.128-.081.174-.076-.139.014.157C735.832,1757.617,719.62,1761.234,713.984,1775.333Zm21.914-18.038.076.141Z" transform="translate(-688.356 -1671.021)" fill="#fcfdfe"/>
              <path id="Trazado_623149" data-name="Trazado 623149" d="M708.961,1822.161c-.525-3.8-3.009-10.01-11.861-17.973-.489-.44-.489-.44-.492-.528l.161-.005.133-.087c.029.035.207.195.413.381,8.924,8.028,11.432,14.311,11.964,18.168Z" transform="translate(-688.356 -1671.021)" fill="#fcfdfe"/>
              <path id="Trazado_623150" data-name="Trazado 623150" d="M709.7,1814.7l-.32-.035c.329-3.029,2.623-9.253,14.291-16.906.16-.1.263-.173.3-.2l.194.256c-.039.029-.148.1-.318.213C712.287,1805.61,710.02,1811.729,709.7,1814.7Z" transform="translate(-688.356 -1671.021)" fill="#fcfdfe"/>
            </g>
          </g>
        </g>
      </g>
      <g id="Grupo_894624" data-name="Grupo 894624" transform="translate(548.965 1673.27)">
        <path id="Trazado_623152" data-name="Trazado 623152" d="M722.08,1703.811l-165.857-9.6c-3.82-.187-7.258,3.982-7.258,7.482v213.571c0,4.854,4.958,5.831,8.778,5.441l164.337-16.784a6.236,6.236,0,0,0,5.425-6.136V1709.658A5.839,5.839,0,0,0,722.08,1703.811Z" transform="translate(-548.965 -1673.27)" fill="url(#linear-gradient-4)"/>
        <path id="Trazado_623153" data-name="Trazado 623153" d="M724.807,1702.114l-166.183-8.175c-3.82-.188-6.931,2.519-6.931,6.046v215.239c0,3.528,3.111,6.067,6.931,5.674l166.183-17.1a6.269,6.269,0,0,0,5.426-6.184v-189.6A5.867,5.867,0,0,0,724.807,1702.114Z" transform="translate(-548.965 -1673.27)" fill="#d8dee8"/>
        <path id="Trazado_623154" data-name="Trazado 623154" d="M558.624,1917.979a3.205,3.205,0,0,1-3.741-3.069V1700.129a3.411,3.411,0,0,1,3.741-3.271l166.183,7.85a3.176,3.176,0,0,1,2.94,3.188v189.958a3.394,3.394,0,0,1-2.94,3.346Z" transform="translate(-548.965 -1673.27)" fill="url(#linear-gradient-5)"/>
        <path id="Trazado_623155" data-name="Trazado 623155" d="M714.1,1896.105,571.959,1909.8V1711.646L714.1,1717Z" transform="translate(-548.965 -1673.27)" fill="#fff"/>
        <path id="Trazado_623156" data-name="Trazado 623156" d="M657.246,1717.97l-56.806.71,1.274-12.811a3.472,3.472,0,0,1,2.884-3.274l9.62-1.479a3.459,3.459,0,0,0,2.6-2l1.043-2.266,25.164,1.554Z" transform="translate(-548.965 -1673.27)" fill="#97a6b7" opacity="0.3" style="mix-blend-mode: multiply;isolation: isolate"/>
        <path id="Trazado_623157" data-name="Trazado 623157" d="M687.581,1709.658a3.041,3.041,0,0,0-2.894-2.532l-9.077-.407a7.288,7.288,0,0,1-6.989-7.771l.35-9.824a3.188,3.188,0,0,0-3.016-3.379l-2.982-.178a3.776,3.776,0,0,1-3.469-4.459,6.736,6.736,0,0,0-6.241-7.821,8.173,8.173,0,0,0-8.442,6.924,4.573,4.573,0,0,1-.631,1.75,4.668,4.668,0,0,1-4.186,2.234l-3.076-.184a4.079,4.079,0,0,0-4.108,3.038l-2.558,9.972a9.769,9.769,0,0,1-9.71,7.231l-9.957-.447a4.326,4.326,0,0,0-3.982,2.368l-6,11.906a1.377,1.377,0,0,0,1.184,2.064l86.349,2.868a1.6,1.6,0,0,0,1.573-1.848Zm-35.542-27.868a1.977,1.977,0,0,1-1.842-2.31,2.394,2.394,0,0,1,2.467-2.035,1.976,1.976,0,0,1,1.835,2.309A2.4,2.4,0,0,1,652.039,1681.79Z" transform="translate(-548.965 -1673.27)" fill="url(#linear-gradient-4)"/>
        <path id="Trazado_623158" data-name="Trazado 623158" d="M688.092,1709.925a3.04,3.04,0,0,0-2.894-2.533l-9.077-.406a7.289,7.289,0,0,1-6.989-7.771l.351-9.825a3.189,3.189,0,0,0-3.016-3.379l-2.983-.178a3.775,3.775,0,0,1-3.469-4.458,6.735,6.735,0,0,0-6.241-7.822,8.174,8.174,0,0,0-8.442,6.924,4.55,4.55,0,0,1-.63,1.75,4.669,4.669,0,0,1-4.186,2.234l-3.077-.184a4.078,4.078,0,0,0-4.107,3.038l-2.558,9.972a9.769,9.769,0,0,1-9.71,7.231l-9.957-.446a4.326,4.326,0,0,0-3.983,2.367l-6,11.906a1.378,1.378,0,0,0,1.185,2.064l86.349,2.868a1.6,1.6,0,0,0,1.573-1.847Zm-35.542-27.869a1.977,1.977,0,0,1-1.842-2.309,2.4,2.4,0,0,1,2.468-2.036,1.977,1.977,0,0,1,1.835,2.309A2.4,2.4,0,0,1,652.55,1682.056Z" transform="translate(-548.965 -1673.27)" fill="#97a6b7"/>
        <g id="Grupo_894616" data-name="Grupo 894616" transform="translate(51.986 15.701)">
          <path id="Trazado_623159" data-name="Trazado 623159" d="M673.315,1715.4c-7.7-4.755-13.613-1.384-18.413-6.747-5.139-5.741-1.673-13.3-6.991-16.865-3.4-2.283-6.44-.27-10.4-.888a10.918,10.918,0,0,1-4.6-1.925l-2.133,8.316a9.769,9.769,0,0,1-9.71,7.231l-9.957-.446a4.327,4.327,0,0,0-3.983,2.367l-6,11.906a1.378,1.378,0,0,0,1.185,2.064l78.473,2.607A23.4,23.4,0,0,0,673.315,1715.4Z" transform="translate(-600.951 -1688.971)" fill="#fff" opacity="0.5" style="mix-blend-mode: soft-light;isolation: isolate"/>
        </g>
        <path id="Trazado_623160" data-name="Trazado 623160" d="M700.235,1775.661l-110.082.59v-6.537l110.082-.35Z" transform="translate(-548.965 -1673.27)" fill="#d8dee8"/>
        <g id="Grupo_894617" data-name="Grupo 894617" transform="translate(39.541 114.166)">
          <path id="Trazado_623161" data-name="Trazado 623161" d="M681.62,1793.818l-93.114,2.243v-6.807l93.114-1.817Z" transform="translate(-588.506 -1787.436)" fill="#d8dee8"/>
          <path id="Trazado_623162" data-name="Trazado 623162" d="M681.62,1804.991l-93.114,2.988v-6.807l93.114-2.562Z" transform="translate(-588.506 -1787.436)" fill="#d8dee8"/>
          <path id="Trazado_623163" data-name="Trazado 623163" d="M681.62,1816.163l-93.114,3.733v-6.807l93.114-3.307Z" transform="translate(-588.506 -1787.436)" fill="#d8dee8"/>
          <path id="Trazado_623164" data-name="Trazado 623164" d="M681.62,1827.336l-93.114,4.478v-6.807l93.114-4.052Z" transform="translate(-588.506 -1787.436)" fill="#d8dee8"/>
        </g>
        <g id="Grupo_894618" data-name="Grupo 894618" transform="translate(139.021 113.803)">
          <path id="Trazado_623165" data-name="Trazado 623165" d="M700.235,1793.37l-12.249.3v-6.353l12.249-.239Z" transform="translate(-687.986 -1787.073)" fill="#d8dee8"/>
          <path id="Trazado_623166" data-name="Trazado 623166" d="M700.235,1804.393l-12.249.393v-6.353l12.249-.337Z" transform="translate(-687.986 -1787.073)" fill="#d8dee8"/>
          <path id="Trazado_623167" data-name="Trazado 623167" d="M700.235,1815.417l-12.249.491v-6.353l12.249-.435Z" transform="translate(-687.986 -1787.073)" fill="#d8dee8"/>
          <path id="Trazado_623168" data-name="Trazado 623168" d="M700.235,1826.441l-12.249.589v-6.353l12.249-.533Z" transform="translate(-687.986 -1787.073)" fill="#d8dee8"/>
        </g>
        <g id="Grupo_894619" data-name="Grupo 894619" transform="translate(39.541 165.816)">
          <path id="Trazado_623169" data-name="Trazado 623169" d="M681.62,1845.467l-93.114,5.686v-6.807l93.114-5.261Z" transform="translate(-588.506 -1839.086)" fill="#d8dee8"/>
          <path id="Trazado_623170" data-name="Trazado 623170" d="M681.62,1856.64l-93.114,6.431v-6.807l93.114-6.006Z" transform="translate(-588.506 -1839.086)" fill="#d8dee8"/>
          <path id="Trazado_623171" data-name="Trazado 623171" d="M681.62,1867.813l-93.114,7.176v-6.807l93.114-6.751Z" transform="translate(-588.506 -1839.086)" fill="#d8dee8"/>
          <path id="Trazado_623172" data-name="Trazado 623172" d="M681.62,1878.986l-93.114,7.921V1880.1l93.114-7.5Z" transform="translate(-588.506 -1839.086)" fill="#d8dee8"/>
        </g>
        <g id="Grupo_894620" data-name="Grupo 894620" transform="translate(139.021 164.764)">
          <path id="Trazado_623173" data-name="Trazado 623173" d="M700.235,1844.331l-12.249.748v-6.353l12.249-.692Z" transform="translate(-687.986 -1838.034)" fill="#d8dee8"/>
          <path id="Trazado_623174" data-name="Trazado 623174" d="M700.235,1855.354l-12.249.846v-6.352l12.249-.79Z" transform="translate(-687.986 -1838.034)" fill="#d8dee8"/>
          <path id="Trazado_623175" data-name="Trazado 623175" d="M700.235,1866.378l-12.249.944v-6.353l12.249-.888Z" transform="translate(-687.986 -1838.034)" fill="#d8dee8"/>
          <path id="Trazado_623176" data-name="Trazado 623176" d="M700.235,1877.4l-12.249,1.042v-6.353l12.249-.986Z" transform="translate(-687.986 -1838.034)" fill="#d8dee8"/>
        </g>
        <g id="Grupo_894621" data-name="Grupo 894621" transform="translate(41.188 85.001)">
          <path id="Trazado_623177" data-name="Trazado 623177" d="M590.153,1758.271v6.537l41.285-.064V1758.3Z" transform="translate(-590.153 -1758.271)" fill="#d8dee8"/>
        </g>
        <g id="Grupo_894622" data-name="Grupo 894622" transform="translate(41.188 62.113)">
          <path id="Trazado_623178" data-name="Trazado 623178" d="M590.153,1735.383v6.536l41.285.251v-6.447Z" transform="translate(-590.153 -1735.383)" fill="#d8dee8"/>
        </g>
        <g id="Grupo_894623" data-name="Grupo 894623" transform="translate(41.188 73.557)">
          <path id="Trazado_623179" data-name="Trazado 623179" d="M590.153,1746.826v6.537l41.285.094v-6.447Z" transform="translate(-590.153 -1746.826)" fill="#d8dee8"/>
        </g>
      </g>
      <g id="Grupo_894635" data-name="Grupo 894635" transform="translate(583.183 1777.622)">
        <g id="Grupo_894627" data-name="Grupo 894627" transform="translate(1.652 10.792)">
          <path id="Trazado_623180" data-name="Trazado 623180" d="M642.784,1922.517a13.006,13.006,0,0,1-11.092-7.9l-27.03-64.926a11.348,11.348,0,0,1,6.232-14.975c5.959-2.389,15.247.425,17.772,6.4l27.73,65.63a11.1,11.1,0,0,1-6.552,15.083A27.013,27.013,0,0,1,642.784,1922.517Z" transform="translate(-584.835 -1788.414)" fill="url(#linear-gradient-4)"/>
          <path id="Trazado_623181" data-name="Trazado 623181" d="M607.57,1834.6c5.084-2.039,13.011.363,15.165,5.461l21.637,51.21c-3.621-.931-7.908-.847-12.023-4.455-6.85-6.007-3.48-13.7-8.909-20.561-2.482-3.134-7.074-6.434-16.422-7.427l-4.767-11.448A9.685,9.685,0,0,1,607.57,1834.6Z" transform="translate(-584.835 -1788.414)" fill="#97a6b7" opacity="0.3" style="mix-blend-mode: multiply;isolation: isolate"/>
          <path id="Trazado_623182" data-name="Trazado 623182" d="M593.683,1823.6a4.294,4.294,0,0,1,.59.042l14.259-.156v37.075l-13.769-.189a4.37,4.37,0,0,1-1.08.137c-4.887,0-8.848-8.262-8.848-18.454S588.8,1823.6,593.683,1823.6Z" transform="translate(-584.835 -1788.414)" fill="url(#linear-gradient-8)"/>
          <path id="Trazado_623183" data-name="Trazado 623183" d="M608.532,1823.487a44.442,44.442,0,0,0,0,37.075l106.067,34.1,1.095-104.058Z" transform="translate(-584.835 -1788.414)" fill="#0b5999"/>
          <path id="Trazado_623184" data-name="Trazado 623184" d="M685.966,1864.076c-10.085-3.82-13.218-18.451-24.927-18.943-9.187-.387-11.954,8.533-20.956,7.571-9.214-.985-10.762-10.919-21.081-14.421a23.961,23.961,0,0,0-14.364.048,45.266,45.266,0,0,0,3.894,22.231l106.067,34.1-6.275-35.331C697.866,1865.433,690.855,1865.929,685.966,1864.076Z" transform="translate(-584.835 -1788.414)" fill="#0b5999"/>
          <ellipse id="Elipse_6251" data-name="Elipse 6251" cx="25.801" cy="53.809" rx="25.801" ry="53.809" transform="translate(109.106)" fill="url(#linear-gradient-9)"/>
          <path id="Trazado_623185" data-name="Trazado 623185" d="M719.742,1894.207a13.347,13.347,0,0,0,8.835-3.772,34.139,34.139,0,0,0,7.762-10.952c4.758-9.922,7.378-23.154,7.378-37.26s-2.62-27.337-7.378-37.259a34.127,34.127,0,0,0-7.762-10.952,12.233,12.233,0,0,0-17.67,0,34.129,34.129,0,0,0-7.763,10.952,69.162,69.162,0,0,0-4.811,14c-1.679,7.136,3.174,14.586,3.174,22.793,0,8.727-4.737,17.583-2.846,25.065a67.866,67.866,0,0,0,4.483,12.657,34.142,34.142,0,0,0,7.763,10.952A13.345,13.345,0,0,0,719.742,1894.207Z" transform="translate(-584.835 -1788.414)" fill="url(#linear-gradient-10)"/>
          <g id="Grupo_894626" data-name="Grupo 894626" transform="translate(110.932 1.826)">
            <g id="Grupo_894625" data-name="Grupo 894625" clip-path="url(#clip-path-5)">
              <path id="Trazado_623186" data-name="Trazado 623186" d="M721.865,1842.929c0,13.633-9.027,24.458-20.005,24.182-10.809-.272-19.449-11.233-19.449-24.487s8.64-24.081,19.449-24.185C712.838,1818.332,721.865,1829.3,721.865,1842.929Z" transform="translate(-695.767 -1790.24)" fill="url(#linear-gradient-11)"/>
              <path id="Trazado_623187" data-name="Trazado 623187" d="M720.131,1842.708c0,10.123-4.4,18.161-9.748,17.956-5.266-.2-9.476-8.341-9.476-18.183s4.21-17.882,9.476-17.96C715.732,1824.443,720.131,1832.584,720.131,1842.708Z" transform="translate(-695.767 -1790.24)" opacity="0.3" fill="url(#linear-gradient-12)" style="mix-blend-mode: multiply;isolation: isolate"/>
            </g>
          </g>
        </g>
        <g id="Grupo_894628" data-name="Grupo 894628" transform="translate(0 16.929)">
          <rect id="Rectángulo_301216" data-name="Rectángulo 301216" width="10.567" height="127.37" transform="translate(105.106 16.4) rotate(38.715)" fill="url(#linear-gradient-13)"/>
          <path id="Trazado_623189" data-name="Trazado 623189" d="M652.58,1794.551a69.4,69.4,0,1,0,69.4,69.4A69.4,69.4,0,0,0,652.58,1794.551Zm0,126.9a57.5,57.5,0,1,1,57.5-57.5A57.5,57.5,0,0,1,652.58,1921.448Z" transform="translate(-583.183 -1794.551)" fill="url(#linear-gradient-14)"/>
        </g>
        <g id="Grupo_894629" data-name="Grupo 894629" transform="translate(4.77 15.55)">
          <rect id="Rectángulo_301217" data-name="Rectángulo 301217" width="10.567" height="127.37" transform="matrix(0.78, 0.625, -0.625, 0.78, 105.105, 16.401)" fill="url(#linear-gradient-15)"/>
          <path id="Trazado_623190" data-name="Trazado 623190" d="M657.349,1793.172a69.4,69.4,0,1,0,69.4,69.4A69.4,69.4,0,0,0,657.349,1793.172Zm0,126.9a57.5,57.5,0,1,1,57.5-57.5A57.5,57.5,0,0,1,657.349,1920.069Z" transform="translate(-587.953 -1793.172)" fill="url(#linear-gradient-16)"/>
        </g>
        <g id="Grupo_894634" data-name="Grupo 894634" transform="translate(34.868)">
          <g id="Grupo_894633" data-name="Grupo 894633" clip-path="url(#clip-path-6)">
            <g id="Grupo_894632" data-name="Grupo 894632" transform="translate(-33.216 10.792)">
              <path id="Trazado_623191" data-name="Trazado 623191" d="M634.783,1909.52a11.1,11.1,0,0,1-9.465-6.738l-23.067-55.406a9.685,9.685,0,0,1,5.319-12.78c5.084-2.039,13.011.363,15.165,5.461l23.664,56.007a9.47,9.47,0,0,1-5.59,12.872A23.082,23.082,0,0,1,634.783,1909.52Z" transform="translate(-584.835 -1788.414)" fill="url(#linear-gradient-4)"/>
              <path id="Trazado_623192" data-name="Trazado 623192" d="M607.57,1834.6c5.084-2.039,13.011.363,15.165,5.461l21.637,51.21c-3.621-.931-7.908-.847-12.023-4.455-6.85-6.007-3.48-13.7-8.909-20.561-2.482-3.134-7.074-6.434-16.422-7.427l-4.767-11.448A9.685,9.685,0,0,1,607.57,1834.6Z" transform="translate(-584.835 -1788.414)" fill="#97a6b7" opacity="0.3" style="mix-blend-mode: multiply;isolation: isolate"/>
              <path id="Trazado_623193" data-name="Trazado 623193" d="M593.683,1823.6a4.294,4.294,0,0,1,.59.042l14.259-.156v37.075l-13.769-.189a4.37,4.37,0,0,1-1.08.137c-4.887,0-8.848-8.262-8.848-18.454S588.8,1823.6,593.683,1823.6Z" transform="translate(-584.835 -1788.414)" fill="url(#linear-gradient-8)"/>
              <path id="Trazado_623194" data-name="Trazado 623194" d="M608.532,1823.487a44.442,44.442,0,0,0,0,37.075l106.067,34.1,1.095-104.058Z" transform="translate(-584.835 -1788.414)" fill="#0b5999"/>
              <path id="Trazado_623195" data-name="Trazado 623195" d="M685.966,1864.076c-10.085-3.82-13.218-18.451-24.927-18.943-9.187-.387-11.954,8.533-20.956,7.571-9.214-.985-10.762-10.919-21.081-14.421a23.961,23.961,0,0,0-14.364.048,45.266,45.266,0,0,0,3.894,22.231l106.067,34.1-6.275-35.331C697.866,1865.433,690.855,1865.929,685.966,1864.076Z" transform="translate(-584.835 -1788.414)" fill="#0b5999"/>
              <ellipse id="Elipse_6252" data-name="Elipse 6252" cx="25.801" cy="53.809" rx="25.801" ry="53.809" transform="translate(109.106)" fill="url(#linear-gradient-9)"/>
              <path id="Trazado_623196" data-name="Trazado 623196" d="M719.742,1894.207a13.347,13.347,0,0,0,8.835-3.772,34.139,34.139,0,0,0,7.762-10.952c4.758-9.922,7.378-23.154,7.378-37.26s-2.62-27.337-7.378-37.259a34.127,34.127,0,0,0-7.762-10.952,12.233,12.233,0,0,0-17.67,0,34.129,34.129,0,0,0-7.763,10.952,69.162,69.162,0,0,0-4.811,14c-1.679,7.136,3.174,14.586,3.174,22.793,0,8.727-4.737,17.583-2.846,25.065a67.866,67.866,0,0,0,4.483,12.657,34.142,34.142,0,0,0,7.763,10.952A13.345,13.345,0,0,0,719.742,1894.207Z" transform="translate(-584.835 -1788.414)" fill="url(#linear-gradient-10)"/>
              <g id="Grupo_894631" data-name="Grupo 894631" transform="translate(110.932 1.826)">
                <g id="Grupo_894630" data-name="Grupo 894630" clip-path="url(#clip-path-5)">
                  <path id="Trazado_623197" data-name="Trazado 623197" d="M721.865,1842.929c0,13.633-9.027,24.458-20.005,24.182-10.809-.272-19.449-11.233-19.449-24.487s8.64-24.081,19.449-24.185C712.838,1818.332,721.865,1829.3,721.865,1842.929Z" transform="translate(-695.767 -1790.24)" fill="url(#linear-gradient-11)"/>
                  <path id="Trazado_623198" data-name="Trazado 623198" d="M720.131,1842.708c0,10.123-4.4,18.161-9.748,17.956-5.266-.2-9.476-8.341-9.476-18.183s4.21-17.882,9.476-17.96C715.732,1824.443,720.131,1832.584,720.131,1842.708Z" transform="translate(-695.767 -1790.24)" opacity="0.3" fill="url(#linear-gradient-12)" style="mix-blend-mode: multiply;isolation: isolate"/>
                </g>
              </g>
            </g>
          </g>
        </g>
      </g>
      <path id="Trazado_623201" data-name="Trazado 623201" d="M662.249,1763.653a2.775,2.775,0,0,1-1.851-.874c-2.352-2.161-2.96-5.481-3.125-8.64-1.085,1.215-2.2,2.4-3.293,3.567l-.608-.57c1.289-1.373,2.6-2.766,3.857-4.2a93.6,93.6,0,0,1,.593-13,26.927,26.927,0,0,1,1.889-7.972,6.46,6.46,0,0,1,2.009-2.7,3.14,3.14,0,0,1,3.46-.2,4.161,4.161,0,0,1,1.482,3.044c.728,5.658-1.479,10.843-3.459,14.2a47.313,47.313,0,0,1-5.133,6.934c.1,3.233.546,6.775,2.891,8.93a1.953,1.953,0,0,0,1.327.654c.662-.024,1.2-.666,1.633-1.29a35.428,35.428,0,0,0,4.6-9.186,9.68,9.68,0,0,1,.819-2.846l.782.274q-.339,1.4-.785,2.757a8.859,8.859,0,0,0,.107,2.781c.1.487.508,2.091,1.693,2.317.884.167,1.8-.5,2.823-2.048l4.171-6.34-.527,2.27c-.186.8-.5,2.714.62,3.174.637.263,1.31-.116,2.089-.556a4.041,4.041,0,0,1,2.485-.766l.43.057-.074.427c-.042.244-.379,2.39.734,2.636.51.113.936-.24,1.579-.834a4.033,4.033,0,0,1,1.713-1.115l.2.809a3.4,3.4,0,0,0-1.344.918,2.647,2.647,0,0,1-2.324,1.036c-1.268-.28-1.579-1.709-1.442-3.1a4.846,4.846,0,0,0-1.544.661,3.213,3.213,0,0,1-2.815.6,2.384,2.384,0,0,1-1.319-2.355l-1.932,2.938c-.78,1.186-2.008,2.728-3.675,2.409-1.144-.218-2.024-1.329-2.354-2.972-.045-.229-.083-.46-.112-.691a36.2,36.2,0,0,1-3.915,7.224,3.184,3.184,0,0,1-2.284,1.645Zm1.45-34.195a2.717,2.717,0,0,0-1.5.486,5.685,5.685,0,0,0-1.726,2.361,26.2,26.2,0,0,0-1.821,7.726,92.689,92.689,0,0,0-.606,11.956,44.459,44.459,0,0,0,4.441-6.11c1.914-3.241,4.048-8.243,3.351-13.666a3.271,3.271,0,0,0-1.121-2.46A1.8,1.8,0,0,0,663.7,1729.458Z" transform="translate(0 0)" fill="#06355c"/>
    </g>
  </g>
</svg>
