<svg xmlns="http://www.w3.org/2000/svg" xmlns:xlink="http://www.w3.org/1999/xlink" width="153" height="153" viewBox="0 0 153 153">
  <defs>
    <filter id="Elipse_5219" x="0" y="0" width="153" height="153" filterUnits="userSpaceOnUse">
      <feOffset dy="3" input="SourceAlpha"/>
      <feGaussianBlur stdDeviation="3" result="blur"/>
      <feFlood flood-opacity="0.161"/>
      <feComposite operator="in" in2="blur"/>
      <feComposite in="SourceGraphic"/>
    </filter>
  </defs>
  <g id="Grupo_895199" data-name="Grupo 895199" transform="translate(-1080 -643.926)">
    <g transform="matrix(1, 0, 0, 1, 1080, 643.93)" filter="url(#Elipse_5219)">
      <g id="Elipse_5219-2" data-name="Elipse 5219" transform="translate(9 6)" fill="#fff" stroke="#fecb2f" stroke-width="3">
        <circle cx="67.5" cy="67.5" r="67.5" stroke="none"/>
        <circle cx="67.5" cy="67.5" r="66" fill="none"/>
      </g>
    </g>
    <g id="Grupo_881007" data-name="Grupo 881007" transform="translate(1110.068 671.018)">
      <g id="Grupo_881006" data-name="Grupo 881006" transform="translate(0 0)">
        <g id="Grupo_880986" data-name="Grupo 880986" transform="translate(0 0.36)">
          <g id="Grupo_880985" data-name="Grupo 880985">
            <path id="Trazado_622359" data-name="Trazado 622359" d="M1174.239,1262.843a46.109,46.109,0,1,1,46.11-46.109A46.161,46.161,0,0,1,1174.239,1262.843Zm0-90.694a44.585,44.585,0,1,0,44.587,44.584A44.634,44.634,0,0,0,1174.239,1172.15Z" transform="translate(-1128.131 -1170.626)" fill="#2d2d2a"/>
          </g>
        </g>
        <g id="Grupo_880989" data-name="Grupo 880989" transform="translate(22.134 0.36)">
          <g id="Grupo_880988" data-name="Grupo 880988">
            <g id="Grupo_880987" data-name="Grupo 880987">
              <path id="Trazado_622360" data-name="Trazado 622360" d="M1171,1262.843c-7.929,0-15.325-7.474-19.785-20a.761.761,0,0,1,.491-.981,3.947,3.947,0,0,0,1.816-6.337,3.938,3.938,0,0,0-3.005-1.386,3.84,3.84,0,0,0-.911.1.775.775,0,0,1-.588-.1.762.762,0,0,1-.337-.491,85.053,85.053,0,0,1-1.654-16.922,83.4,83.4,0,0,1,1.855-17.852.761.761,0,0,1,.917-.577,3.972,3.972,0,0,0,4.871-3.192,4.183,4.183,0,0,0,.052-.635,3.949,3.949,0,0,0-2.7-3.761.763.763,0,0,1-.474-.988c4.545-12.14,11.637-19.1,19.457-19.1,8.2,0,15.729,7.861,20.149,21.027.269.812.519,1.623.766,2.465a.766.766,0,0,1,.1.355,82.152,82.152,0,0,1,2.956,22.26,84.976,84.976,0,0,1-1.651,16.9.762.762,0,0,1-.932.586,3.638,3.638,0,0,0-.9-.1,3.953,3.953,0,0,0-1.182,7.726.761.761,0,0,1,.486.98C1186.337,1255.359,1178.936,1262.843,1171,1262.843Zm-18.1-19.818c4.251,11.47,10.984,18.295,18.1,18.295s13.859-6.831,18.115-18.319a5.475,5.475,0,0,1,2.38-10.407c.164,0,.324.007.479.02a83.852,83.852,0,0,0,1.477-15.88,80.93,80.93,0,0,0-2.762-21.36,111.672,111.672,0,0,1-19.357,1.749h-.2a.146.146,0,0,1-.022,0h0a111.6,111.6,0,0,1-15.108-1.038,5.455,5.455,0,0,1-5.788,3.83,82.36,82.36,0,0,0-1.667,16.819,83.937,83.937,0,0,0,1.479,15.9c.158-.012.321-.019.487-.019a5.481,5.481,0,0,1,5.408,6.356A5.558,5.558,0,0,1,1152.9,1243.026Zm18.213-47.426a109.963,109.963,0,0,0,19.151-1.7c-.182-.6-.364-1.183-.559-1.767-4.2-12.514-11.193-19.986-18.7-19.986-6.9,0-13.511,6.5-17.769,17.427a5.472,5.472,0,0,1,3.014,4.9c0,.035,0,.069,0,.1a110.132,110.132,0,0,0,14.869,1.019Z" transform="translate(-1147.03 -1170.626)" fill="#2d2d2a"/>
            </g>
          </g>
        </g>
        <g id="Grupo_880991" data-name="Grupo 880991" transform="translate(0 45.706)">
          <g id="Grupo_880990" data-name="Grupo 880990">
            <path id="Trazado_622361" data-name="Trazado 622361" d="M1219.587,1210.869h-90.694a.762.762,0,1,1,0-1.524h90.694a.762.762,0,1,1,0,1.524Z" transform="translate(-1128.131 -1209.345)" fill="#2d2d2a"/>
          </g>
        </g>
        <g id="Grupo_880993" data-name="Grupo 880993" transform="translate(45.346 0.36)">
          <g id="Grupo_880992" data-name="Grupo 880992">
            <path id="Trazado_622362" data-name="Trazado 622362" d="M1167.611,1262.843a.761.761,0,0,1-.762-.761v-90.694a.762.762,0,1,1,1.524,0v90.694A.761.761,0,0,1,1167.611,1262.843Z" transform="translate(-1166.849 -1170.626)" fill="#2d2d2a"/>
          </g>
        </g>
        <g id="Grupo_880995" data-name="Grupo 880995" transform="translate(8.589 18.733)">
          <g id="Grupo_880994" data-name="Grupo 880994">
            <path id="Trazado_622363" data-name="Trazado 622363" d="M1152.75,1197.257a5.473,5.473,0,0,1-5.469-5.465c0-.123,0-.247.014-.371-3.752-.88-7.554-1.961-11.31-3.216a.761.761,0,0,1,.483-1.444c3.7,1.237,7.443,2.3,11.14,3.169a5.472,5.472,0,0,1,10.62,1.862c0,.035,0,.069,0,.1a111.261,111.261,0,0,0,51.27-5.133.761.761,0,0,1,.49,1.442,112.755,112.755,0,0,1-52,5.2A5.446,5.446,0,0,1,1152.75,1197.257Zm-3.863-6.26a3.9,3.9,0,0,0-.083.8,3.951,3.951,0,0,0,7.848.636h0a4.159,4.159,0,0,0,.051-.635,3.948,3.948,0,0,0-7.814-.808Z" transform="translate(-1135.465 -1186.314)" fill="#2d2d2a"/>
          </g>
        </g>
        <g id="Grupo_880997" data-name="Grupo 880997" transform="translate(8.589 65.129)">
          <g id="Grupo_880996" data-name="Grupo 880996">
            <path id="Trazado_622364" data-name="Trazado 622364" d="M1209.741,1233.652a.754.754,0,0,1-.245-.042,120.219,120.219,0,0,0-11.582-3.3.761.761,0,1,1,.341-1.484c3.818.878,7.765,2,11.731,3.347a.762.762,0,0,1-.245,1.483Zm-73.515,0a.762.762,0,0,1-.242-1.484c3.933-1.319,7.879-2.436,11.728-3.321a.762.762,0,1,1,.341,1.485c-3.8.874-7.7,1.977-11.584,3.279A.744.744,0,0,1,1136.226,1233.652Zm20.915-5.04a.762.762,0,0,1-.109-1.516,110.629,110.629,0,0,1,31.9-.025.762.762,0,0,1-.22,1.508,108.934,108.934,0,0,0-31.461.023A.869.869,0,0,1,1157.141,1228.612Z" transform="translate(-1135.465 -1225.928)" fill="#2d2d2a"/>
          </g>
        </g>
        <g id="Grupo_880999" data-name="Grupo 880999" transform="translate(61.125 62.328)">
          <g id="Grupo_880998" data-name="Grupo 880998">
            <path id="Trazado_622365" data-name="Trazado 622365" d="M1185.8,1234.483a5.469,5.469,0,1,1,5.4-4.585A5.485,5.485,0,0,1,1185.8,1234.483Zm0-9.422a3.956,3.956,0,1,0,3,1.393A3.952,3.952,0,0,0,1185.8,1225.061Z" transform="translate(-1180.322 -1223.537)" fill="#2d2d2a"/>
          </g>
        </g>
        <g id="Grupo_881001" data-name="Grupo 881001" transform="translate(20.147 62.353)">
          <g id="Grupo_881000" data-name="Grupo 881000">
            <path id="Trazado_622366" data-name="Trazado 622366" d="M1150.811,1234.5a5.466,5.466,0,1,1,5.408-4.587A5.484,5.484,0,0,1,1150.811,1234.5Zm0-9.42a3.959,3.959,0,1,0,3.005,1.385A3.952,3.952,0,0,0,1150.811,1225.083Z" transform="translate(-1145.333 -1223.559)" fill="#2d2d2a"/>
          </g>
        </g>
        <g id="Grupo_881003" data-name="Grupo 881003" transform="translate(5.784)">
          <g id="Grupo_881002" data-name="Grupo 881002">
            <path id="Trazado_622367" data-name="Trazado 622367" d="M1212.958,1171.841h-79.127a.761.761,0,0,1,0-1.523h79.127a.761.761,0,0,1,0,1.523Z" transform="translate(-1133.07 -1170.319)" fill="#2d2d2a"/>
          </g>
        </g>
        <g id="Grupo_881005" data-name="Grupo 881005" transform="translate(5.784 91.128)">
          <g id="Grupo_881004" data-name="Grupo 881004">
            <path id="Trazado_622368" data-name="Trazado 622368" d="M1212.958,1249.652h-79.127a.762.762,0,0,1,0-1.524h79.127a.762.762,0,0,1,0,1.524Z" transform="translate(-1133.07 -1248.128)" fill="#2d2d2a"/>
          </g>
        </g>
      </g>
    </g>
  </g>
</svg>
