<svg xmlns="http://www.w3.org/2000/svg" xmlns:xlink="http://www.w3.org/1999/xlink" width="153" height="153" viewBox="0 0 153 153">
  <defs>
    <filter id="Elipse_5220" x="0" y="0" width="153" height="153" filterUnits="userSpaceOnUse">
      <feOffset dy="3" input="SourceAlpha"/>
      <feGaussianBlur stdDeviation="3" result="blur"/>
      <feFlood flood-opacity="0.161"/>
      <feComposite operator="in" in2="blur"/>
      <feComposite in="SourceGraphic"/>
    </filter>
  </defs>
  <g id="Grupo_895200" data-name="Grupo 895200" transform="translate(6224 11483.071)">
    <g transform="matrix(1, 0, 0, 1, -6224, -11483.07)" filter="url(#Elipse_5220)">
      <g id="Elipse_5220-2" data-name="Elipse 5220" transform="translate(9 6)" fill="#fff" stroke="#fecb2f" stroke-width="3">
        <circle cx="67.5" cy="67.5" r="67.5" stroke="none"/>
        <circle cx="67.5" cy="67.5" r="66" fill="none"/>
      </g>
    </g>
    <g id="Grupo_881153" data-name="Grupo 881153" transform="translate(-6191 -11452.071)">
      <g id="Grupo_881152" data-name="Grupo 881152" transform="translate(0 0)">
        <g id="Grupo_881128" data-name="Grupo 881128" transform="translate(6.244 13.264)">
          <g id="Grupo_881127" data-name="Grupo 881127">
            <path id="Trazado_622425" data-name="Trazado 622425" d="M1436.254,1225.627h-72.9a.714.714,0,0,1-.714-.713v-42.694a.714.714,0,0,1,.714-.713h72.9a.714.714,0,0,1,.714.713v42.694A.714.714,0,0,1,1436.254,1225.627Zm-72.19-1.428h71.477v-41.266h-71.477Z" transform="translate(-1362.636 -1181.506)" fill="#2d2d2a"/>
          </g>
        </g>
        <g id="Grupo_881130" data-name="Grupo 881130" transform="translate(0 7.119)">
          <g id="Grupo_881129" data-name="Grupo 881129">
            <path id="Trazado_622426" data-name="Trazado 622426" d="M1443.044,1183.479h-85.385a.713.713,0,0,1-.713-.714v-6.144a.713.713,0,0,1,.713-.714h85.385a.713.713,0,0,1,.713.714v6.144A.713.713,0,0,1,1443.044,1183.479Zm-84.67-1.428h83.956v-4.717h-83.956Z" transform="translate(-1356.946 -1175.906)" fill="#2d2d2a"/>
          </g>
        </g>
        <g id="Grupo_881132" data-name="Grupo 881132" transform="translate(56.892 23.412)">
          <g id="Grupo_881131" data-name="Grupo 881131">
            <path id="Trazado_622427" data-name="Trazado 622427" d="M1414.623,1218.179H1409.5a.713.713,0,0,1-.713-.713v-26a.713.713,0,0,1,.713-.713h5.119a.713.713,0,0,1,.713.713v26A.713.713,0,0,1,1414.623,1218.179Zm-4.406-1.428h3.693v-24.569h-3.693Z" transform="translate(-1408.791 -1190.754)" fill="#2d2d2a"/>
          </g>
        </g>
        <g id="Grupo_881134" data-name="Grupo 881134" transform="translate(48.514 26.63)">
          <g id="Grupo_881133" data-name="Grupo 881133">
            <path id="Trazado_622428" data-name="Trazado 622428" d="M1406.987,1217.893h-5.118a.713.713,0,0,1-.713-.713V1194.4a.713.713,0,0,1,.713-.713h5.118a.714.714,0,0,1,.714.713v22.78A.714.714,0,0,1,1406.987,1217.893Zm-4.4-1.428h3.69v-21.352h-3.69Z" transform="translate(-1401.156 -1193.687)" fill="#2d2d2a"/>
          </g>
        </g>
        <g id="Grupo_881136" data-name="Grupo 881136" transform="translate(40.139 29.768)">
          <g id="Grupo_881135" data-name="Grupo 881135">
            <path id="Trazado_622429" data-name="Trazado 622429" d="M1399.355,1217.615h-5.118a.713.713,0,0,1-.713-.713v-19.642a.713.713,0,0,1,.713-.713h5.118a.714.714,0,0,1,.714.713V1216.9A.714.714,0,0,1,1399.355,1217.615Zm-4.4-1.428h3.69v-18.214h-3.69Z" transform="translate(-1393.524 -1196.546)" fill="#2d2d2a"/>
          </g>
        </g>
        <g id="Grupo_881138" data-name="Grupo 881138" transform="translate(31.759 34.133)">
          <g id="Grupo_881137" data-name="Grupo 881137">
            <path id="Trazado_622430" data-name="Trazado 622430" d="M1391.722,1217.228H1386.6a.714.714,0,0,1-.714-.713v-15.277a.713.713,0,0,1,.714-.713h5.119a.713.713,0,0,1,.713.713v15.277A.713.713,0,0,1,1391.722,1217.228Zm-4.406-1.428h3.692v-13.85h-3.692Z" transform="translate(-1385.888 -1200.524)" fill="#2d2d2a"/>
          </g>
        </g>
        <g id="Grupo_881140" data-name="Grupo 881140" transform="translate(23.381 38.678)">
          <g id="Grupo_881139" data-name="Grupo 881139">
            <path id="Trazado_622431" data-name="Trazado 622431" d="M1384.085,1216.825h-5.118a.714.714,0,0,1-.714-.713V1205.38a.714.714,0,0,1,.714-.714h5.118a.714.714,0,0,1,.713.714v10.731A.713.713,0,0,1,1384.085,1216.825Zm-4.4-1.428h3.69v-9.3h-3.69Z" transform="translate(-1378.253 -1204.666)" fill="#2d2d2a"/>
          </g>
        </g>
        <g id="Grupo_881142" data-name="Grupo 881142" transform="translate(19.903 52.578)">
          <g id="Grupo_881141" data-name="Grupo 881141">
            <path id="Trazado_622432" data-name="Trazado 622432" d="M1421.385,1218.761H1375.8a.714.714,0,0,1,0-1.428h45.588a.714.714,0,0,1,0,1.428Z" transform="translate(-1375.083 -1217.333)" fill="#2d2d2a"/>
          </g>
        </g>
        <g id="Grupo_881144" data-name="Grupo 881144" transform="translate(23.393 17.187)">
          <g id="Grupo_881143" data-name="Grupo 881143">
            <path id="Trazado_622433" data-name="Trazado 622433" d="M1378.979,1203.464a.713.713,0,0,1-.241-1.385c.191-.069,19.262-7.011,27.626-16.749a.713.713,0,1,1,1.082.929c-8.611,10.024-27.428,16.875-28.226,17.161A.709.709,0,0,1,1378.979,1203.464Z" transform="translate(-1378.264 -1185.081)" fill="#2d2d2a"/>
          </g>
        </g>
        <g id="Grupo_881146" data-name="Grupo 881146" transform="translate(47.188 17.307)">
          <g id="Grupo_881145" data-name="Grupo 881145">
            <path id="Trazado_622434" data-name="Trazado 622434" d="M1404.693,1190.862a.714.714,0,0,1-.713-.714v-3.527l-3.315.018h0a.714.714,0,0,1,0-1.428l4.032-.02a.714.714,0,0,1,.717.713v4.244A.713.713,0,0,1,1404.693,1190.862Z" transform="translate(-1399.948 -1185.191)" fill="#2d2d2a"/>
          </g>
        </g>
        <g id="Grupo_881148" data-name="Grupo 881148" transform="translate(39.927)">
          <g id="Grupo_881147" data-name="Grupo 881147">
            <path id="Trazado_622435" data-name="Trazado 622435" d="M1399.586,1177.965h-5.542a.713.713,0,0,1-.713-.713v-4.343a3.484,3.484,0,1,1,6.968,0v4.343A.713.713,0,0,1,1399.586,1177.965Zm-4.828-1.428h4.114v-3.629a2.057,2.057,0,1,0-4.114,0Z" transform="translate(-1393.331 -1169.419)" fill="#2d2d2a"/>
          </g>
        </g>
        <g id="Grupo_881151" data-name="Grupo 881151" transform="translate(9.041 61.92)">
          <g id="Grupo_881150" data-name="Grupo 881150">
            <g id="Grupo_881149" data-name="Grupo 881149">
              <path id="Trazado_622436" data-name="Trazado 622436" d="M1433.208,1248.322a.713.713,0,0,1-.713-.713v-3.288a4.651,4.651,0,0,0-4.644-4.647h-7.735a4.653,4.653,0,0,0-4.647,4.647v3.288a.713.713,0,0,1-1.427,0v-3.288a6.081,6.081,0,0,1,6.074-6.074h7.735a6.08,6.08,0,0,1,6.072,6.074v3.288A.713.713,0,0,1,1433.208,1248.322Zm-25.374,0a.713.713,0,0,1-.713-.713v-3.288a4.652,4.652,0,0,0-4.645-4.647h-7.734a4.653,4.653,0,0,0-4.647,4.647v3.288a.714.714,0,0,1-1.428,0v-3.288a6.082,6.082,0,0,1,6.075-6.074h7.734a6.081,6.081,0,0,1,6.073,6.074v3.288A.713.713,0,0,1,1407.835,1248.322Zm-23.482,0a.713.713,0,0,1-.714-.713v-3.288a4.651,4.651,0,0,0-4.644-4.647h-7.737a4.651,4.651,0,0,0-4.644,4.647v3.288a.714.714,0,0,1-1.428,0v-3.288a6.079,6.079,0,0,1,6.072-6.074h7.737a6.08,6.08,0,0,1,6.072,6.074v3.288A.713.713,0,0,1,1384.353,1248.322Zm39.495-11a5.737,5.737,0,1,1,5.742-5.733A5.744,5.744,0,0,1,1423.847,1237.321Zm-4.3-5.368a4.316,4.316,0,0,0,8.616-.364,4.179,4.179,0,0,0-.027-.484,8.12,8.12,0,0,0-8.589.848Zm.118-1.428a4.287,4.287,0,0,0,4.254-1.657.706.706,0,0,1,.482-.281.7.7,0,0,1,.537.152,4.515,4.515,0,0,0,2.789.96,4.315,4.315,0,0,0-8.062.825Zm-21.191,6.8a5.737,5.737,0,1,1,5.528-7.287.709.709,0,0,1,.037.126c0,.016.006.031.009.046a5.737,5.737,0,0,1-5.574,7.115Zm-4.3-5.369a4.316,4.316,0,0,0,8.616-.363,4.155,4.155,0,0,0-.027-.483,5.691,5.691,0,0,1-3.513-.853A5.748,5.748,0,0,1,1394.173,1231.952Zm.117-1.428a4.309,4.309,0,0,0,4.266-1.656.713.713,0,0,1,1.018-.128,2.789,2.789,0,1,0-5.285,1.784Zm-19.3,6.8a5.737,5.737,0,1,1,5.743-5.733A5.745,5.745,0,0,1,1374.991,1237.321Zm-4.3-5.369a4.316,4.316,0,0,0,8.615-.363,4.379,4.379,0,0,0-.026-.484,8.122,8.122,0,0,0-8.589.847Zm.116-1.426a4.269,4.269,0,0,0,4.255-1.657.712.712,0,0,1,1.018-.128,4.5,4.5,0,0,0,2.79.96,4.316,4.316,0,0,0-8.063.825Z" transform="translate(-1365.185 -1225.846)" fill="#2d2d2a"/>
            </g>
          </g>
        </g>
      </g>
    </g>
  </g>
</svg>
