<svg xmlns="http://www.w3.org/2000/svg" xmlns:xlink="http://www.w3.org/1999/xlink" width="153" height="153" viewBox="0 0 153 153">
  <defs>
    <filter id="Elipse_5221" x="0" y="0" width="153" height="153" filterUnits="userSpaceOnUse">
      <feOffset dy="3" input="SourceAlpha"/>
      <feGaussianBlur stdDeviation="3" result="blur"/>
      <feFlood flood-opacity="0.161"/>
      <feComposite operator="in" in2="blur"/>
      <feComposite in="SourceGraphic"/>
    </filter>
  </defs>
  <g id="Grupo_895201" data-name="Grupo 895201" transform="translate(5873 11483.071)">
    <g transform="matrix(1, 0, 0, 1, -5873, -11483.07)" filter="url(#Elipse_5221)">
      <g id="Elipse_5221-2" data-name="Elipse 5221" transform="translate(9 6)" fill="#fff" stroke="#fecb2f" stroke-width="3">
        <circle cx="67.5" cy="67.5" r="67.5" stroke="none"/>
        <circle cx="67.5" cy="67.5" r="66" fill="none"/>
      </g>
    </g>
    <circle id="Elipse_5222" data-name="Elipse 5222" cx="6.5" cy="6.5" r="6.5" transform="translate(-5818 -11383.07)" fill="#fff"/>
    <g id="Grupo_881317" data-name="Grupo 881317" transform="translate(-5834 -11456.071)">
      <g id="Grupo_881316" data-name="Grupo 881316" transform="translate(0 0)">
        <g id="Grupo_881294" data-name="Grupo 881294" transform="translate(17.126 22.239)">
          <g id="Grupo_881293" data-name="Grupo 881293">
            <path id="Trazado_622527" data-name="Trazado 622527" d="M1537.417,1216.168h-38.239a.757.757,0,0,1-.756-.757v-14.063a.757.757,0,0,1,.479-.7l13.139-5.164a.759.759,0,0,1,.8.158l5.257,5.054,5.667-5.072a.754.754,0,0,1,.781-.141l13.148,5.164a.755.755,0,0,1,.482.7v14.063A.757.757,0,0,1,1537.417,1216.168Zm-37.482-1.513h36.726v-12.791l-12.236-4.8-5.842,5.228a.757.757,0,0,1-1.029-.017l-5.414-5.2-12.205,4.8Z" transform="translate(-1498.422 -1195.429)" fill="#2d2d2a"/>
          </g>
        </g>
        <g id="Grupo_881296" data-name="Grupo 881296" transform="translate(23.567 32.618)">
          <g id="Grupo_881295" data-name="Grupo 881295">
            <path id="Trazado_622528" data-name="Trazado 622528" d="M1530.069,1214.678h-25.356a.756.756,0,0,1-.757-.756V1205.1a.756.756,0,0,1,1.513,0v8.061h23.843V1205.1a.756.756,0,0,1,1.513,0v8.818A.756.756,0,0,1,1530.069,1214.678Z" transform="translate(-1503.957 -1204.347)" fill="#2d2d2a"/>
          </g>
        </g>
        <g id="Grupo_881298" data-name="Grupo 881298" transform="translate(29.918 22.239)">
          <g id="Grupo_881297" data-name="Grupo 881297">
            <path id="Trazado_622529" data-name="Trazado 622529" d="M1522.823,1203.689h-12.652a.756.756,0,0,1-.757-.756v-6.747a.756.756,0,1,1,1.513,0v5.991h11.14v-5.991a.756.756,0,0,1,1.513,0v6.747A.757.757,0,0,1,1522.823,1203.689Z" transform="translate(-1509.414 -1195.429)" fill="#2d2d2a"/>
          </g>
        </g>
        <g id="Grupo_881300" data-name="Grupo 881300" transform="translate(34.344 28.987)">
          <g id="Grupo_881299" data-name="Grupo 881299">
            <path id="Trazado_622530" data-name="Trazado 622530" d="M1517.777,1207.142h-3.8a.757.757,0,0,1-.758-.756v-4.4a.756.756,0,0,1,.758-.756h3.8a.757.757,0,0,1,.758.756v4.4A.757.757,0,0,1,1517.777,1207.142Zm-3.046-1.513h2.289v-2.89h-2.289Z" transform="translate(-1513.217 -1201.227)" fill="#2d2d2a"/>
          </g>
        </g>
        <g id="Grupo_881302" data-name="Grupo 881302" transform="translate(32.394 33.389)">
          <g id="Grupo_881301" data-name="Grupo 881301">
            <path id="Trazado_622531" data-name="Trazado 622531" d="M1519.6,1214.6h-7.3a.757.757,0,0,1-.736-.934l1.951-8.075a.757.757,0,0,1,.735-.58h3.8a.759.759,0,0,1,.744.614l1.551,8.075a.758.758,0,0,1-.744.9Zm-6.344-1.513h5.428l-1.26-6.563h-2.582Z" transform="translate(-1511.542 -1205.01)" fill="#2d2d2a"/>
          </g>
        </g>
        <g id="Grupo_881304" data-name="Grupo 881304" transform="translate(26.935)">
          <g id="Grupo_881303" data-name="Grupo 881303">
            <path id="Trazado_622532" data-name="Trazado 622532" d="M1517.085,1196.784a10.232,10.232,0,1,1,10.245-10.233A10.245,10.245,0,0,1,1517.085,1196.784Zm0-18.952a8.719,8.719,0,1,0,8.73,8.719A8.729,8.729,0,0,0,1517.085,1177.832Z" transform="translate(-1506.851 -1176.319)" fill="#2d2d2a"/>
          </g>
        </g>
        <g id="Grupo_881306" data-name="Grupo 881306" transform="translate(37.388 5.358)">
          <g id="Grupo_881305" data-name="Grupo 881305">
            <path id="Trazado_622533" data-name="Trazado 622533" d="M1522.806,1184.382a10.951,10.951,0,0,1-6.68-2.1.757.757,0,0,1,.925-1.2,10.143,10.143,0,0,0,7.625,1.628.757.757,0,1,1,.26,1.491A12.5,12.5,0,0,1,1522.806,1184.382Z" transform="translate(-1515.833 -1180.922)" fill="#2d2d2a"/>
          </g>
        </g>
        <g id="Grupo_881308" data-name="Grupo 881308" transform="translate(27.445 1.075)">
          <g id="Grupo_881307" data-name="Grupo 881307">
            <path id="Trazado_622534" data-name="Trazado 622534" d="M1512.022,1184.8a11.752,11.752,0,0,1-4.249-.761.757.757,0,0,1,.545-1.412,10.247,10.247,0,0,0,3.7.66c4.248,0,7.7-2.373,7.7-5.291a.757.757,0,0,1,1.514,0C1521.239,1181.75,1517.1,1184.8,1512.022,1184.8Z" transform="translate(-1507.289 -1177.243)" fill="#2d2d2a"/>
          </g>
        </g>
        <g id="Grupo_881311" data-name="Grupo 881311" transform="translate(0 67.887)">
          <g id="Grupo_881310" data-name="Grupo 881310">
            <g id="Grupo_881309" data-name="Grupo 881309">
              <path id="Trazado_622535" data-name="Trazado 622535" d="M1556.954,1258.83a.757.757,0,0,1-.757-.756v-3.541a5.018,5.018,0,0,0-5.018-5.006h-8.329a5.018,5.018,0,0,0-5.018,5.006v3.541a.756.756,0,1,1-1.513,0v-3.541a6.533,6.533,0,0,1,6.531-6.519h8.329a6.533,6.533,0,0,1,6.531,6.519v3.541A.757.757,0,0,1,1556.954,1258.83Zm-27.325,0a.756.756,0,0,1-.756-.756v-3.541a5.016,5.016,0,0,0-5.013-5.006h-8.333a5.015,5.015,0,0,0-5.013,5.006v3.541a.757.757,0,0,1-1.514,0v-3.541a6.532,6.532,0,0,1,6.527-6.519h8.333a6.532,6.532,0,0,1,6.527,6.519v3.541A.757.757,0,0,1,1529.629,1258.83Zm-25.292,0a.756.756,0,0,1-.756-.756v-3.541a5.017,5.017,0,0,0-5.015-5.006h-8.334a5.016,5.016,0,0,0-5.014,5.006v3.541a.756.756,0,1,1-1.513,0v-3.541a6.531,6.531,0,0,1,6.526-6.519h8.334a6.531,6.531,0,0,1,6.526,6.519v3.541A.756.756,0,0,1,1504.337,1258.83Zm42.532-11.839a6.169,6.169,0,1,1,6.174-6.177A6.184,6.184,0,0,1,1546.869,1246.991Zm-4.647-5.786a4.661,4.661,0,0,0,9.307-.391,4.61,4.61,0,0,0-.029-.522,8.812,8.812,0,0,0-9.277.913Zm.121-1.514a4.679,4.679,0,0,0,4.623-1.786.757.757,0,0,1,1.082-.129,4.746,4.746,0,0,0,3.02,1.024,4.666,4.666,0,0,0-8.725.892Zm-22.8,7.3a6.169,6.169,0,1,1,6.176-6.177A6.184,6.184,0,0,1,1519.545,1246.991Zm-4.647-5.786a4.663,4.663,0,0,0,9.309-.391,4.912,4.912,0,0,0-.028-.522,8.818,8.818,0,0,0-9.281.913Zm.122-1.515a4.6,4.6,0,0,0,.892.085,4.669,4.669,0,0,0,3.726-1.867.756.756,0,0,1,.513-.3.768.768,0,0,1,.57.164,3.009,3.009,0,1,0-5.7,1.916Zm-20.769,7.3a6.169,6.169,0,1,1,6.175-6.177A6.183,6.183,0,0,1,1494.252,1246.991Zm-4.647-5.786a4.663,4.663,0,0,0,9.309-.391,4.582,4.582,0,0,0-.029-.522,6.239,6.239,0,0,1-3.8-.911,6.186,6.186,0,0,1-5.475,1.825Zm.121-1.515a4.667,4.667,0,0,0,4.62-1.782.758.758,0,0,1,.511-.3.749.749,0,0,1,.569.162,3.008,3.008,0,1,0-5.7,1.918Z" transform="translate(-1483.706 -1234.653)" fill="#2d2d2a"/>
            </g>
          </g>
        </g>
        <g id="Grupo_881313" data-name="Grupo 881313" transform="translate(9.751 53.184)">
          <g id="Grupo_881312" data-name="Grupo 881312">
            <path id="Trazado_622536" data-name="Trazado 622536" d="M1545.831,1235.272a.756.756,0,0,1-.756-.756v-10.4l-51.477-.573v10.73a.756.756,0,0,1-1.513,0v-11.495a.753.753,0,0,1,.225-.538.86.86,0,0,1,.54-.219l52.99.589a.757.757,0,0,1,.748.757v11.151A.756.756,0,0,1,1545.831,1235.272Z" transform="translate(-1492.085 -1222.019)" fill="#2d2d2a"/>
          </g>
        </g>
        <g id="Grupo_881315" data-name="Grupo 881315" transform="translate(36.045 41.466)">
          <g id="Grupo_881314" data-name="Grupo 881314">
            <path id="Trazado_622537" data-name="Trazado 622537" d="M1515.437,1231.045a.757.757,0,0,1-.758-.757v-17.582a.757.757,0,0,1,1.514,0v17.582A.757.757,0,0,1,1515.437,1231.045Z" transform="translate(-1514.679 -1211.95)" fill="#2d2d2a"/>
          </g>
        </g>
      </g>
    </g>
  </g>
</svg>
