<svg xmlns="http://www.w3.org/2000/svg" xmlns:xlink="http://www.w3.org/1999/xlink" width="153" height="153" viewBox="0 0 153 153">
  <defs>
    <filter id="Elipse_5224" x="0" y="0" width="153" height="153" filterUnits="userSpaceOnUse">
      <feOffset dy="3" input="SourceAlpha"/>
      <feGaussianBlur stdDeviation="3" result="blur"/>
      <feFlood flood-opacity="0.161"/>
      <feComposite operator="in" in2="blur"/>
      <feComposite in="SourceGraphic"/>
    </filter>
  </defs>
  <g id="Grupo_895203" data-name="Grupo 895203" transform="translate(5168.743 11483.404)">
    <g transform="matrix(1, 0, 0, 1, -5168.74, -11483.4)" filter="url(#Elipse_5224)">
      <g id="Elipse_5224-2" data-name="Elipse 5224" transform="translate(9 6)" fill="#fff" stroke="#fecb2f" stroke-width="3">
        <circle cx="67.5" cy="67.5" r="67.5" stroke="none"/>
        <circle cx="67.5" cy="67.5" r="66" fill="none"/>
      </g>
    </g>
    <g id="Grupo_881342" data-name="Grupo 881342" transform="translate(-5130.743 -11458.404)">
      <g id="Grupo_881341" data-name="Grupo 881341" transform="translate(0)">
        <g id="Grupo_881319" data-name="Grupo 881319" transform="translate(4.199)">
          <g id="Grupo_881318" data-name="Grupo 881318">
            <path id="Trazado_622538" data-name="Trazado 622538" d="M1293.6,1348.367a33.024,33.024,0,1,1,33.032-33.023A33.061,33.061,0,0,1,1293.6,1348.367Zm0-64.45a31.427,31.427,0,1,0,31.434,31.427A31.462,31.462,0,0,0,1293.6,1283.917Z" transform="translate(-1260.579 -1282.319)" fill="#2d2d2a"/>
          </g>
        </g>
        <g id="Grupo_881322" data-name="Grupo 881322" transform="translate(19.921)">
          <g id="Grupo_881321" data-name="Grupo 881321">
            <g id="Grupo_881320" data-name="Grupo 881320">
              <path id="Trazado_622539" data-name="Trazado 622539" d="M1290.673,1348.367c-5.751,0-11.1-5.374-14.308-14.377a.8.8,0,0,1,.511-1.03,2.55,2.55,0,0,0-1.356-4.913.8.8,0,0,1-.961-.618,62.021,62.021,0,0,1,.135-24.829.8.8,0,0,1,.976-.6,2.589,2.589,0,0,0,3.147-2.043,3.777,3.777,0,0,0,.025-.43,2.559,2.559,0,0,0-1.754-2.426.8.8,0,0,1-.5-1.039c3.284-8.73,8.416-13.738,14.081-13.738,5.932,0,11.379,5.655,14.57,15.127.2.6.4,1.235.578,1.868l0,.015a58.534,58.534,0,0,1,2.139,16.015,60.79,60.79,0,0,1-1.165,12.061.8.8,0,0,1-.949.622,2.926,2.926,0,0,0-.617-.071,2.548,2.548,0,0,0-.756,4.982.8.8,0,0,1,.515,1.03C1301.785,1342.984,1296.432,1348.367,1290.673,1348.367Zm-12.547-14.214c2.985,7.917,7.644,12.617,12.547,12.617s9.571-4.707,12.555-12.635a4.146,4.146,0,0,1,2.145-7.774,59.575,59.575,0,0,0,.992-11.017,57.451,57.451,0,0,0-1.883-14.886,79.262,79.262,0,0,1-13.7,1.209h0a.068.068,0,0,0-.023,0h0a79.53,79.53,0,0,1-10.558-.712,4.185,4.185,0,0,1-4.09,2.71,60.66,60.66,0,0,0-.124,22.715,4.181,4.181,0,0,1,3.3,1.464,4.149,4.149,0,0,1-1.152,6.308Zm12.627-34.083a77.829,77.829,0,0,0,13.283-1.155q-.149-.489-.307-.958c-2.961-8.792-7.842-14.04-13.056-14.04-4.744,0-9.315,4.473-12.316,12.006a4.15,4.15,0,0,1,2.08,3.453,77.735,77.735,0,0,0,10.316.694Z" transform="translate(-1273.371 -1282.319)" fill="#2d2d2a"/>
            </g>
          </g>
        </g>
        <g id="Grupo_881324" data-name="Grupo 881324" transform="translate(4.199 32.226)">
          <g id="Grupo_881323" data-name="Grupo 881323">
            <path id="Trazado_622540" data-name="Trazado 622540" d="M1325.838,1310.136h-64.46a.8.8,0,1,1,0-1.6h64.46a.8.8,0,0,1,0,1.6Z" transform="translate(-1260.579 -1308.538)" fill="#2d2d2a"/>
          </g>
        </g>
        <g id="Grupo_881326" data-name="Grupo 881326" transform="translate(36.425)">
          <g id="Grupo_881325" data-name="Grupo 881325">
            <path id="Trazado_622541" data-name="Trazado 622541" d="M1287.6,1348.367a.8.8,0,0,1-.8-.8v-64.45a.8.8,0,0,1,1.6,0v64.45A.8.8,0,0,1,1287.6,1348.367Z" transform="translate(-1286.798 -1282.319)" fill="#2d2d2a"/>
          </g>
        </g>
        <g id="Grupo_881328" data-name="Grupo 881328" transform="translate(10.307 13.053)">
          <g id="Grupo_881327" data-name="Grupo 881327">
            <path id="Trazado_622542" data-name="Trazado 622542" d="M1278.095,1301.237a4.154,4.154,0,0,1-4.151-4.148v-.062c-2.63-.617-5.269-1.37-7.854-2.243a.8.8,0,0,1,.511-1.513c2.524.852,5.1,1.588,7.672,2.191a4.143,4.143,0,0,1,7.955,1.48,78.787,78.787,0,0,0,36.1-3.671.8.8,0,1,1,.514,1.513,80.361,80.361,0,0,1-36.856,3.738A4.137,4.137,0,0,1,1278.095,1301.237Zm0-6.7a2.56,2.56,0,0,0-2.5,2.031,2.647,2.647,0,0,0-.052.521,2.552,2.552,0,0,0,5.07.414h0a3.807,3.807,0,0,0,.022-.413A2.548,2.548,0,0,0,1278.095,1294.537Z" transform="translate(-1265.548 -1292.939)" fill="#2d2d2a"/>
          </g>
        </g>
        <g id="Grupo_881330" data-name="Grupo 881330" transform="translate(10.306 46.03)">
          <g id="Grupo_881329" data-name="Grupo 881329">
            <path id="Trazado_622543" data-name="Trazado 622543" d="M1318.582,1325.773a.792.792,0,0,1-.257-.043c-2.66-.9-5.418-1.693-8.2-2.345a.8.8,0,0,1,.365-1.556c2.832.665,5.641,1.469,8.348,2.39a.8.8,0,0,1-.257,1.555Zm-52.235,0a.8.8,0,0,1-.253-1.556c2.8-.94,5.616-1.737,8.361-2.366a.8.8,0,0,1,.356,1.558c-2.693.617-5.455,1.4-8.209,2.322A.805.805,0,0,1,1266.347,1325.773Zm14.863-3.584a.8.8,0,0,1-.114-1.589,78.711,78.711,0,0,1,22.74-.011.8.8,0,1,1-.23,1.581,77.157,77.157,0,0,0-22.28.011A.736.736,0,0,1,1281.209,1322.189Z" transform="translate(-1265.548 -1319.769)" fill="#2d2d2a"/>
          </g>
        </g>
        <g id="Grupo_881332" data-name="Grupo 881332" transform="translate(47.635 44.039)">
          <g id="Grupo_881331" data-name="Grupo 881331">
            <path id="Trazado_622544" data-name="Trazado 622544" d="M1300.066,1326.447a4.151,4.151,0,1,1,4.094-3.483A4.154,4.154,0,0,1,1300.066,1326.447Zm0-6.7a2.548,2.548,0,1,0,1.947.9A2.553,2.553,0,0,0,1300.066,1319.747Z" transform="translate(-1295.919 -1318.149)" fill="#2d2d2a"/>
          </g>
        </g>
        <g id="Grupo_881334" data-name="Grupo 881334" transform="translate(18.514 44.061)">
          <g id="Grupo_881333" data-name="Grupo 881333">
            <path id="Trazado_622545" data-name="Trazado 622545" d="M1276.375,1326.464a4.15,4.15,0,1,1,4.093-3.481A4.153,4.153,0,0,1,1276.375,1326.464Zm0-6.7a2.55,2.55,0,1,0,1.946.9A2.555,2.555,0,0,0,1276.375,1319.763Z" transform="translate(-1272.226 -1318.167)" fill="#2d2d2a"/>
          </g>
        </g>
        <g id="Grupo_881336" data-name="Grupo 881336" transform="translate(30.574 83.946)">
          <g id="Grupo_881335" data-name="Grupo 881335">
            <path id="Trazado_622546" data-name="Trazado 622546" d="M1288.688,1363.9a6.644,6.644,0,1,1,6.648-6.638A6.651,6.651,0,0,1,1288.688,1363.9Zm0-11.69a5.047,5.047,0,1,0,5.05,5.052A5.058,5.058,0,0,0,1288.688,1352.215Z" transform="translate(-1282.038 -1350.617)" fill="#2d2d2a"/>
          </g>
        </g>
        <g id="Grupo_881338" data-name="Grupo 881338" transform="translate(0 89.798)">
          <g id="Grupo_881337" data-name="Grupo 881337">
            <path id="Trazado_622547" data-name="Trazado 622547" d="M1333.4,1356.975h-31.621a.8.8,0,0,1,0-1.6H1333.4a.8.8,0,1,1,0,1.6Zm-43.815,0h-31.623a.8.8,0,1,1,0-1.6h31.623a.8.8,0,1,1,0,1.6Z" transform="translate(-1257.163 -1355.378)" fill="#2d2d2a"/>
          </g>
        </g>
        <g id="Grupo_881340" data-name="Grupo 881340" transform="translate(36.425 59.213)">
          <g id="Grupo_881339" data-name="Grupo 881339">
            <path id="Trazado_622548" data-name="Trazado 622548" d="M1287.6,1356.825a.8.8,0,0,1-.8-.8v-24.733a.8.8,0,1,1,1.6,0v24.733A.8.8,0,0,1,1287.6,1356.825Z" transform="translate(-1286.798 -1330.494)" fill="#2d2d2a"/>
          </g>
        </g>
      </g>
    </g>
  </g>
</svg>
