<svg xmlns="http://www.w3.org/2000/svg" xmlns:xlink="http://www.w3.org/1999/xlink" width="153" height="153" viewBox="0 0 153 153">
  <defs>
    <filter id="Elipse_5225" x="0" y="0" width="153" height="153" filterUnits="userSpaceOnUse">
      <feOffset dy="3" input="SourceAlpha"/>
      <feGaussianBlur stdDeviation="3" result="blur"/>
      <feFlood flood-opacity="0.161"/>
      <feComposite operator="in" in2="blur"/>
      <feComposite in="SourceGraphic"/>
    </filter>
  </defs>
  <g id="Grupo_895204" data-name="Grupo 895204" transform="translate(4817.743 11483.404)">
    <g transform="matrix(1, 0, 0, 1, -4817.74, -11483.4)" filter="url(#Elipse_5225)">
      <g id="Elipse_5225-2" data-name="Elipse 5225" transform="translate(9 6)" fill="#fff" stroke="#fecb2f" stroke-width="3">
        <circle cx="67.5" cy="67.5" r="67.5" stroke="none"/>
        <circle cx="67.5" cy="67.5" r="66" fill="none"/>
      </g>
    </g>
    <circle id="Elipse_5226" data-name="Elipse 5226" cx="6.5" cy="6.5" r="6.5" transform="translate(-4762.743 -11383.403)" fill="#fff"/>
    <g id="Grupo_880907" data-name="Grupo 880907" transform="translate(-4774.743 -11455.404)">
      <g id="Grupo_880906" data-name="Grupo 880906" transform="translate(0 0)">
        <g id="Grupo_880879" data-name="Grupo 880879" transform="translate(9.397 12.132)">
          <g id="Grupo_880878" data-name="Grupo 880878">
            <path id="Trazado_622301" data-name="Trazado 622301" d="M1418.64,1347.043h-27.6a.753.753,0,0,1-.753-.753v-18.132a25.014,25.014,0,1,1,29.106,0v18.132A.753.753,0,0,1,1418.64,1347.043Zm-26.848-1.505h26.1v-17.77a.753.753,0,0,1,.323-.618,23.5,23.5,0,1,0-26.743,0,.754.754,0,0,1,.324.618Z" transform="translate(-1379.833 -1282.797)" fill="#2d2d2a"/>
          </g>
        </g>
        <g id="Grupo_880881" data-name="Grupo 880881" transform="translate(32.182)">
          <g id="Grupo_880880" data-name="Grupo 880880">
            <path id="Trazado_622302" data-name="Trazado 622302" d="M1400.264,1282.041a.753.753,0,0,1-.753-.753v-8.216a.753.753,0,0,1,1.505,0v8.216A.753.753,0,0,1,1400.264,1282.041Z" transform="translate(-1399.511 -1272.319)" fill="#2d2d2a"/>
          </g>
        </g>
        <g id="Grupo_880883" data-name="Grupo 880883" transform="translate(42.017 1.221)">
          <g id="Grupo_880882" data-name="Grupo 880882">
            <path id="Trazado_622303" data-name="Trazado 622303" d="M1408.759,1282.812a.757.757,0,0,1-.728-.949l2.132-7.933a.753.753,0,0,1,1.454.391l-2.132,7.933A.754.754,0,0,1,1408.759,1282.812Z" transform="translate(-1408.005 -1273.374)" fill="#2d2d2a"/>
          </g>
        </g>
        <g id="Grupo_880885" data-name="Grupo 880885" transform="translate(51.288 5.49)">
          <g id="Grupo_880884" data-name="Grupo 880884">
            <path id="Trazado_622304" data-name="Trazado 622304" d="M1416.764,1285.688a.753.753,0,0,1-.651-1.129l4.1-7.122a.752.752,0,1,1,1.3.75l-4.1,7.123A.753.753,0,0,1,1416.764,1285.688Z" transform="translate(-1416.012 -1277.06)" fill="#2d2d2a"/>
          </g>
        </g>
        <g id="Grupo_880887" data-name="Grupo 880887" transform="translate(59.339 12.533)">
          <g id="Grupo_880886" data-name="Grupo 880886">
            <path id="Trazado_622305" data-name="Trazado 622305" d="M1423.718,1290.462a.753.753,0,0,1-.532-1.285l5.813-5.813a.753.753,0,0,1,1.064,1.065l-5.813,5.813A.749.749,0,0,1,1423.718,1290.462Z" transform="translate(-1422.965 -1283.143)" fill="#2d2d2a"/>
          </g>
        </g>
        <g id="Grupo_880889" data-name="Grupo 880889" transform="translate(0 14.449)">
          <g id="Grupo_880888" data-name="Grupo 880888">
            <path id="Trazado_622306" data-name="Trazado 622306" d="M1378.273,1292.116a.753.753,0,0,1-.533-.221l-5.8-5.814a.752.752,0,1,1,1.065-1.063l5.8,5.814a.752.752,0,0,1-.533,1.284Z" transform="translate(-1371.717 -1284.798)" fill="#2d2d2a"/>
          </g>
        </g>
        <g id="Grupo_880891" data-name="Grupo 880891" transform="translate(9.321 6.847)">
          <g id="Grupo_880890" data-name="Grupo 880890">
            <path id="Trazado_622307" data-name="Trazado 622307" d="M1384.632,1286.852a.754.754,0,0,1-.653-.376l-4.112-7.114a.753.753,0,1,1,1.3-.753l4.112,7.113a.753.753,0,0,1-.276,1.028A.738.738,0,0,1,1384.632,1286.852Z" transform="translate(-1379.767 -1278.232)" fill="#2d2d2a"/>
          </g>
        </g>
        <g id="Grupo_880893" data-name="Grupo 880893" transform="translate(20.3 1.926)">
          <g id="Grupo_880892" data-name="Grupo 880892">
            <path id="Trazado_622308" data-name="Trazado 622308" d="M1392.133,1283.42a.753.753,0,0,1-.727-.557l-2.132-7.934a.753.753,0,0,1,1.454-.391l2.132,7.934a.753.753,0,0,1-.531.922A.768.768,0,0,1,1392.133,1283.42Z" transform="translate(-1389.249 -1273.982)" fill="#2d2d2a"/>
          </g>
        </g>
        <g id="Grupo_880895" data-name="Grupo 880895" transform="translate(14.575 18.394)">
          <g id="Grupo_880894" data-name="Grupo 880894">
            <path id="Trazado_622309" data-name="Trazado 622309" d="M1388.3,1319.519a.752.752,0,0,1-.651-.375l-1.377-2.374a.753.753,0,0,1,.182-.967l3.749-2.984a15.036,15.036,0,0,1-.519-1.957l-4.74-.713a.751.751,0,0,1-.64-.743v-2.735a.751.751,0,0,1,.64-.743l4.74-.71a14.691,14.691,0,0,1,.518-1.958l-3.748-2.983a.755.755,0,0,1-.183-.967l1.378-2.376a.754.754,0,0,1,.928-.322l4.457,1.756a14.523,14.523,0,0,1,1.432-1.43l-1.755-4.459a.755.755,0,0,1,.325-.929l2.373-1.369a.754.754,0,0,1,.964.183l2.983,3.746a14.017,14.017,0,0,1,1.949-.522l.711-4.741a.753.753,0,0,1,.745-.642h2.744a.752.752,0,0,1,.743.642l.714,4.741a14.264,14.264,0,0,1,1.957.523l2.974-3.746a.752.752,0,0,1,.966-.184l2.374,1.369a.754.754,0,0,1,.324.929l-1.757,4.459a14.483,14.483,0,0,1,1.432,1.43l4.467-1.756a.75.75,0,0,1,.927.324l1.366,2.376a.753.753,0,0,1-.183.965l-3.747,2.982a14.012,14.012,0,0,1,.522,1.959l4.735.71a.752.752,0,0,1,.64.743v2.735a.751.751,0,0,1-.64.743l-4.736.712a14.118,14.118,0,0,1-.522,1.958l3.748,2.984a.753.753,0,0,1,.183.965l-1.366,2.374a.747.747,0,0,1-.927.324l-4.972-1.954a.752.752,0,1,1,.55-1.4l4.369,1.717.72-1.25-3.665-2.917a.754.754,0,0,1-.234-.86,12.761,12.761,0,0,0,.721-2.711.751.751,0,0,1,.632-.636l4.634-.7v-1.438l-4.634-.695a.751.751,0,0,1-.632-.635,12.49,12.49,0,0,0-.72-2.709.753.753,0,0,1,.233-.861l3.665-2.917-.72-1.253-4.369,1.716a.746.746,0,0,1-.863-.229,13.191,13.191,0,0,0-1.987-1.986.753.753,0,0,1-.227-.86l1.717-4.36-1.249-.72-2.91,3.664a.753.753,0,0,1-.865.232,12.864,12.864,0,0,0-2.712-.726.753.753,0,0,1-.628-.632l-.7-4.636h-1.447l-.695,4.636a.756.756,0,0,1-.629.632,12.52,12.52,0,0,0-2.7.725.753.753,0,0,1-.867-.229l-2.919-3.665-1.251.72,1.715,4.36a.752.752,0,0,1-.226.86,13.04,13.04,0,0,0-1.986,1.984.746.746,0,0,1-.865.231l-4.36-1.716-.727,1.254,3.664,2.915a.753.753,0,0,1,.233.861,13.208,13.208,0,0,0-.721,2.718.752.752,0,0,1-.632.626l-4.635.695v1.438l4.635.7a.753.753,0,0,1,.632.627,13.473,13.473,0,0,0,.723,2.72.756.756,0,0,1-.234.86l-3.664,2.916.726,1.251,4.361-1.717a.752.752,0,1,1,.552,1.4l-4.963,1.954A.725.725,0,0,1,1388.3,1319.519Z" transform="translate(-1384.305 -1288.205)" fill="#2d2d2a"/>
          </g>
        </g>
        <g id="Grupo_880897" data-name="Grupo 880897" transform="translate(16.297 60.699)">
          <g id="Grupo_880896" data-name="Grupo 880896">
            <path id="Trazado_622310" data-name="Trazado 622310" d="M1421.253,1326.247h-34.71a.753.753,0,0,1,0-1.506h34.71a.753.753,0,0,1,0,1.506Z" transform="translate(-1385.792 -1324.741)" fill="#2d2d2a"/>
          </g>
        </g>
        <g id="Grupo_880899" data-name="Grupo 880899" transform="translate(16.297 65.778)">
          <g id="Grupo_880898" data-name="Grupo 880898">
            <path id="Trazado_622311" data-name="Trazado 622311" d="M1421.253,1330.634h-34.71a.753.753,0,0,1,0-1.506h34.71a.753.753,0,0,1,0,1.506Z" transform="translate(-1385.792 -1329.128)" fill="#2d2d2a"/>
          </g>
        </g>
        <g id="Grupo_880901" data-name="Grupo 880901" transform="translate(16.297 70.407)">
          <g id="Grupo_880900" data-name="Grupo 880900">
            <path id="Trazado_622312" data-name="Trazado 622312" d="M1421.253,1334.632h-34.71a.753.753,0,0,1,0-1.506h34.71a.753.753,0,0,1,0,1.506Z" transform="translate(-1385.792 -1333.126)" fill="#2d2d2a"/>
          </g>
        </g>
        <g id="Grupo_880903" data-name="Grupo 880903" transform="translate(24.657 74.873)">
          <g id="Grupo_880902" data-name="Grupo 880902">
            <path id="Trazado_622313" data-name="Trazado 622313" d="M1411.751,1346.646h-17.987a.753.753,0,0,1-.753-.753v-8.157a.753.753,0,0,1,.753-.753h17.987a.753.753,0,0,1,.753.753v8.157A.753.753,0,0,1,1411.751,1346.646Zm-17.234-1.506H1411v-6.651h-16.481Z" transform="translate(-1393.012 -1336.983)" fill="#2d2d2a"/>
          </g>
        </g>
        <g id="Grupo_880905" data-name="Grupo 880905" transform="translate(30.765 83.03)">
          <g id="Grupo_880904" data-name="Grupo 880904">
            <path id="Trazado_622314" data-name="Trazado 622314" d="M1404.814,1352.6h-5.774a.753.753,0,0,1-.753-.754v-7.063a.754.754,0,0,1,.753-.754h5.774a.754.754,0,0,1,.753.754v7.063A.753.753,0,0,1,1404.814,1352.6Zm-5.022-1.506h4.269v-5.558h-4.269Z" transform="translate(-1398.287 -1344.027)" fill="#2d2d2a"/>
          </g>
        </g>
      </g>
    </g>
  </g>
</svg>
