<svg xmlns="http://www.w3.org/2000/svg" xmlns:xlink="http://www.w3.org/1999/xlink" width="153" height="153" viewBox="0 0 153 153">
  <defs>
    <filter id="Elipse_5227" x="0" y="0" width="153" height="153" filterUnits="userSpaceOnUse">
      <feOffset dy="3" input="SourceAlpha"/>
      <feGaussianBlur stdDeviation="3" result="blur"/>
      <feFlood flood-opacity="0.161"/>
      <feComposite operator="in" in2="blur"/>
      <feComposite in="SourceGraphic"/>
    </filter>
  </defs>
  <g id="Grupo_895205" data-name="Grupo 895205" transform="translate(4467.743 11483.404)">
    <g transform="matrix(1, 0, 0, 1, -4467.74, -11483.4)" filter="url(#Elipse_5227)">
      <g id="Elipse_5227-2" data-name="Elipse 5227" transform="translate(9 6)" fill="#fff" stroke="#fecb2f" stroke-width="3">
        <circle cx="67.5" cy="67.5" r="67.5" stroke="none"/>
        <circle cx="67.5" cy="67.5" r="66" fill="none"/>
      </g>
    </g>
    <g id="Grupo_881189" data-name="Grupo 881189" transform="translate(-4436.743 -11449.404)">
      <g id="Grupo_881188" data-name="Grupo 881188" transform="translate(0 0)">
        <g id="Grupo_881187" data-name="Grupo 881187">
          <g id="Grupo_881167" data-name="Grupo 881167">
            <g id="Grupo_881154" data-name="Grupo 881154" transform="translate(47.632 57.563)">
              <path id="Trazado_622437" data-name="Trazado 622437" d="M1534.84,1359.337a2.066,2.066,0,0,1-.877-.242c-2.151-1.064-4.2-3.095-6.364-5.248a34.537,34.537,0,0,0-5.971-5.12c-.275-.163-.55-.318-.817-.468-1.136-.636-2.21-1.238-2.581-2.284a2.015,2.015,0,0,1-.114-.725,19.361,19.361,0,0,1,1.338-5.057c.1-.292.195-.551.267-.761h0a3.118,3.118,0,0,1,3.31-2.341h.092c2.957,0,11.566,2.223,14.618,3.451,1.647.66,2.573,1.4,2.914,2.333.438,1.148-.845,4.809-2.852,10.261-.7,1.887-1.294,3.517-1.517,4.352-.2.792-.381,1.476-.97,1.748A1.114,1.114,0,0,1,1534.84,1359.337Zm-14.019-19.531h0c-.072.214-.167.478-.274.777a19.341,19.341,0,0,0-1.27,4.666.948.948,0,0,0,.042.323c.231.65,1.078,1.125,2.06,1.673.276.156.562.314.846.486a35.325,35.325,0,0,1,6.192,5.292c2.1,2.083,4.078,4.05,6.06,5.029a.833.833,0,0,0,.371.123,4.479,4.479,0,0,0,.316-.982c.237-.891.845-2.543,1.55-4.459,1.1-3,3.159-8.581,2.854-9.453-.216-.591-.975-1.146-2.258-1.662-2.961-1.192-11.426-3.369-14.174-3.369h-.08C1521.336,1338.3,1521.062,1339.1,1520.821,1339.806Zm12.283,8.49a2.111,2.111,0,0,1-1.652-3.418l0,0a2.115,2.115,0,0,1,2.96-.344,2.115,2.115,0,0,1-1.076,3.753A2,2,0,0,1,1533.1,1348.3Zm-.745-2.693a.918.918,0,0,0-.193.686.936.936,0,0,0,.352.636.933.933,0,0,0,1.322-.143.943.943,0,0,0,.211-.709.927.927,0,0,0-.348-.628A.962.962,0,0,0,1532.359,1345.6Z" transform="translate(-1518.117 -1337.091)" fill="#2d2d2a"/>
            </g>
            <g id="Grupo_881155" data-name="Grupo 881155" transform="translate(21.244 57.562)">
              <path id="Trazado_622438" data-name="Trazado 622438" d="M1501.284,1359.337a1.124,1.124,0,0,1-.465-.1c-.579-.262-.754-.917-.976-1.746v-.008c-.223-.849-.838-2.518-1.549-4.452-1.988-5.394-3.26-9.017-2.832-10.162.374-.941,1.3-1.678,2.926-2.329,3.051-1.228,11.663-3.452,14.614-3.452h.091a3.111,3.111,0,0,1,3.313,2.336c.079.241.182.533.3.862a18.981,18.981,0,0,1,1.3,4.971,2.13,2.13,0,0,1-.1.714c-.356,1.039-1.423,1.634-2.553,2.266-.276.156-.562.316-.845.485a34.384,34.384,0,0,0-5.979,5.123c-2.165,2.152-4.212,4.182-6.366,5.244A2.025,2.025,0,0,1,1501.284,1359.337Zm-.322-2.148v0a3.843,3.843,0,0,0,.344.993,2.556,2.556,0,0,0,.333-.133c1.985-.978,3.966-2.945,6.063-5.027a35.178,35.178,0,0,1,6.2-5.293c.292-.177.588-.342.876-.5.972-.544,1.809-1.013,2.024-1.636a1.062,1.062,0,0,0,.036-.332,19.36,19.36,0,0,0-1.23-4.586c-.12-.338-.224-.637-.3-.874-.246-.7-.529-1.5-2.241-1.549-2.674-.081-11.257,2.163-14.247,3.368-1.29.516-2.033,1.063-2.273,1.669-.292.853,1.743,6.378,2.835,9.344C1500.1,1354.592,1500.726,1356.285,1500.962,1357.189Zm2.06-8.9a2.1,2.1,0,1,1,2.088-1.843,2.058,2.058,0,0,1-.784,1.388A2.082,2.082,0,0,1,1503.022,1348.293Zm-.012-3.052a.947.947,0,0,0-.585.2.966.966,0,0,0-.153,1.337.945.945,0,0,0,1.335.145.9.9,0,0,0,.35-.614.96.96,0,0,0-.2-.713h0A.95.95,0,0,0,1503.01,1345.241Z" transform="translate(-1495.378 -1337.09)" fill="#2d2d2a"/>
            </g>
            <g id="Grupo_881156" data-name="Grupo 881156" transform="translate(51.982 17.535)">
              <path id="Trazado_622439" data-name="Trazado 622439" d="M1536.924,1347.2a.571.571,0,0,1-.217-.042c-2.96-1.192-11.425-3.369-14.173-3.369a.608.608,0,0,0-.089,0,.58.58,0,0,1-.559-.731c1.787-6.651,3.416-11.023,4.982-13.37h0c2.038-3.043,9.111-9.132,14.708-11.31,2.809-1.1,4.965-1.116,6.41-.063.124.09.242.184.353.281a37.135,37.135,0,0,1,5.606-13.17c.58-.776,2.133-2.611,3.965-2.808a2.983,2.983,0,0,1,2.324.772c2.266,1.958.544,10.2-.3,13.645-1.286,5.254-3.616,12-5.691,14.4a21.571,21.571,0,0,1-7.376,5.451c-3.343,1.717-6.5,3.341-9.411,9.969A.581.581,0,0,1,1536.924,1347.2Zm-13.728-4.542a70.581,70.581,0,0,1,13.423,3.225c3.014-6.586,6.271-8.261,9.718-10.031a20.629,20.629,0,0,0,7.028-5.177c1.644-1.9,3.933-7.753,5.443-13.915,1.824-7.451,1.65-11.643.666-12.491a1.839,1.839,0,0,0-1.44-.5,5.371,5.371,0,0,0-3.161,2.354,35.242,35.242,0,0,0-5.587,13.975.58.58,0,0,1-.577.521.6.6,0,0,1-.55-.364,2.342,2.342,0,0,0-.854-1c-1.373-1-3.644-.442-5.306.205-5.31,2.067-12.253,8.021-14.164,10.873h0C1525.8,1333.378,1523.982,1339.76,1523.2,1342.653Z" transform="translate(-1521.866 -1302.598)" fill="#2d2d2a"/>
            </g>
            <g id="Grupo_881157" data-name="Grupo 881157" transform="translate(0 17.535)">
              <path id="Trazado_622440" data-name="Trazado 622440" d="M1501.538,1347.2a.581.581,0,0,1-.531-.347c-2.915-6.63-6.074-8.253-9.418-9.971a21.637,21.637,0,0,1-7.382-5.45c-3.4-3.95-9.743-24.777-5.979-28.041a2.978,2.978,0,0,1,2.324-.772c1.766.19,3.245,1.843,3.969,2.811a37.489,37.489,0,0,1,5.61,13.154c.106-.092.221-.182.341-.269,2.5-1.811,6.717-.051,9.816,1.745,4.747,2.762,9.671,7.21,11.294,9.629,2.046,3.049,3.831,9.09,5,13.37a.576.576,0,0,1-.1.507.674.674,0,0,1-.466.225h-.08c-2.748,0-11.212,2.177-14.174,3.369A.571.571,0,0,1,1501.538,1347.2Zm-21.307-43.437a1.858,1.858,0,0,0-1.243.5c-2.725,2.363,2.4,22.12,6.1,26.407a20.675,20.675,0,0,0,7.032,5.175c3.447,1.77,6.705,3.447,9.725,10.033a70.586,70.586,0,0,1,13.422-3.225c-.839-3.058-2.64-9.332-4.648-12.323-1.518-2.265-6.373-6.631-10.913-9.272-3.957-2.3-7-2.937-8.552-1.809a2.276,2.276,0,0,0-.842.984.581.581,0,0,1-1.119-.146,35.611,35.611,0,0,0-5.6-13.964,5.38,5.38,0,0,0-3.165-2.356C1480.362,1303.762,1480.3,1303.758,1480.231,1303.758Z" transform="translate(-1477.071 -1302.598)" fill="#2d2d2a"/>
            </g>
            <g id="Grupo_881158" data-name="Grupo 881158" transform="translate(61.443 19.144)">
              <path id="Trazado_622441" data-name="Trazado 622441" d="M1537.3,1311.853H1530.6a.58.58,0,0,1-.58-.58,7.3,7.3,0,0,1,7.286-7.289.58.58,0,0,1,.58.58v6.708A.58.58,0,0,1,1537.3,1311.853Zm-6.1-1.16h5.519v-5.521A6.137,6.137,0,0,0,1531.205,1310.693Z" transform="translate(-1530.018 -1303.984)" fill="#2d2d2a"/>
            </g>
            <g id="Grupo_881159" data-name="Grupo 881159" transform="translate(61.443)">
              <path id="Trazado_622442" data-name="Trazado 622442" d="M1537.3,1295.354a7.294,7.294,0,0,1-7.286-7.286.58.58,0,0,1,.58-.58h6.706a.58.58,0,0,1,.58.58v6.706A.58.58,0,0,1,1537.3,1295.354Zm-6.1-6.706a6.136,6.136,0,0,0,5.519,5.518v-5.518Z" transform="translate(-1530.018 -1287.487)" fill="#2d2d2a"/>
            </g>
            <g id="Grupo_881160" data-name="Grupo 881160" transform="translate(45.616 13.469)">
              <path id="Trazado_622443" data-name="Trazado 622443" d="M1516.96,1302.5a.579.579,0,0,1-.58-.58v-2.243a.581.581,0,0,1,.231-.464.573.573,0,0,1,.509-.094,1.931,1.931,0,0,1,1.047.633,1.6,1.6,0,0,1,.346,1.012,1.642,1.642,0,0,1-.417,1.121,1.793,1.793,0,0,1-1,.6A.568.568,0,0,1,1516.96,1302.5Z" transform="translate(-1516.38 -1299.094)" fill="#2d2d2a"/>
            </g>
            <g id="Grupo_881161" data-name="Grupo 881161" transform="translate(44.064 9.619)">
              <path id="Trazado_622444" data-name="Trazado 622444" d="M1516.348,1298.917a.549.549,0,0,1-.218-.043,1.658,1.658,0,0,1-.818-.645,1.5,1.5,0,0,1-.269-.865,1.64,1.64,0,0,1,.294-.941,1.687,1.687,0,0,1,.825-.616.58.58,0,0,1,.767.549v1.981a.58.58,0,0,1-.58.58Z" transform="translate(-1515.042 -1295.776)" fill="#2d2d2a"/>
            </g>
            <g id="Grupo_881162" data-name="Grupo 881162" transform="translate(42.318 7.816)">
              <path id="Trazado_622445" data-name="Trazado 622445" d="M1518,1305.614h-1.988v-1.159a3.2,3.2,0,0,1-1.433-.8,3.573,3.573,0,0,1-.949-2.064l-.088-.594,2.47-.281v-.083a3.346,3.346,0,0,1-1.512-1.038,3.046,3.046,0,0,1-.65-1.93,2.765,2.765,0,0,1,.755-1.96,2.8,2.8,0,0,1,1.406-.829v-.658H1518v.664a2.773,2.773,0,0,1,2.132,2.379l.105.6-2.237.279v.29a3.592,3.592,0,0,1,1.748,1.02,2.868,2.868,0,0,1,.631,1.887,3.127,3.127,0,0,1-.765,2.126,3.377,3.377,0,0,1-1.614.968Zm-1.149-2.184.114.016-.058-.029Zm-1.937-1.417a2.026,2.026,0,0,0,.479.82,2.2,2.2,0,0,0,1.278.572l.168.022v-.045l-.508-.255a2.157,2.157,0,0,1-.76-.658,2.231,2.231,0,0,1-.292-.5Zm2.258,1.341v.066l.152-.024a2.373,2.373,0,0,0,1.427-.707,1.969,1.969,0,0,0,.466-1.35,1.741,1.741,0,0,0-.364-1.145,2.967,2.967,0,0,0-1.578-.761l-.1-.027v.043l-.8-.326a1.657,1.657,0,0,1-.818-.645,1.5,1.5,0,0,1-.269-.865,1.64,1.64,0,0,1,.294-.941l.015-.021a1.667,1.667,0,0,1,.81-.6l.35-.12-.111.01a1.747,1.747,0,0,0-1.189.552,1.62,1.62,0,0,0-.445,1.168,1.893,1.893,0,0,0,.4,1.216,2.544,2.544,0,0,0,1.339.775l.826.239a1.93,1.93,0,0,1,1.047.633,1.6,1.6,0,0,1,.346,1.012,1.643,1.643,0,0,1-.417,1.121,1.8,1.8,0,0,1-1,.6Zm.081-7.42.395.17a1.649,1.649,0,0,1,.858.805l.307-.038a1.389,1.389,0,0,0-.32-.45,1.919,1.919,0,0,0-1.139-.476Z" transform="translate(-1513.538 -1294.222)" fill="#2d2d2a"/>
            </g>
            <g id="Grupo_881163" data-name="Grupo 881163" transform="translate(37.526 5.257)">
              <path id="Trazado_622446" data-name="Trazado 622446" d="M1517.659,1308.527a8.255,8.255,0,1,1,8.263-8.26A8.265,8.265,0,0,1,1517.659,1308.527Zm0-15.349a7.094,7.094,0,1,0,7.1,7.089A7.1,7.1,0,0,0,1517.659,1293.177Zm.42,12.791h-.828a.581.581,0,0,1-.58-.58v-.579a3.2,3.2,0,0,1-1.433-.8,3.575,3.575,0,0,1-.949-2.064.58.58,0,0,1,.508-.661l1.481-.169a.594.594,0,0,1,.393.1v-.225a3.346,3.346,0,0,1-1.512-1.037,3.045,3.045,0,0,1-.65-1.93,2.764,2.764,0,0,1,.755-1.96,2.8,2.8,0,0,1,1.406-.829v-.078a.58.58,0,0,1,.58-.58h.828a.58.58,0,0,1,.58.58v.083a2.773,2.773,0,0,1,2.132,2.379.58.58,0,0,1-.5.675l-1.449.18a.564.564,0,0,1-.182-.006v.319a3.593,3.593,0,0,1,1.747,1.02,2.867,2.867,0,0,1,.631,1.887,3.128,3.128,0,0,1-.765,2.126,3.376,3.376,0,0,1-1.614.968v.6A.58.58,0,0,1,1518.079,1305.968Zm-2.506-3.6a2.024,2.024,0,0,0,.479.82,2.2,2.2,0,0,0,1.278.572.4.4,0,0,0,.653-.009,2.37,2.37,0,0,0,1.427-.707,1.967,1.967,0,0,0,.467-1.35,1.74,1.74,0,0,0-.364-1.145,2.966,2.966,0,0,0-1.578-.761.581.581,0,0,1-.436-.562v-2.234a.585.585,0,0,1,.26-.485.578.578,0,0,1,.549-.048,1.648,1.648,0,0,1,.858.805l.308-.038a1.387,1.387,0,0,0-.32-.45,1.919,1.919,0,0,0-1.139-.476.591.591,0,0,1-.349-.169.574.574,0,0,1-.361.171,1.748,1.748,0,0,0-1.189.552,1.621,1.621,0,0,0-.444,1.169,1.893,1.893,0,0,0,.4,1.216,2.541,2.541,0,0,0,1.339.775.582.582,0,0,1,.419.558v2.391a.58.58,0,0,1-.841.519,2.161,2.161,0,0,1-.756-.653,2.271,2.271,0,0,1-.3-.5Z" transform="translate(-1509.408 -1292.017)" fill="#2d2d2a"/>
            </g>
            <g id="Grupo_881164" data-name="Grupo 881164" transform="translate(22.242)">
              <path id="Trazado_622447" data-name="Trazado 622447" d="M1496.818,1295.354a.58.58,0,0,1-.58-.58v-6.706a.58.58,0,0,1,.58-.58h6.711a.581.581,0,0,1,.58.58A7.3,7.3,0,0,1,1496.818,1295.354Zm.58-6.706v5.518a6.137,6.137,0,0,0,5.522-5.518Z" transform="translate(-1496.238 -1287.487)" fill="#2d2d2a"/>
            </g>
            <g id="Grupo_881165" data-name="Grupo 881165" transform="translate(22.242)">
              <path id="Trazado_622448" data-name="Trazado 622448" d="M1536.019,1314.5h-32.489a.58.58,0,0,1-.58-.58,6.137,6.137,0,0,0-6.131-6.128.58.58,0,0,1-.58-.58v-12.438a.58.58,0,0,1,.58-.58,6.136,6.136,0,0,0,6.131-6.126.58.58,0,0,1,.58-.58h32.489a.581.581,0,0,1,.58.58,6.133,6.133,0,0,0,6.126,6.126.58.58,0,0,1,.58.58v12.438a.58.58,0,0,1-.58.58,6.135,6.135,0,0,0-6.126,6.128A.581.581,0,0,1,1536.019,1314.5Zm-31.932-1.161h31.374a7.3,7.3,0,0,1,6.684-6.685V1295.33a7.3,7.3,0,0,1-6.684-6.683h-31.374a7.3,7.3,0,0,1-6.688,6.683v11.324A7.3,7.3,0,0,1,1504.086,1313.34Zm15.686-4.086a8.255,8.255,0,1,1,8.263-8.26A8.265,8.265,0,0,1,1519.772,1309.254Zm0-15.349a7.094,7.094,0,1,0,7.1,7.089A7.1,7.1,0,0,0,1519.772,1293.9Z" transform="translate(-1496.238 -1287.487)" fill="#2d2d2a"/>
            </g>
            <g id="Grupo_881166" data-name="Grupo 881166" transform="translate(22.242 19.144)">
              <path id="Trazado_622449" data-name="Trazado 622449" d="M1503.529,1311.853h-6.608a.678.678,0,0,1-.683-.58v-6.708a.58.58,0,0,1,.58-.58,7.3,7.3,0,0,1,7.291,7.289A.581.581,0,0,1,1503.529,1311.853Zm-6.131-1.16h5.522a6.138,6.138,0,0,0-5.522-5.521Z" transform="translate(-1496.238 -1303.984)" fill="#2d2d2a"/>
            </g>
          </g>
          <g id="Grupo_881186" data-name="Grupo 881186">
            <g id="Grupo_881168" data-name="Grupo 881168" transform="translate(51.982 32.474)">
              <path id="Trazado_622450" data-name="Trazado 622450" d="M1522.445,1341.72a.57.57,0,0,1-.151-.021.578.578,0,0,1-.408-.71c1.787-6.651,3.416-11.023,4.982-13.37,2.039-3.044,9.112-9.133,14.709-11.311,2.809-1.1,4.965-1.116,6.41-.063a3.488,3.488,0,0,1,1.248,1.51c1.436,3.521-4.942,7.69-9.864,10.522l-.442.257a.581.581,0,0,1-.587-1l.451-.26c8.749-5.032,9.923-7.716,9.366-9.082a2.345,2.345,0,0,0-.855-1c-1.373-1-3.644-.442-5.306.205-5.311,2.067-12.256,8.022-14.166,10.875-2.22,3.327-4.182,10.626-4.826,13.026A.582.582,0,0,1,1522.445,1341.72Z" transform="translate(-1521.866 -1315.471)" fill="#2d2d2a"/>
            </g>
            <g id="Grupo_881169" data-name="Grupo 881169" transform="translate(66.46 17.535)">
              <path id="Trazado_622451" data-name="Trazado 622451" d="M1534.922,1347.2a.571.571,0,0,1-.233-.049.58.58,0,0,1-.3-.765c3.077-7.006,6.412-8.721,9.944-10.535a20.629,20.629,0,0,0,7.028-5.177c1.644-1.9,3.933-7.753,5.443-13.915,1.824-7.451,1.65-11.643.666-12.491a1.839,1.839,0,0,0-1.44-.5,5.372,5.372,0,0,0-3.161,2.354,35.243,35.243,0,0,0-5.587,13.975.6.6,0,0,1-.636.518.579.579,0,0,1-.518-.636,36.05,36.05,0,0,1,5.814-14.556c.58-.776,2.133-2.611,3.965-2.808a2.983,2.983,0,0,1,2.324.772c2.266,1.958.544,10.2-.3,13.645-1.286,5.254-3.616,12-5.691,14.4a21.571,21.571,0,0,1-7.376,5.451c-3.344,1.717-6.5,3.341-9.411,9.969A.58.58,0,0,1,1534.922,1347.2Z" transform="translate(-1534.342 -1302.598)" fill="#2d2d2a"/>
            </g>
            <g id="Grupo_881170" data-name="Grupo 881170" transform="translate(47.632 57.563)">
              <path id="Trazado_622452" data-name="Trazado 622452" d="M1534.84,1359.337a2.066,2.066,0,0,1-.877-.242c-2.151-1.064-4.2-3.095-6.364-5.248a34.537,34.537,0,0,0-5.971-5.12c-.275-.163-.55-.318-.817-.468-1.136-.636-2.21-1.238-2.581-2.284a2.015,2.015,0,0,1-.114-.725,19.361,19.361,0,0,1,1.338-5.057c.1-.292.195-.551.267-.761a3.118,3.118,0,0,1,3.31-2.341h.092c2.957,0,11.565,2.223,14.617,3.451h0c1.648.66,2.574,1.4,2.915,2.333.438,1.148-.845,4.809-2.852,10.261-.7,1.887-1.294,3.517-1.517,4.352-.2.792-.381,1.476-.97,1.748A1.114,1.114,0,0,1,1534.84,1359.337Zm-11.7-21.087h-.08c-1.72.046-1.995.847-2.235,1.555-.072.214-.167.478-.274.777a19.341,19.341,0,0,0-1.27,4.666.948.948,0,0,0,.042.323c.231.65,1.078,1.125,2.06,1.673.276.156.562.314.846.486a35.325,35.325,0,0,1,6.192,5.292c2.1,2.083,4.078,4.05,6.06,5.029a.833.833,0,0,0,.371.123,4.479,4.479,0,0,0,.316-.982c.237-.891.845-2.543,1.55-4.459,1.1-3,3.159-8.581,2.854-9.453-.216-.591-.975-1.146-2.258-1.662h0C1534.348,1340.427,1525.884,1338.25,1523.136,1338.25Z" transform="translate(-1518.117 -1337.091)" fill="#2d2d2a"/>
            </g>
            <g id="Grupo_881171" data-name="Grupo 881171" transform="translate(60.514 64.55)">
              <path id="Trazado_622453" data-name="Trazado 622453" d="M1531.323,1347.33a2.111,2.111,0,0,1-1.652-3.418l0,0a2.115,2.115,0,0,1,2.96-.344,2.115,2.115,0,0,1-1.076,3.753A2.006,2.006,0,0,1,1531.323,1347.33Zm-.745-2.693a.919.919,0,0,0-.193.686.936.936,0,0,0,.351.636.933.933,0,0,0,1.322-.143.944.944,0,0,0,.211-.709.927.927,0,0,0-.348-.628A.962.962,0,0,0,1530.578,1344.637Z" transform="translate(-1529.217 -1343.112)" fill="#2d2d2a"/>
            </g>
            <g id="Grupo_881172" data-name="Grupo 881172" transform="translate(11.957 34.395)">
              <path id="Trazado_622454" data-name="Trazado 622454" d="M1498.162,1328.348a.6.6,0,0,1-.294-.079l-.442-.257c-4.905-2.826-11.266-6.99-9.85-10.522a.58.58,0,0,1,1.077.432c-.55,1.37.628,4.06,9.352,9.085l.45.259a.58.58,0,0,1-.293,1.082Z" transform="translate(-1487.375 -1317.127)" fill="#2d2d2a"/>
            </g>
            <g id="Grupo_881173" data-name="Grupo 881173" transform="translate(12.116 32.486)">
              <path id="Trazado_622455" data-name="Trazado 622455" d="M1514.343,1341.719a.582.582,0,0,1-.561-.428c-.729-2.676-2.663-9.783-4.84-13.027-1.518-2.265-6.373-6.631-10.913-9.272-3.957-2.3-7-2.937-8.553-1.809a2.279,2.279,0,0,0-.842.984.587.587,0,0,1-.751.333.581.581,0,0,1-.333-.75,3.4,3.4,0,0,1,1.246-1.508c2.5-1.811,6.717-.051,9.816,1.745,4.748,2.762,9.671,7.21,11.294,9.63,2.046,3.049,3.831,9.09,5,13.37a.581.581,0,0,1-.559.732Z" transform="translate(-1487.512 -1315.481)" fill="#2d2d2a"/>
            </g>
            <g id="Grupo_881174" data-name="Grupo 881174" transform="translate(0 17.535)">
              <path id="Trazado_622456" data-name="Trazado 622456" d="M1501.538,1347.2a.581.581,0,0,1-.531-.347c-2.915-6.63-6.074-8.253-9.418-9.971a21.637,21.637,0,0,1-7.382-5.45c-3.4-3.95-9.743-24.777-5.979-28.041a2.978,2.978,0,0,1,2.324-.772c1.766.19,3.245,1.843,3.969,2.811a36.439,36.439,0,0,1,5.823,14.538.613.613,0,0,1-.579.617.548.548,0,0,1-.578-.543,35.638,35.638,0,0,0-5.593-13.914,5.38,5.38,0,0,0-3.165-2.356,1.853,1.853,0,0,0-1.441.5c-2.725,2.363,2.4,22.12,6.1,26.407a20.675,20.675,0,0,0,7.032,5.175c3.532,1.816,6.869,3.529,9.951,10.537a.58.58,0,0,1-.3.765A.569.569,0,0,1,1501.538,1347.2Z" transform="translate(-1477.071 -1302.598)" fill="#2d2d2a"/>
            </g>
            <g id="Grupo_881175" data-name="Grupo 881175" transform="translate(21.244 57.562)">
              <path id="Trazado_622457" data-name="Trazado 622457" d="M1501.284,1359.337a1.124,1.124,0,0,1-.465-.1c-.579-.262-.754-.917-.976-1.746-.224-.857-.839-2.526-1.55-4.46-1.988-5.394-3.26-9.017-2.832-10.162.374-.941,1.3-1.678,2.926-2.329,3.052-1.228,11.663-3.452,14.614-3.452h.091a3.111,3.111,0,0,1,3.313,2.336c.079.241.182.533.3.862a18.981,18.981,0,0,1,1.3,4.971,2.13,2.13,0,0,1-.1.714c-.356,1.039-1.423,1.634-2.553,2.266-.276.156-.562.316-.845.485a34.384,34.384,0,0,0-5.979,5.123c-2.165,2.152-4.212,4.182-6.366,5.244A2.025,2.025,0,0,1,1501.284,1359.337Zm.029-1.146h0Zm11.673-19.94c-2.742,0-11.207,2.177-14.168,3.369h0c-1.289.516-2.032,1.063-2.272,1.669-.292.853,1.743,6.378,2.835,9.344.723,1.962,1.347,3.657,1.583,4.561a3.882,3.882,0,0,0,.345.993,2.556,2.556,0,0,0,.333-.133c1.985-.978,3.966-2.945,6.063-5.027a35.178,35.178,0,0,1,6.2-5.293c.292-.177.588-.342.876-.5.972-.544,1.809-1.013,2.024-1.636a1.062,1.062,0,0,0,.036-.332,19.36,19.36,0,0,0-1.23-4.586c-.12-.338-.224-.637-.3-.874-.246-.7-.529-1.5-2.241-1.549Zm-14.385,2.83h0Z" transform="translate(-1495.378 -1337.09)" fill="#2d2d2a"/>
            </g>
            <g id="Grupo_881176" data-name="Grupo 881176" transform="translate(26.774 64.554)">
              <path id="Trazado_622458" data-name="Trazado 622458" d="M1502.257,1347.326a2.106,2.106,0,1,1,1.641-3.414h0a2.106,2.106,0,0,1,.447,1.571,2.058,2.058,0,0,1-.784,1.388A2.083,2.083,0,0,1,1502.257,1347.326Zm-.012-3.052a.947.947,0,0,0-.585.2.966.966,0,0,0-.153,1.337.945.945,0,0,0,1.335.145.9.9,0,0,0,.35-.614.96.96,0,0,0-.2-.713h0A.951.951,0,0,0,1502.246,1344.274Z" transform="translate(-1500.143 -1343.115)" fill="#2d2d2a"/>
            </g>
            <g id="Grupo_881177" data-name="Grupo 881177" transform="translate(22.242 6.706)">
              <path id="Trazado_622459" data-name="Trazado 622459" d="M1496.818,1306.864a.58.58,0,0,1-.58-.58v-12.438a.58.58,0,1,1,1.16,0v12.438A.579.579,0,0,1,1496.818,1306.864Z" transform="translate(-1496.238 -1293.266)" fill="#2d2d2a"/>
            </g>
            <g id="Grupo_881178" data-name="Grupo 881178" transform="translate(28.953 25.853)">
              <path id="Trazado_622460" data-name="Trazado 622460" d="M1535.091,1310.925H1502.6a.58.58,0,1,1,0-1.16h32.489a.58.58,0,1,1,0,1.16Z" transform="translate(-1502.021 -1309.765)" fill="#2d2d2a"/>
            </g>
            <g id="Grupo_881179" data-name="Grupo 881179" transform="translate(68.149 6.706)">
              <path id="Trazado_622461" data-name="Trazado 622461" d="M1536.377,1306.864a.58.58,0,0,1-.58-.58v-12.438a.58.58,0,1,1,1.16,0v12.438A.58.58,0,0,1,1536.377,1306.864Z" transform="translate(-1535.797 -1293.266)" fill="#2d2d2a"/>
            </g>
            <g id="Grupo_881180" data-name="Grupo 881180" transform="translate(28.953)">
              <path id="Trazado_622462" data-name="Trazado 622462" d="M1535.091,1288.647H1502.6a.58.58,0,1,1,0-1.161h32.489a.58.58,0,1,1,0,1.161Z" transform="translate(-1502.021 -1287.487)" fill="#2d2d2a"/>
            </g>
            <g id="Grupo_881181" data-name="Grupo 881181" transform="translate(61.443)">
              <path id="Trazado_622463" data-name="Trazado 622463" d="M1537.3,1295.354a7.294,7.294,0,0,1-7.286-7.286.58.58,0,0,1,.58-.58h6.706a.58.58,0,0,1,.58.58v6.706A.58.58,0,0,1,1537.3,1295.354Zm-6.1-6.706a6.136,6.136,0,0,0,5.519,5.518v-5.518Z" transform="translate(-1530.018 -1287.487)" fill="#2d2d2a"/>
            </g>
            <g id="Grupo_881182" data-name="Grupo 881182" transform="translate(22.242)">
              <path id="Trazado_622464" data-name="Trazado 622464" d="M1496.818,1295.354a.58.58,0,0,1-.58-.58v-6.706a.58.58,0,0,1,.58-.58h6.711a.581.581,0,0,1,.58.58A7.3,7.3,0,0,1,1496.818,1295.354Zm.58-6.706v5.518a6.137,6.137,0,0,0,5.522-5.518Z" transform="translate(-1496.238 -1287.487)" fill="#2d2d2a"/>
            </g>
            <g id="Grupo_881183" data-name="Grupo 881183" transform="translate(22.242 19.144)">
              <path id="Trazado_622465" data-name="Trazado 622465" d="M1503.529,1311.853h-6.608a.678.678,0,0,1-.683-.58v-6.708a.58.58,0,0,1,.58-.58,7.3,7.3,0,0,1,7.291,7.289A.581.581,0,0,1,1503.529,1311.853Zm-6.131-1.16h5.522a6.138,6.138,0,0,0-5.522-5.521Z" transform="translate(-1496.238 -1303.984)" fill="#2d2d2a"/>
            </g>
            <g id="Grupo_881184" data-name="Grupo 881184" transform="translate(61.443 19.144)">
              <path id="Trazado_622466" data-name="Trazado 622466" d="M1537.3,1311.853H1530.6a.58.58,0,0,1-.58-.58,7.3,7.3,0,0,1,7.286-7.289.58.58,0,0,1,.58.58v6.708A.58.58,0,0,1,1537.3,1311.853Zm-6.1-1.16h5.519v-5.521A6.137,6.137,0,0,0,1531.205,1310.693Z" transform="translate(-1530.018 -1303.984)" fill="#2d2d2a"/>
            </g>
            <g id="Grupo_881185" data-name="Grupo 881185" transform="translate(37.526 5.257)">
              <path id="Trazado_622467" data-name="Trazado 622467" d="M1517.659,1308.527a8.255,8.255,0,1,1,8.263-8.26A8.265,8.265,0,0,1,1517.659,1308.527Zm0-15.349a7.094,7.094,0,1,0,7.1,7.089A7.1,7.1,0,0,0,1517.659,1293.177Z" transform="translate(-1509.408 -1292.017)" fill="#2d2d2a"/>
            </g>
          </g>
        </g>
      </g>
    </g>
  </g>
</svg>
